ISO-10303-21;
HEADER;
/* Generated by software containing ST-Developer
 * from STEP Tools, Inc. (www.steptools.com) 
 */

FILE_DESCRIPTION(
/* description */ (''),
/* implementation_level */ '2;1');

FILE_NAME(
/* name */ 'P08_native_assembly_coords.step',
/* time_stamp */ '2026-09-19T22:37:23+08:00',
/* author */ (''),
/* organization */ (''),
/* preprocessor_version */ 'ST-DEVELOPER v20.1',
/* originating_system */ 'Autodesk Translation Framework v15.8.0.0',
/* authorisation */ '');

FILE_SCHEMA (('AUTOMOTIVE_DESIGN { 1 0 10303 214 3 1 1 }'));
ENDSEC;

DATA;
#10=MECHANICAL_DESIGN_GEOMETRIC_PRESENTATION_REPRESENTATION('',(#13),#693);
#11=SHAPE_REPRESENTATION_RELATIONSHIP('SRR','None',#700,#12);
#12=ADVANCED_BREP_SHAPE_REPRESENTATION('',(#14),#692);
#13=STYLED_ITEM('',(#710),#14);
#14=MANIFOLD_SOLID_BREP('\X2\5B9E4F53\X0\1',#417);
#15=FACE_BOUND('',#69,.T.);
#16=FACE_BOUND('',#72,.T.);
#17=FACE_BOUND('',#80,.T.);
#18=FACE_BOUND('',#81,.T.);
#19=FACE_BOUND('',#82,.T.);
#20=FACE_BOUND('',#83,.T.);
#21=FACE_BOUND('',#87,.T.);
#22=FACE_BOUND('',#88,.T.);
#23=FACE_BOUND('',#89,.T.);
#24=FACE_BOUND('',#90,.T.);
#25=PLANE('',#446);
#26=PLANE('',#450);
#27=PLANE('',#451);
#28=PLANE('',#452);
#29=PLANE('',#453);
#30=PLANE('',#454);
#31=PLANE('',#455);
#32=PLANE('',#456);
#33=PLANE('',#457);
#34=PLANE('',#458);
#35=PLANE('',#459);
#36=PLANE('',#460);
#37=PLANE('',#461);
#38=PLANE('',#462);
#39=PLANE('',#463);
#40=PLANE('',#464);
#41=FACE_OUTER_BOUND('',#63,.T.);
#42=FACE_OUTER_BOUND('',#64,.T.);
#43=FACE_OUTER_BOUND('',#65,.T.);
#44=FACE_OUTER_BOUND('',#66,.T.);
#45=FACE_OUTER_BOUND('',#67,.T.);
#46=FACE_OUTER_BOUND('',#68,.T.);
#47=FACE_OUTER_BOUND('',#70,.T.);
#48=FACE_OUTER_BOUND('',#71,.T.);
#49=FACE_OUTER_BOUND('',#73,.T.);
#50=FACE_OUTER_BOUND('',#74,.T.);
#51=FACE_OUTER_BOUND('',#75,.T.);
#52=FACE_OUTER_BOUND('',#76,.T.);
#53=FACE_OUTER_BOUND('',#77,.T.);
#54=FACE_OUTER_BOUND('',#78,.T.);
#55=FACE_OUTER_BOUND('',#79,.T.);
#56=FACE_OUTER_BOUND('',#84,.T.);
#57=FACE_OUTER_BOUND('',#85,.T.);
#58=FACE_OUTER_BOUND('',#86,.T.);
#59=FACE_OUTER_BOUND('',#91,.T.);
#60=FACE_OUTER_BOUND('',#92,.T.);
#61=FACE_OUTER_BOUND('',#93,.T.);
#62=FACE_OUTER_BOUND('',#94,.T.);
#63=EDGE_LOOP('',(#281,#282,#283,#284));
#64=EDGE_LOOP('',(#285,#286,#287,#288));
#65=EDGE_LOOP('',(#289,#290,#291,#292));
#66=EDGE_LOOP('',(#293,#294,#295,#296));
#67=EDGE_LOOP('',(#297,#298,#299,#300));
#68=EDGE_LOOP('',(#301));
#69=EDGE_LOOP('',(#302));
#70=EDGE_LOOP('',(#303,#304,#305,#306));
#71=EDGE_LOOP('',(#307));
#72=EDGE_LOOP('',(#308));
#73=EDGE_LOOP('',(#309,#310,#311,#312));
#74=EDGE_LOOP('',(#313,#314,#315,#316));
#75=EDGE_LOOP('',(#317,#318,#319,#320));
#76=EDGE_LOOP('',(#321,#322,#323,#324));
#77=EDGE_LOOP('',(#325,#326,#327,#328));
#78=EDGE_LOOP('',(#329,#330,#331,#332));
#79=EDGE_LOOP('',(#333,#334,#335,#336,#337,#338,#339,#340,#341,#342,#343,
#344));
#80=EDGE_LOOP('',(#345));
#81=EDGE_LOOP('',(#346));
#82=EDGE_LOOP('',(#347));
#83=EDGE_LOOP('',(#348));
#84=EDGE_LOOP('',(#349,#350,#351,#352));
#85=EDGE_LOOP('',(#353,#354,#355,#356));
#86=EDGE_LOOP('',(#357,#358,#359,#360,#361,#362,#363,#364,#365,#366,#367,
#368));
#87=EDGE_LOOP('',(#369));
#88=EDGE_LOOP('',(#370));
#89=EDGE_LOOP('',(#371));
#90=EDGE_LOOP('',(#372));
#91=EDGE_LOOP('',(#373,#374,#375,#376));
#92=EDGE_LOOP('',(#377,#378,#379,#380));
#93=EDGE_LOOP('',(#381,#382,#383,#384));
#94=EDGE_LOOP('',(#385,#386,#387,#388));
#95=LINE('',#582,#137);
#96=LINE('',#588,#138);
#97=LINE('',#594,#139);
#98=LINE('',#600,#140);
#99=LINE('',#606,#141);
#100=LINE('',#613,#142);
#101=LINE('',#619,#143);
#102=LINE('',#621,#144);
#103=LINE('',#623,#145);
#104=LINE('',#624,#146);
#105=LINE('',#627,#147);
#106=LINE('',#629,#148);
#107=LINE('',#630,#149);
#108=LINE('',#633,#150);
#109=LINE('',#635,#151);
#110=LINE('',#636,#152);
#111=LINE('',#639,#153);
#112=LINE('',#641,#154);
#113=LINE('',#642,#155);
#114=LINE('',#646,#156);
#115=LINE('',#647,#157);
#116=LINE('',#648,#158);
#117=LINE('',#651,#159);
#118=LINE('',#653,#160);
#119=LINE('',#654,#161);
#120=LINE('',#657,#162);
#121=LINE('',#659,#163);
#122=LINE('',#661,#164);
#123=LINE('',#663,#165);
#124=LINE('',#665,#166);
#125=LINE('',#666,#167);
#126=LINE('',#669,#168);
#127=LINE('',#670,#169);
#128=LINE('',#673,#170);
#129=LINE('',#674,#171);
#130=LINE('',#677,#172);
#131=LINE('',#679,#173);
#132=LINE('',#681,#174);
#133=LINE('',#682,#175);
#134=LINE('',#684,#176);
#135=LINE('',#686,#177);
#136=LINE('',#688,#178);
#137=VECTOR('',#471,0.225);
#138=VECTOR('',#478,0.225);
#139=VECTOR('',#485,0.18);
#140=VECTOR('',#492,0.18);
#141=VECTOR('',#499,0.5);
#142=VECTOR('',#508,0.5);
#143=VECTOR('',#515,1.);
#144=VECTOR('',#516,1.);
#145=VECTOR('',#517,1.);
#146=VECTOR('',#518,1.);
#147=VECTOR('',#521,1.);
#148=VECTOR('',#522,1.);
#149=VECTOR('',#523,1.);
#150=VECTOR('',#526,1.);
#151=VECTOR('',#527,1.);
#152=VECTOR('',#528,1.);
#153=VECTOR('',#531,1.);
#154=VECTOR('',#532,1.);
#155=VECTOR('',#533,1.);
#156=VECTOR('',#536,1.);
#157=VECTOR('',#537,1.);
#158=VECTOR('',#538,1.);
#159=VECTOR('',#541,1.);
#160=VECTOR('',#542,1.);
#161=VECTOR('',#543,1.);
#162=VECTOR('',#546,1.);
#163=VECTOR('',#547,1.);
#164=VECTOR('',#548,1.);
#165=VECTOR('',#549,1.);
#166=VECTOR('',#550,1.);
#167=VECTOR('',#551,1.);
#168=VECTOR('',#554,1.);
#169=VECTOR('',#555,1.);
#170=VECTOR('',#558,1.);
#171=VECTOR('',#559,1.);
#172=VECTOR('',#562,1.);
#173=VECTOR('',#563,1.);
#174=VECTOR('',#564,1.);
#175=VECTOR('',#565,1.);
#176=VECTOR('',#568,1.);
#177=VECTOR('',#571,1.);
#178=VECTOR('',#574,1.);
#179=CIRCLE('',#432,0.225);
#180=CIRCLE('',#433,0.225);
#181=CIRCLE('',#435,0.225);
#182=CIRCLE('',#436,0.225);
#183=CIRCLE('',#438,0.18);
#184=CIRCLE('',#439,0.18);
#185=CIRCLE('',#441,0.18);
#186=CIRCLE('',#442,0.18);
#187=CIRCLE('',#444,0.5);
#188=CIRCLE('',#445,0.5);
#189=CIRCLE('',#448,0.5);
#190=CIRCLE('',#449,0.5);
#191=VERTEX_POINT('',#579);
#192=VERTEX_POINT('',#581);
#193=VERTEX_POINT('',#585);
#194=VERTEX_POINT('',#587);
#195=VERTEX_POINT('',#591);
#196=VERTEX_POINT('',#593);
#197=VERTEX_POINT('',#597);
#198=VERTEX_POINT('',#599);
#199=VERTEX_POINT('',#603);
#200=VERTEX_POINT('',#605);
#201=VERTEX_POINT('',#610);
#202=VERTEX_POINT('',#612);
#203=VERTEX_POINT('',#617);
#204=VERTEX_POINT('',#618);
#205=VERTEX_POINT('',#620);
#206=VERTEX_POINT('',#622);
#207=VERTEX_POINT('',#626);
#208=VERTEX_POINT('',#628);
#209=VERTEX_POINT('',#632);
#210=VERTEX_POINT('',#634);
#211=VERTEX_POINT('',#638);
#212=VERTEX_POINT('',#640);
#213=VERTEX_POINT('',#644);
#214=VERTEX_POINT('',#645);
#215=VERTEX_POINT('',#650);
#216=VERTEX_POINT('',#652);
#217=VERTEX_POINT('',#656);
#218=VERTEX_POINT('',#658);
#219=VERTEX_POINT('',#660);
#220=VERTEX_POINT('',#662);
#221=VERTEX_POINT('',#664);
#222=VERTEX_POINT('',#668);
#223=VERTEX_POINT('',#672);
#224=VERTEX_POINT('',#676);
#225=VERTEX_POINT('',#678);
#226=VERTEX_POINT('',#680);
#227=EDGE_CURVE('',#191,#191,#179,.T.);
#228=EDGE_CURVE('',#191,#192,#95,.T.);
#229=EDGE_CURVE('',#192,#192,#180,.T.);
#230=EDGE_CURVE('',#193,#193,#181,.T.);
#231=EDGE_CURVE('',#193,#194,#96,.T.);
#232=EDGE_CURVE('',#194,#194,#182,.T.);
#233=EDGE_CURVE('',#195,#195,#183,.T.);
#234=EDGE_CURVE('',#195,#196,#97,.T.);
#235=EDGE_CURVE('',#196,#196,#184,.T.);
#236=EDGE_CURVE('',#197,#197,#185,.T.);
#237=EDGE_CURVE('',#197,#198,#98,.T.);
#238=EDGE_CURVE('',#198,#198,#186,.T.);
#239=EDGE_CURVE('',#199,#199,#187,.T.);
#240=EDGE_CURVE('',#199,#200,#99,.T.);
#241=EDGE_CURVE('',#200,#200,#188,.T.);
#242=EDGE_CURVE('',#201,#201,#189,.T.);
#243=EDGE_CURVE('',#201,#202,#100,.T.);
#244=EDGE_CURVE('',#202,#202,#190,.T.);
#245=EDGE_CURVE('',#203,#204,#101,.T.);
#246=EDGE_CURVE('',#205,#203,#102,.T.);
#247=EDGE_CURVE('',#206,#205,#103,.T.);
#248=EDGE_CURVE('',#206,#204,#104,.T.);
#249=EDGE_CURVE('',#207,#206,#105,.T.);
#250=EDGE_CURVE('',#208,#205,#106,.T.);
#251=EDGE_CURVE('',#207,#208,#107,.T.);
#252=EDGE_CURVE('',#209,#207,#108,.T.);
#253=EDGE_CURVE('',#210,#208,#109,.T.);
#254=EDGE_CURVE('',#209,#210,#110,.T.);
#255=EDGE_CURVE('',#211,#209,#111,.T.);
#256=EDGE_CURVE('',#212,#210,#112,.T.);
#257=EDGE_CURVE('',#211,#212,#113,.T.);
#258=EDGE_CURVE('',#213,#214,#114,.T.);
#259=EDGE_CURVE('',#213,#211,#115,.T.);
#260=EDGE_CURVE('',#214,#212,#116,.T.);
#261=EDGE_CURVE('',#215,#214,#117,.T.);
#262=EDGE_CURVE('',#216,#215,#118,.T.);
#263=EDGE_CURVE('',#216,#213,#119,.T.);
#264=EDGE_CURVE('',#203,#217,#120,.T.);
#265=EDGE_CURVE('',#217,#218,#121,.T.);
#266=EDGE_CURVE('',#218,#219,#122,.T.);
#267=EDGE_CURVE('',#219,#220,#123,.T.);
#268=EDGE_CURVE('',#220,#221,#124,.T.);
#269=EDGE_CURVE('',#221,#215,#125,.T.);
#270=EDGE_CURVE('',#204,#222,#126,.T.);
#271=EDGE_CURVE('',#217,#222,#127,.T.);
#272=EDGE_CURVE('',#222,#223,#128,.T.);
#273=EDGE_CURVE('',#223,#218,#129,.T.);
#274=EDGE_CURVE('',#224,#216,#130,.T.);
#275=EDGE_CURVE('',#225,#224,#131,.T.);
#276=EDGE_CURVE('',#226,#225,#132,.T.);
#277=EDGE_CURVE('',#223,#226,#133,.T.);
#278=EDGE_CURVE('',#224,#221,#134,.T.);
#279=EDGE_CURVE('',#226,#219,#135,.T.);
#280=EDGE_CURVE('',#225,#220,#136,.T.);
#281=ORIENTED_EDGE('',*,*,#227,.F.);
#282=ORIENTED_EDGE('',*,*,#228,.T.);
#283=ORIENTED_EDGE('',*,*,#229,.F.);
#284=ORIENTED_EDGE('',*,*,#228,.F.);
#285=ORIENTED_EDGE('',*,*,#230,.F.);
#286=ORIENTED_EDGE('',*,*,#231,.T.);
#287=ORIENTED_EDGE('',*,*,#232,.F.);
#288=ORIENTED_EDGE('',*,*,#231,.F.);
#289=ORIENTED_EDGE('',*,*,#233,.F.);
#290=ORIENTED_EDGE('',*,*,#234,.T.);
#291=ORIENTED_EDGE('',*,*,#235,.F.);
#292=ORIENTED_EDGE('',*,*,#234,.F.);
#293=ORIENTED_EDGE('',*,*,#236,.F.);
#294=ORIENTED_EDGE('',*,*,#237,.T.);
#295=ORIENTED_EDGE('',*,*,#238,.F.);
#296=ORIENTED_EDGE('',*,*,#237,.F.);
#297=ORIENTED_EDGE('',*,*,#239,.F.);
#298=ORIENTED_EDGE('',*,*,#240,.T.);
#299=ORIENTED_EDGE('',*,*,#241,.T.);
#300=ORIENTED_EDGE('',*,*,#240,.F.);
#301=ORIENTED_EDGE('',*,*,#241,.F.);
#302=ORIENTED_EDGE('',*,*,#233,.T.);
#303=ORIENTED_EDGE('',*,*,#242,.F.);
#304=ORIENTED_EDGE('',*,*,#243,.T.);
#305=ORIENTED_EDGE('',*,*,#244,.T.);
#306=ORIENTED_EDGE('',*,*,#243,.F.);
#307=ORIENTED_EDGE('',*,*,#244,.F.);
#308=ORIENTED_EDGE('',*,*,#236,.T.);
#309=ORIENTED_EDGE('',*,*,#245,.F.);
#310=ORIENTED_EDGE('',*,*,#246,.F.);
#311=ORIENTED_EDGE('',*,*,#247,.F.);
#312=ORIENTED_EDGE('',*,*,#248,.T.);
#313=ORIENTED_EDGE('',*,*,#249,.T.);
#314=ORIENTED_EDGE('',*,*,#247,.T.);
#315=ORIENTED_EDGE('',*,*,#250,.F.);
#316=ORIENTED_EDGE('',*,*,#251,.F.);
#317=ORIENTED_EDGE('',*,*,#252,.T.);
#318=ORIENTED_EDGE('',*,*,#251,.T.);
#319=ORIENTED_EDGE('',*,*,#253,.F.);
#320=ORIENTED_EDGE('',*,*,#254,.F.);
#321=ORIENTED_EDGE('',*,*,#255,.T.);
#322=ORIENTED_EDGE('',*,*,#254,.T.);
#323=ORIENTED_EDGE('',*,*,#256,.F.);
#324=ORIENTED_EDGE('',*,*,#257,.F.);
#325=ORIENTED_EDGE('',*,*,#258,.F.);
#326=ORIENTED_EDGE('',*,*,#259,.T.);
#327=ORIENTED_EDGE('',*,*,#257,.T.);
#328=ORIENTED_EDGE('',*,*,#260,.F.);
#329=ORIENTED_EDGE('',*,*,#258,.T.);
#330=ORIENTED_EDGE('',*,*,#261,.F.);
#331=ORIENTED_EDGE('',*,*,#262,.F.);
#332=ORIENTED_EDGE('',*,*,#263,.T.);
#333=ORIENTED_EDGE('',*,*,#260,.T.);
#334=ORIENTED_EDGE('',*,*,#256,.T.);
#335=ORIENTED_EDGE('',*,*,#253,.T.);
#336=ORIENTED_EDGE('',*,*,#250,.T.);
#337=ORIENTED_EDGE('',*,*,#246,.T.);
#338=ORIENTED_EDGE('',*,*,#264,.T.);
#339=ORIENTED_EDGE('',*,*,#265,.T.);
#340=ORIENTED_EDGE('',*,*,#266,.T.);
#341=ORIENTED_EDGE('',*,*,#267,.T.);
#342=ORIENTED_EDGE('',*,*,#268,.T.);
#343=ORIENTED_EDGE('',*,*,#269,.T.);
#344=ORIENTED_EDGE('',*,*,#261,.T.);
#345=ORIENTED_EDGE('',*,*,#229,.T.);
#346=ORIENTED_EDGE('',*,*,#232,.T.);
#347=ORIENTED_EDGE('',*,*,#235,.T.);
#348=ORIENTED_EDGE('',*,*,#238,.T.);
#349=ORIENTED_EDGE('',*,*,#245,.T.);
#350=ORIENTED_EDGE('',*,*,#270,.T.);
#351=ORIENTED_EDGE('',*,*,#271,.F.);
#352=ORIENTED_EDGE('',*,*,#264,.F.);
#353=ORIENTED_EDGE('',*,*,#271,.T.);
#354=ORIENTED_EDGE('',*,*,#272,.T.);
#355=ORIENTED_EDGE('',*,*,#273,.T.);
#356=ORIENTED_EDGE('',*,*,#265,.F.);
#357=ORIENTED_EDGE('',*,*,#263,.F.);
#358=ORIENTED_EDGE('',*,*,#274,.F.);
#359=ORIENTED_EDGE('',*,*,#275,.F.);
#360=ORIENTED_EDGE('',*,*,#276,.F.);
#361=ORIENTED_EDGE('',*,*,#277,.F.);
#362=ORIENTED_EDGE('',*,*,#272,.F.);
#363=ORIENTED_EDGE('',*,*,#270,.F.);
#364=ORIENTED_EDGE('',*,*,#248,.F.);
#365=ORIENTED_EDGE('',*,*,#249,.F.);
#366=ORIENTED_EDGE('',*,*,#252,.F.);
#367=ORIENTED_EDGE('',*,*,#255,.F.);
#368=ORIENTED_EDGE('',*,*,#259,.F.);
#369=ORIENTED_EDGE('',*,*,#227,.T.);
#370=ORIENTED_EDGE('',*,*,#230,.T.);
#371=ORIENTED_EDGE('',*,*,#239,.T.);
#372=ORIENTED_EDGE('',*,*,#242,.T.);
#373=ORIENTED_EDGE('',*,*,#269,.F.);
#374=ORIENTED_EDGE('',*,*,#278,.F.);
#375=ORIENTED_EDGE('',*,*,#274,.T.);
#376=ORIENTED_EDGE('',*,*,#262,.T.);
#377=ORIENTED_EDGE('',*,*,#277,.T.);
#378=ORIENTED_EDGE('',*,*,#279,.T.);
#379=ORIENTED_EDGE('',*,*,#266,.F.);
#380=ORIENTED_EDGE('',*,*,#273,.F.);
#381=ORIENTED_EDGE('',*,*,#278,.T.);
#382=ORIENTED_EDGE('',*,*,#268,.F.);
#383=ORIENTED_EDGE('',*,*,#280,.F.);
#384=ORIENTED_EDGE('',*,*,#275,.T.);
#385=ORIENTED_EDGE('',*,*,#276,.T.);
#386=ORIENTED_EDGE('',*,*,#280,.T.);
#387=ORIENTED_EDGE('',*,*,#267,.F.);
#388=ORIENTED_EDGE('',*,*,#279,.F.);
#389=CYLINDRICAL_SURFACE('',#431,0.225);
#390=CYLINDRICAL_SURFACE('',#434,0.225);
#391=CYLINDRICAL_SURFACE('',#437,0.18);
#392=CYLINDRICAL_SURFACE('',#440,0.18);
#393=CYLINDRICAL_SURFACE('',#443,0.5);
#394=CYLINDRICAL_SURFACE('',#447,0.5);
#395=ADVANCED_FACE('',(#41),#389,.F.);
#396=ADVANCED_FACE('',(#42),#390,.F.);
#397=ADVANCED_FACE('',(#43),#391,.F.);
#398=ADVANCED_FACE('',(#44),#392,.F.);
#399=ADVANCED_FACE('',(#45),#393,.T.);
#400=ADVANCED_FACE('',(#46,#15),#25,.F.);
#401=ADVANCED_FACE('',(#47),#394,.T.);
#402=ADVANCED_FACE('',(#48,#16),#26,.F.);
#403=ADVANCED_FACE('',(#49),#27,.T.);
#404=ADVANCED_FACE('',(#50),#28,.T.);
#405=ADVANCED_FACE('',(#51),#29,.T.);
#406=ADVANCED_FACE('',(#52),#30,.T.);
#407=ADVANCED_FACE('',(#53),#31,.T.);
#408=ADVANCED_FACE('',(#54),#32,.T.);
#409=ADVANCED_FACE('',(#55,#17,#18,#19,#20),#33,.T.);
#410=ADVANCED_FACE('',(#56),#34,.T.);
#411=ADVANCED_FACE('',(#57),#35,.T.);
#412=ADVANCED_FACE('',(#58,#21,#22,#23,#24),#36,.F.);
#413=ADVANCED_FACE('',(#59),#37,.T.);
#414=ADVANCED_FACE('',(#60),#38,.T.);
#415=ADVANCED_FACE('',(#61),#39,.T.);
#416=ADVANCED_FACE('',(#62),#40,.T.);
#417=CLOSED_SHELL('',(#395,#396,#397,#398,#399,#400,#401,#402,#403,#404,
#405,#406,#407,#408,#409,#410,#411,#412,#413,#414,#415,#416));
#418=DERIVED_UNIT_ELEMENT(#420,1.);
#419=DERIVED_UNIT_ELEMENT(#695,-3.);
#420=(
MASS_UNIT()
NAMED_UNIT(*)
SI_UNIT(.KILO.,.GRAM.)
);
#421=DERIVED_UNIT((#418,#419));
#422=MEASURE_REPRESENTATION_ITEM('density measure',
POSITIVE_RATIO_MEASURE(7850.),#421);
#423=PROPERTY_DEFINITION_REPRESENTATION(#428,#425);
#424=PROPERTY_DEFINITION_REPRESENTATION(#429,#426);
#425=REPRESENTATION('material name',(#427),#692);
#426=REPRESENTATION('density',(#422),#692);
#427=DESCRIPTIVE_REPRESENTATION_ITEM('\X2\94A2\X0\','\X2\94A2\X0\');
#428=PROPERTY_DEFINITION('material property','material name',#702);
#429=PROPERTY_DEFINITION('material property','density of part',#702);
#430=AXIS2_PLACEMENT_3D('',#577,#465,#466);
#431=AXIS2_PLACEMENT_3D('',#578,#467,#468);
#432=AXIS2_PLACEMENT_3D('',#580,#469,#470);
#433=AXIS2_PLACEMENT_3D('',#583,#472,#473);
#434=AXIS2_PLACEMENT_3D('',#584,#474,#475);
#435=AXIS2_PLACEMENT_3D('',#586,#476,#477);
#436=AXIS2_PLACEMENT_3D('',#589,#479,#480);
#437=AXIS2_PLACEMENT_3D('',#590,#481,#482);
#438=AXIS2_PLACEMENT_3D('',#592,#483,#484);
#439=AXIS2_PLACEMENT_3D('',#595,#486,#487);
#440=AXIS2_PLACEMENT_3D('',#596,#488,#489);
#441=AXIS2_PLACEMENT_3D('',#598,#490,#491);
#442=AXIS2_PLACEMENT_3D('',#601,#493,#494);
#443=AXIS2_PLACEMENT_3D('',#602,#495,#496);
#444=AXIS2_PLACEMENT_3D('',#604,#497,#498);
#445=AXIS2_PLACEMENT_3D('',#607,#500,#501);
#446=AXIS2_PLACEMENT_3D('',#608,#502,#503);
#447=AXIS2_PLACEMENT_3D('',#609,#504,#505);
#448=AXIS2_PLACEMENT_3D('',#611,#506,#507);
#449=AXIS2_PLACEMENT_3D('',#614,#509,#510);
#450=AXIS2_PLACEMENT_3D('',#615,#511,#512);
#451=AXIS2_PLACEMENT_3D('',#616,#513,#514);
#452=AXIS2_PLACEMENT_3D('',#625,#519,#520);
#453=AXIS2_PLACEMENT_3D('',#631,#524,#525);
#454=AXIS2_PLACEMENT_3D('',#637,#529,#530);
#455=AXIS2_PLACEMENT_3D('',#643,#534,#535);
#456=AXIS2_PLACEMENT_3D('',#649,#539,#540);
#457=AXIS2_PLACEMENT_3D('',#655,#544,#545);
#458=AXIS2_PLACEMENT_3D('',#667,#552,#553);
#459=AXIS2_PLACEMENT_3D('',#671,#556,#557);
#460=AXIS2_PLACEMENT_3D('',#675,#560,#561);
#461=AXIS2_PLACEMENT_3D('',#683,#566,#567);
#462=AXIS2_PLACEMENT_3D('',#685,#569,#570);
#463=AXIS2_PLACEMENT_3D('',#687,#572,#573);
#464=AXIS2_PLACEMENT_3D('',#689,#575,#576);
#465=DIRECTION('axis',(0.,0.,1.));
#466=DIRECTION('refdir',(1.,0.,0.));
#467=DIRECTION('center_axis',(0.,0.,1.));
#468=DIRECTION('ref_axis',(1.,0.,0.));
#469=DIRECTION('center_axis',(0.,0.,1.));
#470=DIRECTION('ref_axis',(1.,0.,0.));
#471=DIRECTION('',(0.,0.,1.));
#472=DIRECTION('center_axis',(0.,0.,-1.));
#473=DIRECTION('ref_axis',(1.,0.,0.));
#474=DIRECTION('center_axis',(0.,0.,1.));
#475=DIRECTION('ref_axis',(1.,0.,0.));
#476=DIRECTION('center_axis',(0.,0.,1.));
#477=DIRECTION('ref_axis',(1.,0.,0.));
#478=DIRECTION('',(0.,0.,1.));
#479=DIRECTION('center_axis',(0.,0.,-1.));
#480=DIRECTION('ref_axis',(1.,0.,0.));
#481=DIRECTION('center_axis',(0.,0.,1.));
#482=DIRECTION('ref_axis',(1.,0.,0.));
#483=DIRECTION('center_axis',(0.,0.,1.));
#484=DIRECTION('ref_axis',(1.,0.,0.));
#485=DIRECTION('',(0.,0.,1.));
#486=DIRECTION('center_axis',(0.,0.,-1.));
#487=DIRECTION('ref_axis',(1.,0.,0.));
#488=DIRECTION('center_axis',(0.,0.,1.));
#489=DIRECTION('ref_axis',(1.,0.,0.));
#490=DIRECTION('center_axis',(0.,0.,1.));
#491=DIRECTION('ref_axis',(1.,0.,0.));
#492=DIRECTION('',(0.,0.,1.));
#493=DIRECTION('center_axis',(0.,0.,-1.));
#494=DIRECTION('ref_axis',(1.,0.,0.));
#495=DIRECTION('center_axis',(0.,0.,1.));
#496=DIRECTION('ref_axis',(1.,0.,0.));
#497=DIRECTION('center_axis',(0.,0.,1.));
#498=DIRECTION('ref_axis',(1.,0.,0.));
#499=DIRECTION('',(0.,0.,-1.));
#500=DIRECTION('center_axis',(0.,0.,1.));
#501=DIRECTION('ref_axis',(1.,0.,0.));
#502=DIRECTION('center_axis',(0.,0.,1.));
#503=DIRECTION('ref_axis',(1.,0.,0.));
#504=DIRECTION('center_axis',(0.,0.,1.));
#505=DIRECTION('ref_axis',(1.,0.,0.));
#506=DIRECTION('center_axis',(0.,0.,1.));
#507=DIRECTION('ref_axis',(1.,0.,0.));
#508=DIRECTION('',(0.,0.,-1.));
#509=DIRECTION('center_axis',(0.,0.,1.));
#510=DIRECTION('ref_axis',(1.,0.,0.));
#511=DIRECTION('center_axis',(0.,0.,1.));
#512=DIRECTION('ref_axis',(1.,0.,0.));
#513=DIRECTION('center_axis',(-1.,0.,0.));
#514=DIRECTION('ref_axis',(0.,-1.,0.));
#515=DIRECTION('',(0.,0.,-1.));
#516=DIRECTION('',(0.,-1.,0.));
#517=DIRECTION('',(0.,0.,1.));
#518=DIRECTION('',(0.,-1.,0.));
#519=DIRECTION('center_axis',(0.,1.,0.));
#520=DIRECTION('ref_axis',(-1.,0.,0.));
#521=DIRECTION('',(-1.,0.,0.));
#522=DIRECTION('',(-1.,0.,0.));
#523=DIRECTION('',(0.,0.,1.));
#524=DIRECTION('center_axis',(1.,0.,0.));
#525=DIRECTION('ref_axis',(0.,1.,0.));
#526=DIRECTION('',(0.,1.,0.));
#527=DIRECTION('',(0.,1.,0.));
#528=DIRECTION('',(0.,0.,1.));
#529=DIRECTION('center_axis',(0.,-1.,0.));
#530=DIRECTION('ref_axis',(1.,0.,0.));
#531=DIRECTION('',(1.,0.,0.));
#532=DIRECTION('',(1.,0.,0.));
#533=DIRECTION('',(0.,0.,1.));
#534=DIRECTION('center_axis',(-1.,0.,0.));
#535=DIRECTION('ref_axis',(0.,-1.,0.));
#536=DIRECTION('',(0.,0.,1.));
#537=DIRECTION('',(0.,-1.,0.));
#538=DIRECTION('',(0.,-1.,0.));
#539=DIRECTION('center_axis',(0.,-1.,0.));
#540=DIRECTION('ref_axis',(1.,0.,0.));
#541=DIRECTION('',(1.,0.,0.));
#542=DIRECTION('',(0.,0.,1.));
#543=DIRECTION('',(1.,0.,0.));
#544=DIRECTION('center_axis',(0.,0.,1.));
#545=DIRECTION('ref_axis',(1.,0.,0.));
#546=DIRECTION('',(-1.,0.,0.));
#547=DIRECTION('',(0.,1.,0.));
#548=DIRECTION('',(-1.,0.,0.));
#549=DIRECTION('',(0.,-1.,0.));
#550=DIRECTION('',(1.,0.,0.));
#551=DIRECTION('',(0.,-1.,0.));
#552=DIRECTION('center_axis',(0.,1.,0.));
#553=DIRECTION('ref_axis',(-1.,0.,0.));
#554=DIRECTION('',(-1.,0.,0.));
#555=DIRECTION('',(0.,0.,-1.));
#556=DIRECTION('center_axis',(1.,0.,0.));
#557=DIRECTION('ref_axis',(0.,1.,0.));
#558=DIRECTION('',(0.,1.,0.));
#559=DIRECTION('',(0.,0.,1.));
#560=DIRECTION('center_axis',(0.,0.,1.));
#561=DIRECTION('ref_axis',(1.,0.,0.));
#562=DIRECTION('',(0.,-1.,0.));
#563=DIRECTION('',(1.,0.,0.));
#564=DIRECTION('',(0.,-1.,0.));
#565=DIRECTION('',(-1.,0.,0.));
#566=DIRECTION('center_axis',(-1.,0.,0.));
#567=DIRECTION('ref_axis',(0.,-1.,0.));
#568=DIRECTION('',(0.,0.,1.));
#569=DIRECTION('center_axis',(0.,1.,0.));
#570=DIRECTION('ref_axis',(-1.,0.,0.));
#571=DIRECTION('',(0.,0.,1.));
#572=DIRECTION('center_axis',(0.,-1.,0.));
#573=DIRECTION('ref_axis',(1.,0.,0.));
#574=DIRECTION('',(0.,0.,1.));
#575=DIRECTION('center_axis',(-1.,0.,0.));
#576=DIRECTION('ref_axis',(0.,-1.,0.));
#577=CARTESIAN_POINT('',(0.,0.,0.));
#578=CARTESIAN_POINT('Origin',(12.,1.8,17.));
#579=CARTESIAN_POINT('',(11.775,1.8,17.));
#580=CARTESIAN_POINT('Origin',(12.,1.8,17.));
#581=CARTESIAN_POINT('',(11.775,1.8,17.6));
#582=CARTESIAN_POINT('',(11.775,1.8,17.));
#583=CARTESIAN_POINT('Origin',(12.,1.8,17.6));
#584=CARTESIAN_POINT('Origin',(12.,-1.8,17.));
#585=CARTESIAN_POINT('',(11.775,-1.8,17.));
#586=CARTESIAN_POINT('Origin',(12.,-1.8,17.));
#587=CARTESIAN_POINT('',(11.775,-1.8,17.6));
#588=CARTESIAN_POINT('',(11.775,-1.8,17.));
#589=CARTESIAN_POINT('Origin',(12.,-1.8,17.6));
#590=CARTESIAN_POINT('Origin',(0.,3.9,16.7));
#591=CARTESIAN_POINT('',(-0.18,3.9,16.7));
#592=CARTESIAN_POINT('Origin',(0.,3.9,16.7));
#593=CARTESIAN_POINT('',(-0.18,3.9,17.6));
#594=CARTESIAN_POINT('',(-0.18,3.9,16.7));
#595=CARTESIAN_POINT('Origin',(0.,3.9,17.6));
#596=CARTESIAN_POINT('Origin',(3.9,0.,16.7));
#597=CARTESIAN_POINT('',(3.72,-2.20436423846523E-17,16.7));
#598=CARTESIAN_POINT('Origin',(3.9,0.,16.7));
#599=CARTESIAN_POINT('',(3.72,-2.20436423846523E-17,17.6));
#600=CARTESIAN_POINT('',(3.72,-2.20436423846523E-17,16.7));
#601=CARTESIAN_POINT('Origin',(3.9,0.,17.6));
#602=CARTESIAN_POINT('Origin',(0.,3.9,16.7));
#603=CARTESIAN_POINT('',(-0.5,3.9,17.));
#604=CARTESIAN_POINT('Origin',(0.,3.9,17.));
#605=CARTESIAN_POINT('',(-0.5,3.9,16.7));
#606=CARTESIAN_POINT('',(-0.5,3.9,16.7));
#607=CARTESIAN_POINT('Origin',(0.,3.9,16.7));
#608=CARTESIAN_POINT('Origin',(0.,3.9,16.7));
#609=CARTESIAN_POINT('Origin',(3.9,0.,16.7));
#610=CARTESIAN_POINT('',(3.4,-6.12323399573677E-17,17.));
#611=CARTESIAN_POINT('Origin',(3.9,0.,17.));
#612=CARTESIAN_POINT('',(3.4,-6.12323399573677E-17,16.7));
#613=CARTESIAN_POINT('',(3.4,-6.12323399573677E-17,16.7));
#614=CARTESIAN_POINT('Origin',(3.9,0.,16.7));
#615=CARTESIAN_POINT('Origin',(3.9,0.,16.7));
#616=CARTESIAN_POINT('Origin',(11.,2.6,17.));
#617=CARTESIAN_POINT('',(11.,0.7,17.6));
#618=CARTESIAN_POINT('',(11.,0.7,17.));
#619=CARTESIAN_POINT('',(11.,0.7,17.));
#620=CARTESIAN_POINT('',(11.,2.6,17.6));
#621=CARTESIAN_POINT('',(11.,2.6,17.6));
#622=CARTESIAN_POINT('',(11.,2.6,17.));
#623=CARTESIAN_POINT('',(11.,2.6,17.));
#624=CARTESIAN_POINT('',(11.,2.6,17.));
#625=CARTESIAN_POINT('Origin',(13.,2.6,17.));
#626=CARTESIAN_POINT('',(13.,2.6,17.));
#627=CARTESIAN_POINT('',(13.,2.6,17.));
#628=CARTESIAN_POINT('',(13.,2.6,17.6));
#629=CARTESIAN_POINT('',(13.,2.6,17.6));
#630=CARTESIAN_POINT('',(13.,2.6,17.));
#631=CARTESIAN_POINT('Origin',(13.,-2.6,17.));
#632=CARTESIAN_POINT('',(13.,-2.6,17.));
#633=CARTESIAN_POINT('',(13.,-2.6,17.));
#634=CARTESIAN_POINT('',(13.,-2.6,17.6));
#635=CARTESIAN_POINT('',(13.,-2.6,17.6));
#636=CARTESIAN_POINT('',(13.,-2.6,17.));
#637=CARTESIAN_POINT('Origin',(11.,-2.6,17.));
#638=CARTESIAN_POINT('',(11.,-2.6,17.));
#639=CARTESIAN_POINT('',(11.,-2.6,17.));
#640=CARTESIAN_POINT('',(11.,-2.6,17.6));
#641=CARTESIAN_POINT('',(11.,-2.6,17.6));
#642=CARTESIAN_POINT('',(11.,-2.6,17.));
#643=CARTESIAN_POINT('Origin',(11.,2.6,17.));
#644=CARTESIAN_POINT('',(11.,-0.7,17.));
#645=CARTESIAN_POINT('',(11.,-0.7,17.6));
#646=CARTESIAN_POINT('',(11.,-0.7,17.));
#647=CARTESIAN_POINT('',(11.,2.6,17.));
#648=CARTESIAN_POINT('',(11.,2.6,17.6));
#649=CARTESIAN_POINT('Origin',(3.2,-0.7,17.));
#650=CARTESIAN_POINT('',(3.2,-0.7,17.6));
#651=CARTESIAN_POINT('',(3.2,-0.7,17.6));
#652=CARTESIAN_POINT('',(3.2,-0.7,17.));
#653=CARTESIAN_POINT('',(3.2,-0.7,17.));
#654=CARTESIAN_POINT('',(3.2,-0.7,17.));
#655=CARTESIAN_POINT('Origin',(1.95,3.9,17.6));
#656=CARTESIAN_POINT('',(4.6,0.7,17.6));
#657=CARTESIAN_POINT('',(12.,0.7,17.6));
#658=CARTESIAN_POINT('',(4.6,4.6,17.6));
#659=CARTESIAN_POINT('',(4.6,-0.7,17.6));
#660=CARTESIAN_POINT('',(-0.7,4.6,17.6));
#661=CARTESIAN_POINT('',(4.6,4.6,17.6));
#662=CARTESIAN_POINT('',(-0.7,3.2,17.6));
#663=CARTESIAN_POINT('',(-0.7,4.6,17.6));
#664=CARTESIAN_POINT('',(3.2,3.2,17.6));
#665=CARTESIAN_POINT('',(-0.7,3.2,17.6));
#666=CARTESIAN_POINT('',(3.2,4.6,17.6));
#667=CARTESIAN_POINT('Origin',(12.,0.7,17.));
#668=CARTESIAN_POINT('',(4.6,0.7,17.));
#669=CARTESIAN_POINT('',(12.,0.7,17.));
#670=CARTESIAN_POINT('',(4.6,0.7,17.));
#671=CARTESIAN_POINT('Origin',(4.6,3.2,17.));
#672=CARTESIAN_POINT('',(4.6,4.6,17.));
#673=CARTESIAN_POINT('',(4.6,-0.7,17.));
#674=CARTESIAN_POINT('',(4.6,4.6,17.));
#675=CARTESIAN_POINT('Origin',(1.95,3.9,17.));
#676=CARTESIAN_POINT('',(3.2,3.2,17.));
#677=CARTESIAN_POINT('',(3.2,4.6,17.));
#678=CARTESIAN_POINT('',(-0.7,3.2,17.));
#679=CARTESIAN_POINT('',(-0.7,3.2,17.));
#680=CARTESIAN_POINT('',(-0.7,4.6,17.));
#681=CARTESIAN_POINT('',(-0.7,4.6,17.));
#682=CARTESIAN_POINT('',(4.6,4.6,17.));
#683=CARTESIAN_POINT('Origin',(3.2,4.6,17.));
#684=CARTESIAN_POINT('',(3.2,3.2,17.));
#685=CARTESIAN_POINT('Origin',(4.6,4.6,17.));
#686=CARTESIAN_POINT('',(-0.7,4.6,17.));
#687=CARTESIAN_POINT('Origin',(-0.7,3.2,17.));
#688=CARTESIAN_POINT('',(-0.7,3.2,17.));
#689=CARTESIAN_POINT('Origin',(-0.7,4.6,17.));
#690=UNCERTAINTY_MEASURE_WITH_UNIT(LENGTH_MEASURE(0.001),#694,
'DISTANCE_ACCURACY_VALUE',
'Maximum model space distance between geometric entities at asserted c
onnectivities');
#691=UNCERTAINTY_MEASURE_WITH_UNIT(LENGTH_MEASURE(0.001),#694,
'DISTANCE_ACCURACY_VALUE',
'Maximum model space distance between geometric entities at asserted c
onnectivities');
#692=(
GEOMETRIC_REPRESENTATION_CONTEXT(3)
GLOBAL_UNCERTAINTY_ASSIGNED_CONTEXT((#690))
GLOBAL_UNIT_ASSIGNED_CONTEXT((#694,#696,#697))
REPRESENTATION_CONTEXT('','3D')
);
#693=(
GEOMETRIC_REPRESENTATION_CONTEXT(3)
GLOBAL_UNCERTAINTY_ASSIGNED_CONTEXT((#691))
GLOBAL_UNIT_ASSIGNED_CONTEXT((#694,#696,#697))
REPRESENTATION_CONTEXT('','3D')
);
#694=(
LENGTH_UNIT()
NAMED_UNIT(*)
SI_UNIT(.CENTI.,.METRE.)
);
#695=(
LENGTH_UNIT()
NAMED_UNIT(*)
SI_UNIT($,.METRE.)
);
#696=(
NAMED_UNIT(*)
PLANE_ANGLE_UNIT()
SI_UNIT($,.RADIAN.)
);
#697=(
NAMED_UNIT(*)
SI_UNIT($,.STERADIAN.)
SOLID_ANGLE_UNIT()
);
#698=SHAPE_DEFINITION_REPRESENTATION(#699,#700);
#699=PRODUCT_DEFINITION_SHAPE('',$,#702);
#700=SHAPE_REPRESENTATION('',(#430),#692);
#701=PRODUCT_DEFINITION_CONTEXT('part definition',#706,'design');
#702=PRODUCT_DEFINITION('2026-09-19-22-37-23-268',
'P08_\X2\80CC5B548FDE63A5677F\X0\_\X2\540C6B3E50199009\X0\_\X2\5F855B9E72694E926362\X0\',
#703,#701);
#703=PRODUCT_DEFINITION_FORMATION('',$,#708);
#704=PRODUCT_RELATED_PRODUCT_CATEGORY(
'P08_\X2\80CC5B548FDE63A5677F\X0\_\X2\540C6B3E50199009\X0\_\X2\5F855B9E72694E926362\X0\',
'P08_\X2\80CC5B548FDE63A5677F\X0\_\X2\540C6B3E50199009\X0\_\X2\5F855B9E72694E926362\X0\',
(#708));
#705=APPLICATION_PROTOCOL_DEFINITION('international standard',
'automotive_design',2009,#706);
#706=APPLICATION_CONTEXT(
'Core Data for Automotive Mechanical Design Process');
#707=PRODUCT_CONTEXT('part definition',#706,'mechanical');
#708=PRODUCT('2026-09-19-22-37-23-268',
'P08_\X2\80CC5B548FDE63A5677F\X0\_\X2\540C6B3E50199009\X0\_\X2\5F855B9E72694E926362\X0\',
$,(#707));
#709=PRESENTATION_STYLE_ASSIGNMENT((#711));
#710=PRESENTATION_STYLE_ASSIGNMENT((#712));
#711=SURFACE_STYLE_USAGE(.BOTH.,#713);
#712=SURFACE_STYLE_USAGE(.BOTH.,#714);
#713=SURFACE_SIDE_STYLE('',(#715));
#714=SURFACE_SIDE_STYLE('',(#716));
#715=SURFACE_STYLE_FILL_AREA(#717);
#716=SURFACE_STYLE_FILL_AREA(#718);
#717=FILL_AREA_STYLE('\X2\94A2\X0\ - \X2\7F0E5149\X0\',(#719));
#718=FILL_AREA_STYLE('R2_light',(#720));
#719=FILL_AREA_STYLE_COLOUR('\X2\94A2\X0\ - \X2\7F0E5149\X0\',#721);
#720=FILL_AREA_STYLE_COLOUR('R2_light',#722);
#721=COLOUR_RGB('\X2\94A2\X0\ - \X2\7F0E5149\X0\',0.627450980392157,0.627450980392157,
0.627450980392157);
#722=COLOUR_RGB('R2_light',0.858823529411765,0.549019607843137,0.164705882352941);
ENDSEC;
END-ISO-10303-21;
