ISO-10303-21;
HEADER;
/* Generated by software containing ST-Developer
 * from STEP Tools, Inc. (www.steptools.com) 
 */

FILE_DESCRIPTION(
/* description */ (''),
/* implementation_level */ '2;1');

FILE_NAME(
/* name */ 'P01.step',
/* time_stamp */ '2026-09-10T22:45:44+08:00',
/* author */ (''),
/* organization */ (''),
/* preprocessor_version */ 'ST-DEVELOPER v20.1',
/* originating_system */ 'Autodesk Translation Framework v15.8.0.0',
/* authorisation */ '');

FILE_SCHEMA (('AUTOMOTIVE_DESIGN { 1 0 10303 214 3 1 1 }'));
ENDSEC;

DATA;
#10=MECHANICAL_DESIGN_GEOMETRIC_PRESENTATION_REPRESENTATION('',(#13),#1037);
#11=SHAPE_REPRESENTATION_RELATIONSHIP('SRR','None',#1044,#12);
#12=ADVANCED_BREP_SHAPE_REPRESENTATION('',(#14),#1036);
#13=STYLED_ITEM('',(#1054),#14);
#14=MANIFOLD_SOLID_BREP('\X2\5B9E4F53\X0\1',#629);
#15=FACE_BOUND('',#81,.T.);
#16=FACE_BOUND('',#82,.T.);
#17=FACE_BOUND('',#85,.T.);
#18=FACE_BOUND('',#86,.T.);
#19=FACE_BOUND('',#95,.T.);
#20=FACE_BOUND('',#96,.T.);
#21=FACE_BOUND('',#99,.T.);
#22=FACE_BOUND('',#100,.T.);
#23=PLANE('',#646);
#24=PLANE('',#652);
#25=PLANE('',#655);
#26=PLANE('',#656);
#27=PLANE('',#659);
#28=PLANE('',#660);
#29=PLANE('',#664);
#30=PLANE('',#670);
#31=PLANE('',#673);
#32=PLANE('',#674);
#33=PLANE('',#677);
#34=PLANE('',#678);
#35=PLANE('',#679);
#36=PLANE('',#680);
#37=PLANE('',#681);
#38=PLANE('',#682);
#39=PLANE('',#683);
#40=PLANE('',#684);
#41=PLANE('',#685);
#42=PLANE('',#686);
#43=PLANE('',#687);
#44=PLANE('',#688);
#45=PLANE('',#689);
#46=PLANE('',#690);
#47=FACE_OUTER_BOUND('',#79,.T.);
#48=FACE_OUTER_BOUND('',#80,.T.);
#49=FACE_OUTER_BOUND('',#83,.T.);
#50=FACE_OUTER_BOUND('',#84,.T.);
#51=FACE_OUTER_BOUND('',#87,.T.);
#52=FACE_OUTER_BOUND('',#88,.T.);
#53=FACE_OUTER_BOUND('',#89,.T.);
#54=FACE_OUTER_BOUND('',#90,.T.);
#55=FACE_OUTER_BOUND('',#91,.T.);
#56=FACE_OUTER_BOUND('',#92,.T.);
#57=FACE_OUTER_BOUND('',#93,.T.);
#58=FACE_OUTER_BOUND('',#94,.T.);
#59=FACE_OUTER_BOUND('',#97,.T.);
#60=FACE_OUTER_BOUND('',#98,.T.);
#61=FACE_OUTER_BOUND('',#101,.T.);
#62=FACE_OUTER_BOUND('',#102,.T.);
#63=FACE_OUTER_BOUND('',#103,.T.);
#64=FACE_OUTER_BOUND('',#104,.T.);
#65=FACE_OUTER_BOUND('',#105,.T.);
#66=FACE_OUTER_BOUND('',#106,.T.);
#67=FACE_OUTER_BOUND('',#107,.T.);
#68=FACE_OUTER_BOUND('',#108,.T.);
#69=FACE_OUTER_BOUND('',#109,.T.);
#70=FACE_OUTER_BOUND('',#110,.T.);
#71=FACE_OUTER_BOUND('',#111,.T.);
#72=FACE_OUTER_BOUND('',#112,.T.);
#73=FACE_OUTER_BOUND('',#113,.T.);
#74=FACE_OUTER_BOUND('',#114,.T.);
#75=FACE_OUTER_BOUND('',#115,.T.);
#76=FACE_OUTER_BOUND('',#116,.T.);
#77=FACE_OUTER_BOUND('',#117,.T.);
#78=FACE_OUTER_BOUND('',#118,.T.);
#79=EDGE_LOOP('',(#417,#418,#419,#420));
#80=EDGE_LOOP('',(#421,#422,#423,#424));
#81=EDGE_LOOP('',(#425,#426,#427,#428));
#82=EDGE_LOOP('',(#429,#430,#431,#432));
#83=EDGE_LOOP('',(#433,#434,#435,#436));
#84=EDGE_LOOP('',(#437,#438,#439,#440,#441,#442,#443,#444));
#85=EDGE_LOOP('',(#445,#446,#447,#448));
#86=EDGE_LOOP('',(#449,#450,#451,#452));
#87=EDGE_LOOP('',(#453,#454,#455,#456));
#88=EDGE_LOOP('',(#457,#458,#459,#460));
#89=EDGE_LOOP('',(#461,#462,#463,#464));
#90=EDGE_LOOP('',(#465,#466,#467,#468));
#91=EDGE_LOOP('',(#469,#470,#471,#472));
#92=EDGE_LOOP('',(#473,#474,#475,#476));
#93=EDGE_LOOP('',(#477,#478,#479,#480));
#94=EDGE_LOOP('',(#481,#482,#483,#484,#485,#486,#487,#488));
#95=EDGE_LOOP('',(#489,#490,#491,#492));
#96=EDGE_LOOP('',(#493,#494,#495,#496));
#97=EDGE_LOOP('',(#497,#498,#499,#500));
#98=EDGE_LOOP('',(#501,#502,#503,#504));
#99=EDGE_LOOP('',(#505,#506,#507,#508));
#100=EDGE_LOOP('',(#509,#510,#511,#512));
#101=EDGE_LOOP('',(#513,#514,#515,#516));
#102=EDGE_LOOP('',(#517,#518,#519,#520));
#103=EDGE_LOOP('',(#521,#522,#523,#524));
#104=EDGE_LOOP('',(#525,#526,#527,#528));
#105=EDGE_LOOP('',(#529,#530,#531,#532));
#106=EDGE_LOOP('',(#533,#534,#535,#536));
#107=EDGE_LOOP('',(#537,#538,#539,#540));
#108=EDGE_LOOP('',(#541,#542,#543));
#109=EDGE_LOOP('',(#544,#545,#546,#547));
#110=EDGE_LOOP('',(#548,#549,#550,#551));
#111=EDGE_LOOP('',(#552,#553,#554));
#112=EDGE_LOOP('',(#555,#556,#557,#558));
#113=EDGE_LOOP('',(#559,#560,#561,#562));
#114=EDGE_LOOP('',(#563,#564,#565,#566));
#115=EDGE_LOOP('',(#567,#568,#569,#570,#571,#572,#573,#574));
#116=EDGE_LOOP('',(#575,#576,#577,#578,#579));
#117=EDGE_LOOP('',(#580,#581,#582,#583));
#118=EDGE_LOOP('',(#584,#585,#586,#587,#588));
#119=LINE('',#865,#189);
#120=LINE('',#868,#190);
#121=LINE('',#872,#191);
#122=LINE('',#874,#192);
#123=LINE('',#876,#193);
#124=LINE('',#877,#194);
#125=LINE('',#882,#195);
#126=LINE('',#885,#196);
#127=LINE('',#887,#197);
#128=LINE('',#890,#198);
#129=LINE('',#893,#199);
#130=LINE('',#896,#200);
#131=LINE('',#900,#201);
#132=LINE('',#902,#202);
#133=LINE('',#904,#203);
#134=LINE('',#906,#204);
#135=LINE('',#908,#205);
#136=LINE('',#910,#206);
#137=LINE('',#912,#207);
#138=LINE('',#913,#208);
#139=LINE('',#914,#209);
#140=LINE('',#915,#210);
#141=LINE('',#920,#211);
#142=LINE('',#923,#212);
#143=LINE('',#927,#213);
#144=LINE('',#928,#214);
#145=LINE('',#930,#215);
#146=LINE('',#931,#216);
#147=LINE('',#939,#217);
#148=LINE('',#942,#218);
#149=LINE('',#946,#219);
#150=LINE('',#948,#220);
#151=LINE('',#950,#221);
#152=LINE('',#952,#222);
#153=LINE('',#954,#223);
#154=LINE('',#956,#224);
#155=LINE('',#958,#225);
#156=LINE('',#959,#226);
#157=LINE('',#964,#227);
#158=LINE('',#967,#228);
#159=LINE('',#969,#229);
#160=LINE('',#972,#230);
#161=LINE('',#975,#231);
#162=LINE('',#978,#232);
#163=LINE('',#981,#233);
#164=LINE('',#983,#234);
#165=LINE('',#984,#235);
#166=LINE('',#985,#236);
#167=LINE('',#986,#237);
#168=LINE('',#991,#238);
#169=LINE('',#994,#239);
#170=LINE('',#998,#240);
#171=LINE('',#999,#241);
#172=LINE('',#1001,#242);
#173=LINE('',#1002,#243);
#174=LINE('',#1007,#244);
#175=LINE('',#1008,#245);
#176=LINE('',#1009,#246);
#177=LINE('',#1011,#247);
#178=LINE('',#1014,#248);
#179=LINE('',#1015,#249);
#180=LINE('',#1017,#250);
#181=LINE('',#1018,#251);
#182=LINE('',#1019,#252);
#183=LINE('',#1022,#253);
#184=LINE('',#1023,#254);
#185=LINE('',#1025,#255);
#186=LINE('',#1026,#256);
#187=LINE('',#1030,#257);
#188=LINE('',#1032,#258);
#189=VECTOR('',#697,1.);
#190=VECTOR('',#700,1.);
#191=VECTOR('',#703,1.);
#192=VECTOR('',#704,1.);
#193=VECTOR('',#705,1.);
#194=VECTOR('',#706,1.);
#195=VECTOR('',#709,1.);
#196=VECTOR('',#712,1.);
#197=VECTOR('',#713,1.);
#198=VECTOR('',#716,1.);
#199=VECTOR('',#719,1.);
#200=VECTOR('',#722,1.);
#201=VECTOR('',#725,1.);
#202=VECTOR('',#726,1.);
#203=VECTOR('',#727,1.);
#204=VECTOR('',#728,1.);
#205=VECTOR('',#729,1.);
#206=VECTOR('',#730,1.);
#207=VECTOR('',#731,1.);
#208=VECTOR('',#732,1.);
#209=VECTOR('',#733,1.);
#210=VECTOR('',#734,1.);
#211=VECTOR('',#737,1.);
#212=VECTOR('',#740,1.);
#213=VECTOR('',#747,1.);
#214=VECTOR('',#748,1.);
#215=VECTOR('',#751,1.);
#216=VECTOR('',#752,1.);
#217=VECTOR('',#761,1.);
#218=VECTOR('',#764,1.);
#219=VECTOR('',#767,1.);
#220=VECTOR('',#768,1.);
#221=VECTOR('',#769,1.);
#222=VECTOR('',#770,1.);
#223=VECTOR('',#771,1.);
#224=VECTOR('',#772,1.);
#225=VECTOR('',#773,1.);
#226=VECTOR('',#774,1.);
#227=VECTOR('',#777,1.);
#228=VECTOR('',#780,1.);
#229=VECTOR('',#781,1.);
#230=VECTOR('',#784,1.);
#231=VECTOR('',#787,1.);
#232=VECTOR('',#790,1.);
#233=VECTOR('',#793,1.);
#234=VECTOR('',#794,1.);
#235=VECTOR('',#795,1.);
#236=VECTOR('',#796,1.);
#237=VECTOR('',#797,1.);
#238=VECTOR('',#800,1.);
#239=VECTOR('',#803,1.);
#240=VECTOR('',#810,1.);
#241=VECTOR('',#811,1.);
#242=VECTOR('',#814,1.);
#243=VECTOR('',#815,1.);
#244=VECTOR('',#822,1.);
#245=VECTOR('',#823,1.);
#246=VECTOR('',#824,1.);
#247=VECTOR('',#827,1.);
#248=VECTOR('',#830,1.);
#249=VECTOR('',#831,1.);
#250=VECTOR('',#834,1.);
#251=VECTOR('',#835,1.);
#252=VECTOR('',#836,1.);
#253=VECTOR('',#841,1.);
#254=VECTOR('',#842,1.);
#255=VECTOR('',#845,1.);
#256=VECTOR('',#846,1.);
#257=VECTOR('',#853,1.);
#258=VECTOR('',#856,1.);
#259=CIRCLE('',#644,0.225);
#260=CIRCLE('',#645,0.225);
#261=CIRCLE('',#647,0.225);
#262=CIRCLE('',#648,0.225);
#263=CIRCLE('',#649,0.225);
#264=CIRCLE('',#651,0.225);
#265=CIRCLE('',#653,0.225);
#266=CIRCLE('',#654,0.225);
#267=CIRCLE('',#662,0.225);
#268=CIRCLE('',#663,0.225);
#269=CIRCLE('',#665,0.225);
#270=CIRCLE('',#666,0.225);
#271=CIRCLE('',#667,0.225);
#272=CIRCLE('',#669,0.225);
#273=CIRCLE('',#671,0.225);
#274=CIRCLE('',#672,0.225);
#275=VERTEX_POINT('',#861);
#276=VERTEX_POINT('',#862);
#277=VERTEX_POINT('',#864);
#278=VERTEX_POINT('',#866);
#279=VERTEX_POINT('',#870);
#280=VERTEX_POINT('',#871);
#281=VERTEX_POINT('',#873);
#282=VERTEX_POINT('',#875);
#283=VERTEX_POINT('',#878);
#284=VERTEX_POINT('',#879);
#285=VERTEX_POINT('',#881);
#286=VERTEX_POINT('',#883);
#287=VERTEX_POINT('',#886);
#288=VERTEX_POINT('',#888);
#289=VERTEX_POINT('',#892);
#290=VERTEX_POINT('',#894);
#291=VERTEX_POINT('',#898);
#292=VERTEX_POINT('',#899);
#293=VERTEX_POINT('',#901);
#294=VERTEX_POINT('',#903);
#295=VERTEX_POINT('',#905);
#296=VERTEX_POINT('',#907);
#297=VERTEX_POINT('',#909);
#298=VERTEX_POINT('',#911);
#299=VERTEX_POINT('',#916);
#300=VERTEX_POINT('',#917);
#301=VERTEX_POINT('',#919);
#302=VERTEX_POINT('',#921);
#303=VERTEX_POINT('',#935);
#304=VERTEX_POINT('',#936);
#305=VERTEX_POINT('',#938);
#306=VERTEX_POINT('',#940);
#307=VERTEX_POINT('',#944);
#308=VERTEX_POINT('',#945);
#309=VERTEX_POINT('',#947);
#310=VERTEX_POINT('',#949);
#311=VERTEX_POINT('',#951);
#312=VERTEX_POINT('',#953);
#313=VERTEX_POINT('',#955);
#314=VERTEX_POINT('',#957);
#315=VERTEX_POINT('',#960);
#316=VERTEX_POINT('',#961);
#317=VERTEX_POINT('',#963);
#318=VERTEX_POINT('',#965);
#319=VERTEX_POINT('',#968);
#320=VERTEX_POINT('',#970);
#321=VERTEX_POINT('',#974);
#322=VERTEX_POINT('',#976);
#323=VERTEX_POINT('',#980);
#324=VERTEX_POINT('',#982);
#325=VERTEX_POINT('',#987);
#326=VERTEX_POINT('',#988);
#327=VERTEX_POINT('',#990);
#328=VERTEX_POINT('',#992);
#329=VERTEX_POINT('',#1006);
#330=VERTEX_POINT('',#1013);
#331=EDGE_CURVE('',#275,#276,#259,.T.);
#332=EDGE_CURVE('',#275,#277,#119,.T.);
#333=EDGE_CURVE('',#278,#277,#260,.T.);
#334=EDGE_CURVE('',#276,#278,#120,.T.);
#335=EDGE_CURVE('',#279,#280,#121,.T.);
#336=EDGE_CURVE('',#280,#281,#122,.T.);
#337=EDGE_CURVE('',#282,#281,#123,.T.);
#338=EDGE_CURVE('',#279,#282,#124,.T.);
#339=EDGE_CURVE('',#283,#284,#261,.T.);
#340=EDGE_CURVE('',#284,#285,#125,.T.);
#341=EDGE_CURVE('',#285,#286,#262,.T.);
#342=EDGE_CURVE('',#286,#283,#126,.T.);
#343=EDGE_CURVE('',#277,#287,#127,.T.);
#344=EDGE_CURVE('',#287,#288,#263,.T.);
#345=EDGE_CURVE('',#288,#278,#128,.T.);
#346=EDGE_CURVE('',#289,#287,#129,.T.);
#347=EDGE_CURVE('',#290,#289,#264,.T.);
#348=EDGE_CURVE('',#290,#288,#130,.T.);
#349=EDGE_CURVE('',#291,#292,#131,.T.);
#350=EDGE_CURVE('',#292,#293,#132,.T.);
#351=EDGE_CURVE('',#293,#294,#133,.T.);
#352=EDGE_CURVE('',#295,#294,#134,.T.);
#353=EDGE_CURVE('',#296,#295,#135,.T.);
#354=EDGE_CURVE('',#296,#297,#136,.T.);
#355=EDGE_CURVE('',#297,#298,#137,.T.);
#356=EDGE_CURVE('',#291,#298,#138,.T.);
#357=EDGE_CURVE('',#276,#290,#139,.T.);
#358=EDGE_CURVE('',#289,#275,#140,.T.);
#359=EDGE_CURVE('',#299,#300,#265,.T.);
#360=EDGE_CURVE('',#300,#301,#141,.T.);
#361=EDGE_CURVE('',#301,#302,#266,.T.);
#362=EDGE_CURVE('',#302,#299,#142,.T.);
#363=EDGE_CURVE('',#299,#284,#143,.T.);
#364=EDGE_CURVE('',#300,#283,#144,.T.);
#365=EDGE_CURVE('',#302,#285,#145,.T.);
#366=EDGE_CURVE('',#301,#286,#146,.T.);
#367=EDGE_CURVE('',#303,#304,#267,.T.);
#368=EDGE_CURVE('',#305,#303,#147,.T.);
#369=EDGE_CURVE('',#306,#305,#268,.T.);
#370=EDGE_CURVE('',#306,#304,#148,.T.);
#371=EDGE_CURVE('',#307,#308,#149,.T.);
#372=EDGE_CURVE('',#309,#308,#150,.T.);
#373=EDGE_CURVE('',#310,#309,#151,.T.);
#374=EDGE_CURVE('',#311,#310,#152,.T.);
#375=EDGE_CURVE('',#311,#312,#153,.T.);
#376=EDGE_CURVE('',#312,#313,#154,.T.);
#377=EDGE_CURVE('',#313,#314,#155,.T.);
#378=EDGE_CURVE('',#314,#307,#156,.T.);
#379=EDGE_CURVE('',#315,#316,#269,.T.);
#380=EDGE_CURVE('',#316,#317,#157,.T.);
#381=EDGE_CURVE('',#317,#318,#270,.T.);
#382=EDGE_CURVE('',#318,#315,#158,.T.);
#383=EDGE_CURVE('',#305,#319,#159,.T.);
#384=EDGE_CURVE('',#319,#320,#271,.T.);
#385=EDGE_CURVE('',#320,#306,#160,.T.);
#386=EDGE_CURVE('',#319,#321,#161,.T.);
#387=EDGE_CURVE('',#322,#321,#272,.T.);
#388=EDGE_CURVE('',#320,#322,#162,.T.);
#389=EDGE_CURVE('',#298,#323,#163,.T.);
#390=EDGE_CURVE('',#323,#324,#164,.T.);
#391=EDGE_CURVE('',#324,#291,#165,.T.);
#392=EDGE_CURVE('',#304,#322,#166,.T.);
#393=EDGE_CURVE('',#321,#303,#167,.T.);
#394=EDGE_CURVE('',#325,#326,#273,.T.);
#395=EDGE_CURVE('',#326,#327,#168,.T.);
#396=EDGE_CURVE('',#327,#328,#274,.T.);
#397=EDGE_CURVE('',#328,#325,#169,.T.);
#398=EDGE_CURVE('',#316,#325,#170,.T.);
#399=EDGE_CURVE('',#315,#326,#171,.T.);
#400=EDGE_CURVE('',#317,#328,#172,.T.);
#401=EDGE_CURVE('',#318,#327,#173,.T.);
#402=EDGE_CURVE('',#307,#329,#174,.T.);
#403=EDGE_CURVE('',#329,#292,#175,.T.);
#404=EDGE_CURVE('',#308,#292,#176,.T.);
#405=EDGE_CURVE('',#329,#314,#177,.T.);
#406=EDGE_CURVE('',#313,#330,#178,.T.);
#407=EDGE_CURVE('',#330,#329,#179,.T.);
#408=EDGE_CURVE('',#311,#297,#180,.T.);
#409=EDGE_CURVE('',#297,#330,#181,.T.);
#410=EDGE_CURVE('',#312,#330,#182,.T.);
#411=EDGE_CURVE('',#293,#279,#183,.T.);
#412=EDGE_CURVE('',#294,#282,#184,.T.);
#413=EDGE_CURVE('',#280,#296,#185,.T.);
#414=EDGE_CURVE('',#281,#295,#186,.T.);
#415=EDGE_CURVE('',#309,#324,#187,.T.);
#416=EDGE_CURVE('',#310,#323,#188,.T.);
#417=ORIENTED_EDGE('',*,*,#331,.F.);
#418=ORIENTED_EDGE('',*,*,#332,.T.);
#419=ORIENTED_EDGE('',*,*,#333,.F.);
#420=ORIENTED_EDGE('',*,*,#334,.F.);
#421=ORIENTED_EDGE('',*,*,#335,.T.);
#422=ORIENTED_EDGE('',*,*,#336,.T.);
#423=ORIENTED_EDGE('',*,*,#337,.F.);
#424=ORIENTED_EDGE('',*,*,#338,.F.);
#425=ORIENTED_EDGE('',*,*,#339,.T.);
#426=ORIENTED_EDGE('',*,*,#340,.T.);
#427=ORIENTED_EDGE('',*,*,#341,.T.);
#428=ORIENTED_EDGE('',*,*,#342,.T.);
#429=ORIENTED_EDGE('',*,*,#333,.T.);
#430=ORIENTED_EDGE('',*,*,#343,.T.);
#431=ORIENTED_EDGE('',*,*,#344,.T.);
#432=ORIENTED_EDGE('',*,*,#345,.T.);
#433=ORIENTED_EDGE('',*,*,#346,.F.);
#434=ORIENTED_EDGE('',*,*,#347,.F.);
#435=ORIENTED_EDGE('',*,*,#348,.T.);
#436=ORIENTED_EDGE('',*,*,#344,.F.);
#437=ORIENTED_EDGE('',*,*,#349,.T.);
#438=ORIENTED_EDGE('',*,*,#350,.T.);
#439=ORIENTED_EDGE('',*,*,#351,.T.);
#440=ORIENTED_EDGE('',*,*,#352,.F.);
#441=ORIENTED_EDGE('',*,*,#353,.F.);
#442=ORIENTED_EDGE('',*,*,#354,.T.);
#443=ORIENTED_EDGE('',*,*,#355,.T.);
#444=ORIENTED_EDGE('',*,*,#356,.F.);
#445=ORIENTED_EDGE('',*,*,#331,.T.);
#446=ORIENTED_EDGE('',*,*,#357,.T.);
#447=ORIENTED_EDGE('',*,*,#347,.T.);
#448=ORIENTED_EDGE('',*,*,#358,.T.);
#449=ORIENTED_EDGE('',*,*,#359,.T.);
#450=ORIENTED_EDGE('',*,*,#360,.T.);
#451=ORIENTED_EDGE('',*,*,#361,.T.);
#452=ORIENTED_EDGE('',*,*,#362,.T.);
#453=ORIENTED_EDGE('',*,*,#345,.F.);
#454=ORIENTED_EDGE('',*,*,#348,.F.);
#455=ORIENTED_EDGE('',*,*,#357,.F.);
#456=ORIENTED_EDGE('',*,*,#334,.T.);
#457=ORIENTED_EDGE('',*,*,#343,.F.);
#458=ORIENTED_EDGE('',*,*,#332,.F.);
#459=ORIENTED_EDGE('',*,*,#358,.F.);
#460=ORIENTED_EDGE('',*,*,#346,.T.);
#461=ORIENTED_EDGE('',*,*,#359,.F.);
#462=ORIENTED_EDGE('',*,*,#363,.T.);
#463=ORIENTED_EDGE('',*,*,#339,.F.);
#464=ORIENTED_EDGE('',*,*,#364,.F.);
#465=ORIENTED_EDGE('',*,*,#365,.F.);
#466=ORIENTED_EDGE('',*,*,#361,.F.);
#467=ORIENTED_EDGE('',*,*,#366,.T.);
#468=ORIENTED_EDGE('',*,*,#341,.F.);
#469=ORIENTED_EDGE('',*,*,#360,.F.);
#470=ORIENTED_EDGE('',*,*,#364,.T.);
#471=ORIENTED_EDGE('',*,*,#342,.F.);
#472=ORIENTED_EDGE('',*,*,#366,.F.);
#473=ORIENTED_EDGE('',*,*,#362,.F.);
#474=ORIENTED_EDGE('',*,*,#365,.T.);
#475=ORIENTED_EDGE('',*,*,#340,.F.);
#476=ORIENTED_EDGE('',*,*,#363,.F.);
#477=ORIENTED_EDGE('',*,*,#367,.F.);
#478=ORIENTED_EDGE('',*,*,#368,.F.);
#479=ORIENTED_EDGE('',*,*,#369,.F.);
#480=ORIENTED_EDGE('',*,*,#370,.T.);
#481=ORIENTED_EDGE('',*,*,#371,.T.);
#482=ORIENTED_EDGE('',*,*,#372,.F.);
#483=ORIENTED_EDGE('',*,*,#373,.F.);
#484=ORIENTED_EDGE('',*,*,#374,.F.);
#485=ORIENTED_EDGE('',*,*,#375,.T.);
#486=ORIENTED_EDGE('',*,*,#376,.T.);
#487=ORIENTED_EDGE('',*,*,#377,.T.);
#488=ORIENTED_EDGE('',*,*,#378,.T.);
#489=ORIENTED_EDGE('',*,*,#379,.T.);
#490=ORIENTED_EDGE('',*,*,#380,.T.);
#491=ORIENTED_EDGE('',*,*,#381,.T.);
#492=ORIENTED_EDGE('',*,*,#382,.T.);
#493=ORIENTED_EDGE('',*,*,#369,.T.);
#494=ORIENTED_EDGE('',*,*,#383,.T.);
#495=ORIENTED_EDGE('',*,*,#384,.T.);
#496=ORIENTED_EDGE('',*,*,#385,.T.);
#497=ORIENTED_EDGE('',*,*,#386,.T.);
#498=ORIENTED_EDGE('',*,*,#387,.F.);
#499=ORIENTED_EDGE('',*,*,#388,.F.);
#500=ORIENTED_EDGE('',*,*,#384,.F.);
#501=ORIENTED_EDGE('',*,*,#356,.T.);
#502=ORIENTED_EDGE('',*,*,#389,.T.);
#503=ORIENTED_EDGE('',*,*,#390,.T.);
#504=ORIENTED_EDGE('',*,*,#391,.T.);
#505=ORIENTED_EDGE('',*,*,#367,.T.);
#506=ORIENTED_EDGE('',*,*,#392,.T.);
#507=ORIENTED_EDGE('',*,*,#387,.T.);
#508=ORIENTED_EDGE('',*,*,#393,.T.);
#509=ORIENTED_EDGE('',*,*,#394,.T.);
#510=ORIENTED_EDGE('',*,*,#395,.T.);
#511=ORIENTED_EDGE('',*,*,#396,.T.);
#512=ORIENTED_EDGE('',*,*,#397,.T.);
#513=ORIENTED_EDGE('',*,*,#385,.F.);
#514=ORIENTED_EDGE('',*,*,#388,.T.);
#515=ORIENTED_EDGE('',*,*,#392,.F.);
#516=ORIENTED_EDGE('',*,*,#370,.F.);
#517=ORIENTED_EDGE('',*,*,#383,.F.);
#518=ORIENTED_EDGE('',*,*,#368,.T.);
#519=ORIENTED_EDGE('',*,*,#393,.F.);
#520=ORIENTED_EDGE('',*,*,#386,.F.);
#521=ORIENTED_EDGE('',*,*,#394,.F.);
#522=ORIENTED_EDGE('',*,*,#398,.F.);
#523=ORIENTED_EDGE('',*,*,#379,.F.);
#524=ORIENTED_EDGE('',*,*,#399,.T.);
#525=ORIENTED_EDGE('',*,*,#400,.T.);
#526=ORIENTED_EDGE('',*,*,#396,.F.);
#527=ORIENTED_EDGE('',*,*,#401,.F.);
#528=ORIENTED_EDGE('',*,*,#381,.F.);
#529=ORIENTED_EDGE('',*,*,#382,.F.);
#530=ORIENTED_EDGE('',*,*,#401,.T.);
#531=ORIENTED_EDGE('',*,*,#395,.F.);
#532=ORIENTED_EDGE('',*,*,#399,.F.);
#533=ORIENTED_EDGE('',*,*,#380,.F.);
#534=ORIENTED_EDGE('',*,*,#398,.T.);
#535=ORIENTED_EDGE('',*,*,#397,.F.);
#536=ORIENTED_EDGE('',*,*,#400,.F.);
#537=ORIENTED_EDGE('',*,*,#402,.T.);
#538=ORIENTED_EDGE('',*,*,#403,.T.);
#539=ORIENTED_EDGE('',*,*,#404,.F.);
#540=ORIENTED_EDGE('',*,*,#371,.F.);
#541=ORIENTED_EDGE('',*,*,#405,.F.);
#542=ORIENTED_EDGE('',*,*,#402,.F.);
#543=ORIENTED_EDGE('',*,*,#378,.F.);
#544=ORIENTED_EDGE('',*,*,#405,.T.);
#545=ORIENTED_EDGE('',*,*,#377,.F.);
#546=ORIENTED_EDGE('',*,*,#406,.T.);
#547=ORIENTED_EDGE('',*,*,#407,.T.);
#548=ORIENTED_EDGE('',*,*,#408,.T.);
#549=ORIENTED_EDGE('',*,*,#409,.T.);
#550=ORIENTED_EDGE('',*,*,#410,.F.);
#551=ORIENTED_EDGE('',*,*,#375,.F.);
#552=ORIENTED_EDGE('',*,*,#406,.F.);
#553=ORIENTED_EDGE('',*,*,#376,.F.);
#554=ORIENTED_EDGE('',*,*,#410,.T.);
#555=ORIENTED_EDGE('',*,*,#411,.T.);
#556=ORIENTED_EDGE('',*,*,#338,.T.);
#557=ORIENTED_EDGE('',*,*,#412,.F.);
#558=ORIENTED_EDGE('',*,*,#351,.F.);
#559=ORIENTED_EDGE('',*,*,#413,.T.);
#560=ORIENTED_EDGE('',*,*,#353,.T.);
#561=ORIENTED_EDGE('',*,*,#414,.F.);
#562=ORIENTED_EDGE('',*,*,#336,.F.);
#563=ORIENTED_EDGE('',*,*,#414,.T.);
#564=ORIENTED_EDGE('',*,*,#352,.T.);
#565=ORIENTED_EDGE('',*,*,#412,.T.);
#566=ORIENTED_EDGE('',*,*,#337,.T.);
#567=ORIENTED_EDGE('',*,*,#413,.F.);
#568=ORIENTED_EDGE('',*,*,#335,.F.);
#569=ORIENTED_EDGE('',*,*,#411,.F.);
#570=ORIENTED_EDGE('',*,*,#350,.F.);
#571=ORIENTED_EDGE('',*,*,#403,.F.);
#572=ORIENTED_EDGE('',*,*,#407,.F.);
#573=ORIENTED_EDGE('',*,*,#409,.F.);
#574=ORIENTED_EDGE('',*,*,#354,.F.);
#575=ORIENTED_EDGE('',*,*,#349,.F.);
#576=ORIENTED_EDGE('',*,*,#391,.F.);
#577=ORIENTED_EDGE('',*,*,#415,.F.);
#578=ORIENTED_EDGE('',*,*,#372,.T.);
#579=ORIENTED_EDGE('',*,*,#404,.T.);
#580=ORIENTED_EDGE('',*,*,#373,.T.);
#581=ORIENTED_EDGE('',*,*,#415,.T.);
#582=ORIENTED_EDGE('',*,*,#390,.F.);
#583=ORIENTED_EDGE('',*,*,#416,.F.);
#584=ORIENTED_EDGE('',*,*,#355,.F.);
#585=ORIENTED_EDGE('',*,*,#408,.F.);
#586=ORIENTED_EDGE('',*,*,#374,.T.);
#587=ORIENTED_EDGE('',*,*,#416,.T.);
#588=ORIENTED_EDGE('',*,*,#389,.F.);
#589=CYLINDRICAL_SURFACE('',#643,0.225);
#590=CYLINDRICAL_SURFACE('',#650,0.225);
#591=CYLINDRICAL_SURFACE('',#657,0.225);
#592=CYLINDRICAL_SURFACE('',#658,0.225);
#593=CYLINDRICAL_SURFACE('',#661,0.225);
#594=CYLINDRICAL_SURFACE('',#668,0.225);
#595=CYLINDRICAL_SURFACE('',#675,0.225);
#596=CYLINDRICAL_SURFACE('',#676,0.225);
#597=ADVANCED_FACE('',(#47),#589,.F.);
#598=ADVANCED_FACE('',(#48,#15,#16),#23,.T.);
#599=ADVANCED_FACE('',(#49),#590,.F.);
#600=ADVANCED_FACE('',(#50,#17,#18),#24,.T.);
#601=ADVANCED_FACE('',(#51),#25,.F.);
#602=ADVANCED_FACE('',(#52),#26,.F.);
#603=ADVANCED_FACE('',(#53),#591,.F.);
#604=ADVANCED_FACE('',(#54),#592,.F.);
#605=ADVANCED_FACE('',(#55),#27,.F.);
#606=ADVANCED_FACE('',(#56),#28,.F.);
#607=ADVANCED_FACE('',(#57),#593,.F.);
#608=ADVANCED_FACE('',(#58,#19,#20),#29,.F.);
#609=ADVANCED_FACE('',(#59),#594,.F.);
#610=ADVANCED_FACE('',(#60,#21,#22),#30,.T.);
#611=ADVANCED_FACE('',(#61),#31,.F.);
#612=ADVANCED_FACE('',(#62),#32,.F.);
#613=ADVANCED_FACE('',(#63),#595,.F.);
#614=ADVANCED_FACE('',(#64),#596,.F.);
#615=ADVANCED_FACE('',(#65),#33,.F.);
#616=ADVANCED_FACE('',(#66),#34,.F.);
#617=ADVANCED_FACE('',(#67),#35,.T.);
#618=ADVANCED_FACE('',(#68),#36,.F.);
#619=ADVANCED_FACE('',(#69),#37,.T.);
#620=ADVANCED_FACE('',(#70),#38,.T.);
#621=ADVANCED_FACE('',(#71),#39,.T.);
#622=ADVANCED_FACE('',(#72),#40,.T.);
#623=ADVANCED_FACE('',(#73),#41,.T.);
#624=ADVANCED_FACE('',(#74),#42,.T.);
#625=ADVANCED_FACE('',(#75),#43,.F.);
#626=ADVANCED_FACE('',(#76),#44,.T.);
#627=ADVANCED_FACE('',(#77),#45,.T.);
#628=ADVANCED_FACE('',(#78),#46,.T.);
#629=CLOSED_SHELL('',(#597,#598,#599,#600,#601,#602,#603,#604,#605,#606,
#607,#608,#609,#610,#611,#612,#613,#614,#615,#616,#617,#618,#619,#620,#621,
#622,#623,#624,#625,#626,#627,#628));
#630=DERIVED_UNIT_ELEMENT(#632,1.);
#631=DERIVED_UNIT_ELEMENT(#1039,-3.);
#632=(
MASS_UNIT()
NAMED_UNIT(*)
SI_UNIT(.KILO.,.GRAM.)
);
#633=DERIVED_UNIT((#630,#631));
#634=MEASURE_REPRESENTATION_ITEM('density measure',
POSITIVE_RATIO_MEASURE(7850.),#633);
#635=PROPERTY_DEFINITION_REPRESENTATION(#640,#637);
#636=PROPERTY_DEFINITION_REPRESENTATION(#641,#638);
#637=REPRESENTATION('material name',(#639),#1036);
#638=REPRESENTATION('density',(#634),#1036);
#639=DESCRIPTIVE_REPRESENTATION_ITEM('\X2\94A2\X0\','\X2\94A2\X0\');
#640=PROPERTY_DEFINITION('material property','material name',#1046);
#641=PROPERTY_DEFINITION('material property','density of part',#1046);
#642=AXIS2_PLACEMENT_3D('',#859,#691,#692);
#643=AXIS2_PLACEMENT_3D('',#860,#693,#694);
#644=AXIS2_PLACEMENT_3D('',#863,#695,#696);
#645=AXIS2_PLACEMENT_3D('',#867,#698,#699);
#646=AXIS2_PLACEMENT_3D('',#869,#701,#702);
#647=AXIS2_PLACEMENT_3D('',#880,#707,#708);
#648=AXIS2_PLACEMENT_3D('',#884,#710,#711);
#649=AXIS2_PLACEMENT_3D('',#889,#714,#715);
#650=AXIS2_PLACEMENT_3D('',#891,#717,#718);
#651=AXIS2_PLACEMENT_3D('',#895,#720,#721);
#652=AXIS2_PLACEMENT_3D('',#897,#723,#724);
#653=AXIS2_PLACEMENT_3D('',#918,#735,#736);
#654=AXIS2_PLACEMENT_3D('',#922,#738,#739);
#655=AXIS2_PLACEMENT_3D('',#924,#741,#742);
#656=AXIS2_PLACEMENT_3D('',#925,#743,#744);
#657=AXIS2_PLACEMENT_3D('',#926,#745,#746);
#658=AXIS2_PLACEMENT_3D('',#929,#749,#750);
#659=AXIS2_PLACEMENT_3D('',#932,#753,#754);
#660=AXIS2_PLACEMENT_3D('',#933,#755,#756);
#661=AXIS2_PLACEMENT_3D('',#934,#757,#758);
#662=AXIS2_PLACEMENT_3D('',#937,#759,#760);
#663=AXIS2_PLACEMENT_3D('',#941,#762,#763);
#664=AXIS2_PLACEMENT_3D('',#943,#765,#766);
#665=AXIS2_PLACEMENT_3D('',#962,#775,#776);
#666=AXIS2_PLACEMENT_3D('',#966,#778,#779);
#667=AXIS2_PLACEMENT_3D('',#971,#782,#783);
#668=AXIS2_PLACEMENT_3D('',#973,#785,#786);
#669=AXIS2_PLACEMENT_3D('',#977,#788,#789);
#670=AXIS2_PLACEMENT_3D('',#979,#791,#792);
#671=AXIS2_PLACEMENT_3D('',#989,#798,#799);
#672=AXIS2_PLACEMENT_3D('',#993,#801,#802);
#673=AXIS2_PLACEMENT_3D('',#995,#804,#805);
#674=AXIS2_PLACEMENT_3D('',#996,#806,#807);
#675=AXIS2_PLACEMENT_3D('',#997,#808,#809);
#676=AXIS2_PLACEMENT_3D('',#1000,#812,#813);
#677=AXIS2_PLACEMENT_3D('',#1003,#816,#817);
#678=AXIS2_PLACEMENT_3D('',#1004,#818,#819);
#679=AXIS2_PLACEMENT_3D('',#1005,#820,#821);
#680=AXIS2_PLACEMENT_3D('',#1010,#825,#826);
#681=AXIS2_PLACEMENT_3D('',#1012,#828,#829);
#682=AXIS2_PLACEMENT_3D('',#1016,#832,#833);
#683=AXIS2_PLACEMENT_3D('',#1020,#837,#838);
#684=AXIS2_PLACEMENT_3D('',#1021,#839,#840);
#685=AXIS2_PLACEMENT_3D('',#1024,#843,#844);
#686=AXIS2_PLACEMENT_3D('',#1027,#847,#848);
#687=AXIS2_PLACEMENT_3D('',#1028,#849,#850);
#688=AXIS2_PLACEMENT_3D('',#1029,#851,#852);
#689=AXIS2_PLACEMENT_3D('',#1031,#854,#855);
#690=AXIS2_PLACEMENT_3D('',#1033,#857,#858);
#691=DIRECTION('axis',(0.,0.,1.));
#692=DIRECTION('refdir',(1.,0.,0.));
#693=DIRECTION('center_axis',(0.,1.,0.));
#694=DIRECTION('ref_axis',(1.,0.,0.));
#695=DIRECTION('center_axis',(0.,1.,0.));
#696=DIRECTION('ref_axis',(1.,0.,0.));
#697=DIRECTION('',(0.,1.,0.));
#698=DIRECTION('center_axis',(0.,-1.,0.));
#699=DIRECTION('ref_axis',(1.,0.,0.));
#700=DIRECTION('',(0.,1.,0.));
#701=DIRECTION('center_axis',(0.,1.,0.));
#702=DIRECTION('ref_axis',(-1.,0.,0.));
#703=DIRECTION('',(-1.,0.,0.));
#704=DIRECTION('',(0.,0.,1.));
#705=DIRECTION('',(-1.,0.,0.));
#706=DIRECTION('',(0.,0.,1.));
#707=DIRECTION('center_axis',(0.,-1.,0.));
#708=DIRECTION('ref_axis',(1.,0.,0.));
#709=DIRECTION('',(0.,0.,-1.));
#710=DIRECTION('center_axis',(0.,-1.,0.));
#711=DIRECTION('ref_axis',(1.,0.,0.));
#712=DIRECTION('',(0.,0.,1.));
#713=DIRECTION('',(0.,0.,-1.));
#714=DIRECTION('center_axis',(0.,-1.,0.));
#715=DIRECTION('ref_axis',(1.,0.,0.));
#716=DIRECTION('',(0.,0.,1.));
#717=DIRECTION('center_axis',(0.,1.,0.));
#718=DIRECTION('ref_axis',(1.,0.,0.));
#719=DIRECTION('',(0.,1.,0.));
#720=DIRECTION('center_axis',(0.,1.,0.));
#721=DIRECTION('ref_axis',(1.,0.,0.));
#722=DIRECTION('',(0.,1.,0.));
#723=DIRECTION('center_axis',(0.,-1.,0.));
#724=DIRECTION('ref_axis',(1.,0.,0.));
#725=DIRECTION('',(0.,0.,-1.));
#726=DIRECTION('',(1.,0.,0.));
#727=DIRECTION('',(0.,0.,1.));
#728=DIRECTION('',(1.,0.,0.));
#729=DIRECTION('',(0.,0.,1.));
#730=DIRECTION('',(1.,0.,0.));
#731=DIRECTION('',(0.,0.,1.));
#732=DIRECTION('',(-1.,0.,0.));
#733=DIRECTION('',(0.,0.,-1.));
#734=DIRECTION('',(0.,0.,1.));
#735=DIRECTION('center_axis',(0.,1.,0.));
#736=DIRECTION('ref_axis',(1.,0.,0.));
#737=DIRECTION('',(0.,0.,-1.));
#738=DIRECTION('center_axis',(0.,1.,0.));
#739=DIRECTION('ref_axis',(1.,0.,0.));
#740=DIRECTION('',(0.,0.,1.));
#741=DIRECTION('center_axis',(1.,0.,0.));
#742=DIRECTION('ref_axis',(0.,0.,-1.));
#743=DIRECTION('center_axis',(-1.,0.,0.));
#744=DIRECTION('ref_axis',(0.,0.,1.));
#745=DIRECTION('center_axis',(0.,1.,0.));
#746=DIRECTION('ref_axis',(1.,0.,0.));
#747=DIRECTION('',(0.,1.,0.));
#748=DIRECTION('',(0.,1.,0.));
#749=DIRECTION('center_axis',(0.,1.,0.));
#750=DIRECTION('ref_axis',(1.,0.,0.));
#751=DIRECTION('',(0.,1.,0.));
#752=DIRECTION('',(0.,1.,0.));
#753=DIRECTION('center_axis',(1.,0.,0.));
#754=DIRECTION('ref_axis',(0.,0.,-1.));
#755=DIRECTION('center_axis',(-1.,0.,0.));
#756=DIRECTION('ref_axis',(0.,0.,1.));
#757=DIRECTION('center_axis',(0.,0.,1.));
#758=DIRECTION('ref_axis',(1.,0.,0.));
#759=DIRECTION('center_axis',(0.,0.,-1.));
#760=DIRECTION('ref_axis',(1.,0.,0.));
#761=DIRECTION('',(0.,0.,1.));
#762=DIRECTION('center_axis',(0.,0.,1.));
#763=DIRECTION('ref_axis',(1.,0.,0.));
#764=DIRECTION('',(0.,0.,1.));
#765=DIRECTION('center_axis',(0.,0.,1.));
#766=DIRECTION('ref_axis',(1.,0.,0.));
#767=DIRECTION('',(1.,0.,0.));
#768=DIRECTION('',(0.,1.,0.));
#769=DIRECTION('',(1.,0.,0.));
#770=DIRECTION('',(0.,-1.,0.));
#771=DIRECTION('',(1.,0.,0.));
#772=DIRECTION('',(0.,1.,0.));
#773=DIRECTION('',(1.,0.,0.));
#774=DIRECTION('',(0.,-1.,0.));
#775=DIRECTION('center_axis',(0.,0.,1.));
#776=DIRECTION('ref_axis',(1.,0.,0.));
#777=DIRECTION('',(0.,-1.,0.));
#778=DIRECTION('center_axis',(0.,0.,1.));
#779=DIRECTION('ref_axis',(1.,0.,0.));
#780=DIRECTION('',(0.,1.,0.));
#781=DIRECTION('',(0.,-1.,0.));
#782=DIRECTION('center_axis',(0.,0.,1.));
#783=DIRECTION('ref_axis',(1.,0.,0.));
#784=DIRECTION('',(0.,1.,0.));
#785=DIRECTION('center_axis',(0.,0.,1.));
#786=DIRECTION('ref_axis',(1.,0.,0.));
#787=DIRECTION('',(0.,0.,1.));
#788=DIRECTION('center_axis',(0.,0.,-1.));
#789=DIRECTION('ref_axis',(1.,0.,0.));
#790=DIRECTION('',(0.,0.,1.));
#791=DIRECTION('center_axis',(0.,0.,1.));
#792=DIRECTION('ref_axis',(1.,0.,0.));
#793=DIRECTION('',(0.,-1.,0.));
#794=DIRECTION('',(1.,0.,0.));
#795=DIRECTION('',(0.,1.,0.));
#796=DIRECTION('',(0.,-1.,0.));
#797=DIRECTION('',(0.,1.,0.));
#798=DIRECTION('center_axis',(0.,0.,-1.));
#799=DIRECTION('ref_axis',(1.,0.,0.));
#800=DIRECTION('',(0.,-1.,0.));
#801=DIRECTION('center_axis',(0.,0.,-1.));
#802=DIRECTION('ref_axis',(1.,0.,0.));
#803=DIRECTION('',(0.,1.,0.));
#804=DIRECTION('center_axis',(1.,0.,0.));
#805=DIRECTION('ref_axis',(0.,1.,0.));
#806=DIRECTION('center_axis',(-1.,0.,0.));
#807=DIRECTION('ref_axis',(0.,-1.,0.));
#808=DIRECTION('center_axis',(0.,0.,1.));
#809=DIRECTION('ref_axis',(1.,0.,0.));
#810=DIRECTION('',(0.,0.,1.));
#811=DIRECTION('',(0.,0.,1.));
#812=DIRECTION('center_axis',(0.,0.,1.));
#813=DIRECTION('ref_axis',(1.,0.,0.));
#814=DIRECTION('',(0.,0.,1.));
#815=DIRECTION('',(0.,0.,1.));
#816=DIRECTION('center_axis',(1.,0.,0.));
#817=DIRECTION('ref_axis',(0.,1.,0.));
#818=DIRECTION('center_axis',(-1.,0.,0.));
#819=DIRECTION('ref_axis',(0.,-1.,0.));
#820=DIRECTION('center_axis',(0.,-0.301131367937097,-0.953582665134142));
#821=DIRECTION('ref_axis',(0.,0.953582665134142,-0.301131367937097));
#822=DIRECTION('',(0.,0.953582665134142,-0.301131367937097));
#823=DIRECTION('',(1.,0.,0.));
#824=DIRECTION('',(0.,0.953582665134142,-0.301131367937097));
#825=DIRECTION('center_axis',(1.,0.,0.));
#826=DIRECTION('ref_axis',(0.,0.,-1.));
#827=DIRECTION('',(0.,0.,1.));
#828=DIRECTION('center_axis',(0.,-1.,0.));
#829=DIRECTION('ref_axis',(1.,0.,0.));
#830=DIRECTION('',(0.,0.,-1.));
#831=DIRECTION('',(1.,0.,0.));
#832=DIRECTION('center_axis',(0.,-0.301131367937097,-0.953582665134142));
#833=DIRECTION('ref_axis',(0.,0.953582665134142,-0.301131367937097));
#834=DIRECTION('',(0.,0.953582665134142,-0.301131367937097));
#835=DIRECTION('',(1.,0.,0.));
#836=DIRECTION('',(0.,0.953582665134142,-0.301131367937097));
#837=DIRECTION('center_axis',(1.,0.,0.));
#838=DIRECTION('ref_axis',(0.,0.,-1.));
#839=DIRECTION('center_axis',(1.,0.,0.));
#840=DIRECTION('ref_axis',(0.,1.,0.));
#841=DIRECTION('',(0.,1.,0.));
#842=DIRECTION('',(0.,1.,0.));
#843=DIRECTION('center_axis',(-1.,0.,0.));
#844=DIRECTION('ref_axis',(0.,-1.,0.));
#845=DIRECTION('',(0.,-1.,0.));
#846=DIRECTION('',(0.,-1.,0.));
#847=DIRECTION('center_axis',(0.,0.,1.));
#848=DIRECTION('ref_axis',(1.,0.,0.));
#849=DIRECTION('center_axis',(0.,0.,1.));
#850=DIRECTION('ref_axis',(1.,0.,0.));
#851=DIRECTION('center_axis',(1.,0.,0.));
#852=DIRECTION('ref_axis',(0.,1.,0.));
#853=DIRECTION('',(0.,0.,1.));
#854=DIRECTION('center_axis',(0.,-1.,0.));
#855=DIRECTION('ref_axis',(1.,0.,0.));
#856=DIRECTION('',(0.,0.,1.));
#857=DIRECTION('center_axis',(-1.,0.,0.));
#858=DIRECTION('ref_axis',(0.,-1.,0.));
#859=CARTESIAN_POINT('',(0.,0.,0.));
#860=CARTESIAN_POINT('Origin',(1.8,9.9,19.625));
#861=CARTESIAN_POINT('',(1.575,10.,19.625));
#862=CARTESIAN_POINT('',(2.025,10.,19.625));
#863=CARTESIAN_POINT('Origin',(1.8,10.,19.625));
#864=CARTESIAN_POINT('',(1.575,11.,19.625));
#865=CARTESIAN_POINT('',(1.575,9.9,19.625));
#866=CARTESIAN_POINT('',(2.025,11.,19.625));
#867=CARTESIAN_POINT('Origin',(1.8,11.,19.625));
#868=CARTESIAN_POINT('',(2.025,9.9,19.625));
#869=CARTESIAN_POINT('Origin',(1.2,11.,18.45));
#870=CARTESIAN_POINT('',(2.6,11.,15.45));
#871=CARTESIAN_POINT('',(-2.6,11.,15.45));
#872=CARTESIAN_POINT('',(2.6,11.,15.45));
#873=CARTESIAN_POINT('',(-2.6,11.,20.45));
#874=CARTESIAN_POINT('',(-2.6,11.,15.45));
#875=CARTESIAN_POINT('',(2.6,11.,20.45));
#876=CARTESIAN_POINT('',(2.6,11.,20.45));
#877=CARTESIAN_POINT('',(2.6,11.,15.45));
#878=CARTESIAN_POINT('',(-1.575,11.,19.625));
#879=CARTESIAN_POINT('',(-2.025,11.,19.625));
#880=CARTESIAN_POINT('Origin',(-1.8,11.,19.625));
#881=CARTESIAN_POINT('',(-2.025,11.,17.275));
#882=CARTESIAN_POINT('',(-2.025,11.,17.8625));
#883=CARTESIAN_POINT('',(-1.575,11.,17.275));
#884=CARTESIAN_POINT('Origin',(-1.8,11.,17.275));
#885=CARTESIAN_POINT('',(-1.575,11.,19.0375));
#886=CARTESIAN_POINT('',(1.575,11.,17.275));
#887=CARTESIAN_POINT('',(1.575,11.,17.8625));
#888=CARTESIAN_POINT('',(2.025,11.,17.275));
#889=CARTESIAN_POINT('Origin',(1.8,11.,17.275));
#890=CARTESIAN_POINT('',(2.025,11.,19.0375));
#891=CARTESIAN_POINT('Origin',(1.8,9.9,17.275));
#892=CARTESIAN_POINT('',(1.575,10.,17.275));
#893=CARTESIAN_POINT('',(1.575,9.9,17.275));
#894=CARTESIAN_POINT('',(2.025,10.,17.275));
#895=CARTESIAN_POINT('Origin',(1.8,10.,17.275));
#896=CARTESIAN_POINT('',(2.025,9.9,17.275));
#897=CARTESIAN_POINT('Origin',(-2.6,10.,15.45));
#898=CARTESIAN_POINT('',(1.2,10.,19.45));
#899=CARTESIAN_POINT('',(1.2,10.,15.45));
#900=CARTESIAN_POINT('',(1.2,10.,16.2));
#901=CARTESIAN_POINT('',(2.6,10.,15.45));
#902=CARTESIAN_POINT('',(-2.6,10.,15.45));
#903=CARTESIAN_POINT('',(2.6,10.,20.45));
#904=CARTESIAN_POINT('',(2.6,10.,15.45));
#905=CARTESIAN_POINT('',(-2.6,10.,20.45));
#906=CARTESIAN_POINT('',(-2.6,10.,20.45));
#907=CARTESIAN_POINT('',(-2.6,10.,15.45));
#908=CARTESIAN_POINT('',(-2.6,10.,15.45));
#909=CARTESIAN_POINT('',(-1.2,10.,15.45));
#910=CARTESIAN_POINT('',(-2.6,10.,15.45));
#911=CARTESIAN_POINT('',(-1.2,10.,19.45));
#912=CARTESIAN_POINT('',(-1.2,10.,16.2));
#913=CARTESIAN_POINT('',(-1.3,10.,19.45));
#914=CARTESIAN_POINT('',(2.025,10.,17.5375));
#915=CARTESIAN_POINT('',(1.575,10.,16.3625));
#916=CARTESIAN_POINT('',(-2.025,10.,19.625));
#917=CARTESIAN_POINT('',(-1.575,10.,19.625));
#918=CARTESIAN_POINT('Origin',(-1.8,10.,19.625));
#919=CARTESIAN_POINT('',(-1.575,10.,17.275));
#920=CARTESIAN_POINT('',(-1.575,10.,17.5375));
#921=CARTESIAN_POINT('',(-2.025,10.,17.275));
#922=CARTESIAN_POINT('Origin',(-1.8,10.,17.275));
#923=CARTESIAN_POINT('',(-2.025,10.,16.3625));
#924=CARTESIAN_POINT('Origin',(2.025,9.9,19.625));
#925=CARTESIAN_POINT('Origin',(1.575,9.9,17.275));
#926=CARTESIAN_POINT('Origin',(-1.8,9.9,19.625));
#927=CARTESIAN_POINT('',(-2.025,9.9,19.625));
#928=CARTESIAN_POINT('',(-1.575,9.9,19.625));
#929=CARTESIAN_POINT('Origin',(-1.8,9.9,17.275));
#930=CARTESIAN_POINT('',(-2.025,9.9,17.275));
#931=CARTESIAN_POINT('',(-1.575,9.9,17.275));
#932=CARTESIAN_POINT('Origin',(-1.575,9.9,19.625));
#933=CARTESIAN_POINT('Origin',(-2.025,9.9,17.275));
#934=CARTESIAN_POINT('Origin',(0.,7.675,18.35));
#935=CARTESIAN_POINT('',(-0.225,7.675,19.45));
#936=CARTESIAN_POINT('',(0.225,7.675,19.45));
#937=CARTESIAN_POINT('Origin',(0.,7.675,19.45));
#938=CARTESIAN_POINT('',(-0.225,7.675,18.45));
#939=CARTESIAN_POINT('',(-0.225,7.675,18.35));
#940=CARTESIAN_POINT('',(0.225,7.675,18.45));
#941=CARTESIAN_POINT('Origin',(0.,7.675,18.45));
#942=CARTESIAN_POINT('',(0.225,7.675,18.35));
#943=CARTESIAN_POINT('Origin',(0.,1.5,18.45));
#944=CARTESIAN_POINT('',(0.8,0.5,18.45));
#945=CARTESIAN_POINT('',(1.2,0.5,18.45));
#946=CARTESIAN_POINT('',(0.4,0.500000000000004,18.45));
#947=CARTESIAN_POINT('',(1.2,-8.,18.45));
#948=CARTESIAN_POINT('',(1.2,-8.,18.45));
#949=CARTESIAN_POINT('',(-1.2,-8.,18.45));
#950=CARTESIAN_POINT('',(-1.2,-8.,18.45));
#951=CARTESIAN_POINT('',(-1.2,0.5,18.45));
#952=CARTESIAN_POINT('',(-1.2,11.,18.45));
#953=CARTESIAN_POINT('',(-0.8,0.5,18.45));
#954=CARTESIAN_POINT('',(-0.6,0.500000000000004,18.45));
#955=CARTESIAN_POINT('',(-0.8,10.,18.45));
#956=CARTESIAN_POINT('',(-0.8,3.375,18.45));
#957=CARTESIAN_POINT('',(0.8,10.,18.45));
#958=CARTESIAN_POINT('',(-1.3,10.,18.45));
#959=CARTESIAN_POINT('',(0.8,3.375,18.45));
#960=CARTESIAN_POINT('',(0.225,-2.125,18.45));
#961=CARTESIAN_POINT('',(-0.225,-2.125,18.45));
#962=CARTESIAN_POINT('Origin',(0.,-2.125,18.45));
#963=CARTESIAN_POINT('',(-0.225,-7.675,18.45));
#964=CARTESIAN_POINT('',(-0.225,-0.3125,18.45));
#965=CARTESIAN_POINT('',(0.225,-7.675,18.45));
#966=CARTESIAN_POINT('Origin',(0.,-7.675,18.45));
#967=CARTESIAN_POINT('',(0.225,-3.0875,18.45));
#968=CARTESIAN_POINT('',(-0.225,2.125,18.45));
#969=CARTESIAN_POINT('',(-0.225,4.5875,18.45));
#970=CARTESIAN_POINT('',(0.225,2.125,18.45));
#971=CARTESIAN_POINT('Origin',(0.,2.125,18.45));
#972=CARTESIAN_POINT('',(0.225,1.8125,18.45));
#973=CARTESIAN_POINT('Origin',(0.,2.125,18.35));
#974=CARTESIAN_POINT('',(-0.225,2.125,19.45));
#975=CARTESIAN_POINT('',(-0.225,2.125,18.35));
#976=CARTESIAN_POINT('',(0.225,2.125,19.45));
#977=CARTESIAN_POINT('Origin',(0.,2.125,19.45));
#978=CARTESIAN_POINT('',(0.225,2.125,18.35));
#979=CARTESIAN_POINT('Origin',(0.,1.5,19.45));
#980=CARTESIAN_POINT('',(-1.2,-8.,19.45));
#981=CARTESIAN_POINT('',(-1.2,11.,19.45));
#982=CARTESIAN_POINT('',(1.2,-8.,19.45));
#983=CARTESIAN_POINT('',(-1.2,-8.,19.45));
#984=CARTESIAN_POINT('',(1.2,-8.,19.45));
#985=CARTESIAN_POINT('',(0.225,1.8125,19.45));
#986=CARTESIAN_POINT('',(-0.225,4.5875,19.45));
#987=CARTESIAN_POINT('',(-0.225,-2.125,19.45));
#988=CARTESIAN_POINT('',(0.225,-2.125,19.45));
#989=CARTESIAN_POINT('Origin',(0.,-2.125,19.45));
#990=CARTESIAN_POINT('',(0.225,-7.675,19.45));
#991=CARTESIAN_POINT('',(0.225,-3.0875,19.45));
#992=CARTESIAN_POINT('',(-0.225,-7.675,19.45));
#993=CARTESIAN_POINT('Origin',(0.,-7.675,19.45));
#994=CARTESIAN_POINT('',(-0.225,-0.3125,19.45));
#995=CARTESIAN_POINT('Origin',(0.225,2.125,18.35));
#996=CARTESIAN_POINT('Origin',(-0.225,7.675,18.35));
#997=CARTESIAN_POINT('Origin',(0.,-2.125,18.35));
#998=CARTESIAN_POINT('',(-0.225,-2.125,18.35));
#999=CARTESIAN_POINT('',(0.225,-2.125,18.35));
#1000=CARTESIAN_POINT('Origin',(0.,-7.675,18.35));
#1001=CARTESIAN_POINT('',(-0.225,-7.675,18.35));
#1002=CARTESIAN_POINT('',(0.225,-7.675,18.35));
#1003=CARTESIAN_POINT('Origin',(0.225,-7.675,18.35));
#1004=CARTESIAN_POINT('Origin',(-0.225,-2.125,18.35));
#1005=CARTESIAN_POINT('Origin',(0.8,0.5,18.45));
#1006=CARTESIAN_POINT('',(0.8,10.,15.45));
#1007=CARTESIAN_POINT('',(0.8,0.5,18.45));
#1008=CARTESIAN_POINT('',(-2.6,10.,15.45));
#1009=CARTESIAN_POINT('',(1.2,0.5,18.45));
#1010=CARTESIAN_POINT('Origin',(0.8,5.25,16.95));
#1011=CARTESIAN_POINT('',(0.8,10.,16.2));
#1012=CARTESIAN_POINT('Origin',(-2.6,10.,15.45));
#1013=CARTESIAN_POINT('',(-0.8,10.,15.45));
#1014=CARTESIAN_POINT('',(-0.8,10.,16.2));
#1015=CARTESIAN_POINT('',(-2.6,10.,15.45));
#1016=CARTESIAN_POINT('Origin',(-1.2,0.5,18.45));
#1017=CARTESIAN_POINT('',(-1.2,0.5,18.45));
#1018=CARTESIAN_POINT('',(-2.6,10.,15.45));
#1019=CARTESIAN_POINT('',(-0.8,0.5,18.45));
#1020=CARTESIAN_POINT('Origin',(-0.8,5.25,16.95));
#1021=CARTESIAN_POINT('Origin',(2.6,10.,15.45));
#1022=CARTESIAN_POINT('',(2.6,10.,15.45));
#1023=CARTESIAN_POINT('',(2.6,10.,20.45));
#1024=CARTESIAN_POINT('Origin',(-2.6,11.,15.45));
#1025=CARTESIAN_POINT('',(-2.6,11.,15.45));
#1026=CARTESIAN_POINT('',(-2.6,11.,20.45));
#1027=CARTESIAN_POINT('Origin',(0.,10.5,20.45));
#1028=CARTESIAN_POINT('Origin',(0.,10.5,15.45));
#1029=CARTESIAN_POINT('Origin',(1.2,-8.,18.45));
#1030=CARTESIAN_POINT('',(1.2,-8.,18.45));
#1031=CARTESIAN_POINT('Origin',(-1.2,-8.,18.45));
#1032=CARTESIAN_POINT('',(-1.2,-8.,18.45));
#1033=CARTESIAN_POINT('Origin',(-1.2,11.,18.45));
#1034=UNCERTAINTY_MEASURE_WITH_UNIT(LENGTH_MEASURE(0.001),#1038,
'DISTANCE_ACCURACY_VALUE',
'Maximum model space distance between geometric entities at asserted c
onnectivities');
#1035=UNCERTAINTY_MEASURE_WITH_UNIT(LENGTH_MEASURE(0.001),#1038,
'DISTANCE_ACCURACY_VALUE',
'Maximum model space distance between geometric entities at asserted c
onnectivities');
#1036=(
GEOMETRIC_REPRESENTATION_CONTEXT(3)
GLOBAL_UNCERTAINTY_ASSIGNED_CONTEXT((#1034))
GLOBAL_UNIT_ASSIGNED_CONTEXT((#1038,#1040,#1041))
REPRESENTATION_CONTEXT('','3D')
);
#1037=(
GEOMETRIC_REPRESENTATION_CONTEXT(3)
GLOBAL_UNCERTAINTY_ASSIGNED_CONTEXT((#1035))
GLOBAL_UNIT_ASSIGNED_CONTEXT((#1038,#1040,#1041))
REPRESENTATION_CONTEXT('','3D')
);
#1038=(
LENGTH_UNIT()
NAMED_UNIT(*)
SI_UNIT(.CENTI.,.METRE.)
);
#1039=(
LENGTH_UNIT()
NAMED_UNIT(*)
SI_UNIT($,.METRE.)
);
#1040=(
NAMED_UNIT(*)
PLANE_ANGLE_UNIT()
SI_UNIT($,.RADIAN.)
);
#1041=(
NAMED_UNIT(*)
SI_UNIT($,.STERADIAN.)
SOLID_ANGLE_UNIT()
);
#1042=SHAPE_DEFINITION_REPRESENTATION(#1043,#1044);
#1043=PRODUCT_DEFINITION_SHAPE('',$,#1046);
#1044=SHAPE_REPRESENTATION('',(#642),#1036);
#1045=PRODUCT_DEFINITION_CONTEXT('part definition',#1050,'design');
#1046=PRODUCT_DEFINITION('2026-09-10-22-45-44-125','P01_\X2\5BF979F0625881C2\X0\',
#1047,#1045);
#1047=PRODUCT_DEFINITION_FORMATION('',$,#1052);
#1048=PRODUCT_RELATED_PRODUCT_CATEGORY('P01_\X2\5BF979F0625881C2\X0\',
'P01_\X2\5BF979F0625881C2\X0\',(#1052));
#1049=APPLICATION_PROTOCOL_DEFINITION('international standard',
'automotive_design',2009,#1050);
#1050=APPLICATION_CONTEXT(
'Core Data for Automotive Mechanical Design Process');
#1051=PRODUCT_CONTEXT('part definition',#1050,'mechanical');
#1052=PRODUCT('2026-09-10-22-45-44-125','P01_\X2\5BF979F0625881C2\X0\',
$,(#1051));
#1053=PRESENTATION_STYLE_ASSIGNMENT((#1055));
#1054=PRESENTATION_STYLE_ASSIGNMENT((#1056));
#1055=SURFACE_STYLE_USAGE(.BOTH.,#1057);
#1056=SURFACE_STYLE_USAGE(.BOTH.,#1058);
#1057=SURFACE_SIDE_STYLE('',(#1059));
#1058=SURFACE_SIDE_STYLE('',(#1060));
#1059=SURFACE_STYLE_FILL_AREA(#1061);
#1060=SURFACE_STYLE_FILL_AREA(#1062);
#1061=FILL_AREA_STYLE('\X2\94A2\X0\ - \X2\7F0E5149\X0\',(#1063));
#1062=FILL_AREA_STYLE('R2_camera',(#1064));
#1063=FILL_AREA_STYLE_COLOUR('\X2\94A2\X0\ - \X2\7F0E5149\X0\',#1065);
#1064=FILL_AREA_STYLE_COLOUR('R2_camera',#1066);
#1065=COLOUR_RGB('\X2\94A2\X0\ - \X2\7F0E5149\X0\',0.627450980392157,0.627450980392157,
0.627450980392157);
#1066=COLOUR_RGB('R2_camera',0.141176470588235,0.4,0.607843137254902);
ENDSEC;
END-ISO-10303-21;
