ISO-10303-21;
HEADER;
/* Generated by software containing ST-Developer
 * from STEP Tools, Inc. (www.steptools.com) 
 */

FILE_DESCRIPTION(
/* description */ (''),
/* implementation_level */ '2;1');

FILE_NAME(
/* name */ 'P02.step',
/* time_stamp */ '2026-09-10T22:45:55+08:00',
/* author */ (''),
/* organization */ (''),
/* preprocessor_version */ 'ST-DEVELOPER v20.1',
/* originating_system */ 'Autodesk Translation Framework v15.8.0.0',
/* authorisation */ '');

FILE_SCHEMA (('AUTOMOTIVE_DESIGN { 1 0 10303 214 3 1 1 }'));
ENDSEC;

DATA;
#10=MECHANICAL_DESIGN_GEOMETRIC_PRESENTATION_REPRESENTATION('',(#13),#459);
#11=SHAPE_REPRESENTATION_RELATIONSHIP('SRR','None',#466,#12);
#12=ADVANCED_BREP_SHAPE_REPRESENTATION('',(#14),#458);
#13=STYLED_ITEM('',(#476),#14);
#14=MANIFOLD_SOLID_BREP('\X2\5B9E4F53\X0\1',#279);
#15=CYLINDRICAL_SURFACE('',#302,0.225);
#16=CYLINDRICAL_SURFACE('',#304,0.225);
#17=FACE_BOUND('',#46,.T.);
#18=FACE_BOUND('',#47,.T.);
#19=FACE_BOUND('',#55,.T.);
#20=FACE_BOUND('',#56,.T.);
#21=CIRCLE('',#300,0.225);
#22=CIRCLE('',#301,0.225);
#23=CIRCLE('',#303,0.225);
#24=CIRCLE('',#305,0.225);
#25=FACE_OUTER_BOUND('',#39,.T.);
#26=FACE_OUTER_BOUND('',#40,.T.);
#27=FACE_OUTER_BOUND('',#41,.T.);
#28=FACE_OUTER_BOUND('',#42,.T.);
#29=FACE_OUTER_BOUND('',#43,.T.);
#30=FACE_OUTER_BOUND('',#44,.T.);
#31=FACE_OUTER_BOUND('',#45,.T.);
#32=FACE_OUTER_BOUND('',#48,.T.);
#33=FACE_OUTER_BOUND('',#49,.T.);
#34=FACE_OUTER_BOUND('',#50,.T.);
#35=FACE_OUTER_BOUND('',#51,.T.);
#36=FACE_OUTER_BOUND('',#52,.T.);
#37=FACE_OUTER_BOUND('',#53,.T.);
#38=FACE_OUTER_BOUND('',#54,.T.);
#39=EDGE_LOOP('',(#181,#182,#183,#184));
#40=EDGE_LOOP('',(#185,#186,#187,#188));
#41=EDGE_LOOP('',(#189,#190,#191,#192));
#42=EDGE_LOOP('',(#193,#194,#195,#196));
#43=EDGE_LOOP('',(#197,#198,#199,#200));
#44=EDGE_LOOP('',(#201,#202,#203,#204));
#45=EDGE_LOOP('',(#205,#206,#207,#208));
#46=EDGE_LOOP('',(#209));
#47=EDGE_LOOP('',(#210));
#48=EDGE_LOOP('',(#211,#212,#213,#214));
#49=EDGE_LOOP('',(#215,#216,#217,#218));
#50=EDGE_LOOP('',(#219,#220,#221,#222));
#51=EDGE_LOOP('',(#223,#224,#225,#226,#227,#228,#229,#230,#231,#232));
#52=EDGE_LOOP('',(#233,#234,#235,#236));
#53=EDGE_LOOP('',(#237,#238,#239,#240,#241,#242,#243,#244,#245,#246));
#54=EDGE_LOOP('',(#247,#248,#249,#250));
#55=EDGE_LOOP('',(#251));
#56=EDGE_LOOP('',(#252));
#57=LINE('',#385,#89);
#58=LINE('',#387,#90);
#59=LINE('',#389,#91);
#60=LINE('',#390,#92);
#61=LINE('',#393,#93);
#62=LINE('',#395,#94);
#63=LINE('',#396,#95);
#64=LINE('',#400,#96);
#65=LINE('',#402,#97);
#66=LINE('',#404,#98);
#67=LINE('',#405,#99);
#68=LINE('',#408,#100);
#69=LINE('',#410,#101);
#70=LINE('',#411,#102);
#71=LINE('',#414,#103);
#72=LINE('',#416,#104);
#73=LINE('',#417,#105);
#74=LINE('',#419,#106);
#75=LINE('',#420,#107);
#76=LINE('',#423,#108);
#77=LINE('',#425,#109);
#78=LINE('',#426,#110);
#79=LINE('',#434,#111);
#80=LINE('',#438,#112);
#81=LINE('',#442,#113);
#82=LINE('',#443,#114);
#83=LINE('',#444,#115);
#84=LINE('',#447,#116);
#85=LINE('',#448,#117);
#86=LINE('',#451,#118);
#87=LINE('',#452,#119);
#88=LINE('',#454,#120);
#89=VECTOR('',#315,1.);
#90=VECTOR('',#316,1.);
#91=VECTOR('',#317,1.);
#92=VECTOR('',#318,1.);
#93=VECTOR('',#321,1.);
#94=VECTOR('',#322,1.);
#95=VECTOR('',#323,1.);
#96=VECTOR('',#326,1.);
#97=VECTOR('',#327,1.);
#98=VECTOR('',#328,1.);
#99=VECTOR('',#329,1.);
#100=VECTOR('',#332,1.);
#101=VECTOR('',#333,1.);
#102=VECTOR('',#334,1.);
#103=VECTOR('',#337,1.);
#104=VECTOR('',#338,1.);
#105=VECTOR('',#339,1.);
#106=VECTOR('',#342,1.);
#107=VECTOR('',#343,1.);
#108=VECTOR('',#346,1.);
#109=VECTOR('',#347,1.);
#110=VECTOR('',#348,1.);
#111=VECTOR('',#357,0.225);
#112=VECTOR('',#362,0.225);
#113=VECTOR('',#365,1.);
#114=VECTOR('',#366,1.);
#115=VECTOR('',#367,1.);
#116=VECTOR('',#370,1.);
#117=VECTOR('',#371,1.);
#118=VECTOR('',#374,1.);
#119=VECTOR('',#375,1.);
#120=VECTOR('',#378,1.);
#121=VERTEX_POINT('',#383);
#122=VERTEX_POINT('',#384);
#123=VERTEX_POINT('',#386);
#124=VERTEX_POINT('',#388);
#125=VERTEX_POINT('',#392);
#126=VERTEX_POINT('',#394);
#127=VERTEX_POINT('',#398);
#128=VERTEX_POINT('',#399);
#129=VERTEX_POINT('',#401);
#130=VERTEX_POINT('',#403);
#131=VERTEX_POINT('',#407);
#132=VERTEX_POINT('',#409);
#133=VERTEX_POINT('',#413);
#134=VERTEX_POINT('',#415);
#135=VERTEX_POINT('',#422);
#136=VERTEX_POINT('',#424);
#137=VERTEX_POINT('',#427);
#138=VERTEX_POINT('',#429);
#139=VERTEX_POINT('',#432);
#140=VERTEX_POINT('',#436);
#141=VERTEX_POINT('',#440);
#142=VERTEX_POINT('',#441);
#143=VERTEX_POINT('',#446);
#144=VERTEX_POINT('',#450);
#145=EDGE_CURVE('',#121,#122,#57,.T.);
#146=EDGE_CURVE('',#122,#123,#58,.T.);
#147=EDGE_CURVE('',#124,#123,#59,.T.);
#148=EDGE_CURVE('',#121,#124,#60,.T.);
#149=EDGE_CURVE('',#125,#121,#61,.T.);
#150=EDGE_CURVE('',#126,#125,#62,.T.);
#151=EDGE_CURVE('',#122,#126,#63,.T.);
#152=EDGE_CURVE('',#127,#128,#64,.T.);
#153=EDGE_CURVE('',#127,#129,#65,.T.);
#154=EDGE_CURVE('',#130,#129,#66,.T.);
#155=EDGE_CURVE('',#128,#130,#67,.T.);
#156=EDGE_CURVE('',#131,#130,#68,.T.);
#157=EDGE_CURVE('',#129,#132,#69,.T.);
#158=EDGE_CURVE('',#131,#132,#70,.T.);
#159=EDGE_CURVE('',#128,#133,#71,.T.);
#160=EDGE_CURVE('',#133,#134,#72,.T.);
#161=EDGE_CURVE('',#134,#127,#73,.T.);
#162=EDGE_CURVE('',#131,#125,#74,.T.);
#163=EDGE_CURVE('',#132,#126,#75,.T.);
#164=EDGE_CURVE('',#135,#124,#76,.T.);
#165=EDGE_CURVE('',#123,#136,#77,.T.);
#166=EDGE_CURVE('',#136,#135,#78,.T.);
#167=EDGE_CURVE('',#137,#137,#21,.T.);
#168=EDGE_CURVE('',#138,#138,#22,.T.);
#169=EDGE_CURVE('',#139,#139,#23,.T.);
#170=EDGE_CURVE('',#139,#137,#79,.T.);
#171=EDGE_CURVE('',#140,#140,#24,.T.);
#172=EDGE_CURVE('',#140,#138,#80,.T.);
#173=EDGE_CURVE('',#141,#142,#81,.T.);
#174=EDGE_CURVE('',#142,#135,#82,.T.);
#175=EDGE_CURVE('',#141,#136,#83,.T.);
#176=EDGE_CURVE('',#143,#141,#84,.T.);
#177=EDGE_CURVE('',#143,#134,#85,.T.);
#178=EDGE_CURVE('',#144,#143,#86,.T.);
#179=EDGE_CURVE('',#144,#133,#87,.T.);
#180=EDGE_CURVE('',#142,#144,#88,.T.);
#181=ORIENTED_EDGE('',*,*,#145,.T.);
#182=ORIENTED_EDGE('',*,*,#146,.T.);
#183=ORIENTED_EDGE('',*,*,#147,.F.);
#184=ORIENTED_EDGE('',*,*,#148,.F.);
#185=ORIENTED_EDGE('',*,*,#149,.F.);
#186=ORIENTED_EDGE('',*,*,#150,.F.);
#187=ORIENTED_EDGE('',*,*,#151,.F.);
#188=ORIENTED_EDGE('',*,*,#145,.F.);
#189=ORIENTED_EDGE('',*,*,#152,.F.);
#190=ORIENTED_EDGE('',*,*,#153,.T.);
#191=ORIENTED_EDGE('',*,*,#154,.F.);
#192=ORIENTED_EDGE('',*,*,#155,.F.);
#193=ORIENTED_EDGE('',*,*,#156,.T.);
#194=ORIENTED_EDGE('',*,*,#154,.T.);
#195=ORIENTED_EDGE('',*,*,#157,.T.);
#196=ORIENTED_EDGE('',*,*,#158,.F.);
#197=ORIENTED_EDGE('',*,*,#152,.T.);
#198=ORIENTED_EDGE('',*,*,#159,.T.);
#199=ORIENTED_EDGE('',*,*,#160,.T.);
#200=ORIENTED_EDGE('',*,*,#161,.T.);
#201=ORIENTED_EDGE('',*,*,#150,.T.);
#202=ORIENTED_EDGE('',*,*,#162,.F.);
#203=ORIENTED_EDGE('',*,*,#158,.T.);
#204=ORIENTED_EDGE('',*,*,#163,.T.);
#205=ORIENTED_EDGE('',*,*,#164,.T.);
#206=ORIENTED_EDGE('',*,*,#147,.T.);
#207=ORIENTED_EDGE('',*,*,#165,.T.);
#208=ORIENTED_EDGE('',*,*,#166,.T.);
#209=ORIENTED_EDGE('',*,*,#167,.T.);
#210=ORIENTED_EDGE('',*,*,#168,.T.);
#211=ORIENTED_EDGE('',*,*,#169,.F.);
#212=ORIENTED_EDGE('',*,*,#170,.T.);
#213=ORIENTED_EDGE('',*,*,#167,.F.);
#214=ORIENTED_EDGE('',*,*,#170,.F.);
#215=ORIENTED_EDGE('',*,*,#171,.F.);
#216=ORIENTED_EDGE('',*,*,#172,.T.);
#217=ORIENTED_EDGE('',*,*,#168,.F.);
#218=ORIENTED_EDGE('',*,*,#172,.F.);
#219=ORIENTED_EDGE('',*,*,#173,.T.);
#220=ORIENTED_EDGE('',*,*,#174,.T.);
#221=ORIENTED_EDGE('',*,*,#166,.F.);
#222=ORIENTED_EDGE('',*,*,#175,.F.);
#223=ORIENTED_EDGE('',*,*,#176,.T.);
#224=ORIENTED_EDGE('',*,*,#175,.T.);
#225=ORIENTED_EDGE('',*,*,#165,.F.);
#226=ORIENTED_EDGE('',*,*,#146,.F.);
#227=ORIENTED_EDGE('',*,*,#151,.T.);
#228=ORIENTED_EDGE('',*,*,#163,.F.);
#229=ORIENTED_EDGE('',*,*,#157,.F.);
#230=ORIENTED_EDGE('',*,*,#153,.F.);
#231=ORIENTED_EDGE('',*,*,#161,.F.);
#232=ORIENTED_EDGE('',*,*,#177,.F.);
#233=ORIENTED_EDGE('',*,*,#178,.T.);
#234=ORIENTED_EDGE('',*,*,#177,.T.);
#235=ORIENTED_EDGE('',*,*,#160,.F.);
#236=ORIENTED_EDGE('',*,*,#179,.F.);
#237=ORIENTED_EDGE('',*,*,#180,.T.);
#238=ORIENTED_EDGE('',*,*,#179,.T.);
#239=ORIENTED_EDGE('',*,*,#159,.F.);
#240=ORIENTED_EDGE('',*,*,#155,.T.);
#241=ORIENTED_EDGE('',*,*,#156,.F.);
#242=ORIENTED_EDGE('',*,*,#162,.T.);
#243=ORIENTED_EDGE('',*,*,#149,.T.);
#244=ORIENTED_EDGE('',*,*,#148,.T.);
#245=ORIENTED_EDGE('',*,*,#164,.F.);
#246=ORIENTED_EDGE('',*,*,#174,.F.);
#247=ORIENTED_EDGE('',*,*,#180,.F.);
#248=ORIENTED_EDGE('',*,*,#173,.F.);
#249=ORIENTED_EDGE('',*,*,#176,.F.);
#250=ORIENTED_EDGE('',*,*,#178,.F.);
#251=ORIENTED_EDGE('',*,*,#169,.T.);
#252=ORIENTED_EDGE('',*,*,#171,.T.);
#253=PLANE('',#293);
#254=PLANE('',#294);
#255=PLANE('',#295);
#256=PLANE('',#296);
#257=PLANE('',#297);
#258=PLANE('',#298);
#259=PLANE('',#299);
#260=PLANE('',#306);
#261=PLANE('',#307);
#262=PLANE('',#308);
#263=PLANE('',#309);
#264=PLANE('',#310);
#265=ADVANCED_FACE('',(#25),#253,.T.);
#266=ADVANCED_FACE('',(#26),#254,.F.);
#267=ADVANCED_FACE('',(#27),#255,.T.);
#268=ADVANCED_FACE('',(#28),#256,.T.);
#269=ADVANCED_FACE('',(#29),#257,.T.);
#270=ADVANCED_FACE('',(#30),#258,.T.);
#271=ADVANCED_FACE('',(#31,#17,#18),#259,.T.);
#272=ADVANCED_FACE('',(#32),#15,.F.);
#273=ADVANCED_FACE('',(#33),#16,.F.);
#274=ADVANCED_FACE('',(#34),#260,.T.);
#275=ADVANCED_FACE('',(#35),#261,.T.);
#276=ADVANCED_FACE('',(#36),#262,.T.);
#277=ADVANCED_FACE('',(#37),#263,.T.);
#278=ADVANCED_FACE('',(#38,#19,#20),#264,.F.);
#279=CLOSED_SHELL('',(#265,#266,#267,#268,#269,#270,#271,#272,#273,#274,
#275,#276,#277,#278));
#280=DERIVED_UNIT_ELEMENT(#282,1.);
#281=DERIVED_UNIT_ELEMENT(#461,-3.);
#282=(
MASS_UNIT()
NAMED_UNIT(*)
SI_UNIT(.KILO.,.GRAM.)
);
#283=DERIVED_UNIT((#280,#281));
#284=MEASURE_REPRESENTATION_ITEM('density measure',
POSITIVE_RATIO_MEASURE(7850.),#283);
#285=PROPERTY_DEFINITION_REPRESENTATION(#290,#287);
#286=PROPERTY_DEFINITION_REPRESENTATION(#291,#288);
#287=REPRESENTATION('material name',(#289),#458);
#288=REPRESENTATION('density',(#284),#458);
#289=DESCRIPTIVE_REPRESENTATION_ITEM('\X2\94A2\X0\','\X2\94A2\X0\');
#290=PROPERTY_DEFINITION('material property','material name',#468);
#291=PROPERTY_DEFINITION('material property','density of part',#468);
#292=AXIS2_PLACEMENT_3D('',#381,#311,#312);
#293=AXIS2_PLACEMENT_3D('',#382,#313,#314);
#294=AXIS2_PLACEMENT_3D('',#391,#319,#320);
#295=AXIS2_PLACEMENT_3D('',#397,#324,#325);
#296=AXIS2_PLACEMENT_3D('',#406,#330,#331);
#297=AXIS2_PLACEMENT_3D('',#412,#335,#336);
#298=AXIS2_PLACEMENT_3D('',#418,#340,#341);
#299=AXIS2_PLACEMENT_3D('',#421,#344,#345);
#300=AXIS2_PLACEMENT_3D('',#428,#349,#350);
#301=AXIS2_PLACEMENT_3D('',#430,#351,#352);
#302=AXIS2_PLACEMENT_3D('',#431,#353,#354);
#303=AXIS2_PLACEMENT_3D('',#433,#355,#356);
#304=AXIS2_PLACEMENT_3D('',#435,#358,#359);
#305=AXIS2_PLACEMENT_3D('',#437,#360,#361);
#306=AXIS2_PLACEMENT_3D('',#439,#363,#364);
#307=AXIS2_PLACEMENT_3D('',#445,#368,#369);
#308=AXIS2_PLACEMENT_3D('',#449,#372,#373);
#309=AXIS2_PLACEMENT_3D('',#453,#376,#377);
#310=AXIS2_PLACEMENT_3D('',#455,#379,#380);
#311=DIRECTION('axis',(0.,0.,1.));
#312=DIRECTION('refdir',(1.,0.,0.));
#313=DIRECTION('center_axis',(0.,-1.,0.));
#314=DIRECTION('ref_axis',(1.,0.,0.));
#315=DIRECTION('',(1.,0.,0.));
#316=DIRECTION('',(0.,0.,1.));
#317=DIRECTION('',(1.,0.,0.));
#318=DIRECTION('',(0.,0.,1.));
#319=DIRECTION('center_axis',(0.,0.,1.));
#320=DIRECTION('ref_axis',(1.,0.,0.));
#321=DIRECTION('',(0.,-1.,0.));
#322=DIRECTION('',(-1.,0.,0.));
#323=DIRECTION('',(0.,1.,0.));
#324=DIRECTION('center_axis',(0.,-1.,0.));
#325=DIRECTION('ref_axis',(1.,0.,0.));
#326=DIRECTION('',(-1.,0.,0.));
#327=DIRECTION('',(0.,0.,1.));
#328=DIRECTION('',(1.,0.,0.));
#329=DIRECTION('',(0.,0.,1.));
#330=DIRECTION('center_axis',(0.,0.,1.));
#331=DIRECTION('ref_axis',(1.,0.,0.));
#332=DIRECTION('',(0.,-1.,0.));
#333=DIRECTION('',(0.,1.,0.));
#334=DIRECTION('',(1.,0.,0.));
#335=DIRECTION('center_axis',(0.,0.,1.));
#336=DIRECTION('ref_axis',(1.,0.,0.));
#337=DIRECTION('',(0.,-1.,0.));
#338=DIRECTION('',(1.,0.,0.));
#339=DIRECTION('',(0.,1.,0.));
#340=DIRECTION('center_axis',(0.,-1.,0.));
#341=DIRECTION('ref_axis',(1.,0.,0.));
#342=DIRECTION('',(0.,0.,1.));
#343=DIRECTION('',(0.,0.,1.));
#344=DIRECTION('center_axis',(0.,0.,1.));
#345=DIRECTION('ref_axis',(1.,0.,0.));
#346=DIRECTION('',(0.,-1.,0.));
#347=DIRECTION('',(0.,1.,0.));
#348=DIRECTION('',(-1.,0.,0.));
#349=DIRECTION('center_axis',(0.,0.,-1.));
#350=DIRECTION('ref_axis',(1.,0.,0.));
#351=DIRECTION('center_axis',(0.,0.,-1.));
#352=DIRECTION('ref_axis',(1.,0.,0.));
#353=DIRECTION('center_axis',(0.,0.,1.));
#354=DIRECTION('ref_axis',(1.,0.,0.));
#355=DIRECTION('center_axis',(0.,0.,1.));
#356=DIRECTION('ref_axis',(1.,0.,0.));
#357=DIRECTION('',(0.,0.,1.));
#358=DIRECTION('center_axis',(0.,0.,1.));
#359=DIRECTION('ref_axis',(1.,0.,0.));
#360=DIRECTION('center_axis',(0.,0.,1.));
#361=DIRECTION('ref_axis',(1.,0.,0.));
#362=DIRECTION('',(0.,0.,1.));
#363=DIRECTION('center_axis',(0.,1.,0.));
#364=DIRECTION('ref_axis',(-1.,0.,0.));
#365=DIRECTION('',(-1.,0.,0.));
#366=DIRECTION('',(0.,0.,1.));
#367=DIRECTION('',(0.,0.,1.));
#368=DIRECTION('center_axis',(1.,0.,0.));
#369=DIRECTION('ref_axis',(0.,1.,0.));
#370=DIRECTION('',(0.,1.,0.));
#371=DIRECTION('',(0.,0.,1.));
#372=DIRECTION('center_axis',(0.,-1.,0.));
#373=DIRECTION('ref_axis',(1.,0.,0.));
#374=DIRECTION('',(1.,0.,0.));
#375=DIRECTION('',(0.,0.,1.));
#376=DIRECTION('center_axis',(-1.,0.,0.));
#377=DIRECTION('ref_axis',(0.,-1.,0.));
#378=DIRECTION('',(0.,-1.,0.));
#379=DIRECTION('center_axis',(0.,0.,1.));
#380=DIRECTION('ref_axis',(1.,0.,0.));
#381=CARTESIAN_POINT('',(0.,0.,0.));
#382=CARTESIAN_POINT('Origin',(-3.7,4.55,23.4));
#383=CARTESIAN_POINT('',(-3.7,4.55,23.4));
#384=CARTESIAN_POINT('',(3.7,4.55,23.4));
#385=CARTESIAN_POINT('',(-3.7,4.55,23.4));
#386=CARTESIAN_POINT('',(3.7,4.55,23.55));
#387=CARTESIAN_POINT('',(3.7,4.55,23.4));
#388=CARTESIAN_POINT('',(-3.7,4.55,23.55));
#389=CARTESIAN_POINT('',(-3.7,4.55,23.55));
#390=CARTESIAN_POINT('',(-3.7,4.55,23.4));
#391=CARTESIAN_POINT('Origin',(0.,4.65,23.4));
#392=CARTESIAN_POINT('',(-3.7,4.75,23.4));
#393=CARTESIAN_POINT('',(-3.7,4.75,23.4));
#394=CARTESIAN_POINT('',(3.7,4.75,23.4));
#395=CARTESIAN_POINT('',(-1.85,4.75,23.4));
#396=CARTESIAN_POINT('',(3.7,4.55,23.4));
#397=CARTESIAN_POINT('Origin',(-3.7,4.55,20.45));
#398=CARTESIAN_POINT('',(3.7,4.55,20.45));
#399=CARTESIAN_POINT('',(-3.7,4.55,20.45));
#400=CARTESIAN_POINT('',(-1.85,4.55,20.45));
#401=CARTESIAN_POINT('',(3.7,4.55,20.6));
#402=CARTESIAN_POINT('',(3.7,4.55,20.45));
#403=CARTESIAN_POINT('',(-3.7,4.55,20.6));
#404=CARTESIAN_POINT('',(-3.7,4.55,20.6));
#405=CARTESIAN_POINT('',(-3.7,4.55,20.45));
#406=CARTESIAN_POINT('Origin',(0.,4.65,20.6));
#407=CARTESIAN_POINT('',(-3.7,4.75,20.6));
#408=CARTESIAN_POINT('',(-3.7,4.75,20.6));
#409=CARTESIAN_POINT('',(3.7,4.75,20.6));
#410=CARTESIAN_POINT('',(3.7,4.55,20.6));
#411=CARTESIAN_POINT('',(-1.85,4.75,20.6));
#412=CARTESIAN_POINT('Origin',(0.,4.8,20.45));
#413=CARTESIAN_POINT('',(-3.7,2.6,20.45));
#414=CARTESIAN_POINT('',(-3.7,7.,20.45));
#415=CARTESIAN_POINT('',(3.7,2.6,20.45));
#416=CARTESIAN_POINT('',(-3.7,2.6,20.45));
#417=CARTESIAN_POINT('',(3.7,2.6,20.45));
#418=CARTESIAN_POINT('Origin',(-3.7,4.75,20.45));
#419=CARTESIAN_POINT('',(-3.7,4.75,20.45));
#420=CARTESIAN_POINT('',(3.7,4.75,20.45));
#421=CARTESIAN_POINT('Origin',(0.,5.875,23.55));
#422=CARTESIAN_POINT('',(-3.7,7.,23.55));
#423=CARTESIAN_POINT('',(-3.7,7.,23.55));
#424=CARTESIAN_POINT('',(3.7,7.,23.55));
#425=CARTESIAN_POINT('',(3.7,4.55,23.55));
#426=CARTESIAN_POINT('',(3.7,7.,23.55));
#427=CARTESIAN_POINT('',(-0.225,6.6,23.55));
#428=CARTESIAN_POINT('Origin',(0.,6.6,23.55));
#429=CARTESIAN_POINT('',(-0.225,5.4,23.55));
#430=CARTESIAN_POINT('Origin',(0.,5.4,23.55));
#431=CARTESIAN_POINT('Origin',(0.,6.6,19.35));
#432=CARTESIAN_POINT('',(-0.225,6.6,19.45));
#433=CARTESIAN_POINT('Origin',(0.,6.6,19.45));
#434=CARTESIAN_POINT('',(-0.225,6.6,19.35));
#435=CARTESIAN_POINT('Origin',(0.,5.4,19.35));
#436=CARTESIAN_POINT('',(-0.225,5.4,19.45));
#437=CARTESIAN_POINT('Origin',(0.,5.4,19.45));
#438=CARTESIAN_POINT('',(-0.225,5.4,19.35));
#439=CARTESIAN_POINT('Origin',(3.7,7.,19.45));
#440=CARTESIAN_POINT('',(3.7,7.,19.45));
#441=CARTESIAN_POINT('',(-3.7,7.,19.45));
#442=CARTESIAN_POINT('',(3.7,7.,19.45));
#443=CARTESIAN_POINT('',(-3.7,7.,19.45));
#444=CARTESIAN_POINT('',(3.7,7.,19.45));
#445=CARTESIAN_POINT('Origin',(3.7,2.6,19.45));
#446=CARTESIAN_POINT('',(3.7,2.6,19.45));
#447=CARTESIAN_POINT('',(3.7,2.6,19.45));
#448=CARTESIAN_POINT('',(3.7,2.6,19.45));
#449=CARTESIAN_POINT('Origin',(-3.7,2.6,19.45));
#450=CARTESIAN_POINT('',(-3.7,2.6,19.45));
#451=CARTESIAN_POINT('',(-3.7,2.6,19.45));
#452=CARTESIAN_POINT('',(-3.7,2.6,19.45));
#453=CARTESIAN_POINT('Origin',(-3.7,7.,19.45));
#454=CARTESIAN_POINT('',(-3.7,7.,19.45));
#455=CARTESIAN_POINT('Origin',(0.,4.8,19.45));
#456=UNCERTAINTY_MEASURE_WITH_UNIT(LENGTH_MEASURE(0.001),#460,
'DISTANCE_ACCURACY_VALUE',
'Maximum model space distance between geometric entities at asserted c
onnectivities');
#457=UNCERTAINTY_MEASURE_WITH_UNIT(LENGTH_MEASURE(0.001),#460,
'DISTANCE_ACCURACY_VALUE',
'Maximum model space distance between geometric entities at asserted c
onnectivities');
#458=(
GEOMETRIC_REPRESENTATION_CONTEXT(3)
GLOBAL_UNCERTAINTY_ASSIGNED_CONTEXT((#456))
GLOBAL_UNIT_ASSIGNED_CONTEXT((#460,#462,#463))
REPRESENTATION_CONTEXT('','3D')
);
#459=(
GEOMETRIC_REPRESENTATION_CONTEXT(3)
GLOBAL_UNCERTAINTY_ASSIGNED_CONTEXT((#457))
GLOBAL_UNIT_ASSIGNED_CONTEXT((#460,#462,#463))
REPRESENTATION_CONTEXT('','3D')
);
#460=(
LENGTH_UNIT()
NAMED_UNIT(*)
SI_UNIT(.CENTI.,.METRE.)
);
#461=(
LENGTH_UNIT()
NAMED_UNIT(*)
SI_UNIT($,.METRE.)
);
#462=(
NAMED_UNIT(*)
PLANE_ANGLE_UNIT()
SI_UNIT($,.RADIAN.)
);
#463=(
NAMED_UNIT(*)
SI_UNIT($,.STERADIAN.)
SOLID_ANGLE_UNIT()
);
#464=SHAPE_DEFINITION_REPRESENTATION(#465,#466);
#465=PRODUCT_DEFINITION_SHAPE('',$,#468);
#466=SHAPE_REPRESENTATION('',(#292),#458);
#467=PRODUCT_DEFINITION_CONTEXT('part definition',#472,'design');
#468=PRODUCT_DEFINITION('2026-09-10-22-45-55-616',
'P02_\X2\52A05BBD56DB70B9627F62585757\X0\',#469,#467);
#469=PRODUCT_DEFINITION_FORMATION('',$,#474);
#470=PRODUCT_RELATED_PRODUCT_CATEGORY('P02_\X2\52A05BBD56DB70B9627F62585757\X0\',
'P02_\X2\52A05BBD56DB70B9627F62585757\X0\',(#474));
#471=APPLICATION_PROTOCOL_DEFINITION('international standard',
'automotive_design',2009,#472);
#472=APPLICATION_CONTEXT(
'Core Data for Automotive Mechanical Design Process');
#473=PRODUCT_CONTEXT('part definition',#472,'mechanical');
#474=PRODUCT('2026-09-10-22-45-55-616','P02_\X2\52A05BBD56DB70B9627F62585757\X0\',
$,(#473));
#475=PRESENTATION_STYLE_ASSIGNMENT((#477));
#476=PRESENTATION_STYLE_ASSIGNMENT((#478));
#477=SURFACE_STYLE_USAGE(.BOTH.,#479);
#478=SURFACE_STYLE_USAGE(.BOTH.,#480);
#479=SURFACE_SIDE_STYLE('',(#481));
#480=SURFACE_SIDE_STYLE('',(#482));
#481=SURFACE_STYLE_FILL_AREA(#483);
#482=SURFACE_STYLE_FILL_AREA(#484);
#483=FILL_AREA_STYLE('\X2\94A2\X0\ - \X2\7F0E5149\X0\',(#485));
#484=FILL_AREA_STYLE('R2_camera',(#486));
#485=FILL_AREA_STYLE_COLOUR('\X2\94A2\X0\ - \X2\7F0E5149\X0\',#487);
#486=FILL_AREA_STYLE_COLOUR('R2_camera',#488);
#487=COLOUR_RGB('\X2\94A2\X0\ - \X2\7F0E5149\X0\',0.627450980392157,0.627450980392157,
0.627450980392157);
#488=COLOUR_RGB('R2_camera',0.141176470588235,0.4,0.607843137254902);
ENDSEC;
END-ISO-10303-21;
