ISO-10303-21;
HEADER;
/* Generated by software containing ST-Developer
 * from STEP Tools, Inc. (www.steptools.com) 
 */

FILE_DESCRIPTION(
/* description */ (''),
/* implementation_level */ '2;1');

FILE_NAME(
/* name */ 'P03_RF.step',
/* time_stamp */ '2026-09-10T22:46:12+08:00',
/* author */ (''),
/* organization */ (''),
/* preprocessor_version */ 'ST-DEVELOPER v20.1',
/* originating_system */ 'Autodesk Translation Framework v15.8.0.0',
/* authorisation */ '');

FILE_SCHEMA (('AUTOMOTIVE_DESIGN { 1 0 10303 214 3 1 1 }'));
ENDSEC;

DATA;
#10=MECHANICAL_DESIGN_GEOMETRIC_PRESENTATION_REPRESENTATION('',(#13),#393);
#11=SHAPE_REPRESENTATION_RELATIONSHIP('SRR','None',#400,#12);
#12=ADVANCED_BREP_SHAPE_REPRESENTATION('',(#14),#392);
#13=STYLED_ITEM('',(#410),#14);
#14=MANIFOLD_SOLID_BREP('\X2\5B9E4F53\X0\1',#237);
#15=FACE_BOUND('',#48,.T.);
#16=FACE_BOUND('',#49,.T.);
#17=FACE_BOUND('',#55,.T.);
#18=FACE_BOUND('',#56,.T.);
#19=PLANE('',#257);
#20=PLANE('',#258);
#21=PLANE('',#259);
#22=PLANE('',#260);
#23=PLANE('',#261);
#24=PLANE('',#262);
#25=PLANE('',#263);
#26=PLANE('',#264);
#27=PLANE('',#265);
#28=PLANE('',#266);
#29=FACE_OUTER_BOUND('',#41,.T.);
#30=FACE_OUTER_BOUND('',#42,.T.);
#31=FACE_OUTER_BOUND('',#43,.T.);
#32=FACE_OUTER_BOUND('',#44,.T.);
#33=FACE_OUTER_BOUND('',#45,.T.);
#34=FACE_OUTER_BOUND('',#46,.T.);
#35=FACE_OUTER_BOUND('',#47,.T.);
#36=FACE_OUTER_BOUND('',#50,.T.);
#37=FACE_OUTER_BOUND('',#51,.T.);
#38=FACE_OUTER_BOUND('',#52,.T.);
#39=FACE_OUTER_BOUND('',#53,.T.);
#40=FACE_OUTER_BOUND('',#54,.T.);
#41=EDGE_LOOP('',(#163,#164,#165,#166));
#42=EDGE_LOOP('',(#167,#168,#169,#170));
#43=EDGE_LOOP('',(#171,#172,#173,#174));
#44=EDGE_LOOP('',(#175,#176,#177,#178));
#45=EDGE_LOOP('',(#179,#180,#181,#182));
#46=EDGE_LOOP('',(#183,#184,#185,#186));
#47=EDGE_LOOP('',(#187,#188,#189,#190,#191,#192,#193,#194));
#48=EDGE_LOOP('',(#195));
#49=EDGE_LOOP('',(#196));
#50=EDGE_LOOP('',(#197,#198,#199,#200,#201,#202,#203,#204));
#51=EDGE_LOOP('',(#205,#206,#207,#208));
#52=EDGE_LOOP('',(#209,#210,#211,#212));
#53=EDGE_LOOP('',(#213,#214,#215,#216));
#54=EDGE_LOOP('',(#217,#218,#219,#220));
#55=EDGE_LOOP('',(#221));
#56=EDGE_LOOP('',(#222));
#57=LINE('',#332,#83);
#58=LINE('',#338,#84);
#59=LINE('',#343,#85);
#60=LINE('',#345,#86);
#61=LINE('',#347,#87);
#62=LINE('',#348,#88);
#63=LINE('',#351,#89);
#64=LINE('',#353,#90);
#65=LINE('',#354,#91);
#66=LINE('',#357,#92);
#67=LINE('',#359,#93);
#68=LINE('',#360,#94);
#69=LINE('',#362,#95);
#70=LINE('',#365,#96);
#71=LINE('',#367,#97);
#72=LINE('',#369,#98);
#73=LINE('',#371,#99);
#74=LINE('',#372,#100);
#75=LINE('',#375,#101);
#76=LINE('',#377,#102);
#77=LINE('',#378,#103);
#78=LINE('',#381,#104);
#79=LINE('',#382,#105);
#80=LINE('',#385,#106);
#81=LINE('',#386,#107);
#82=LINE('',#388,#108);
#83=VECTOR('',#273,0.225);
#84=VECTOR('',#280,0.225);
#85=VECTOR('',#285,1.);
#86=VECTOR('',#286,1.);
#87=VECTOR('',#287,1.);
#88=VECTOR('',#288,1.);
#89=VECTOR('',#291,1.);
#90=VECTOR('',#292,1.);
#91=VECTOR('',#293,1.);
#92=VECTOR('',#296,1.);
#93=VECTOR('',#297,1.);
#94=VECTOR('',#298,1.);
#95=VECTOR('',#301,1.);
#96=VECTOR('',#304,1.);
#97=VECTOR('',#305,1.);
#98=VECTOR('',#306,1.);
#99=VECTOR('',#307,1.);
#100=VECTOR('',#308,1.);
#101=VECTOR('',#311,1.);
#102=VECTOR('',#312,1.);
#103=VECTOR('',#313,1.);
#104=VECTOR('',#316,1.);
#105=VECTOR('',#317,1.);
#106=VECTOR('',#320,1.);
#107=VECTOR('',#321,1.);
#108=VECTOR('',#324,1.);
#109=CIRCLE('',#252,0.225);
#110=CIRCLE('',#253,0.225);
#111=CIRCLE('',#255,0.225);
#112=CIRCLE('',#256,0.225);
#113=VERTEX_POINT('',#329);
#114=VERTEX_POINT('',#331);
#115=VERTEX_POINT('',#335);
#116=VERTEX_POINT('',#337);
#117=VERTEX_POINT('',#341);
#118=VERTEX_POINT('',#342);
#119=VERTEX_POINT('',#344);
#120=VERTEX_POINT('',#346);
#121=VERTEX_POINT('',#350);
#122=VERTEX_POINT('',#352);
#123=VERTEX_POINT('',#356);
#124=VERTEX_POINT('',#358);
#125=VERTEX_POINT('',#364);
#126=VERTEX_POINT('',#366);
#127=VERTEX_POINT('',#368);
#128=VERTEX_POINT('',#370);
#129=VERTEX_POINT('',#374);
#130=VERTEX_POINT('',#376);
#131=VERTEX_POINT('',#380);
#132=VERTEX_POINT('',#384);
#133=EDGE_CURVE('',#113,#113,#109,.T.);
#134=EDGE_CURVE('',#113,#114,#57,.T.);
#135=EDGE_CURVE('',#114,#114,#110,.T.);
#136=EDGE_CURVE('',#115,#115,#111,.T.);
#137=EDGE_CURVE('',#115,#116,#58,.T.);
#138=EDGE_CURVE('',#116,#116,#112,.T.);
#139=EDGE_CURVE('',#117,#118,#59,.T.);
#140=EDGE_CURVE('',#118,#119,#60,.T.);
#141=EDGE_CURVE('',#120,#119,#61,.T.);
#142=EDGE_CURVE('',#117,#120,#62,.T.);
#143=EDGE_CURVE('',#121,#117,#63,.T.);
#144=EDGE_CURVE('',#122,#120,#64,.T.);
#145=EDGE_CURVE('',#121,#122,#65,.T.);
#146=EDGE_CURVE('',#123,#121,#66,.T.);
#147=EDGE_CURVE('',#124,#122,#67,.T.);
#148=EDGE_CURVE('',#123,#124,#68,.T.);
#149=EDGE_CURVE('',#118,#123,#69,.T.);
#150=EDGE_CURVE('',#125,#119,#70,.T.);
#151=EDGE_CURVE('',#126,#125,#71,.T.);
#152=EDGE_CURVE('',#127,#126,#72,.T.);
#153=EDGE_CURVE('',#128,#127,#73,.T.);
#154=EDGE_CURVE('',#124,#128,#74,.T.);
#155=EDGE_CURVE('',#128,#129,#75,.T.);
#156=EDGE_CURVE('',#130,#129,#76,.T.);
#157=EDGE_CURVE('',#125,#130,#77,.T.);
#158=EDGE_CURVE('',#131,#130,#78,.T.);
#159=EDGE_CURVE('',#126,#131,#79,.T.);
#160=EDGE_CURVE('',#132,#131,#80,.T.);
#161=EDGE_CURVE('',#127,#132,#81,.T.);
#162=EDGE_CURVE('',#129,#132,#82,.T.);
#163=ORIENTED_EDGE('',*,*,#133,.F.);
#164=ORIENTED_EDGE('',*,*,#134,.T.);
#165=ORIENTED_EDGE('',*,*,#135,.F.);
#166=ORIENTED_EDGE('',*,*,#134,.F.);
#167=ORIENTED_EDGE('',*,*,#136,.F.);
#168=ORIENTED_EDGE('',*,*,#137,.T.);
#169=ORIENTED_EDGE('',*,*,#138,.F.);
#170=ORIENTED_EDGE('',*,*,#137,.F.);
#171=ORIENTED_EDGE('',*,*,#139,.T.);
#172=ORIENTED_EDGE('',*,*,#140,.T.);
#173=ORIENTED_EDGE('',*,*,#141,.F.);
#174=ORIENTED_EDGE('',*,*,#142,.F.);
#175=ORIENTED_EDGE('',*,*,#143,.T.);
#176=ORIENTED_EDGE('',*,*,#142,.T.);
#177=ORIENTED_EDGE('',*,*,#144,.F.);
#178=ORIENTED_EDGE('',*,*,#145,.F.);
#179=ORIENTED_EDGE('',*,*,#146,.T.);
#180=ORIENTED_EDGE('',*,*,#145,.T.);
#181=ORIENTED_EDGE('',*,*,#147,.F.);
#182=ORIENTED_EDGE('',*,*,#148,.F.);
#183=ORIENTED_EDGE('',*,*,#146,.F.);
#184=ORIENTED_EDGE('',*,*,#149,.F.);
#185=ORIENTED_EDGE('',*,*,#139,.F.);
#186=ORIENTED_EDGE('',*,*,#143,.F.);
#187=ORIENTED_EDGE('',*,*,#147,.T.);
#188=ORIENTED_EDGE('',*,*,#144,.T.);
#189=ORIENTED_EDGE('',*,*,#141,.T.);
#190=ORIENTED_EDGE('',*,*,#150,.F.);
#191=ORIENTED_EDGE('',*,*,#151,.F.);
#192=ORIENTED_EDGE('',*,*,#152,.F.);
#193=ORIENTED_EDGE('',*,*,#153,.F.);
#194=ORIENTED_EDGE('',*,*,#154,.F.);
#195=ORIENTED_EDGE('',*,*,#133,.T.);
#196=ORIENTED_EDGE('',*,*,#136,.T.);
#197=ORIENTED_EDGE('',*,*,#150,.T.);
#198=ORIENTED_EDGE('',*,*,#140,.F.);
#199=ORIENTED_EDGE('',*,*,#149,.T.);
#200=ORIENTED_EDGE('',*,*,#148,.T.);
#201=ORIENTED_EDGE('',*,*,#154,.T.);
#202=ORIENTED_EDGE('',*,*,#155,.T.);
#203=ORIENTED_EDGE('',*,*,#156,.F.);
#204=ORIENTED_EDGE('',*,*,#157,.F.);
#205=ORIENTED_EDGE('',*,*,#151,.T.);
#206=ORIENTED_EDGE('',*,*,#157,.T.);
#207=ORIENTED_EDGE('',*,*,#158,.F.);
#208=ORIENTED_EDGE('',*,*,#159,.F.);
#209=ORIENTED_EDGE('',*,*,#152,.T.);
#210=ORIENTED_EDGE('',*,*,#159,.T.);
#211=ORIENTED_EDGE('',*,*,#160,.F.);
#212=ORIENTED_EDGE('',*,*,#161,.F.);
#213=ORIENTED_EDGE('',*,*,#153,.T.);
#214=ORIENTED_EDGE('',*,*,#161,.T.);
#215=ORIENTED_EDGE('',*,*,#162,.F.);
#216=ORIENTED_EDGE('',*,*,#155,.F.);
#217=ORIENTED_EDGE('',*,*,#162,.T.);
#218=ORIENTED_EDGE('',*,*,#160,.T.);
#219=ORIENTED_EDGE('',*,*,#158,.T.);
#220=ORIENTED_EDGE('',*,*,#156,.T.);
#221=ORIENTED_EDGE('',*,*,#135,.T.);
#222=ORIENTED_EDGE('',*,*,#138,.T.);
#223=CYLINDRICAL_SURFACE('',#251,0.225);
#224=CYLINDRICAL_SURFACE('',#254,0.225);
#225=ADVANCED_FACE('',(#29),#223,.F.);
#226=ADVANCED_FACE('',(#30),#224,.F.);
#227=ADVANCED_FACE('',(#31),#19,.T.);
#228=ADVANCED_FACE('',(#32),#20,.T.);
#229=ADVANCED_FACE('',(#33),#21,.T.);
#230=ADVANCED_FACE('',(#34),#22,.F.);
#231=ADVANCED_FACE('',(#35,#15,#16),#23,.F.);
#232=ADVANCED_FACE('',(#36),#24,.T.);
#233=ADVANCED_FACE('',(#37),#25,.T.);
#234=ADVANCED_FACE('',(#38),#26,.T.);
#235=ADVANCED_FACE('',(#39),#27,.T.);
#236=ADVANCED_FACE('',(#40,#17,#18),#28,.T.);
#237=CLOSED_SHELL('',(#225,#226,#227,#228,#229,#230,#231,#232,#233,#234,
#235,#236));
#238=DERIVED_UNIT_ELEMENT(#240,1.);
#239=DERIVED_UNIT_ELEMENT(#395,-3.);
#240=(
MASS_UNIT()
NAMED_UNIT(*)
SI_UNIT(.KILO.,.GRAM.)
);
#241=DERIVED_UNIT((#238,#239));
#242=MEASURE_REPRESENTATION_ITEM('density measure',
POSITIVE_RATIO_MEASURE(7850.),#241);
#243=PROPERTY_DEFINITION_REPRESENTATION(#248,#245);
#244=PROPERTY_DEFINITION_REPRESENTATION(#249,#246);
#245=REPRESENTATION('material name',(#247),#392);
#246=REPRESENTATION('density',(#242),#392);
#247=DESCRIPTIVE_REPRESENTATION_ITEM('\X2\94A2\X0\','\X2\94A2\X0\');
#248=PROPERTY_DEFINITION('material property','material name',#402);
#249=PROPERTY_DEFINITION('material property','density of part',#402);
#250=AXIS2_PLACEMENT_3D('',#327,#267,#268);
#251=AXIS2_PLACEMENT_3D('',#328,#269,#270);
#252=AXIS2_PLACEMENT_3D('',#330,#271,#272);
#253=AXIS2_PLACEMENT_3D('',#333,#274,#275);
#254=AXIS2_PLACEMENT_3D('',#334,#276,#277);
#255=AXIS2_PLACEMENT_3D('',#336,#278,#279);
#256=AXIS2_PLACEMENT_3D('',#339,#281,#282);
#257=AXIS2_PLACEMENT_3D('',#340,#283,#284);
#258=AXIS2_PLACEMENT_3D('',#349,#289,#290);
#259=AXIS2_PLACEMENT_3D('',#355,#294,#295);
#260=AXIS2_PLACEMENT_3D('',#361,#299,#300);
#261=AXIS2_PLACEMENT_3D('',#363,#302,#303);
#262=AXIS2_PLACEMENT_3D('',#373,#309,#310);
#263=AXIS2_PLACEMENT_3D('',#379,#314,#315);
#264=AXIS2_PLACEMENT_3D('',#383,#318,#319);
#265=AXIS2_PLACEMENT_3D('',#387,#322,#323);
#266=AXIS2_PLACEMENT_3D('',#389,#325,#326);
#267=DIRECTION('axis',(0.,0.,1.));
#268=DIRECTION('refdir',(1.,0.,0.));
#269=DIRECTION('center_axis',(0.,0.,1.));
#270=DIRECTION('ref_axis',(1.,0.,0.));
#271=DIRECTION('center_axis',(0.,0.,1.));
#272=DIRECTION('ref_axis',(1.,0.,0.));
#273=DIRECTION('',(0.,0.,1.));
#274=DIRECTION('center_axis',(0.,0.,-1.));
#275=DIRECTION('ref_axis',(1.,0.,0.));
#276=DIRECTION('center_axis',(0.,0.,1.));
#277=DIRECTION('ref_axis',(1.,0.,0.));
#278=DIRECTION('center_axis',(0.,0.,1.));
#279=DIRECTION('ref_axis',(1.,0.,0.));
#280=DIRECTION('',(0.,0.,1.));
#281=DIRECTION('center_axis',(0.,0.,-1.));
#282=DIRECTION('ref_axis',(1.,0.,0.));
#283=DIRECTION('center_axis',(1.,0.,0.));
#284=DIRECTION('ref_axis',(0.,1.,0.));
#285=DIRECTION('',(0.,1.,0.));
#286=DIRECTION('',(0.,0.,1.));
#287=DIRECTION('',(0.,1.,0.));
#288=DIRECTION('',(0.,0.,1.));
#289=DIRECTION('center_axis',(0.,-1.,0.));
#290=DIRECTION('ref_axis',(1.,0.,0.));
#291=DIRECTION('',(1.,0.,0.));
#292=DIRECTION('',(1.,0.,0.));
#293=DIRECTION('',(0.,0.,1.));
#294=DIRECTION('center_axis',(-1.,0.,0.));
#295=DIRECTION('ref_axis',(0.,-1.,0.));
#296=DIRECTION('',(0.,-1.,0.));
#297=DIRECTION('',(0.,-1.,0.));
#298=DIRECTION('',(0.,0.,1.));
#299=DIRECTION('center_axis',(0.,0.,1.));
#300=DIRECTION('ref_axis',(1.,0.,0.));
#301=DIRECTION('',(-1.,0.,0.));
#302=DIRECTION('center_axis',(0.,0.,1.));
#303=DIRECTION('ref_axis',(1.,0.,0.));
#304=DIRECTION('',(-1.,0.,0.));
#305=DIRECTION('',(0.,1.,0.));
#306=DIRECTION('',(1.,0.,0.));
#307=DIRECTION('',(0.,-1.,0.));
#308=DIRECTION('',(-1.,0.,0.));
#309=DIRECTION('center_axis',(0.,1.,0.));
#310=DIRECTION('ref_axis',(-1.,0.,0.));
#311=DIRECTION('',(0.,0.,1.));
#312=DIRECTION('',(-1.,0.,0.));
#313=DIRECTION('',(0.,0.,1.));
#314=DIRECTION('center_axis',(1.,0.,0.));
#315=DIRECTION('ref_axis',(0.,1.,0.));
#316=DIRECTION('',(0.,1.,0.));
#317=DIRECTION('',(0.,0.,1.));
#318=DIRECTION('center_axis',(0.,-1.,0.));
#319=DIRECTION('ref_axis',(1.,0.,0.));
#320=DIRECTION('',(1.,0.,0.));
#321=DIRECTION('',(0.,0.,1.));
#322=DIRECTION('center_axis',(-1.,0.,0.));
#323=DIRECTION('ref_axis',(0.,-1.,0.));
#324=DIRECTION('',(0.,-1.,0.));
#325=DIRECTION('center_axis',(0.,0.,1.));
#326=DIRECTION('ref_axis',(1.,0.,0.));
#327=CARTESIAN_POINT('',(0.,0.,0.));
#328=CARTESIAN_POINT('Origin',(6.5,-6.6,23.45));
#329=CARTESIAN_POINT('',(6.275,-6.6,23.55));
#330=CARTESIAN_POINT('Origin',(6.5,-6.6,23.55));
#331=CARTESIAN_POINT('',(6.275,-6.6,24.15));
#332=CARTESIAN_POINT('',(6.275,-6.6,23.45));
#333=CARTESIAN_POINT('Origin',(6.5,-6.6,24.15));
#334=CARTESIAN_POINT('Origin',(6.5,-5.4,23.45));
#335=CARTESIAN_POINT('',(6.275,-5.4,23.55));
#336=CARTESIAN_POINT('Origin',(6.5,-5.4,23.55));
#337=CARTESIAN_POINT('',(6.275,-5.4,24.15));
#338=CARTESIAN_POINT('',(6.275,-5.4,23.45));
#339=CARTESIAN_POINT('Origin',(6.5,-5.4,24.15));
#340=CARTESIAN_POINT('Origin',(4.95,-4.475,23.4));
#341=CARTESIAN_POINT('',(4.95,-4.475,23.4));
#342=CARTESIAN_POINT('',(4.95,-4.,23.4));
#343=CARTESIAN_POINT('',(4.95,-4.475,23.4));
#344=CARTESIAN_POINT('',(4.95,-4.,23.55));
#345=CARTESIAN_POINT('',(4.95,-4.,23.4));
#346=CARTESIAN_POINT('',(4.95,-4.475,23.55));
#347=CARTESIAN_POINT('',(4.95,-4.9875,23.55));
#348=CARTESIAN_POINT('',(4.95,-4.475,23.4));
#349=CARTESIAN_POINT('Origin',(4.55,-4.475,23.4));
#350=CARTESIAN_POINT('',(4.55,-4.475,23.4));
#351=CARTESIAN_POINT('',(4.55,-4.475,23.4));
#352=CARTESIAN_POINT('',(4.55,-4.475,23.55));
#353=CARTESIAN_POINT('',(5.525,-4.475,23.55));
#354=CARTESIAN_POINT('',(4.55,-4.475,23.4));
#355=CARTESIAN_POINT('Origin',(4.55,-4.,23.4));
#356=CARTESIAN_POINT('',(4.55,-4.,23.4));
#357=CARTESIAN_POINT('',(4.55,-4.,23.4));
#358=CARTESIAN_POINT('',(4.55,-4.,23.55));
#359=CARTESIAN_POINT('',(4.55,-4.75,23.55));
#360=CARTESIAN_POINT('',(4.55,-4.,23.4));
#361=CARTESIAN_POINT('Origin',(4.75,-4.2375,23.4));
#362=CARTESIAN_POINT('',(4.95,-4.,23.4));
#363=CARTESIAN_POINT('Origin',(6.5,-5.5,23.55));
#364=CARTESIAN_POINT('',(10.2,-4.,23.55));
#365=CARTESIAN_POINT('',(10.2,-4.,23.55));
#366=CARTESIAN_POINT('',(10.2,-7.,23.55));
#367=CARTESIAN_POINT('',(10.2,-7.,23.55));
#368=CARTESIAN_POINT('',(2.8,-7.,23.55));
#369=CARTESIAN_POINT('',(2.8,-7.,23.55));
#370=CARTESIAN_POINT('',(2.8,-4.,23.55));
#371=CARTESIAN_POINT('',(2.8,-4.,23.55));
#372=CARTESIAN_POINT('',(10.2,-4.,23.55));
#373=CARTESIAN_POINT('Origin',(10.2,-4.,23.55));
#374=CARTESIAN_POINT('',(2.8,-4.,24.15));
#375=CARTESIAN_POINT('',(2.8,-4.,23.55));
#376=CARTESIAN_POINT('',(10.2,-4.,24.15));
#377=CARTESIAN_POINT('',(10.2,-4.,24.15));
#378=CARTESIAN_POINT('',(10.2,-4.,23.55));
#379=CARTESIAN_POINT('Origin',(10.2,-7.,23.55));
#380=CARTESIAN_POINT('',(10.2,-7.,24.15));
#381=CARTESIAN_POINT('',(10.2,-7.,24.15));
#382=CARTESIAN_POINT('',(10.2,-7.,23.55));
#383=CARTESIAN_POINT('Origin',(2.8,-7.,23.55));
#384=CARTESIAN_POINT('',(2.8,-7.,24.15));
#385=CARTESIAN_POINT('',(2.8,-7.,24.15));
#386=CARTESIAN_POINT('',(2.8,-7.,23.55));
#387=CARTESIAN_POINT('Origin',(2.8,-4.,23.55));
#388=CARTESIAN_POINT('',(2.8,-4.,24.15));
#389=CARTESIAN_POINT('Origin',(6.5,-5.5,24.15));
#390=UNCERTAINTY_MEASURE_WITH_UNIT(LENGTH_MEASURE(0.001),#394,
'DISTANCE_ACCURACY_VALUE',
'Maximum model space distance between geometric entities at asserted c
onnectivities');
#391=UNCERTAINTY_MEASURE_WITH_UNIT(LENGTH_MEASURE(0.001),#394,
'DISTANCE_ACCURACY_VALUE',
'Maximum model space distance between geometric entities at asserted c
onnectivities');
#392=(
GEOMETRIC_REPRESENTATION_CONTEXT(3)
GLOBAL_UNCERTAINTY_ASSIGNED_CONTEXT((#390))
GLOBAL_UNIT_ASSIGNED_CONTEXT((#394,#396,#397))
REPRESENTATION_CONTEXT('','3D')
);
#393=(
GEOMETRIC_REPRESENTATION_CONTEXT(3)
GLOBAL_UNCERTAINTY_ASSIGNED_CONTEXT((#391))
GLOBAL_UNIT_ASSIGNED_CONTEXT((#394,#396,#397))
REPRESENTATION_CONTEXT('','3D')
);
#394=(
LENGTH_UNIT()
NAMED_UNIT(*)
SI_UNIT(.CENTI.,.METRE.)
);
#395=(
LENGTH_UNIT()
NAMED_UNIT(*)
SI_UNIT($,.METRE.)
);
#396=(
NAMED_UNIT(*)
PLANE_ANGLE_UNIT()
SI_UNIT($,.RADIAN.)
);
#397=(
NAMED_UNIT(*)
SI_UNIT($,.STERADIAN.)
SOLID_ANGLE_UNIT()
);
#398=SHAPE_DEFINITION_REPRESENTATION(#399,#400);
#399=PRODUCT_DEFINITION_SHAPE('',$,#402);
#400=SHAPE_REPRESENTATION('',(#250),#392);
#401=PRODUCT_DEFINITION_CONTEXT('part definition',#406,'design');
#402=PRODUCT_DEFINITION('2026-09-10-22-46-11-822',
'P03_RF_\X2\4E0A9632813153CA\X0\X\X2\6B626321\X0\',#403,#401);
#403=PRODUCT_DEFINITION_FORMATION('',$,#408);
#404=PRODUCT_RELATED_PRODUCT_CATEGORY('P03_RF_\X2\4E0A9632813153CA\X0\X
\X2\6B626321\X0\','P03_RF_\X2\4E0A9632813153CA\X0\X\X2\6B626321\X0\',(#408));
#405=APPLICATION_PROTOCOL_DEFINITION('international standard',
'automotive_design',2009,#406);
#406=APPLICATION_CONTEXT(
'Core Data for Automotive Mechanical Design Process');
#407=PRODUCT_CONTEXT('part definition',#406,'mechanical');
#408=PRODUCT('2026-09-10-22-46-11-822','P03_RF_\X2\4E0A9632813153CA\X0\X
\X2\6B626321\X0\',$,(#407));
#409=PRESENTATION_STYLE_ASSIGNMENT((#411));
#410=PRESENTATION_STYLE_ASSIGNMENT((#412));
#411=SURFACE_STYLE_USAGE(.BOTH.,#413);
#412=SURFACE_STYLE_USAGE(.BOTH.,#414);
#413=SURFACE_SIDE_STYLE('',(#415));
#414=SURFACE_SIDE_STYLE('',(#416));
#415=SURFACE_STYLE_FILL_AREA(#417);
#416=SURFACE_STYLE_FILL_AREA(#418);
#417=FILL_AREA_STYLE('\X2\94A2\X0\ - \X2\7F0E5149\X0\',(#419));
#418=FILL_AREA_STYLE('R2_camera',(#420));
#419=FILL_AREA_STYLE_COLOUR('\X2\94A2\X0\ - \X2\7F0E5149\X0\',#421);
#420=FILL_AREA_STYLE_COLOUR('R2_camera',#422);
#421=COLOUR_RGB('\X2\94A2\X0\ - \X2\7F0E5149\X0\',0.627450980392157,0.627450980392157,
0.627450980392157);
#422=COLOUR_RGB('R2_camera',0.141176470588235,0.4,0.607843137254902);
ENDSEC;
END-ISO-10303-21;
