ISO-10303-21;
HEADER;
/* Generated by software containing ST-Developer
 * from STEP Tools, Inc. (www.steptools.com) 
 */

FILE_DESCRIPTION(
/* description */ (''),
/* implementation_level */ '2;1');

FILE_NAME(
/* name */ 'P04.step',
/* time_stamp */ '2026-09-10T22:46:18+08:00',
/* author */ (''),
/* organization */ (''),
/* preprocessor_version */ 'ST-DEVELOPER v20.1',
/* originating_system */ 'Autodesk Translation Framework v15.8.0.0',
/* authorisation */ '');

FILE_SCHEMA (('AUTOMOTIVE_DESIGN { 1 0 10303 214 3 1 1 }'));
ENDSEC;

DATA;
#10=MECHANICAL_DESIGN_GEOMETRIC_PRESENTATION_REPRESENTATION('',(#13),#533);
#11=SHAPE_REPRESENTATION_RELATIONSHIP('SRR','None',#540,#12);
#12=ADVANCED_BREP_SHAPE_REPRESENTATION('',(#14),#532);
#13=STYLED_ITEM('',(#550),#14);
#14=MANIFOLD_SOLID_BREP('\X2\5B9E4F53\X0\1',#321);
#15=FACE_BOUND('',#53,.T.);
#16=FACE_BOUND('',#56,.T.);
#17=FACE_BOUND('',#57,.T.);
#18=FACE_BOUND('',#58,.T.);
#19=FACE_BOUND('',#62,.T.);
#20=FACE_BOUND('',#65,.T.);
#21=PLANE('',#344);
#22=PLANE('',#348);
#23=PLANE('',#349);
#24=PLANE('',#350);
#25=PLANE('',#351);
#26=PLANE('',#352);
#27=PLANE('',#353);
#28=PLANE('',#354);
#29=PLANE('',#355);
#30=PLANE('',#356);
#31=PLANE('',#357);
#32=PLANE('',#358);
#33=FACE_OUTER_BOUND('',#49,.T.);
#34=FACE_OUTER_BOUND('',#50,.T.);
#35=FACE_OUTER_BOUND('',#51,.T.);
#36=FACE_OUTER_BOUND('',#52,.T.);
#37=FACE_OUTER_BOUND('',#54,.T.);
#38=FACE_OUTER_BOUND('',#55,.T.);
#39=FACE_OUTER_BOUND('',#59,.T.);
#40=FACE_OUTER_BOUND('',#60,.T.);
#41=FACE_OUTER_BOUND('',#61,.T.);
#42=FACE_OUTER_BOUND('',#63,.T.);
#43=FACE_OUTER_BOUND('',#64,.T.);
#44=FACE_OUTER_BOUND('',#66,.T.);
#45=FACE_OUTER_BOUND('',#67,.T.);
#46=FACE_OUTER_BOUND('',#68,.T.);
#47=FACE_OUTER_BOUND('',#69,.T.);
#48=FACE_OUTER_BOUND('',#70,.T.);
#49=EDGE_LOOP('',(#217,#218,#219,#220));
#50=EDGE_LOOP('',(#221,#222,#223,#224));
#51=EDGE_LOOP('',(#225,#226,#227,#228));
#52=EDGE_LOOP('',(#229,#230,#231,#232));
#53=EDGE_LOOP('',(#233,#234,#235,#236));
#54=EDGE_LOOP('',(#237,#238,#239,#240));
#55=EDGE_LOOP('',(#241,#242,#243,#244));
#56=EDGE_LOOP('',(#245));
#57=EDGE_LOOP('',(#246));
#58=EDGE_LOOP('',(#247,#248,#249,#250));
#59=EDGE_LOOP('',(#251,#252,#253,#254));
#60=EDGE_LOOP('',(#255,#256,#257,#258));
#61=EDGE_LOOP('',(#259,#260,#261,#262));
#62=EDGE_LOOP('',(#263));
#63=EDGE_LOOP('',(#264,#265,#266,#267));
#64=EDGE_LOOP('',(#268,#269,#270,#271));
#65=EDGE_LOOP('',(#272));
#66=EDGE_LOOP('',(#273,#274,#275,#276));
#67=EDGE_LOOP('',(#277,#278,#279,#280,#281,#282,#283,#284));
#68=EDGE_LOOP('',(#285,#286,#287,#288,#289,#290,#291,#292));
#69=EDGE_LOOP('',(#293,#294,#295,#296));
#70=EDGE_LOOP('',(#297,#298,#299,#300));
#71=LINE('',#448,#105);
#72=LINE('',#454,#106);
#73=LINE('',#461,#107);
#74=LINE('',#464,#108);
#75=LINE('',#468,#109);
#76=LINE('',#470,#110);
#77=LINE('',#472,#111);
#78=LINE('',#473,#112);
#79=LINE('',#475,#113);
#80=LINE('',#478,#114);
#81=LINE('',#481,#115);
#82=LINE('',#484,#116);
#83=LINE('',#488,#117);
#84=LINE('',#490,#118);
#85=LINE('',#492,#119);
#86=LINE('',#493,#120);
#87=LINE('',#494,#121);
#88=LINE('',#495,#122);
#89=LINE('',#501,#123);
#90=LINE('',#503,#124);
#91=LINE('',#505,#125);
#92=LINE('',#506,#126);
#93=LINE('',#508,#127);
#94=LINE('',#509,#128);
#95=LINE('',#513,#129);
#96=LINE('',#515,#130);
#97=LINE('',#517,#131);
#98=LINE('',#518,#132);
#99=LINE('',#520,#133);
#100=LINE('',#521,#134);
#101=LINE('',#523,#135);
#102=LINE('',#524,#136);
#103=LINE('',#526,#137);
#104=LINE('',#527,#138);
#105=VECTOR('',#365,0.225);
#106=VECTOR('',#372,0.225);
#107=VECTOR('',#379,1.);
#108=VECTOR('',#382,1.);
#109=VECTOR('',#385,1.);
#110=VECTOR('',#386,1.);
#111=VECTOR('',#387,1.);
#112=VECTOR('',#388,1.);
#113=VECTOR('',#389,1.);
#114=VECTOR('',#392,1.);
#115=VECTOR('',#395,1.);
#116=VECTOR('',#398,1.);
#117=VECTOR('',#401,1.);
#118=VECTOR('',#402,1.);
#119=VECTOR('',#403,1.);
#120=VECTOR('',#404,1.);
#121=VECTOR('',#405,1.);
#122=VECTOR('',#406,1.);
#123=VECTOR('',#413,1.);
#124=VECTOR('',#414,1.);
#125=VECTOR('',#415,1.);
#126=VECTOR('',#416,1.);
#127=VECTOR('',#419,1.);
#128=VECTOR('',#420,1.);
#129=VECTOR('',#423,1.);
#130=VECTOR('',#424,1.);
#131=VECTOR('',#425,1.);
#132=VECTOR('',#426,1.);
#133=VECTOR('',#429,1.);
#134=VECTOR('',#430,1.);
#135=VECTOR('',#433,1.);
#136=VECTOR('',#434,1.);
#137=VECTOR('',#437,1.);
#138=VECTOR('',#438,1.);
#139=CIRCLE('',#336,0.225);
#140=CIRCLE('',#337,0.225);
#141=CIRCLE('',#339,0.225);
#142=CIRCLE('',#340,0.225);
#143=CIRCLE('',#342,0.225);
#144=CIRCLE('',#343,0.225);
#145=CIRCLE('',#345,0.225);
#146=CIRCLE('',#347,0.225);
#147=VERTEX_POINT('',#445);
#148=VERTEX_POINT('',#447);
#149=VERTEX_POINT('',#451);
#150=VERTEX_POINT('',#453);
#151=VERTEX_POINT('',#457);
#152=VERTEX_POINT('',#458);
#153=VERTEX_POINT('',#460);
#154=VERTEX_POINT('',#462);
#155=VERTEX_POINT('',#466);
#156=VERTEX_POINT('',#467);
#157=VERTEX_POINT('',#469);
#158=VERTEX_POINT('',#471);
#159=VERTEX_POINT('',#474);
#160=VERTEX_POINT('',#476);
#161=VERTEX_POINT('',#480);
#162=VERTEX_POINT('',#482);
#163=VERTEX_POINT('',#486);
#164=VERTEX_POINT('',#487);
#165=VERTEX_POINT('',#489);
#166=VERTEX_POINT('',#491);
#167=VERTEX_POINT('',#499);
#168=VERTEX_POINT('',#500);
#169=VERTEX_POINT('',#502);
#170=VERTEX_POINT('',#504);
#171=VERTEX_POINT('',#511);
#172=VERTEX_POINT('',#512);
#173=VERTEX_POINT('',#514);
#174=VERTEX_POINT('',#516);
#175=EDGE_CURVE('',#147,#147,#139,.T.);
#176=EDGE_CURVE('',#147,#148,#71,.T.);
#177=EDGE_CURVE('',#148,#148,#140,.T.);
#178=EDGE_CURVE('',#149,#149,#141,.T.);
#179=EDGE_CURVE('',#149,#150,#72,.T.);
#180=EDGE_CURVE('',#150,#150,#142,.T.);
#181=EDGE_CURVE('',#151,#152,#143,.T.);
#182=EDGE_CURVE('',#151,#153,#73,.T.);
#183=EDGE_CURVE('',#154,#153,#144,.T.);
#184=EDGE_CURVE('',#152,#154,#74,.T.);
#185=EDGE_CURVE('',#155,#156,#75,.T.);
#186=EDGE_CURVE('',#157,#156,#76,.T.);
#187=EDGE_CURVE('',#157,#158,#77,.T.);
#188=EDGE_CURVE('',#158,#155,#78,.T.);
#189=EDGE_CURVE('',#153,#159,#79,.T.);
#190=EDGE_CURVE('',#159,#160,#145,.T.);
#191=EDGE_CURVE('',#160,#154,#80,.T.);
#192=EDGE_CURVE('',#161,#159,#81,.T.);
#193=EDGE_CURVE('',#162,#161,#146,.T.);
#194=EDGE_CURVE('',#162,#160,#82,.T.);
#195=EDGE_CURVE('',#163,#164,#83,.T.);
#196=EDGE_CURVE('',#164,#165,#84,.T.);
#197=EDGE_CURVE('',#166,#165,#85,.T.);
#198=EDGE_CURVE('',#163,#166,#86,.T.);
#199=EDGE_CURVE('',#152,#162,#87,.T.);
#200=EDGE_CURVE('',#161,#151,#88,.T.);
#201=EDGE_CURVE('',#167,#168,#89,.T.);
#202=EDGE_CURVE('',#168,#169,#90,.T.);
#203=EDGE_CURVE('',#170,#169,#91,.T.);
#204=EDGE_CURVE('',#167,#170,#92,.T.);
#205=EDGE_CURVE('',#168,#155,#93,.T.);
#206=EDGE_CURVE('',#156,#167,#94,.T.);
#207=EDGE_CURVE('',#171,#172,#95,.T.);
#208=EDGE_CURVE('',#172,#173,#96,.T.);
#209=EDGE_CURVE('',#174,#173,#97,.T.);
#210=EDGE_CURVE('',#171,#174,#98,.T.);
#211=EDGE_CURVE('',#173,#158,#99,.T.);
#212=EDGE_CURVE('',#157,#174,#100,.T.);
#213=EDGE_CURVE('',#164,#171,#101,.T.);
#214=EDGE_CURVE('',#165,#170,#102,.T.);
#215=EDGE_CURVE('',#172,#163,#103,.T.);
#216=EDGE_CURVE('',#169,#166,#104,.T.);
#217=ORIENTED_EDGE('',*,*,#175,.F.);
#218=ORIENTED_EDGE('',*,*,#176,.T.);
#219=ORIENTED_EDGE('',*,*,#177,.F.);
#220=ORIENTED_EDGE('',*,*,#176,.F.);
#221=ORIENTED_EDGE('',*,*,#178,.F.);
#222=ORIENTED_EDGE('',*,*,#179,.T.);
#223=ORIENTED_EDGE('',*,*,#180,.F.);
#224=ORIENTED_EDGE('',*,*,#179,.F.);
#225=ORIENTED_EDGE('',*,*,#181,.F.);
#226=ORIENTED_EDGE('',*,*,#182,.T.);
#227=ORIENTED_EDGE('',*,*,#183,.F.);
#228=ORIENTED_EDGE('',*,*,#184,.F.);
#229=ORIENTED_EDGE('',*,*,#185,.T.);
#230=ORIENTED_EDGE('',*,*,#186,.F.);
#231=ORIENTED_EDGE('',*,*,#187,.T.);
#232=ORIENTED_EDGE('',*,*,#188,.T.);
#233=ORIENTED_EDGE('',*,*,#183,.T.);
#234=ORIENTED_EDGE('',*,*,#189,.T.);
#235=ORIENTED_EDGE('',*,*,#190,.T.);
#236=ORIENTED_EDGE('',*,*,#191,.T.);
#237=ORIENTED_EDGE('',*,*,#192,.F.);
#238=ORIENTED_EDGE('',*,*,#193,.F.);
#239=ORIENTED_EDGE('',*,*,#194,.T.);
#240=ORIENTED_EDGE('',*,*,#190,.F.);
#241=ORIENTED_EDGE('',*,*,#195,.T.);
#242=ORIENTED_EDGE('',*,*,#196,.T.);
#243=ORIENTED_EDGE('',*,*,#197,.F.);
#244=ORIENTED_EDGE('',*,*,#198,.F.);
#245=ORIENTED_EDGE('',*,*,#175,.T.);
#246=ORIENTED_EDGE('',*,*,#178,.T.);
#247=ORIENTED_EDGE('',*,*,#181,.T.);
#248=ORIENTED_EDGE('',*,*,#199,.T.);
#249=ORIENTED_EDGE('',*,*,#193,.T.);
#250=ORIENTED_EDGE('',*,*,#200,.T.);
#251=ORIENTED_EDGE('',*,*,#191,.F.);
#252=ORIENTED_EDGE('',*,*,#194,.F.);
#253=ORIENTED_EDGE('',*,*,#199,.F.);
#254=ORIENTED_EDGE('',*,*,#184,.T.);
#255=ORIENTED_EDGE('',*,*,#189,.F.);
#256=ORIENTED_EDGE('',*,*,#182,.F.);
#257=ORIENTED_EDGE('',*,*,#200,.F.);
#258=ORIENTED_EDGE('',*,*,#192,.T.);
#259=ORIENTED_EDGE('',*,*,#201,.T.);
#260=ORIENTED_EDGE('',*,*,#202,.T.);
#261=ORIENTED_EDGE('',*,*,#203,.F.);
#262=ORIENTED_EDGE('',*,*,#204,.F.);
#263=ORIENTED_EDGE('',*,*,#177,.T.);
#264=ORIENTED_EDGE('',*,*,#205,.F.);
#265=ORIENTED_EDGE('',*,*,#201,.F.);
#266=ORIENTED_EDGE('',*,*,#206,.F.);
#267=ORIENTED_EDGE('',*,*,#185,.F.);
#268=ORIENTED_EDGE('',*,*,#207,.T.);
#269=ORIENTED_EDGE('',*,*,#208,.T.);
#270=ORIENTED_EDGE('',*,*,#209,.F.);
#271=ORIENTED_EDGE('',*,*,#210,.F.);
#272=ORIENTED_EDGE('',*,*,#180,.T.);
#273=ORIENTED_EDGE('',*,*,#211,.T.);
#274=ORIENTED_EDGE('',*,*,#187,.F.);
#275=ORIENTED_EDGE('',*,*,#212,.T.);
#276=ORIENTED_EDGE('',*,*,#209,.T.);
#277=ORIENTED_EDGE('',*,*,#213,.T.);
#278=ORIENTED_EDGE('',*,*,#210,.T.);
#279=ORIENTED_EDGE('',*,*,#212,.F.);
#280=ORIENTED_EDGE('',*,*,#186,.T.);
#281=ORIENTED_EDGE('',*,*,#206,.T.);
#282=ORIENTED_EDGE('',*,*,#204,.T.);
#283=ORIENTED_EDGE('',*,*,#214,.F.);
#284=ORIENTED_EDGE('',*,*,#196,.F.);
#285=ORIENTED_EDGE('',*,*,#215,.T.);
#286=ORIENTED_EDGE('',*,*,#198,.T.);
#287=ORIENTED_EDGE('',*,*,#216,.F.);
#288=ORIENTED_EDGE('',*,*,#202,.F.);
#289=ORIENTED_EDGE('',*,*,#205,.T.);
#290=ORIENTED_EDGE('',*,*,#188,.F.);
#291=ORIENTED_EDGE('',*,*,#211,.F.);
#292=ORIENTED_EDGE('',*,*,#208,.F.);
#293=ORIENTED_EDGE('',*,*,#216,.T.);
#294=ORIENTED_EDGE('',*,*,#197,.T.);
#295=ORIENTED_EDGE('',*,*,#214,.T.);
#296=ORIENTED_EDGE('',*,*,#203,.T.);
#297=ORIENTED_EDGE('',*,*,#215,.F.);
#298=ORIENTED_EDGE('',*,*,#207,.F.);
#299=ORIENTED_EDGE('',*,*,#213,.F.);
#300=ORIENTED_EDGE('',*,*,#195,.F.);
#301=CYLINDRICAL_SURFACE('',#335,0.225);
#302=CYLINDRICAL_SURFACE('',#338,0.225);
#303=CYLINDRICAL_SURFACE('',#341,0.225);
#304=CYLINDRICAL_SURFACE('',#346,0.225);
#305=ADVANCED_FACE('',(#33),#301,.F.);
#306=ADVANCED_FACE('',(#34),#302,.F.);
#307=ADVANCED_FACE('',(#35),#303,.F.);
#308=ADVANCED_FACE('',(#36,#15),#21,.T.);
#309=ADVANCED_FACE('',(#37),#304,.F.);
#310=ADVANCED_FACE('',(#38,#16,#17,#18),#22,.T.);
#311=ADVANCED_FACE('',(#39),#23,.F.);
#312=ADVANCED_FACE('',(#40),#24,.F.);
#313=ADVANCED_FACE('',(#41,#19),#25,.T.);
#314=ADVANCED_FACE('',(#42),#26,.F.);
#315=ADVANCED_FACE('',(#43,#20),#27,.T.);
#316=ADVANCED_FACE('',(#44),#28,.T.);
#317=ADVANCED_FACE('',(#45),#29,.T.);
#318=ADVANCED_FACE('',(#46),#30,.T.);
#319=ADVANCED_FACE('',(#47),#31,.T.);
#320=ADVANCED_FACE('',(#48),#32,.F.);
#321=CLOSED_SHELL('',(#305,#306,#307,#308,#309,#310,#311,#312,#313,#314,
#315,#316,#317,#318,#319,#320));
#322=DERIVED_UNIT_ELEMENT(#324,1.);
#323=DERIVED_UNIT_ELEMENT(#535,-3.);
#324=(
MASS_UNIT()
NAMED_UNIT(*)
SI_UNIT(.KILO.,.GRAM.)
);
#325=DERIVED_UNIT((#322,#323));
#326=MEASURE_REPRESENTATION_ITEM('density measure',
POSITIVE_RATIO_MEASURE(7850.),#325);
#327=PROPERTY_DEFINITION_REPRESENTATION(#332,#329);
#328=PROPERTY_DEFINITION_REPRESENTATION(#333,#330);
#329=REPRESENTATION('material name',(#331),#532);
#330=REPRESENTATION('density',(#326),#532);
#331=DESCRIPTIVE_REPRESENTATION_ITEM('\X2\94A2\X0\','\X2\94A2\X0\');
#332=PROPERTY_DEFINITION('material property','material name',#542);
#333=PROPERTY_DEFINITION('material property','density of part',#542);
#334=AXIS2_PLACEMENT_3D('',#443,#359,#360);
#335=AXIS2_PLACEMENT_3D('',#444,#361,#362);
#336=AXIS2_PLACEMENT_3D('',#446,#363,#364);
#337=AXIS2_PLACEMENT_3D('',#449,#366,#367);
#338=AXIS2_PLACEMENT_3D('',#450,#368,#369);
#339=AXIS2_PLACEMENT_3D('',#452,#370,#371);
#340=AXIS2_PLACEMENT_3D('',#455,#373,#374);
#341=AXIS2_PLACEMENT_3D('',#456,#375,#376);
#342=AXIS2_PLACEMENT_3D('',#459,#377,#378);
#343=AXIS2_PLACEMENT_3D('',#463,#380,#381);
#344=AXIS2_PLACEMENT_3D('',#465,#383,#384);
#345=AXIS2_PLACEMENT_3D('',#477,#390,#391);
#346=AXIS2_PLACEMENT_3D('',#479,#393,#394);
#347=AXIS2_PLACEMENT_3D('',#483,#396,#397);
#348=AXIS2_PLACEMENT_3D('',#485,#399,#400);
#349=AXIS2_PLACEMENT_3D('',#496,#407,#408);
#350=AXIS2_PLACEMENT_3D('',#497,#409,#410);
#351=AXIS2_PLACEMENT_3D('',#498,#411,#412);
#352=AXIS2_PLACEMENT_3D('',#507,#417,#418);
#353=AXIS2_PLACEMENT_3D('',#510,#421,#422);
#354=AXIS2_PLACEMENT_3D('',#519,#427,#428);
#355=AXIS2_PLACEMENT_3D('',#522,#431,#432);
#356=AXIS2_PLACEMENT_3D('',#525,#435,#436);
#357=AXIS2_PLACEMENT_3D('',#528,#439,#440);
#358=AXIS2_PLACEMENT_3D('',#529,#441,#442);
#359=DIRECTION('axis',(0.,0.,1.));
#360=DIRECTION('refdir',(1.,0.,0.));
#361=DIRECTION('center_axis',(0.,1.,0.));
#362=DIRECTION('ref_axis',(1.,0.,0.));
#363=DIRECTION('center_axis',(0.,1.,0.));
#364=DIRECTION('ref_axis',(1.,0.,0.));
#365=DIRECTION('',(0.,1.,0.));
#366=DIRECTION('center_axis',(0.,-1.,0.));
#367=DIRECTION('ref_axis',(1.,0.,0.));
#368=DIRECTION('center_axis',(0.,1.,0.));
#369=DIRECTION('ref_axis',(1.,0.,0.));
#370=DIRECTION('center_axis',(0.,1.,0.));
#371=DIRECTION('ref_axis',(1.,0.,0.));
#372=DIRECTION('',(0.,1.,0.));
#373=DIRECTION('center_axis',(0.,-1.,0.));
#374=DIRECTION('ref_axis',(1.,0.,0.));
#375=DIRECTION('center_axis',(0.,1.,0.));
#376=DIRECTION('ref_axis',(1.,0.,0.));
#377=DIRECTION('center_axis',(0.,1.,0.));
#378=DIRECTION('ref_axis',(1.,0.,0.));
#379=DIRECTION('',(0.,1.,0.));
#380=DIRECTION('center_axis',(0.,-1.,0.));
#381=DIRECTION('ref_axis',(1.,0.,0.));
#382=DIRECTION('',(0.,1.,0.));
#383=DIRECTION('center_axis',(0.,1.,0.));
#384=DIRECTION('ref_axis',(-1.,0.,0.));
#385=DIRECTION('',(1.,0.,0.));
#386=DIRECTION('',(0.,0.,1.));
#387=DIRECTION('',(-1.,0.,0.));
#388=DIRECTION('',(0.,0.,1.));
#389=DIRECTION('',(0.,0.,-1.));
#390=DIRECTION('center_axis',(0.,-1.,0.));
#391=DIRECTION('ref_axis',(1.,0.,0.));
#392=DIRECTION('',(0.,0.,1.));
#393=DIRECTION('center_axis',(0.,1.,0.));
#394=DIRECTION('ref_axis',(1.,0.,0.));
#395=DIRECTION('',(0.,1.,0.));
#396=DIRECTION('center_axis',(0.,1.,0.));
#397=DIRECTION('ref_axis',(1.,0.,0.));
#398=DIRECTION('',(0.,1.,0.));
#399=DIRECTION('center_axis',(0.,-1.,0.));
#400=DIRECTION('ref_axis',(1.,0.,0.));
#401=DIRECTION('',(1.,0.,0.));
#402=DIRECTION('',(0.,0.,1.));
#403=DIRECTION('',(1.,0.,0.));
#404=DIRECTION('',(0.,0.,1.));
#405=DIRECTION('',(0.,0.,-1.));
#406=DIRECTION('',(0.,0.,1.));
#407=DIRECTION('center_axis',(1.,0.,0.));
#408=DIRECTION('ref_axis',(0.,0.,-1.));
#409=DIRECTION('center_axis',(-1.,0.,0.));
#410=DIRECTION('ref_axis',(0.,0.,1.));
#411=DIRECTION('center_axis',(0.,1.,0.));
#412=DIRECTION('ref_axis',(-1.,0.,0.));
#413=DIRECTION('',(-1.,0.,0.));
#414=DIRECTION('',(0.,0.,1.));
#415=DIRECTION('',(-1.,0.,0.));
#416=DIRECTION('',(0.,0.,1.));
#417=DIRECTION('center_axis',(0.,0.,1.));
#418=DIRECTION('ref_axis',(1.,0.,0.));
#419=DIRECTION('',(0.,-1.,0.));
#420=DIRECTION('',(0.,1.,0.));
#421=DIRECTION('center_axis',(0.,1.,0.));
#422=DIRECTION('ref_axis',(-1.,0.,0.));
#423=DIRECTION('',(-1.,0.,0.));
#424=DIRECTION('',(0.,0.,1.));
#425=DIRECTION('',(-1.,0.,0.));
#426=DIRECTION('',(0.,0.,1.));
#427=DIRECTION('center_axis',(0.,0.,1.));
#428=DIRECTION('ref_axis',(1.,0.,0.));
#429=DIRECTION('',(0.,-1.,0.));
#430=DIRECTION('',(0.,1.,0.));
#431=DIRECTION('center_axis',(1.,0.,0.));
#432=DIRECTION('ref_axis',(0.,1.,0.));
#433=DIRECTION('',(0.,1.,0.));
#434=DIRECTION('',(0.,1.,0.));
#435=DIRECTION('center_axis',(-1.,0.,0.));
#436=DIRECTION('ref_axis',(0.,-1.,0.));
#437=DIRECTION('',(0.,-1.,0.));
#438=DIRECTION('',(0.,-1.,0.));
#439=DIRECTION('center_axis',(0.,0.,1.));
#440=DIRECTION('ref_axis',(1.,0.,0.));
#441=DIRECTION('center_axis',(0.,0.,1.));
#442=DIRECTION('ref_axis',(1.,0.,0.));
#443=CARTESIAN_POINT('',(0.,0.,0.));
#444=CARTESIAN_POINT('Origin',(0.,8.5,24.));
#445=CARTESIAN_POINT('',(-0.225,8.6,24.));
#446=CARTESIAN_POINT('Origin',(0.,8.6,24.));
#447=CARTESIAN_POINT('',(-0.225,11.,24.));
#448=CARTESIAN_POINT('',(-0.225,8.5,24.));
#449=CARTESIAN_POINT('Origin',(0.,11.,24.));
#450=CARTESIAN_POINT('Origin',(0.,8.5,8.));
#451=CARTESIAN_POINT('',(-0.225,8.6,8.));
#452=CARTESIAN_POINT('Origin',(0.,8.6,8.));
#453=CARTESIAN_POINT('',(-0.225,11.,8.));
#454=CARTESIAN_POINT('',(-0.225,8.5,8.));
#455=CARTESIAN_POINT('Origin',(0.,11.,8.));
#456=CARTESIAN_POINT('Origin',(0.,8.5,22.775));
#457=CARTESIAN_POINT('',(-0.225,8.6,22.775));
#458=CARTESIAN_POINT('',(0.225,8.6,22.775));
#459=CARTESIAN_POINT('Origin',(0.,8.6,22.775));
#460=CARTESIAN_POINT('',(-0.225,9.8,22.775));
#461=CARTESIAN_POINT('',(-0.225,8.5,22.775));
#462=CARTESIAN_POINT('',(0.225,9.8,22.775));
#463=CARTESIAN_POINT('Origin',(0.,9.8,22.775));
#464=CARTESIAN_POINT('',(0.225,8.5,22.775));
#465=CARTESIAN_POINT('Origin',(1.2,9.8,7.));
#466=CARTESIAN_POINT('',(-1.2,9.8,23.2));
#467=CARTESIAN_POINT('',(1.2,9.8,23.2));
#468=CARTESIAN_POINT('',(0.6,9.8,23.2));
#469=CARTESIAN_POINT('',(1.2,9.8,8.8));
#470=CARTESIAN_POINT('',(1.2,9.8,7.));
#471=CARTESIAN_POINT('',(-1.2,9.8,8.8));
#472=CARTESIAN_POINT('',(0.6,9.8,8.8));
#473=CARTESIAN_POINT('',(-1.2,9.8,7.));
#474=CARTESIAN_POINT('',(-0.225,9.8,9.225));
#475=CARTESIAN_POINT('',(-0.225,9.8,8.1125));
#476=CARTESIAN_POINT('',(0.225,9.8,9.225));
#477=CARTESIAN_POINT('Origin',(0.,9.8,9.225));
#478=CARTESIAN_POINT('',(0.225,9.8,14.8875));
#479=CARTESIAN_POINT('Origin',(0.,8.5,9.225));
#480=CARTESIAN_POINT('',(-0.225,8.6,9.225));
#481=CARTESIAN_POINT('',(-0.225,8.5,9.225));
#482=CARTESIAN_POINT('',(0.225,8.6,9.225));
#483=CARTESIAN_POINT('Origin',(0.,8.6,9.225));
#484=CARTESIAN_POINT('',(0.225,8.5,9.225));
#485=CARTESIAN_POINT('Origin',(-1.2,8.6,7.));
#486=CARTESIAN_POINT('',(-1.2,8.6,7.));
#487=CARTESIAN_POINT('',(1.2,8.6,7.));
#488=CARTESIAN_POINT('',(-1.2,8.6,7.));
#489=CARTESIAN_POINT('',(1.2,8.6,25.));
#490=CARTESIAN_POINT('',(1.2,8.6,7.));
#491=CARTESIAN_POINT('',(-1.2,8.6,25.));
#492=CARTESIAN_POINT('',(-1.2,8.6,25.));
#493=CARTESIAN_POINT('',(-1.2,8.6,7.));
#494=CARTESIAN_POINT('',(0.225,8.6,14.8875));
#495=CARTESIAN_POINT('',(-0.225,8.6,8.1125));
#496=CARTESIAN_POINT('Origin',(0.225,8.5,22.775));
#497=CARTESIAN_POINT('Origin',(-0.225,8.5,9.225));
#498=CARTESIAN_POINT('Origin',(1.2,11.,23.2));
#499=CARTESIAN_POINT('',(1.2,11.,23.2));
#500=CARTESIAN_POINT('',(-1.2,11.,23.2));
#501=CARTESIAN_POINT('',(1.2,11.,23.2));
#502=CARTESIAN_POINT('',(-1.2,11.,25.));
#503=CARTESIAN_POINT('',(-1.2,11.,23.2));
#504=CARTESIAN_POINT('',(1.2,11.,25.));
#505=CARTESIAN_POINT('',(1.2,11.,25.));
#506=CARTESIAN_POINT('',(1.2,11.,23.2));
#507=CARTESIAN_POINT('Origin',(0.,10.4,23.2));
#508=CARTESIAN_POINT('',(-1.2,11.,23.2));
#509=CARTESIAN_POINT('',(1.2,9.8,23.2));
#510=CARTESIAN_POINT('Origin',(1.2,11.,7.));
#511=CARTESIAN_POINT('',(1.2,11.,7.));
#512=CARTESIAN_POINT('',(-1.2,11.,7.));
#513=CARTESIAN_POINT('',(1.2,11.,7.));
#514=CARTESIAN_POINT('',(-1.2,11.,8.8));
#515=CARTESIAN_POINT('',(-1.2,11.,7.));
#516=CARTESIAN_POINT('',(1.2,11.,8.8));
#517=CARTESIAN_POINT('',(1.2,11.,8.8));
#518=CARTESIAN_POINT('',(1.2,11.,7.));
#519=CARTESIAN_POINT('Origin',(0.,10.4,8.8));
#520=CARTESIAN_POINT('',(-1.2,11.,8.8));
#521=CARTESIAN_POINT('',(1.2,9.8,8.8));
#522=CARTESIAN_POINT('Origin',(1.2,8.6,7.));
#523=CARTESIAN_POINT('',(1.2,8.6,7.));
#524=CARTESIAN_POINT('',(1.2,8.6,25.));
#525=CARTESIAN_POINT('Origin',(-1.2,9.8,7.));
#526=CARTESIAN_POINT('',(-1.2,9.8,7.));
#527=CARTESIAN_POINT('',(-1.2,11.,25.));
#528=CARTESIAN_POINT('Origin',(0.,9.2,25.));
#529=CARTESIAN_POINT('Origin',(0.,9.2,7.));
#530=UNCERTAINTY_MEASURE_WITH_UNIT(LENGTH_MEASURE(0.001),#534,
'DISTANCE_ACCURACY_VALUE',
'Maximum model space distance between geometric entities at asserted c
onnectivities');
#531=UNCERTAINTY_MEASURE_WITH_UNIT(LENGTH_MEASURE(0.001),#534,
'DISTANCE_ACCURACY_VALUE',
'Maximum model space distance between geometric entities at asserted c
onnectivities');
#532=(
GEOMETRIC_REPRESENTATION_CONTEXT(3)
GLOBAL_UNCERTAINTY_ASSIGNED_CONTEXT((#530))
GLOBAL_UNIT_ASSIGNED_CONTEXT((#534,#536,#537))
REPRESENTATION_CONTEXT('','3D')
);
#533=(
GEOMETRIC_REPRESENTATION_CONTEXT(3)
GLOBAL_UNCERTAINTY_ASSIGNED_CONTEXT((#531))
GLOBAL_UNIT_ASSIGNED_CONTEXT((#534,#536,#537))
REPRESENTATION_CONTEXT('','3D')
);
#534=(
LENGTH_UNIT()
NAMED_UNIT(*)
SI_UNIT(.CENTI.,.METRE.)
);
#535=(
LENGTH_UNIT()
NAMED_UNIT(*)
SI_UNIT($,.METRE.)
);
#536=(
NAMED_UNIT(*)
PLANE_ANGLE_UNIT()
SI_UNIT($,.RADIAN.)
);
#537=(
NAMED_UNIT(*)
SI_UNIT($,.STERADIAN.)
SOLID_ANGLE_UNIT()
);
#538=SHAPE_DEFINITION_REPRESENTATION(#539,#540);
#539=PRODUCT_DEFINITION_SHAPE('',$,#542);
#540=SHAPE_REPRESENTATION('',(#334),#532);
#541=PRODUCT_DEFINITION_CONTEXT('part definition',#546,'design');
#542=PRODUCT_DEFINITION('2026-09-10-22-46-18-159',
'P04_\X2\5F00653E80CC69FD7AD65BFC677F\X0\',#543,#541);
#543=PRODUCT_DEFINITION_FORMATION('',$,#548);
#544=PRODUCT_RELATED_PRODUCT_CATEGORY('P04_\X2\5F00653E80CC69FD7AD65BFC677F\X0\',
'P04_\X2\5F00653E80CC69FD7AD65BFC677F\X0\',(#548));
#545=APPLICATION_PROTOCOL_DEFINITION('international standard',
'automotive_design',2009,#546);
#546=APPLICATION_CONTEXT(
'Core Data for Automotive Mechanical Design Process');
#547=PRODUCT_CONTEXT('part definition',#546,'mechanical');
#548=PRODUCT('2026-09-10-22-46-18-159','P04_\X2\5F00653E80CC69FD7AD65BFC677F\X0\',
$,(#547));
#549=PRESENTATION_STYLE_ASSIGNMENT((#551));
#550=PRESENTATION_STYLE_ASSIGNMENT((#552));
#551=SURFACE_STYLE_USAGE(.BOTH.,#553);
#552=SURFACE_STYLE_USAGE(.BOTH.,#554);
#553=SURFACE_SIDE_STYLE('',(#555));
#554=SURFACE_SIDE_STYLE('',(#556));
#555=SURFACE_STYLE_FILL_AREA(#557);
#556=SURFACE_STYLE_FILL_AREA(#558);
#557=FILL_AREA_STYLE('\X2\94A2\X0\ - \X2\7F0E5149\X0\',(#559));
#558=FILL_AREA_STYLE('R2_light',(#560));
#559=FILL_AREA_STYLE_COLOUR('\X2\94A2\X0\ - \X2\7F0E5149\X0\',#561);
#560=FILL_AREA_STYLE_COLOUR('R2_light',#562);
#561=COLOUR_RGB('\X2\94A2\X0\ - \X2\7F0E5149\X0\',0.627450980392157,0.627450980392157,
0.627450980392157);
#562=COLOUR_RGB('R2_light',0.858823529411765,0.549019607843137,0.164705882352941);
ENDSEC;
END-ISO-10303-21;
