ISO-10303-21;
HEADER;
/* Generated by software containing ST-Developer
 * from STEP Tools, Inc. (www.steptools.com) 
 */

FILE_DESCRIPTION(
/* description */ (''),
/* implementation_level */ '2;1');

FILE_NAME(
/* name */ 'P06A.step',
/* time_stamp */ '2026-09-10T22:46:37+08:00',
/* author */ (''),
/* organization */ (''),
/* preprocessor_version */ 'ST-DEVELOPER v20.1',
/* originating_system */ 'Autodesk Translation Framework v15.8.0.0',
/* authorisation */ '');

FILE_SCHEMA (('AUTOMOTIVE_DESIGN { 1 0 10303 214 3 1 1 }'));
ENDSEC;

DATA;
#10=MECHANICAL_DESIGN_GEOMETRIC_PRESENTATION_REPRESENTATION('',(#13),#1019);
#11=SHAPE_REPRESENTATION_RELATIONSHIP('SRR','None',#1026,#12);
#12=ADVANCED_BREP_SHAPE_REPRESENTATION('',(#14),#1018);
#13=STYLED_ITEM('',(#1036),#14);
#14=MANIFOLD_SOLID_BREP('\X2\5B9E4F53\X0\1',#607);
#15=CYLINDRICAL_SURFACE('',#641,0.225);
#16=CYLINDRICAL_SURFACE('',#643,0.225);
#17=CYLINDRICAL_SURFACE('',#645,0.225);
#18=CYLINDRICAL_SURFACE('',#648,0.225);
#19=CYLINDRICAL_SURFACE('',#658,0.7);
#20=CYLINDRICAL_SURFACE('',#660,4.55);
#21=CYLINDRICAL_SURFACE('',#662,5.5);
#22=CYLINDRICAL_SURFACE('',#664,0.7);
#23=CYLINDRICAL_SURFACE('',#666,5.5);
#24=CYLINDRICAL_SURFACE('',#670,5.5);
#25=FACE_BOUND('',#98,.T.);
#26=FACE_BOUND('',#104,.T.);
#27=FACE_BOUND('',#110,.T.);
#28=FACE_BOUND('',#111,.T.);
#29=FACE_BOUND('',#114,.T.);
#30=FACE_BOUND('',#116,.T.);
#31=FACE_BOUND('',#120,.T.);
#32=FACE_BOUND('',#124,.T.);
#33=FACE_BOUND('',#127,.T.);
#34=FACE_BOUND('',#128,.T.);
#35=CIRCLE('',#623,4.55);
#36=CIRCLE('',#624,5.5);
#37=CIRCLE('',#627,4.55);
#38=CIRCLE('',#628,5.5);
#39=CIRCLE('',#634,0.225);
#40=CIRCLE('',#640,0.225);
#41=CIRCLE('',#642,0.225);
#42=CIRCLE('',#644,0.225);
#43=CIRCLE('',#646,0.225);
#44=CIRCLE('',#647,0.225);
#45=CIRCLE('',#649,0.225);
#46=CIRCLE('',#650,0.225);
#47=CIRCLE('',#652,4.55);
#48=CIRCLE('',#653,5.5);
#49=CIRCLE('',#654,0.7);
#50=CIRCLE('',#655,5.5);
#51=CIRCLE('',#656,0.7);
#52=CIRCLE('',#657,5.5);
#53=CIRCLE('',#659,0.7);
#54=CIRCLE('',#661,4.55);
#55=CIRCLE('',#663,5.5);
#56=CIRCLE('',#665,0.7);
#57=CIRCLE('',#667,5.5);
#58=CIRCLE('',#671,5.5);
#59=FACE_OUTER_BOUND('',#89,.T.);
#60=FACE_OUTER_BOUND('',#90,.T.);
#61=FACE_OUTER_BOUND('',#91,.T.);
#62=FACE_OUTER_BOUND('',#92,.T.);
#63=FACE_OUTER_BOUND('',#93,.T.);
#64=FACE_OUTER_BOUND('',#94,.T.);
#65=FACE_OUTER_BOUND('',#95,.T.);
#66=FACE_OUTER_BOUND('',#96,.T.);
#67=FACE_OUTER_BOUND('',#97,.T.);
#68=FACE_OUTER_BOUND('',#99,.T.);
#69=FACE_OUTER_BOUND('',#100,.T.);
#70=FACE_OUTER_BOUND('',#101,.T.);
#71=FACE_OUTER_BOUND('',#102,.T.);
#72=FACE_OUTER_BOUND('',#103,.T.);
#73=FACE_OUTER_BOUND('',#105,.T.);
#74=FACE_OUTER_BOUND('',#106,.T.);
#75=FACE_OUTER_BOUND('',#107,.T.);
#76=FACE_OUTER_BOUND('',#108,.T.);
#77=FACE_OUTER_BOUND('',#109,.T.);
#78=FACE_OUTER_BOUND('',#112,.T.);
#79=FACE_OUTER_BOUND('',#113,.T.);
#80=FACE_OUTER_BOUND('',#115,.T.);
#81=FACE_OUTER_BOUND('',#117,.T.);
#82=FACE_OUTER_BOUND('',#118,.T.);
#83=FACE_OUTER_BOUND('',#119,.T.);
#84=FACE_OUTER_BOUND('',#121,.T.);
#85=FACE_OUTER_BOUND('',#122,.T.);
#86=FACE_OUTER_BOUND('',#123,.T.);
#87=FACE_OUTER_BOUND('',#125,.T.);
#88=FACE_OUTER_BOUND('',#126,.T.);
#89=EDGE_LOOP('',(#389,#390,#391,#392));
#90=EDGE_LOOP('',(#393,#394,#395,#396));
#91=EDGE_LOOP('',(#397,#398,#399,#400));
#92=EDGE_LOOP('',(#401,#402,#403,#404));
#93=EDGE_LOOP('',(#405,#406,#407,#408));
#94=EDGE_LOOP('',(#409,#410,#411,#412));
#95=EDGE_LOOP('',(#413,#414,#415,#416));
#96=EDGE_LOOP('',(#417,#418,#419,#420));
#97=EDGE_LOOP('',(#421,#422,#423,#424,#425,#426,#427,#428));
#98=EDGE_LOOP('',(#429));
#99=EDGE_LOOP('',(#430,#431,#432,#433));
#100=EDGE_LOOP('',(#434,#435,#436,#437));
#101=EDGE_LOOP('',(#438,#439,#440,#441));
#102=EDGE_LOOP('',(#442,#443,#444,#445));
#103=EDGE_LOOP('',(#446,#447,#448,#449,#450,#451,#452,#453));
#104=EDGE_LOOP('',(#454));
#105=EDGE_LOOP('',(#455,#456,#457,#458));
#106=EDGE_LOOP('',(#459,#460,#461,#462));
#107=EDGE_LOOP('',(#463,#464,#465,#466));
#108=EDGE_LOOP('',(#467,#468,#469,#470));
#109=EDGE_LOOP('',(#471,#472,#473,#474,#475,#476,#477,#478,#479,#480,#481,
#482,#483,#484,#485,#486,#487,#488,#489,#490));
#110=EDGE_LOOP('',(#491));
#111=EDGE_LOOP('',(#492));
#112=EDGE_LOOP('',(#493,#494,#495,#496));
#113=EDGE_LOOP('',(#497,#498,#499,#500));
#114=EDGE_LOOP('',(#501,#502,#503,#504));
#115=EDGE_LOOP('',(#505,#506,#507,#508));
#116=EDGE_LOOP('',(#509,#510,#511,#512));
#117=EDGE_LOOP('',(#513,#514,#515,#516));
#118=EDGE_LOOP('',(#517,#518,#519,#520));
#119=EDGE_LOOP('',(#521,#522,#523,#524));
#120=EDGE_LOOP('',(#525));
#121=EDGE_LOOP('',(#526,#527,#528,#529));
#122=EDGE_LOOP('',(#530,#531,#532,#533));
#123=EDGE_LOOP('',(#534,#535,#536,#537));
#124=EDGE_LOOP('',(#538));
#125=EDGE_LOOP('',(#539,#540,#541,#542));
#126=EDGE_LOOP('',(#543,#544,#545,#546,#547,#548,#549,#550,#551,#552,#553,
#554));
#127=EDGE_LOOP('',(#555));
#128=EDGE_LOOP('',(#556));
#129=LINE('',#849,#189);
#130=LINE('',#851,#190);
#131=LINE('',#853,#191);
#132=LINE('',#854,#192);
#133=LINE('',#860,#193);
#134=LINE('',#863,#194);
#135=LINE('',#865,#195);
#136=LINE('',#866,#196);
#137=LINE('',#873,#197);
#138=LINE('',#875,#198);
#139=LINE('',#877,#199);
#140=LINE('',#878,#200);
#141=LINE('',#881,#201);
#142=LINE('',#883,#202);
#143=LINE('',#884,#203);
#144=LINE('',#887,#204);
#145=LINE('',#889,#205);
#146=LINE('',#890,#206);
#147=LINE('',#892,#207);
#148=LINE('',#895,#208);
#149=LINE('',#897,#209);
#150=LINE('',#899,#210);
#151=LINE('',#901,#211);
#152=LINE('',#902,#212);
#153=LINE('',#908,#213);
#154=LINE('',#910,#214);
#155=LINE('',#912,#215);
#156=LINE('',#913,#216);
#157=LINE('',#916,#217);
#158=LINE('',#918,#218);
#159=LINE('',#919,#219);
#160=LINE('',#922,#220);
#161=LINE('',#924,#221);
#162=LINE('',#925,#222);
#163=LINE('',#927,#223);
#164=LINE('',#930,#224);
#165=LINE('',#932,#225);
#166=LINE('',#934,#226);
#167=LINE('',#936,#227);
#168=LINE('',#937,#228);
#169=LINE('',#942,#229);
#170=LINE('',#946,#230);
#171=LINE('',#952,#231);
#172=LINE('',#958,#232);
#173=LINE('',#963,#233);
#174=LINE('',#965,#234);
#175=LINE('',#977,#235);
#176=LINE('',#978,#236);
#177=LINE('',#981,#237);
#178=LINE('',#983,#238);
#179=LINE('',#989,#239);
#180=LINE('',#993,#240);
#181=LINE('',#997,#241);
#182=LINE('',#1001,#242);
#183=LINE('',#1003,#243);
#184=LINE('',#1004,#244);
#185=LINE('',#1006,#245);
#186=LINE('',#1011,#246);
#187=LINE('',#1012,#247);
#188=LINE('',#1014,#248);
#189=VECTOR('',#679,1.);
#190=VECTOR('',#680,1.);
#191=VECTOR('',#681,1.);
#192=VECTOR('',#682,1.);
#193=VECTOR('',#689,1.);
#194=VECTOR('',#692,1.);
#195=VECTOR('',#693,1.);
#196=VECTOR('',#694,1.);
#197=VECTOR('',#703,1.);
#198=VECTOR('',#704,1.);
#199=VECTOR('',#705,1.);
#200=VECTOR('',#706,1.);
#201=VECTOR('',#709,1.);
#202=VECTOR('',#710,1.);
#203=VECTOR('',#711,1.);
#204=VECTOR('',#714,1.);
#205=VECTOR('',#715,1.);
#206=VECTOR('',#716,1.);
#207=VECTOR('',#719,1.);
#208=VECTOR('',#722,1.);
#209=VECTOR('',#723,1.);
#210=VECTOR('',#724,1.);
#211=VECTOR('',#725,1.);
#212=VECTOR('',#726,1.);
#213=VECTOR('',#731,1.);
#214=VECTOR('',#732,1.);
#215=VECTOR('',#733,1.);
#216=VECTOR('',#734,1.);
#217=VECTOR('',#737,1.);
#218=VECTOR('',#738,1.);
#219=VECTOR('',#739,1.);
#220=VECTOR('',#742,1.);
#221=VECTOR('',#743,1.);
#222=VECTOR('',#744,1.);
#223=VECTOR('',#747,1.);
#224=VECTOR('',#750,1.);
#225=VECTOR('',#751,1.);
#226=VECTOR('',#752,1.);
#227=VECTOR('',#753,1.);
#228=VECTOR('',#754,1.);
#229=VECTOR('',#759,0.225);
#230=VECTOR('',#764,0.225);
#231=VECTOR('',#771,0.225);
#232=VECTOR('',#778,0.225);
#233=VECTOR('',#785,1.);
#234=VECTOR('',#786,1.);
#235=VECTOR('',#797,1.);
#236=VECTOR('',#798,1.);
#237=VECTOR('',#801,1.);
#238=VECTOR('',#802,1.);
#239=VECTOR('',#811,1.);
#240=VECTOR('',#816,1.);
#241=VECTOR('',#821,1.);
#242=VECTOR('',#826,1.);
#243=VECTOR('',#827,1.);
#244=VECTOR('',#828,1.);
#245=VECTOR('',#831,1.);
#246=VECTOR('',#838,1.);
#247=VECTOR('',#839,1.);
#248=VECTOR('',#842,1.);
#249=VERTEX_POINT('',#847);
#250=VERTEX_POINT('',#848);
#251=VERTEX_POINT('',#850);
#252=VERTEX_POINT('',#852);
#253=VERTEX_POINT('',#856);
#254=VERTEX_POINT('',#858);
#255=VERTEX_POINT('',#862);
#256=VERTEX_POINT('',#864);
#257=VERTEX_POINT('',#871);
#258=VERTEX_POINT('',#872);
#259=VERTEX_POINT('',#874);
#260=VERTEX_POINT('',#876);
#261=VERTEX_POINT('',#880);
#262=VERTEX_POINT('',#882);
#263=VERTEX_POINT('',#886);
#264=VERTEX_POINT('',#888);
#265=VERTEX_POINT('',#894);
#266=VERTEX_POINT('',#896);
#267=VERTEX_POINT('',#898);
#268=VERTEX_POINT('',#900);
#269=VERTEX_POINT('',#903);
#270=VERTEX_POINT('',#906);
#271=VERTEX_POINT('',#907);
#272=VERTEX_POINT('',#909);
#273=VERTEX_POINT('',#911);
#274=VERTEX_POINT('',#915);
#275=VERTEX_POINT('',#917);
#276=VERTEX_POINT('',#921);
#277=VERTEX_POINT('',#923);
#278=VERTEX_POINT('',#929);
#279=VERTEX_POINT('',#931);
#280=VERTEX_POINT('',#933);
#281=VERTEX_POINT('',#935);
#282=VERTEX_POINT('',#938);
#283=VERTEX_POINT('',#941);
#284=VERTEX_POINT('',#945);
#285=VERTEX_POINT('',#949);
#286=VERTEX_POINT('',#951);
#287=VERTEX_POINT('',#955);
#288=VERTEX_POINT('',#957);
#289=VERTEX_POINT('',#962);
#290=VERTEX_POINT('',#964);
#291=VERTEX_POINT('',#966);
#292=VERTEX_POINT('',#968);
#293=VERTEX_POINT('',#970);
#294=VERTEX_POINT('',#972);
#295=VERTEX_POINT('',#974);
#296=VERTEX_POINT('',#976);
#297=VERTEX_POINT('',#980);
#298=VERTEX_POINT('',#982);
#299=VERTEX_POINT('',#988);
#300=VERTEX_POINT('',#992);
#301=VERTEX_POINT('',#996);
#302=VERTEX_POINT('',#1000);
#303=VERTEX_POINT('',#1002);
#304=VERTEX_POINT('',#1010);
#305=EDGE_CURVE('',#249,#250,#129,.T.);
#306=EDGE_CURVE('',#249,#251,#130,.T.);
#307=EDGE_CURVE('',#252,#251,#131,.T.);
#308=EDGE_CURVE('',#250,#252,#132,.T.);
#309=EDGE_CURVE('',#250,#253,#35,.T.);
#310=EDGE_CURVE('',#254,#252,#36,.T.);
#311=EDGE_CURVE('',#254,#253,#133,.T.);
#312=EDGE_CURVE('',#253,#255,#134,.T.);
#313=EDGE_CURVE('',#256,#254,#135,.T.);
#314=EDGE_CURVE('',#256,#255,#136,.T.);
#315=EDGE_CURVE('',#255,#249,#37,.T.);
#316=EDGE_CURVE('',#251,#256,#38,.T.);
#317=EDGE_CURVE('',#257,#258,#137,.T.);
#318=EDGE_CURVE('',#259,#258,#138,.T.);
#319=EDGE_CURVE('',#260,#259,#139,.T.);
#320=EDGE_CURVE('',#257,#260,#140,.T.);
#321=EDGE_CURVE('',#261,#257,#141,.T.);
#322=EDGE_CURVE('',#262,#260,#142,.T.);
#323=EDGE_CURVE('',#261,#262,#143,.T.);
#324=EDGE_CURVE('',#263,#261,#144,.T.);
#325=EDGE_CURVE('',#264,#262,#145,.T.);
#326=EDGE_CURVE('',#263,#264,#146,.T.);
#327=EDGE_CURVE('',#264,#259,#147,.T.);
#328=EDGE_CURVE('',#265,#258,#148,.T.);
#329=EDGE_CURVE('',#265,#266,#149,.T.);
#330=EDGE_CURVE('',#267,#266,#150,.T.);
#331=EDGE_CURVE('',#268,#267,#151,.T.);
#332=EDGE_CURVE('',#263,#268,#152,.T.);
#333=EDGE_CURVE('',#269,#269,#39,.T.);
#334=EDGE_CURVE('',#270,#271,#153,.T.);
#335=EDGE_CURVE('',#272,#271,#154,.T.);
#336=EDGE_CURVE('',#273,#272,#155,.T.);
#337=EDGE_CURVE('',#270,#273,#156,.T.);
#338=EDGE_CURVE('',#274,#270,#157,.T.);
#339=EDGE_CURVE('',#275,#273,#158,.T.);
#340=EDGE_CURVE('',#274,#275,#159,.T.);
#341=EDGE_CURVE('',#276,#274,#160,.T.);
#342=EDGE_CURVE('',#277,#275,#161,.T.);
#343=EDGE_CURVE('',#276,#277,#162,.T.);
#344=EDGE_CURVE('',#277,#272,#163,.T.);
#345=EDGE_CURVE('',#278,#271,#164,.T.);
#346=EDGE_CURVE('',#279,#278,#165,.T.);
#347=EDGE_CURVE('',#280,#279,#166,.T.);
#348=EDGE_CURVE('',#281,#280,#167,.T.);
#349=EDGE_CURVE('',#276,#281,#168,.T.);
#350=EDGE_CURVE('',#282,#282,#40,.T.);
#351=EDGE_CURVE('',#269,#283,#169,.T.);
#352=EDGE_CURVE('',#283,#283,#41,.T.);
#353=EDGE_CURVE('',#282,#284,#170,.T.);
#354=EDGE_CURVE('',#284,#284,#42,.T.);
#355=EDGE_CURVE('',#285,#285,#43,.T.);
#356=EDGE_CURVE('',#285,#286,#171,.T.);
#357=EDGE_CURVE('',#286,#286,#44,.T.);
#358=EDGE_CURVE('',#287,#287,#45,.T.);
#359=EDGE_CURVE('',#287,#288,#172,.T.);
#360=EDGE_CURVE('',#288,#288,#46,.T.);
#361=EDGE_CURVE('',#268,#278,#47,.T.);
#362=EDGE_CURVE('',#289,#281,#173,.T.);
#363=EDGE_CURVE('',#290,#289,#174,.T.);
#364=EDGE_CURVE('',#291,#290,#48,.T.);
#365=EDGE_CURVE('',#292,#291,#49,.T.);
#366=EDGE_CURVE('',#293,#292,#50,.T.);
#367=EDGE_CURVE('',#294,#293,#51,.T.);
#368=EDGE_CURVE('',#295,#294,#52,.T.);
#369=EDGE_CURVE('',#296,#295,#175,.T.);
#370=EDGE_CURVE('',#265,#296,#176,.T.);
#371=EDGE_CURVE('',#294,#297,#177,.T.);
#372=EDGE_CURVE('',#298,#293,#178,.T.);
#373=EDGE_CURVE('',#297,#298,#53,.T.);
#374=EDGE_CURVE('',#279,#267,#54,.T.);
#375=EDGE_CURVE('',#292,#299,#179,.T.);
#376=EDGE_CURVE('',#298,#299,#55,.T.);
#377=EDGE_CURVE('',#300,#291,#180,.T.);
#378=EDGE_CURVE('',#299,#300,#56,.T.);
#379=EDGE_CURVE('',#290,#301,#181,.T.);
#380=EDGE_CURVE('',#300,#301,#57,.T.);
#381=EDGE_CURVE('',#302,#295,#182,.T.);
#382=EDGE_CURVE('',#303,#302,#183,.T.);
#383=EDGE_CURVE('',#296,#303,#184,.T.);
#384=EDGE_CURVE('',#266,#303,#185,.T.);
#385=EDGE_CURVE('',#302,#297,#58,.T.);
#386=EDGE_CURVE('',#289,#304,#186,.T.);
#387=EDGE_CURVE('',#301,#304,#187,.T.);
#388=EDGE_CURVE('',#304,#280,#188,.T.);
#389=ORIENTED_EDGE('',*,*,#305,.F.);
#390=ORIENTED_EDGE('',*,*,#306,.T.);
#391=ORIENTED_EDGE('',*,*,#307,.F.);
#392=ORIENTED_EDGE('',*,*,#308,.F.);
#393=ORIENTED_EDGE('',*,*,#309,.F.);
#394=ORIENTED_EDGE('',*,*,#308,.T.);
#395=ORIENTED_EDGE('',*,*,#310,.F.);
#396=ORIENTED_EDGE('',*,*,#311,.T.);
#397=ORIENTED_EDGE('',*,*,#312,.F.);
#398=ORIENTED_EDGE('',*,*,#311,.F.);
#399=ORIENTED_EDGE('',*,*,#313,.F.);
#400=ORIENTED_EDGE('',*,*,#314,.T.);
#401=ORIENTED_EDGE('',*,*,#315,.F.);
#402=ORIENTED_EDGE('',*,*,#314,.F.);
#403=ORIENTED_EDGE('',*,*,#316,.F.);
#404=ORIENTED_EDGE('',*,*,#306,.F.);
#405=ORIENTED_EDGE('',*,*,#317,.T.);
#406=ORIENTED_EDGE('',*,*,#318,.F.);
#407=ORIENTED_EDGE('',*,*,#319,.F.);
#408=ORIENTED_EDGE('',*,*,#320,.F.);
#409=ORIENTED_EDGE('',*,*,#321,.T.);
#410=ORIENTED_EDGE('',*,*,#320,.T.);
#411=ORIENTED_EDGE('',*,*,#322,.F.);
#412=ORIENTED_EDGE('',*,*,#323,.F.);
#413=ORIENTED_EDGE('',*,*,#324,.T.);
#414=ORIENTED_EDGE('',*,*,#323,.T.);
#415=ORIENTED_EDGE('',*,*,#325,.F.);
#416=ORIENTED_EDGE('',*,*,#326,.F.);
#417=ORIENTED_EDGE('',*,*,#325,.T.);
#418=ORIENTED_EDGE('',*,*,#322,.T.);
#419=ORIENTED_EDGE('',*,*,#319,.T.);
#420=ORIENTED_EDGE('',*,*,#327,.F.);
#421=ORIENTED_EDGE('',*,*,#326,.T.);
#422=ORIENTED_EDGE('',*,*,#327,.T.);
#423=ORIENTED_EDGE('',*,*,#318,.T.);
#424=ORIENTED_EDGE('',*,*,#328,.F.);
#425=ORIENTED_EDGE('',*,*,#329,.T.);
#426=ORIENTED_EDGE('',*,*,#330,.F.);
#427=ORIENTED_EDGE('',*,*,#331,.F.);
#428=ORIENTED_EDGE('',*,*,#332,.F.);
#429=ORIENTED_EDGE('',*,*,#333,.T.);
#430=ORIENTED_EDGE('',*,*,#334,.T.);
#431=ORIENTED_EDGE('',*,*,#335,.F.);
#432=ORIENTED_EDGE('',*,*,#336,.F.);
#433=ORIENTED_EDGE('',*,*,#337,.F.);
#434=ORIENTED_EDGE('',*,*,#338,.T.);
#435=ORIENTED_EDGE('',*,*,#337,.T.);
#436=ORIENTED_EDGE('',*,*,#339,.F.);
#437=ORIENTED_EDGE('',*,*,#340,.F.);
#438=ORIENTED_EDGE('',*,*,#341,.T.);
#439=ORIENTED_EDGE('',*,*,#340,.T.);
#440=ORIENTED_EDGE('',*,*,#342,.F.);
#441=ORIENTED_EDGE('',*,*,#343,.F.);
#442=ORIENTED_EDGE('',*,*,#342,.T.);
#443=ORIENTED_EDGE('',*,*,#339,.T.);
#444=ORIENTED_EDGE('',*,*,#336,.T.);
#445=ORIENTED_EDGE('',*,*,#344,.F.);
#446=ORIENTED_EDGE('',*,*,#343,.T.);
#447=ORIENTED_EDGE('',*,*,#344,.T.);
#448=ORIENTED_EDGE('',*,*,#335,.T.);
#449=ORIENTED_EDGE('',*,*,#345,.F.);
#450=ORIENTED_EDGE('',*,*,#346,.F.);
#451=ORIENTED_EDGE('',*,*,#347,.F.);
#452=ORIENTED_EDGE('',*,*,#348,.F.);
#453=ORIENTED_EDGE('',*,*,#349,.F.);
#454=ORIENTED_EDGE('',*,*,#350,.T.);
#455=ORIENTED_EDGE('',*,*,#333,.F.);
#456=ORIENTED_EDGE('',*,*,#351,.T.);
#457=ORIENTED_EDGE('',*,*,#352,.F.);
#458=ORIENTED_EDGE('',*,*,#351,.F.);
#459=ORIENTED_EDGE('',*,*,#350,.F.);
#460=ORIENTED_EDGE('',*,*,#353,.T.);
#461=ORIENTED_EDGE('',*,*,#354,.F.);
#462=ORIENTED_EDGE('',*,*,#353,.F.);
#463=ORIENTED_EDGE('',*,*,#355,.F.);
#464=ORIENTED_EDGE('',*,*,#356,.T.);
#465=ORIENTED_EDGE('',*,*,#357,.F.);
#466=ORIENTED_EDGE('',*,*,#356,.F.);
#467=ORIENTED_EDGE('',*,*,#358,.F.);
#468=ORIENTED_EDGE('',*,*,#359,.T.);
#469=ORIENTED_EDGE('',*,*,#360,.F.);
#470=ORIENTED_EDGE('',*,*,#359,.F.);
#471=ORIENTED_EDGE('',*,*,#361,.T.);
#472=ORIENTED_EDGE('',*,*,#345,.T.);
#473=ORIENTED_EDGE('',*,*,#334,.F.);
#474=ORIENTED_EDGE('',*,*,#338,.F.);
#475=ORIENTED_EDGE('',*,*,#341,.F.);
#476=ORIENTED_EDGE('',*,*,#349,.T.);
#477=ORIENTED_EDGE('',*,*,#362,.F.);
#478=ORIENTED_EDGE('',*,*,#363,.F.);
#479=ORIENTED_EDGE('',*,*,#364,.F.);
#480=ORIENTED_EDGE('',*,*,#365,.F.);
#481=ORIENTED_EDGE('',*,*,#366,.F.);
#482=ORIENTED_EDGE('',*,*,#367,.F.);
#483=ORIENTED_EDGE('',*,*,#368,.F.);
#484=ORIENTED_EDGE('',*,*,#369,.F.);
#485=ORIENTED_EDGE('',*,*,#370,.F.);
#486=ORIENTED_EDGE('',*,*,#328,.T.);
#487=ORIENTED_EDGE('',*,*,#317,.F.);
#488=ORIENTED_EDGE('',*,*,#321,.F.);
#489=ORIENTED_EDGE('',*,*,#324,.F.);
#490=ORIENTED_EDGE('',*,*,#332,.T.);
#491=ORIENTED_EDGE('',*,*,#355,.T.);
#492=ORIENTED_EDGE('',*,*,#358,.T.);
#493=ORIENTED_EDGE('',*,*,#371,.F.);
#494=ORIENTED_EDGE('',*,*,#367,.T.);
#495=ORIENTED_EDGE('',*,*,#372,.F.);
#496=ORIENTED_EDGE('',*,*,#373,.F.);
#497=ORIENTED_EDGE('',*,*,#361,.F.);
#498=ORIENTED_EDGE('',*,*,#331,.T.);
#499=ORIENTED_EDGE('',*,*,#374,.F.);
#500=ORIENTED_EDGE('',*,*,#346,.T.);
#501=ORIENTED_EDGE('',*,*,#312,.T.);
#502=ORIENTED_EDGE('',*,*,#315,.T.);
#503=ORIENTED_EDGE('',*,*,#305,.T.);
#504=ORIENTED_EDGE('',*,*,#309,.T.);
#505=ORIENTED_EDGE('',*,*,#372,.T.);
#506=ORIENTED_EDGE('',*,*,#366,.T.);
#507=ORIENTED_EDGE('',*,*,#375,.T.);
#508=ORIENTED_EDGE('',*,*,#376,.F.);
#509=ORIENTED_EDGE('',*,*,#313,.T.);
#510=ORIENTED_EDGE('',*,*,#310,.T.);
#511=ORIENTED_EDGE('',*,*,#307,.T.);
#512=ORIENTED_EDGE('',*,*,#316,.T.);
#513=ORIENTED_EDGE('',*,*,#375,.F.);
#514=ORIENTED_EDGE('',*,*,#365,.T.);
#515=ORIENTED_EDGE('',*,*,#377,.F.);
#516=ORIENTED_EDGE('',*,*,#378,.F.);
#517=ORIENTED_EDGE('',*,*,#377,.T.);
#518=ORIENTED_EDGE('',*,*,#364,.T.);
#519=ORIENTED_EDGE('',*,*,#379,.T.);
#520=ORIENTED_EDGE('',*,*,#380,.F.);
#521=ORIENTED_EDGE('',*,*,#381,.F.);
#522=ORIENTED_EDGE('',*,*,#382,.F.);
#523=ORIENTED_EDGE('',*,*,#383,.F.);
#524=ORIENTED_EDGE('',*,*,#369,.T.);
#525=ORIENTED_EDGE('',*,*,#352,.T.);
#526=ORIENTED_EDGE('',*,*,#370,.T.);
#527=ORIENTED_EDGE('',*,*,#383,.T.);
#528=ORIENTED_EDGE('',*,*,#384,.F.);
#529=ORIENTED_EDGE('',*,*,#329,.F.);
#530=ORIENTED_EDGE('',*,*,#371,.T.);
#531=ORIENTED_EDGE('',*,*,#385,.F.);
#532=ORIENTED_EDGE('',*,*,#381,.T.);
#533=ORIENTED_EDGE('',*,*,#368,.T.);
#534=ORIENTED_EDGE('',*,*,#379,.F.);
#535=ORIENTED_EDGE('',*,*,#363,.T.);
#536=ORIENTED_EDGE('',*,*,#386,.T.);
#537=ORIENTED_EDGE('',*,*,#387,.F.);
#538=ORIENTED_EDGE('',*,*,#354,.T.);
#539=ORIENTED_EDGE('',*,*,#362,.T.);
#540=ORIENTED_EDGE('',*,*,#348,.T.);
#541=ORIENTED_EDGE('',*,*,#388,.F.);
#542=ORIENTED_EDGE('',*,*,#386,.F.);
#543=ORIENTED_EDGE('',*,*,#374,.T.);
#544=ORIENTED_EDGE('',*,*,#330,.T.);
#545=ORIENTED_EDGE('',*,*,#384,.T.);
#546=ORIENTED_EDGE('',*,*,#382,.T.);
#547=ORIENTED_EDGE('',*,*,#385,.T.);
#548=ORIENTED_EDGE('',*,*,#373,.T.);
#549=ORIENTED_EDGE('',*,*,#376,.T.);
#550=ORIENTED_EDGE('',*,*,#378,.T.);
#551=ORIENTED_EDGE('',*,*,#380,.T.);
#552=ORIENTED_EDGE('',*,*,#387,.T.);
#553=ORIENTED_EDGE('',*,*,#388,.T.);
#554=ORIENTED_EDGE('',*,*,#347,.T.);
#555=ORIENTED_EDGE('',*,*,#357,.T.);
#556=ORIENTED_EDGE('',*,*,#360,.T.);
#557=PLANE('',#621);
#558=PLANE('',#622);
#559=PLANE('',#625);
#560=PLANE('',#626);
#561=PLANE('',#629);
#562=PLANE('',#630);
#563=PLANE('',#631);
#564=PLANE('',#632);
#565=PLANE('',#633);
#566=PLANE('',#635);
#567=PLANE('',#636);
#568=PLANE('',#637);
#569=PLANE('',#638);
#570=PLANE('',#639);
#571=PLANE('',#651);
#572=PLANE('',#668);
#573=PLANE('',#669);
#574=PLANE('',#672);
#575=PLANE('',#673);
#576=PLANE('',#674);
#577=ADVANCED_FACE('',(#59),#557,.F.);
#578=ADVANCED_FACE('',(#60),#558,.T.);
#579=ADVANCED_FACE('',(#61),#559,.F.);
#580=ADVANCED_FACE('',(#62),#560,.F.);
#581=ADVANCED_FACE('',(#63),#561,.T.);
#582=ADVANCED_FACE('',(#64),#562,.T.);
#583=ADVANCED_FACE('',(#65),#563,.T.);
#584=ADVANCED_FACE('',(#66),#564,.T.);
#585=ADVANCED_FACE('',(#67,#25),#565,.F.);
#586=ADVANCED_FACE('',(#68),#566,.T.);
#587=ADVANCED_FACE('',(#69),#567,.T.);
#588=ADVANCED_FACE('',(#70),#568,.T.);
#589=ADVANCED_FACE('',(#71),#569,.T.);
#590=ADVANCED_FACE('',(#72,#26),#570,.F.);
#591=ADVANCED_FACE('',(#73),#15,.F.);
#592=ADVANCED_FACE('',(#74),#16,.F.);
#593=ADVANCED_FACE('',(#75),#17,.F.);
#594=ADVANCED_FACE('',(#76),#18,.F.);
#595=ADVANCED_FACE('',(#77,#27,#28),#571,.F.);
#596=ADVANCED_FACE('',(#78),#19,.T.);
#597=ADVANCED_FACE('',(#79,#29),#20,.F.);
#598=ADVANCED_FACE('',(#80,#30),#21,.T.);
#599=ADVANCED_FACE('',(#81),#22,.T.);
#600=ADVANCED_FACE('',(#82),#23,.T.);
#601=ADVANCED_FACE('',(#83,#31),#572,.T.);
#602=ADVANCED_FACE('',(#84),#573,.T.);
#603=ADVANCED_FACE('',(#85),#24,.T.);
#604=ADVANCED_FACE('',(#86,#32),#574,.T.);
#605=ADVANCED_FACE('',(#87),#575,.T.);
#606=ADVANCED_FACE('',(#88,#33,#34),#576,.T.);
#607=CLOSED_SHELL('',(#577,#578,#579,#580,#581,#582,#583,#584,#585,#586,
#587,#588,#589,#590,#591,#592,#593,#594,#595,#596,#597,#598,#599,#600,#601,
#602,#603,#604,#605,#606));
#608=DERIVED_UNIT_ELEMENT(#610,1.);
#609=DERIVED_UNIT_ELEMENT(#1021,-3.);
#610=(
MASS_UNIT()
NAMED_UNIT(*)
SI_UNIT(.KILO.,.GRAM.)
);
#611=DERIVED_UNIT((#608,#609));
#612=MEASURE_REPRESENTATION_ITEM('density measure',
POSITIVE_RATIO_MEASURE(7850.),#611);
#613=PROPERTY_DEFINITION_REPRESENTATION(#618,#615);
#614=PROPERTY_DEFINITION_REPRESENTATION(#619,#616);
#615=REPRESENTATION('material name',(#617),#1018);
#616=REPRESENTATION('density',(#612),#1018);
#617=DESCRIPTIVE_REPRESENTATION_ITEM('\X2\94A2\X0\','\X2\94A2\X0\');
#618=PROPERTY_DEFINITION('material property','material name',#1028);
#619=PROPERTY_DEFINITION('material property','density of part',#1028);
#620=AXIS2_PLACEMENT_3D('',#845,#675,#676);
#621=AXIS2_PLACEMENT_3D('',#846,#677,#678);
#622=AXIS2_PLACEMENT_3D('',#855,#683,#684);
#623=AXIS2_PLACEMENT_3D('',#857,#685,#686);
#624=AXIS2_PLACEMENT_3D('',#859,#687,#688);
#625=AXIS2_PLACEMENT_3D('',#861,#690,#691);
#626=AXIS2_PLACEMENT_3D('',#867,#695,#696);
#627=AXIS2_PLACEMENT_3D('',#868,#697,#698);
#628=AXIS2_PLACEMENT_3D('',#869,#699,#700);
#629=AXIS2_PLACEMENT_3D('',#870,#701,#702);
#630=AXIS2_PLACEMENT_3D('',#879,#707,#708);
#631=AXIS2_PLACEMENT_3D('',#885,#712,#713);
#632=AXIS2_PLACEMENT_3D('',#891,#717,#718);
#633=AXIS2_PLACEMENT_3D('',#893,#720,#721);
#634=AXIS2_PLACEMENT_3D('',#904,#727,#728);
#635=AXIS2_PLACEMENT_3D('',#905,#729,#730);
#636=AXIS2_PLACEMENT_3D('',#914,#735,#736);
#637=AXIS2_PLACEMENT_3D('',#920,#740,#741);
#638=AXIS2_PLACEMENT_3D('',#926,#745,#746);
#639=AXIS2_PLACEMENT_3D('',#928,#748,#749);
#640=AXIS2_PLACEMENT_3D('',#939,#755,#756);
#641=AXIS2_PLACEMENT_3D('',#940,#757,#758);
#642=AXIS2_PLACEMENT_3D('',#943,#760,#761);
#643=AXIS2_PLACEMENT_3D('',#944,#762,#763);
#644=AXIS2_PLACEMENT_3D('',#947,#765,#766);
#645=AXIS2_PLACEMENT_3D('',#948,#767,#768);
#646=AXIS2_PLACEMENT_3D('',#950,#769,#770);
#647=AXIS2_PLACEMENT_3D('',#953,#772,#773);
#648=AXIS2_PLACEMENT_3D('',#954,#774,#775);
#649=AXIS2_PLACEMENT_3D('',#956,#776,#777);
#650=AXIS2_PLACEMENT_3D('',#959,#779,#780);
#651=AXIS2_PLACEMENT_3D('',#960,#781,#782);
#652=AXIS2_PLACEMENT_3D('',#961,#783,#784);
#653=AXIS2_PLACEMENT_3D('',#967,#787,#788);
#654=AXIS2_PLACEMENT_3D('',#969,#789,#790);
#655=AXIS2_PLACEMENT_3D('',#971,#791,#792);
#656=AXIS2_PLACEMENT_3D('',#973,#793,#794);
#657=AXIS2_PLACEMENT_3D('',#975,#795,#796);
#658=AXIS2_PLACEMENT_3D('',#979,#799,#800);
#659=AXIS2_PLACEMENT_3D('',#984,#803,#804);
#660=AXIS2_PLACEMENT_3D('',#985,#805,#806);
#661=AXIS2_PLACEMENT_3D('',#986,#807,#808);
#662=AXIS2_PLACEMENT_3D('',#987,#809,#810);
#663=AXIS2_PLACEMENT_3D('',#990,#812,#813);
#664=AXIS2_PLACEMENT_3D('',#991,#814,#815);
#665=AXIS2_PLACEMENT_3D('',#994,#817,#818);
#666=AXIS2_PLACEMENT_3D('',#995,#819,#820);
#667=AXIS2_PLACEMENT_3D('',#998,#822,#823);
#668=AXIS2_PLACEMENT_3D('',#999,#824,#825);
#669=AXIS2_PLACEMENT_3D('',#1005,#829,#830);
#670=AXIS2_PLACEMENT_3D('',#1007,#832,#833);
#671=AXIS2_PLACEMENT_3D('',#1008,#834,#835);
#672=AXIS2_PLACEMENT_3D('',#1009,#836,#837);
#673=AXIS2_PLACEMENT_3D('',#1013,#840,#841);
#674=AXIS2_PLACEMENT_3D('',#1015,#843,#844);
#675=DIRECTION('axis',(0.,0.,1.));
#676=DIRECTION('refdir',(1.,0.,0.));
#677=DIRECTION('center_axis',(1.,0.,0.));
#678=DIRECTION('ref_axis',(0.,1.,0.));
#679=DIRECTION('',(0.,0.,-1.));
#680=DIRECTION('',(0.,1.,0.));
#681=DIRECTION('',(0.,0.,1.));
#682=DIRECTION('',(0.,1.,0.));
#683=DIRECTION('center_axis',(0.,0.,1.));
#684=DIRECTION('ref_axis',(1.,0.,0.));
#685=DIRECTION('center_axis',(0.,0.,1.));
#686=DIRECTION('ref_axis',(1.,0.,0.));
#687=DIRECTION('center_axis',(0.,0.,-1.));
#688=DIRECTION('ref_axis',(1.,0.,0.));
#689=DIRECTION('',(0.,-1.,0.));
#690=DIRECTION('center_axis',(-1.,0.,0.));
#691=DIRECTION('ref_axis',(0.,-1.,0.));
#692=DIRECTION('',(0.,0.,1.));
#693=DIRECTION('',(0.,0.,-1.));
#694=DIRECTION('',(0.,-1.,0.));
#695=DIRECTION('center_axis',(0.,0.,1.));
#696=DIRECTION('ref_axis',(1.,0.,0.));
#697=DIRECTION('center_axis',(0.,0.,-1.));
#698=DIRECTION('ref_axis',(1.,0.,0.));
#699=DIRECTION('center_axis',(0.,0.,1.));
#700=DIRECTION('ref_axis',(1.,0.,0.));
#701=DIRECTION('center_axis',(1.,0.,0.));
#702=DIRECTION('ref_axis',(0.,1.,0.));
#703=DIRECTION('',(0.,1.,0.));
#704=DIRECTION('',(0.,0.,-1.));
#705=DIRECTION('',(0.,1.,0.));
#706=DIRECTION('',(0.,0.,1.));
#707=DIRECTION('center_axis',(0.,-1.,0.));
#708=DIRECTION('ref_axis',(1.,0.,0.));
#709=DIRECTION('',(1.,0.,0.));
#710=DIRECTION('',(1.,0.,0.));
#711=DIRECTION('',(0.,0.,1.));
#712=DIRECTION('center_axis',(-1.,0.,0.));
#713=DIRECTION('ref_axis',(0.,-1.,0.));
#714=DIRECTION('',(0.,-1.,0.));
#715=DIRECTION('',(0.,-1.,0.));
#716=DIRECTION('',(0.,0.,1.));
#717=DIRECTION('center_axis',(0.,0.,1.));
#718=DIRECTION('ref_axis',(1.,0.,0.));
#719=DIRECTION('',(1.,0.,0.));
#720=DIRECTION('center_axis',(0.,1.,0.));
#721=DIRECTION('ref_axis',(-1.,0.,0.));
#722=DIRECTION('',(-1.,0.,0.));
#723=DIRECTION('',(0.,0.,1.));
#724=DIRECTION('',(1.,0.,0.));
#725=DIRECTION('',(0.,0.,1.));
#726=DIRECTION('',(-1.,0.,0.));
#727=DIRECTION('center_axis',(0.,1.,0.));
#728=DIRECTION('ref_axis',(1.,0.,0.));
#729=DIRECTION('center_axis',(1.,0.,0.));
#730=DIRECTION('ref_axis',(0.,1.,0.));
#731=DIRECTION('',(0.,1.,0.));
#732=DIRECTION('',(0.,0.,-1.));
#733=DIRECTION('',(0.,1.,0.));
#734=DIRECTION('',(0.,0.,1.));
#735=DIRECTION('center_axis',(0.,-1.,0.));
#736=DIRECTION('ref_axis',(1.,0.,0.));
#737=DIRECTION('',(1.,0.,0.));
#738=DIRECTION('',(1.,0.,0.));
#739=DIRECTION('',(0.,0.,1.));
#740=DIRECTION('center_axis',(-1.,0.,0.));
#741=DIRECTION('ref_axis',(0.,-1.,0.));
#742=DIRECTION('',(0.,-1.,0.));
#743=DIRECTION('',(0.,-1.,0.));
#744=DIRECTION('',(0.,0.,1.));
#745=DIRECTION('center_axis',(0.,0.,1.));
#746=DIRECTION('ref_axis',(1.,0.,0.));
#747=DIRECTION('',(1.,0.,0.));
#748=DIRECTION('center_axis',(0.,1.,0.));
#749=DIRECTION('ref_axis',(-1.,0.,0.));
#750=DIRECTION('',(-1.,0.,0.));
#751=DIRECTION('',(0.,0.,-1.));
#752=DIRECTION('',(1.,0.,0.));
#753=DIRECTION('',(0.,0.,1.));
#754=DIRECTION('',(-1.,0.,0.));
#755=DIRECTION('center_axis',(0.,1.,0.));
#756=DIRECTION('ref_axis',(1.,0.,0.));
#757=DIRECTION('center_axis',(0.,1.,0.));
#758=DIRECTION('ref_axis',(1.,0.,0.));
#759=DIRECTION('',(0.,1.,0.));
#760=DIRECTION('center_axis',(0.,-1.,0.));
#761=DIRECTION('ref_axis',(1.,0.,0.));
#762=DIRECTION('center_axis',(0.,1.,0.));
#763=DIRECTION('ref_axis',(1.,0.,0.));
#764=DIRECTION('',(0.,1.,0.));
#765=DIRECTION('center_axis',(0.,-1.,0.));
#766=DIRECTION('ref_axis',(1.,0.,0.));
#767=DIRECTION('center_axis',(0.,0.,1.));
#768=DIRECTION('ref_axis',(1.,0.,0.));
#769=DIRECTION('center_axis',(0.,0.,1.));
#770=DIRECTION('ref_axis',(1.,0.,0.));
#771=DIRECTION('',(0.,0.,1.));
#772=DIRECTION('center_axis',(0.,0.,-1.));
#773=DIRECTION('ref_axis',(1.,0.,0.));
#774=DIRECTION('center_axis',(0.,0.,1.));
#775=DIRECTION('ref_axis',(1.,0.,0.));
#776=DIRECTION('center_axis',(0.,0.,1.));
#777=DIRECTION('ref_axis',(1.,0.,0.));
#778=DIRECTION('',(0.,0.,1.));
#779=DIRECTION('center_axis',(0.,0.,-1.));
#780=DIRECTION('ref_axis',(1.,0.,0.));
#781=DIRECTION('center_axis',(0.,0.,1.));
#782=DIRECTION('ref_axis',(1.,0.,0.));
#783=DIRECTION('center_axis',(0.,0.,1.));
#784=DIRECTION('ref_axis',(1.,0.,0.));
#785=DIRECTION('',(0.,-1.,0.));
#786=DIRECTION('',(-1.,0.,0.));
#787=DIRECTION('center_axis',(0.,0.,1.));
#788=DIRECTION('ref_axis',(1.,0.,0.));
#789=DIRECTION('center_axis',(0.,0.,1.));
#790=DIRECTION('ref_axis',(1.,0.,0.));
#791=DIRECTION('center_axis',(0.,0.,1.));
#792=DIRECTION('ref_axis',(1.,0.,0.));
#793=DIRECTION('center_axis',(0.,0.,1.));
#794=DIRECTION('ref_axis',(1.,0.,0.));
#795=DIRECTION('center_axis',(0.,0.,1.));
#796=DIRECTION('ref_axis',(1.,0.,0.));
#797=DIRECTION('',(-1.,0.,0.));
#798=DIRECTION('',(0.,1.,0.));
#799=DIRECTION('center_axis',(0.,0.,1.));
#800=DIRECTION('ref_axis',(1.,0.,0.));
#801=DIRECTION('',(0.,0.,1.));
#802=DIRECTION('',(0.,0.,-1.));
#803=DIRECTION('center_axis',(0.,0.,1.));
#804=DIRECTION('ref_axis',(1.,0.,0.));
#805=DIRECTION('center_axis',(0.,0.,1.));
#806=DIRECTION('ref_axis',(1.,0.,0.));
#807=DIRECTION('center_axis',(0.,0.,-1.));
#808=DIRECTION('ref_axis',(1.,0.,0.));
#809=DIRECTION('center_axis',(0.,0.,1.));
#810=DIRECTION('ref_axis',(1.,0.,0.));
#811=DIRECTION('',(0.,0.,1.));
#812=DIRECTION('center_axis',(0.,0.,1.));
#813=DIRECTION('ref_axis',(1.,0.,0.));
#814=DIRECTION('center_axis',(0.,0.,1.));
#815=DIRECTION('ref_axis',(-0.936329177569045,0.351123441588392,0.));
#816=DIRECTION('',(0.,0.,-1.));
#817=DIRECTION('center_axis',(0.,0.,1.));
#818=DIRECTION('ref_axis',(1.,0.,0.));
#819=DIRECTION('center_axis',(0.,0.,1.));
#820=DIRECTION('ref_axis',(1.,0.,0.));
#821=DIRECTION('',(0.,0.,1.));
#822=DIRECTION('center_axis',(0.,0.,1.));
#823=DIRECTION('ref_axis',(1.,0.,0.));
#824=DIRECTION('center_axis',(0.,1.,0.));
#825=DIRECTION('ref_axis',(-1.,0.,0.));
#826=DIRECTION('',(0.,0.,-1.));
#827=DIRECTION('',(-1.,0.,0.));
#828=DIRECTION('',(0.,0.,1.));
#829=DIRECTION('center_axis',(1.,0.,0.));
#830=DIRECTION('ref_axis',(0.,1.,0.));
#831=DIRECTION('',(0.,1.,0.));
#832=DIRECTION('center_axis',(0.,0.,1.));
#833=DIRECTION('ref_axis',(1.,0.,0.));
#834=DIRECTION('center_axis',(0.,0.,1.));
#835=DIRECTION('ref_axis',(1.,0.,0.));
#836=DIRECTION('center_axis',(0.,1.,0.));
#837=DIRECTION('ref_axis',(-1.,0.,0.));
#838=DIRECTION('',(0.,0.,1.));
#839=DIRECTION('',(-1.,0.,0.));
#840=DIRECTION('center_axis',(-1.,0.,0.));
#841=DIRECTION('ref_axis',(0.,-1.,0.));
#842=DIRECTION('',(0.,-1.,0.));
#843=DIRECTION('center_axis',(0.,0.,1.));
#844=DIRECTION('ref_axis',(1.,0.,0.));
#845=CARTESIAN_POINT('',(0.,0.,0.));
#846=CARTESIAN_POINT('Origin',(0.8,4.2,15.2));
#847=CARTESIAN_POINT('',(0.8,4.47911821679223,16.));
#848=CARTESIAN_POINT('',(0.8,4.47911821679223,15.2));
#849=CARTESIAN_POINT('',(0.8,4.47911821679223,14.8));
#850=CARTESIAN_POINT('',(0.8,5.44150714416512,16.));
#851=CARTESIAN_POINT('',(0.8,4.2,16.));
#852=CARTESIAN_POINT('',(0.8,5.44150714416512,15.2));
#853=CARTESIAN_POINT('',(0.8,5.44150714416512,14.8));
#854=CARTESIAN_POINT('',(0.8,4.2,15.2));
#855=CARTESIAN_POINT('Origin',(0.,5.1,15.2));
#856=CARTESIAN_POINT('',(-0.8,4.47911821679223,15.2));
#857=CARTESIAN_POINT('Origin',(0.,0.,15.2));
#858=CARTESIAN_POINT('',(-0.8,5.44150714416512,15.2));
#859=CARTESIAN_POINT('Origin',(0.,0.,15.2));
#860=CARTESIAN_POINT('',(-0.8,6.,15.2));
#861=CARTESIAN_POINT('Origin',(-0.8,6.,15.2));
#862=CARTESIAN_POINT('',(-0.8,4.47911821679223,16.));
#863=CARTESIAN_POINT('',(-0.8,4.47911821679223,14.8));
#864=CARTESIAN_POINT('',(-0.8,5.44150714416512,16.));
#865=CARTESIAN_POINT('',(-0.8,5.44150714416512,14.8));
#866=CARTESIAN_POINT('',(-0.8,6.,16.));
#867=CARTESIAN_POINT('Origin',(0.,5.1,16.));
#868=CARTESIAN_POINT('Origin',(0.,0.,16.));
#869=CARTESIAN_POINT('Origin',(0.,0.,16.));
#870=CARTESIAN_POINT('Origin',(5.4,0.05,14.8));
#871=CARTESIAN_POINT('',(5.4,0.05,14.8));
#872=CARTESIAN_POINT('',(5.4,0.1,14.8));
#873=CARTESIAN_POINT('',(5.4,0.05,14.8));
#874=CARTESIAN_POINT('',(5.4,0.1,15.2));
#875=CARTESIAN_POINT('',(5.4,0.0999999999999996,14.75));
#876=CARTESIAN_POINT('',(5.4,0.05,15.2));
#877=CARTESIAN_POINT('',(5.4,0.05,15.2));
#878=CARTESIAN_POINT('',(5.4,0.05,14.8));
#879=CARTESIAN_POINT('Origin',(5.,0.05,14.8));
#880=CARTESIAN_POINT('',(5.,0.05,14.8));
#881=CARTESIAN_POINT('',(5.,0.05,14.8));
#882=CARTESIAN_POINT('',(5.,0.05,15.2));
#883=CARTESIAN_POINT('',(5.,0.05,15.2));
#884=CARTESIAN_POINT('',(5.,0.05,14.8));
#885=CARTESIAN_POINT('Origin',(5.,0.1,14.8));
#886=CARTESIAN_POINT('',(5.,0.1,14.8));
#887=CARTESIAN_POINT('',(5.,0.1,14.8));
#888=CARTESIAN_POINT('',(5.,0.1,15.2));
#889=CARTESIAN_POINT('',(5.,0.1,15.2));
#890=CARTESIAN_POINT('',(5.,0.0999999999999996,14.75));
#891=CARTESIAN_POINT('Origin',(5.2,0.0750000000000001,15.2));
#892=CARTESIAN_POINT('',(6.6,0.0999999999999996,15.2));
#893=CARTESIAN_POINT('Origin',(8.,0.0999999999999996,14.7));
#894=CARTESIAN_POINT('',(6.8,0.1,14.8));
#895=CARTESIAN_POINT('',(4.,0.0999999999999996,14.8));
#896=CARTESIAN_POINT('',(6.8,0.1,16.4));
#897=CARTESIAN_POINT('',(6.8,0.1,14.8));
#898=CARTESIAN_POINT('',(4.54890096616754,0.0999999999999996,16.4));
#899=CARTESIAN_POINT('',(4.8,0.1,16.4));
#900=CARTESIAN_POINT('',(4.54890096616754,0.0999999999999996,14.8));
#901=CARTESIAN_POINT('',(4.54890096616754,0.0999999999999996,14.8));
#902=CARTESIAN_POINT('',(4.,0.0999999999999996,14.8));
#903=CARTESIAN_POINT('',(5.875,0.0999999999999996,15.6));
#904=CARTESIAN_POINT('Origin',(6.1,0.0999999999999996,15.6));
#905=CARTESIAN_POINT('Origin',(-5.,0.05,14.8));
#906=CARTESIAN_POINT('',(-5.,0.05,14.8));
#907=CARTESIAN_POINT('',(-5.,0.1,14.8));
#908=CARTESIAN_POINT('',(-5.,0.05,14.8));
#909=CARTESIAN_POINT('',(-5.,0.1,15.2));
#910=CARTESIAN_POINT('',(-5.,0.0999999999999996,14.75));
#911=CARTESIAN_POINT('',(-5.,0.05,15.2));
#912=CARTESIAN_POINT('',(-5.,0.05,15.2));
#913=CARTESIAN_POINT('',(-5.,0.05,14.8));
#914=CARTESIAN_POINT('Origin',(-5.4,0.05,14.8));
#915=CARTESIAN_POINT('',(-5.4,0.05,14.8));
#916=CARTESIAN_POINT('',(-5.4,0.05,14.8));
#917=CARTESIAN_POINT('',(-5.4,0.05,15.2));
#918=CARTESIAN_POINT('',(-5.4,0.05,15.2));
#919=CARTESIAN_POINT('',(-5.4,0.05,14.8));
#920=CARTESIAN_POINT('Origin',(-5.4,0.1,14.8));
#921=CARTESIAN_POINT('',(-5.4,0.1,14.8));
#922=CARTESIAN_POINT('',(-5.4,0.1,14.8));
#923=CARTESIAN_POINT('',(-5.4,0.1,15.2));
#924=CARTESIAN_POINT('',(-5.4,0.1,15.2));
#925=CARTESIAN_POINT('',(-5.4,0.0999999999999996,14.75));
#926=CARTESIAN_POINT('Origin',(-5.2,0.0750000000000001,15.2));
#927=CARTESIAN_POINT('',(1.4,0.0999999999999996,15.2));
#928=CARTESIAN_POINT('Origin',(8.,0.0999999999999996,14.7));
#929=CARTESIAN_POINT('',(-4.54890096616754,0.0999999999999996,14.8));
#930=CARTESIAN_POINT('',(4.,0.0999999999999996,14.8));
#931=CARTESIAN_POINT('',(-4.54890096616754,0.0999999999999996,16.4));
#932=CARTESIAN_POINT('',(-4.54890096616754,0.0999999999999996,14.8));
#933=CARTESIAN_POINT('',(-6.8,0.1,16.4));
#934=CARTESIAN_POINT('',(-6.8,0.1,16.4));
#935=CARTESIAN_POINT('',(-6.8,0.1,14.8));
#936=CARTESIAN_POINT('',(-6.8,0.1,14.8));
#937=CARTESIAN_POINT('',(4.,0.0999999999999996,14.8));
#938=CARTESIAN_POINT('',(-6.325,0.0999999999999996,15.6));
#939=CARTESIAN_POINT('Origin',(-6.1,0.0999999999999996,15.6));
#940=CARTESIAN_POINT('Origin',(6.1,-1.4,15.6));
#941=CARTESIAN_POINT('',(5.875,1.3,15.6));
#942=CARTESIAN_POINT('',(5.875,-1.4,15.6));
#943=CARTESIAN_POINT('Origin',(6.1,1.3,15.6));
#944=CARTESIAN_POINT('Origin',(-6.1,-1.4,15.6));
#945=CARTESIAN_POINT('',(-6.325,1.3,15.6));
#946=CARTESIAN_POINT('',(-6.325,-1.4,15.6));
#947=CARTESIAN_POINT('Origin',(-6.1,1.3,15.6));
#948=CARTESIAN_POINT('Origin',(4.8,1.8,14.7));
#949=CARTESIAN_POINT('',(4.575,1.8,14.8));
#950=CARTESIAN_POINT('Origin',(4.8,1.8,14.8));
#951=CARTESIAN_POINT('',(4.575,1.8,16.4));
#952=CARTESIAN_POINT('',(4.575,1.8,14.7));
#953=CARTESIAN_POINT('Origin',(4.8,1.8,16.4));
#954=CARTESIAN_POINT('Origin',(-4.8,1.8,14.7));
#955=CARTESIAN_POINT('',(-5.025,1.8,14.8));
#956=CARTESIAN_POINT('Origin',(-4.8,1.8,14.8));
#957=CARTESIAN_POINT('',(-5.025,1.8,16.4));
#958=CARTESIAN_POINT('',(-5.025,1.8,14.7));
#959=CARTESIAN_POINT('Origin',(-4.8,1.8,16.4));
#960=CARTESIAN_POINT('Origin',(0.,0.,14.8));
#961=CARTESIAN_POINT('Origin',(0.,0.,14.8));
#962=CARTESIAN_POINT('',(-6.8,1.3,14.8));
#963=CARTESIAN_POINT('',(-6.8,1.3,14.8));
#964=CARTESIAN_POINT('',(-5.34415568635495,1.3,14.8));
#965=CARTESIAN_POINT('',(-4.8,1.3,14.8));
#966=CARTESIAN_POINT('',(-5.33276761913351,1.34595301564396,14.8));
#967=CARTESIAN_POINT('Origin',(0.,0.,14.8));
#968=CARTESIAN_POINT('',(-4.90284881922265,2.4924031487396,14.8));
#969=CARTESIAN_POINT('Origin',(-4.8,1.8,14.8));
#970=CARTESIAN_POINT('',(4.90284881922265,2.4924031487396,14.8));
#971=CARTESIAN_POINT('Origin',(0.,0.,14.8));
#972=CARTESIAN_POINT('',(5.33276761913351,1.34595301564396,14.8));
#973=CARTESIAN_POINT('Origin',(4.8,1.8,14.8));
#974=CARTESIAN_POINT('',(5.34415568635495,1.3,14.8));
#975=CARTESIAN_POINT('Origin',(0.,0.,14.8));
#976=CARTESIAN_POINT('',(6.8,1.3,14.8));
#977=CARTESIAN_POINT('',(6.8,1.3,14.8));
#978=CARTESIAN_POINT('',(6.8,0.1,14.8));
#979=CARTESIAN_POINT('Origin',(4.8,1.8,14.8));
#980=CARTESIAN_POINT('',(5.33276761913351,1.34595301564396,16.4));
#981=CARTESIAN_POINT('',(5.33276761913351,1.34595301564396,14.8));
#982=CARTESIAN_POINT('',(4.90284881922265,2.4924031487396,16.4));
#983=CARTESIAN_POINT('',(4.90284881922265,2.4924031487396,14.8));
#984=CARTESIAN_POINT('Origin',(4.8,1.8,16.4));
#985=CARTESIAN_POINT('Origin',(0.,0.,14.8));
#986=CARTESIAN_POINT('Origin',(0.,0.,16.4));
#987=CARTESIAN_POINT('Origin',(0.,0.,14.8));
#988=CARTESIAN_POINT('',(-4.90284881922265,2.4924031487396,16.4));
#989=CARTESIAN_POINT('',(-4.90284881922265,2.4924031487396,14.8));
#990=CARTESIAN_POINT('Origin',(0.,0.,16.4));
#991=CARTESIAN_POINT('Origin',(-4.8,1.8,14.8));
#992=CARTESIAN_POINT('',(-5.33276761913351,1.34595301564396,16.4));
#993=CARTESIAN_POINT('',(-5.33276761913351,1.34595301564396,14.8));
#994=CARTESIAN_POINT('Origin',(-4.8,1.8,16.4));
#995=CARTESIAN_POINT('Origin',(0.,0.,14.8));
#996=CARTESIAN_POINT('',(-5.34415568635495,1.3,16.4));
#997=CARTESIAN_POINT('',(-5.34415568635495,1.3,14.8));
#998=CARTESIAN_POINT('Origin',(0.,0.,16.4));
#999=CARTESIAN_POINT('Origin',(6.8,1.3,14.8));
#1000=CARTESIAN_POINT('',(5.34415568635495,1.3,16.4));
#1001=CARTESIAN_POINT('',(5.34415568635495,1.3,14.8));
#1002=CARTESIAN_POINT('',(6.8,1.3,16.4));
#1003=CARTESIAN_POINT('',(6.8,1.3,16.4));
#1004=CARTESIAN_POINT('',(6.8,1.3,14.8));
#1005=CARTESIAN_POINT('Origin',(6.8,0.1,14.8));
#1006=CARTESIAN_POINT('',(6.8,0.1,16.4));
#1007=CARTESIAN_POINT('Origin',(0.,0.,14.8));
#1008=CARTESIAN_POINT('Origin',(0.,0.,16.4));
#1009=CARTESIAN_POINT('Origin',(-4.8,1.3,14.8));
#1010=CARTESIAN_POINT('',(-6.8,1.3,16.4));
#1011=CARTESIAN_POINT('',(-6.8,1.3,14.8));
#1012=CARTESIAN_POINT('',(-4.8,1.3,16.4));
#1013=CARTESIAN_POINT('Origin',(-6.8,1.3,14.8));
#1014=CARTESIAN_POINT('',(-6.8,1.3,16.4));
#1015=CARTESIAN_POINT('Origin',(0.,0.,16.4));
#1016=UNCERTAINTY_MEASURE_WITH_UNIT(LENGTH_MEASURE(0.001),#1020,
'DISTANCE_ACCURACY_VALUE',
'Maximum model space distance between geometric entities at asserted c
onnectivities');
#1017=UNCERTAINTY_MEASURE_WITH_UNIT(LENGTH_MEASURE(0.001),#1020,
'DISTANCE_ACCURACY_VALUE',
'Maximum model space distance between geometric entities at asserted c
onnectivities');
#1018=(
GEOMETRIC_REPRESENTATION_CONTEXT(3)
GLOBAL_UNCERTAINTY_ASSIGNED_CONTEXT((#1016))
GLOBAL_UNIT_ASSIGNED_CONTEXT((#1020,#1022,#1023))
REPRESENTATION_CONTEXT('','3D')
);
#1019=(
GEOMETRIC_REPRESENTATION_CONTEXT(3)
GLOBAL_UNCERTAINTY_ASSIGNED_CONTEXT((#1017))
GLOBAL_UNIT_ASSIGNED_CONTEXT((#1020,#1022,#1023))
REPRESENTATION_CONTEXT('','3D')
);
#1020=(
LENGTH_UNIT()
NAMED_UNIT(*)
SI_UNIT(.CENTI.,.METRE.)
);
#1021=(
LENGTH_UNIT()
NAMED_UNIT(*)
SI_UNIT($,.METRE.)
);
#1022=(
NAMED_UNIT(*)
PLANE_ANGLE_UNIT()
SI_UNIT($,.RADIAN.)
);
#1023=(
NAMED_UNIT(*)
SI_UNIT($,.STERADIAN.)
SOLID_ANGLE_UNIT()
);
#1024=SHAPE_DEFINITION_REPRESENTATION(#1025,#1026);
#1025=PRODUCT_DEFINITION_SHAPE('',$,#1028);
#1026=SHAPE_REPRESENTATION('',(#620),#1018);
#1027=PRODUCT_DEFINITION_CONTEXT('part definition',#1032,'design');
#1028=PRODUCT_DEFINITION('2026-09-10-22-46-37-229',
'P06A_\X2\52064F53706F59395708\X0\',#1029,#1027);
#1029=PRODUCT_DEFINITION_FORMATION('',$,#1034);
#1030=PRODUCT_RELATED_PRODUCT_CATEGORY('P06A_\X2\52064F53706F59395708\X0\',
'P06A_\X2\52064F53706F59395708\X0\',(#1034));
#1031=APPLICATION_PROTOCOL_DEFINITION('international standard',
'automotive_design',2009,#1032);
#1032=APPLICATION_CONTEXT(
'Core Data for Automotive Mechanical Design Process');
#1033=PRODUCT_CONTEXT('part definition',#1032,'mechanical');
#1034=PRODUCT('2026-09-10-22-46-37-229','P06A_\X2\52064F53706F59395708\X0\',
$,(#1033));
#1035=PRESENTATION_STYLE_ASSIGNMENT((#1037));
#1036=PRESENTATION_STYLE_ASSIGNMENT((#1038));
#1037=SURFACE_STYLE_USAGE(.BOTH.,#1039);
#1038=SURFACE_STYLE_USAGE(.BOTH.,#1040);
#1039=SURFACE_SIDE_STYLE('',(#1041));
#1040=SURFACE_SIDE_STYLE('',(#1042));
#1041=SURFACE_STYLE_FILL_AREA(#1043);
#1042=SURFACE_STYLE_FILL_AREA(#1044);
#1043=FILL_AREA_STYLE('\X2\94A2\X0\ - \X2\7F0E5149\X0\',(#1045));
#1044=FILL_AREA_STYLE('R2_light',(#1046));
#1045=FILL_AREA_STYLE_COLOUR('\X2\94A2\X0\ - \X2\7F0E5149\X0\',#1047);
#1046=FILL_AREA_STYLE_COLOUR('R2_light',#1048);
#1047=COLOUR_RGB('\X2\94A2\X0\ - \X2\7F0E5149\X0\',0.627450980392157,0.627450980392157,
0.627450980392157);
#1048=COLOUR_RGB('R2_light',0.858823529411765,0.549019607843137,0.164705882352941);
ENDSEC;
END-ISO-10303-21;
