ISO-10303-21;
HEADER;
/* Generated by software containing ST-Developer
 * from STEP Tools, Inc. (www.steptools.com) 
 */

FILE_DESCRIPTION(
/* description */ (''),
/* implementation_level */ '2;1');

FILE_NAME(
/* name */ 'P07_R.step',
/* time_stamp */ '2026-09-10T22:46:47+08:00',
/* author */ (''),
/* organization */ (''),
/* preprocessor_version */ 'ST-DEVELOPER v20.1',
/* originating_system */ 'Autodesk Translation Framework v15.8.0.0',
/* authorisation */ '');

FILE_SCHEMA (('AUTOMOTIVE_DESIGN { 1 0 10303 214 3 1 1 }'));
ENDSEC;

DATA;
#10=MECHANICAL_DESIGN_GEOMETRIC_PRESENTATION_REPRESENTATION('',(#13),#743);
#11=SHAPE_REPRESENTATION_RELATIONSHIP('SRR','None',#750,#12);
#12=ADVANCED_BREP_SHAPE_REPRESENTATION('',(#14),#742);
#13=STYLED_ITEM('',(#760),#14);
#14=MANIFOLD_SOLID_BREP('\X2\5B9E4F53\X0\1',#443);
#15=FACE_BOUND('',#63,.T.);
#16=FACE_BOUND('',#64,.T.);
#17=FACE_BOUND('',#65,.T.);
#18=FACE_BOUND('',#66,.T.);
#19=FACE_BOUND('',#69,.T.);
#20=FACE_BOUND('',#70,.T.);
#21=FACE_BOUND('',#71,.T.);
#22=FACE_BOUND('',#72,.T.);
#23=PLANE('',#466);
#24=PLANE('',#474);
#25=PLANE('',#479);
#26=PLANE('',#480);
#27=PLANE('',#483);
#28=PLANE('',#484);
#29=PLANE('',#487);
#30=PLANE('',#488);
#31=PLANE('',#489);
#32=PLANE('',#490);
#33=PLANE('',#491);
#34=PLANE('',#492);
#35=PLANE('',#493);
#36=PLANE('',#494);
#37=FACE_OUTER_BOUND('',#59,.T.);
#38=FACE_OUTER_BOUND('',#60,.T.);
#39=FACE_OUTER_BOUND('',#61,.T.);
#40=FACE_OUTER_BOUND('',#62,.T.);
#41=FACE_OUTER_BOUND('',#67,.T.);
#42=FACE_OUTER_BOUND('',#68,.T.);
#43=FACE_OUTER_BOUND('',#73,.T.);
#44=FACE_OUTER_BOUND('',#74,.T.);
#45=FACE_OUTER_BOUND('',#75,.T.);
#46=FACE_OUTER_BOUND('',#76,.T.);
#47=FACE_OUTER_BOUND('',#77,.T.);
#48=FACE_OUTER_BOUND('',#78,.T.);
#49=FACE_OUTER_BOUND('',#79,.T.);
#50=FACE_OUTER_BOUND('',#80,.T.);
#51=FACE_OUTER_BOUND('',#81,.T.);
#52=FACE_OUTER_BOUND('',#82,.T.);
#53=FACE_OUTER_BOUND('',#83,.T.);
#54=FACE_OUTER_BOUND('',#84,.T.);
#55=FACE_OUTER_BOUND('',#85,.T.);
#56=FACE_OUTER_BOUND('',#86,.T.);
#57=FACE_OUTER_BOUND('',#87,.T.);
#58=FACE_OUTER_BOUND('',#88,.T.);
#59=EDGE_LOOP('',(#293,#294,#295,#296));
#60=EDGE_LOOP('',(#297,#298,#299,#300));
#61=EDGE_LOOP('',(#301,#302,#303,#304));
#62=EDGE_LOOP('',(#305,#306,#307,#308,#309,#310,#311,#312,#313,#314));
#63=EDGE_LOOP('',(#315));
#64=EDGE_LOOP('',(#316));
#65=EDGE_LOOP('',(#317,#318,#319,#320));
#66=EDGE_LOOP('',(#321,#322,#323,#324));
#67=EDGE_LOOP('',(#325,#326,#327,#328));
#68=EDGE_LOOP('',(#329,#330,#331,#332,#333,#334,#335,#336,#337,#338));
#69=EDGE_LOOP('',(#339));
#70=EDGE_LOOP('',(#340));
#71=EDGE_LOOP('',(#341,#342,#343,#344));
#72=EDGE_LOOP('',(#345,#346,#347,#348));
#73=EDGE_LOOP('',(#349,#350,#351,#352));
#74=EDGE_LOOP('',(#353,#354,#355,#356));
#75=EDGE_LOOP('',(#357,#358,#359,#360));
#76=EDGE_LOOP('',(#361,#362,#363,#364));
#77=EDGE_LOOP('',(#365,#366,#367,#368));
#78=EDGE_LOOP('',(#369,#370,#371,#372));
#79=EDGE_LOOP('',(#373,#374,#375,#376));
#80=EDGE_LOOP('',(#377,#378,#379,#380));
#81=EDGE_LOOP('',(#381,#382,#383,#384));
#82=EDGE_LOOP('',(#385,#386,#387,#388));
#83=EDGE_LOOP('',(#389,#390,#391,#392));
#84=EDGE_LOOP('',(#393,#394,#395,#396));
#85=EDGE_LOOP('',(#397,#398,#399,#400));
#86=EDGE_LOOP('',(#401,#402,#403,#404));
#87=EDGE_LOOP('',(#405,#406,#407,#408));
#88=EDGE_LOOP('',(#409,#410,#411,#412));
#89=LINE('',#622,#133);
#90=LINE('',#628,#134);
#91=LINE('',#635,#135);
#92=LINE('',#638,#136);
#93=LINE('',#644,#137);
#94=LINE('',#646,#138);
#95=LINE('',#648,#139);
#96=LINE('',#650,#140);
#97=LINE('',#652,#141);
#98=LINE('',#656,#142);
#99=LINE('',#658,#143);
#100=LINE('',#659,#144);
#101=LINE('',#664,#145);
#102=LINE('',#667,#146);
#103=LINE('',#669,#147);
#104=LINE('',#672,#148);
#105=LINE('',#675,#149);
#106=LINE('',#678,#150);
#107=LINE('',#684,#151);
#108=LINE('',#686,#152);
#109=LINE('',#688,#153);
#110=LINE('',#692,#154);
#111=LINE('',#694,#155);
#112=LINE('',#696,#156);
#113=LINE('',#698,#157);
#114=LINE('',#699,#158);
#115=LINE('',#700,#159);
#116=LINE('',#701,#160);
#117=LINE('',#706,#161);
#118=LINE('',#709,#162);
#119=LINE('',#713,#163);
#120=LINE('',#714,#164);
#121=LINE('',#716,#165);
#122=LINE('',#717,#166);
#123=LINE('',#721,#167);
#124=LINE('',#722,#168);
#125=LINE('',#724,#169);
#126=LINE('',#725,#170);
#127=LINE('',#727,#171);
#128=LINE('',#729,#172);
#129=LINE('',#731,#173);
#130=LINE('',#733,#174);
#131=LINE('',#736,#175);
#132=LINE('',#738,#176);
#133=VECTOR('',#501,0.225);
#134=VECTOR('',#508,0.225);
#135=VECTOR('',#515,1.);
#136=VECTOR('',#518,1.);
#137=VECTOR('',#523,1.);
#138=VECTOR('',#524,1.);
#139=VECTOR('',#525,1.);
#140=VECTOR('',#526,1.);
#141=VECTOR('',#527,1.);
#142=VECTOR('',#530,1.);
#143=VECTOR('',#531,1.);
#144=VECTOR('',#532,1.);
#145=VECTOR('',#535,1.);
#146=VECTOR('',#538,1.);
#147=VECTOR('',#539,1.);
#148=VECTOR('',#542,1.);
#149=VECTOR('',#545,1.);
#150=VECTOR('',#548,1.);
#151=VECTOR('',#553,1.);
#152=VECTOR('',#554,1.);
#153=VECTOR('',#555,1.);
#154=VECTOR('',#558,1.);
#155=VECTOR('',#559,1.);
#156=VECTOR('',#560,1.);
#157=VECTOR('',#561,1.);
#158=VECTOR('',#562,1.);
#159=VECTOR('',#563,1.);
#160=VECTOR('',#564,1.);
#161=VECTOR('',#567,1.);
#162=VECTOR('',#570,1.);
#163=VECTOR('',#577,1.);
#164=VECTOR('',#578,1.);
#165=VECTOR('',#581,1.);
#166=VECTOR('',#582,1.);
#167=VECTOR('',#589,1.);
#168=VECTOR('',#590,1.);
#169=VECTOR('',#593,1.);
#170=VECTOR('',#594,1.);
#171=VECTOR('',#597,1.);
#172=VECTOR('',#600,1.);
#173=VECTOR('',#603,1.);
#174=VECTOR('',#606,1.);
#175=VECTOR('',#611,1.);
#176=VECTOR('',#614,1.);
#177=CIRCLE('',#458,0.225);
#178=CIRCLE('',#459,0.225);
#179=CIRCLE('',#461,0.225);
#180=CIRCLE('',#462,0.225);
#181=CIRCLE('',#464,0.225);
#182=CIRCLE('',#465,0.225);
#183=CIRCLE('',#467,4.6);
#184=CIRCLE('',#468,4.6);
#185=CIRCLE('',#469,0.225);
#186=CIRCLE('',#470,0.225);
#187=CIRCLE('',#471,0.225);
#188=CIRCLE('',#473,0.225);
#189=CIRCLE('',#475,4.6);
#190=CIRCLE('',#476,4.6);
#191=CIRCLE('',#477,0.225);
#192=CIRCLE('',#478,0.225);
#193=VERTEX_POINT('',#619);
#194=VERTEX_POINT('',#621);
#195=VERTEX_POINT('',#625);
#196=VERTEX_POINT('',#627);
#197=VERTEX_POINT('',#631);
#198=VERTEX_POINT('',#632);
#199=VERTEX_POINT('',#634);
#200=VERTEX_POINT('',#636);
#201=VERTEX_POINT('',#640);
#202=VERTEX_POINT('',#641);
#203=VERTEX_POINT('',#643);
#204=VERTEX_POINT('',#645);
#205=VERTEX_POINT('',#647);
#206=VERTEX_POINT('',#649);
#207=VERTEX_POINT('',#651);
#208=VERTEX_POINT('',#653);
#209=VERTEX_POINT('',#655);
#210=VERTEX_POINT('',#657);
#211=VERTEX_POINT('',#660);
#212=VERTEX_POINT('',#661);
#213=VERTEX_POINT('',#663);
#214=VERTEX_POINT('',#665);
#215=VERTEX_POINT('',#668);
#216=VERTEX_POINT('',#670);
#217=VERTEX_POINT('',#674);
#218=VERTEX_POINT('',#676);
#219=VERTEX_POINT('',#680);
#220=VERTEX_POINT('',#681);
#221=VERTEX_POINT('',#683);
#222=VERTEX_POINT('',#685);
#223=VERTEX_POINT('',#687);
#224=VERTEX_POINT('',#689);
#225=VERTEX_POINT('',#691);
#226=VERTEX_POINT('',#693);
#227=VERTEX_POINT('',#695);
#228=VERTEX_POINT('',#697);
#229=VERTEX_POINT('',#702);
#230=VERTEX_POINT('',#703);
#231=VERTEX_POINT('',#705);
#232=VERTEX_POINT('',#707);
#233=EDGE_CURVE('',#193,#193,#177,.T.);
#234=EDGE_CURVE('',#193,#194,#89,.T.);
#235=EDGE_CURVE('',#194,#194,#178,.T.);
#236=EDGE_CURVE('',#195,#195,#179,.T.);
#237=EDGE_CURVE('',#195,#196,#90,.T.);
#238=EDGE_CURVE('',#196,#196,#180,.T.);
#239=EDGE_CURVE('',#197,#198,#181,.T.);
#240=EDGE_CURVE('',#199,#197,#91,.T.);
#241=EDGE_CURVE('',#200,#199,#182,.T.);
#242=EDGE_CURVE('',#200,#198,#92,.T.);
#243=EDGE_CURVE('',#201,#202,#183,.T.);
#244=EDGE_CURVE('',#203,#202,#93,.T.);
#245=EDGE_CURVE('',#204,#203,#94,.T.);
#246=EDGE_CURVE('',#205,#204,#95,.T.);
#247=EDGE_CURVE('',#206,#205,#96,.T.);
#248=EDGE_CURVE('',#207,#206,#97,.T.);
#249=EDGE_CURVE('',#207,#208,#184,.T.);
#250=EDGE_CURVE('',#208,#209,#98,.T.);
#251=EDGE_CURVE('',#209,#210,#99,.T.);
#252=EDGE_CURVE('',#210,#201,#100,.T.);
#253=EDGE_CURVE('',#211,#212,#185,.T.);
#254=EDGE_CURVE('',#212,#213,#101,.T.);
#255=EDGE_CURVE('',#213,#214,#186,.T.);
#256=EDGE_CURVE('',#214,#211,#102,.T.);
#257=EDGE_CURVE('',#199,#215,#103,.T.);
#258=EDGE_CURVE('',#215,#216,#187,.T.);
#259=EDGE_CURVE('',#216,#200,#104,.T.);
#260=EDGE_CURVE('',#215,#217,#105,.T.);
#261=EDGE_CURVE('',#218,#217,#188,.T.);
#262=EDGE_CURVE('',#216,#218,#106,.T.);
#263=EDGE_CURVE('',#219,#220,#189,.T.);
#264=EDGE_CURVE('',#220,#221,#107,.T.);
#265=EDGE_CURVE('',#221,#222,#108,.T.);
#266=EDGE_CURVE('',#222,#223,#109,.T.);
#267=EDGE_CURVE('',#223,#224,#190,.T.);
#268=EDGE_CURVE('',#224,#225,#110,.T.);
#269=EDGE_CURVE('',#225,#226,#111,.T.);
#270=EDGE_CURVE('',#226,#227,#112,.T.);
#271=EDGE_CURVE('',#227,#228,#113,.T.);
#272=EDGE_CURVE('',#228,#219,#114,.T.);
#273=EDGE_CURVE('',#198,#218,#115,.T.);
#274=EDGE_CURVE('',#217,#197,#116,.T.);
#275=EDGE_CURVE('',#229,#230,#191,.T.);
#276=EDGE_CURVE('',#230,#231,#117,.T.);
#277=EDGE_CURVE('',#231,#232,#192,.T.);
#278=EDGE_CURVE('',#232,#229,#118,.T.);
#279=EDGE_CURVE('',#212,#229,#119,.T.);
#280=EDGE_CURVE('',#211,#230,#120,.T.);
#281=EDGE_CURVE('',#213,#232,#121,.T.);
#282=EDGE_CURVE('',#214,#231,#122,.T.);
#283=EDGE_CURVE('',#208,#223,#123,.T.);
#284=EDGE_CURVE('',#224,#207,#124,.T.);
#285=EDGE_CURVE('',#220,#201,#125,.T.);
#286=EDGE_CURVE('',#202,#219,#126,.T.);
#287=EDGE_CURVE('',#203,#228,#127,.T.);
#288=EDGE_CURVE('',#206,#225,#128,.T.);
#289=EDGE_CURVE('',#210,#221,#129,.T.);
#290=EDGE_CURVE('',#209,#222,#130,.T.);
#291=EDGE_CURVE('',#204,#227,#131,.T.);
#292=EDGE_CURVE('',#205,#226,#132,.T.);
#293=ORIENTED_EDGE('',*,*,#233,.F.);
#294=ORIENTED_EDGE('',*,*,#234,.T.);
#295=ORIENTED_EDGE('',*,*,#235,.F.);
#296=ORIENTED_EDGE('',*,*,#234,.F.);
#297=ORIENTED_EDGE('',*,*,#236,.F.);
#298=ORIENTED_EDGE('',*,*,#237,.T.);
#299=ORIENTED_EDGE('',*,*,#238,.F.);
#300=ORIENTED_EDGE('',*,*,#237,.F.);
#301=ORIENTED_EDGE('',*,*,#239,.F.);
#302=ORIENTED_EDGE('',*,*,#240,.F.);
#303=ORIENTED_EDGE('',*,*,#241,.F.);
#304=ORIENTED_EDGE('',*,*,#242,.T.);
#305=ORIENTED_EDGE('',*,*,#243,.T.);
#306=ORIENTED_EDGE('',*,*,#244,.F.);
#307=ORIENTED_EDGE('',*,*,#245,.F.);
#308=ORIENTED_EDGE('',*,*,#246,.F.);
#309=ORIENTED_EDGE('',*,*,#247,.F.);
#310=ORIENTED_EDGE('',*,*,#248,.F.);
#311=ORIENTED_EDGE('',*,*,#249,.T.);
#312=ORIENTED_EDGE('',*,*,#250,.T.);
#313=ORIENTED_EDGE('',*,*,#251,.T.);
#314=ORIENTED_EDGE('',*,*,#252,.T.);
#315=ORIENTED_EDGE('',*,*,#233,.T.);
#316=ORIENTED_EDGE('',*,*,#236,.T.);
#317=ORIENTED_EDGE('',*,*,#253,.T.);
#318=ORIENTED_EDGE('',*,*,#254,.T.);
#319=ORIENTED_EDGE('',*,*,#255,.T.);
#320=ORIENTED_EDGE('',*,*,#256,.T.);
#321=ORIENTED_EDGE('',*,*,#241,.T.);
#322=ORIENTED_EDGE('',*,*,#257,.T.);
#323=ORIENTED_EDGE('',*,*,#258,.T.);
#324=ORIENTED_EDGE('',*,*,#259,.T.);
#325=ORIENTED_EDGE('',*,*,#260,.T.);
#326=ORIENTED_EDGE('',*,*,#261,.F.);
#327=ORIENTED_EDGE('',*,*,#262,.F.);
#328=ORIENTED_EDGE('',*,*,#258,.F.);
#329=ORIENTED_EDGE('',*,*,#263,.T.);
#330=ORIENTED_EDGE('',*,*,#264,.T.);
#331=ORIENTED_EDGE('',*,*,#265,.T.);
#332=ORIENTED_EDGE('',*,*,#266,.T.);
#333=ORIENTED_EDGE('',*,*,#267,.T.);
#334=ORIENTED_EDGE('',*,*,#268,.T.);
#335=ORIENTED_EDGE('',*,*,#269,.T.);
#336=ORIENTED_EDGE('',*,*,#270,.T.);
#337=ORIENTED_EDGE('',*,*,#271,.T.);
#338=ORIENTED_EDGE('',*,*,#272,.T.);
#339=ORIENTED_EDGE('',*,*,#235,.T.);
#340=ORIENTED_EDGE('',*,*,#238,.T.);
#341=ORIENTED_EDGE('',*,*,#239,.T.);
#342=ORIENTED_EDGE('',*,*,#273,.T.);
#343=ORIENTED_EDGE('',*,*,#261,.T.);
#344=ORIENTED_EDGE('',*,*,#274,.T.);
#345=ORIENTED_EDGE('',*,*,#275,.T.);
#346=ORIENTED_EDGE('',*,*,#276,.T.);
#347=ORIENTED_EDGE('',*,*,#277,.T.);
#348=ORIENTED_EDGE('',*,*,#278,.T.);
#349=ORIENTED_EDGE('',*,*,#259,.F.);
#350=ORIENTED_EDGE('',*,*,#262,.T.);
#351=ORIENTED_EDGE('',*,*,#273,.F.);
#352=ORIENTED_EDGE('',*,*,#242,.F.);
#353=ORIENTED_EDGE('',*,*,#257,.F.);
#354=ORIENTED_EDGE('',*,*,#240,.T.);
#355=ORIENTED_EDGE('',*,*,#274,.F.);
#356=ORIENTED_EDGE('',*,*,#260,.F.);
#357=ORIENTED_EDGE('',*,*,#275,.F.);
#358=ORIENTED_EDGE('',*,*,#279,.F.);
#359=ORIENTED_EDGE('',*,*,#253,.F.);
#360=ORIENTED_EDGE('',*,*,#280,.T.);
#361=ORIENTED_EDGE('',*,*,#281,.T.);
#362=ORIENTED_EDGE('',*,*,#277,.F.);
#363=ORIENTED_EDGE('',*,*,#282,.F.);
#364=ORIENTED_EDGE('',*,*,#255,.F.);
#365=ORIENTED_EDGE('',*,*,#278,.F.);
#366=ORIENTED_EDGE('',*,*,#281,.F.);
#367=ORIENTED_EDGE('',*,*,#254,.F.);
#368=ORIENTED_EDGE('',*,*,#279,.T.);
#369=ORIENTED_EDGE('',*,*,#276,.F.);
#370=ORIENTED_EDGE('',*,*,#280,.F.);
#371=ORIENTED_EDGE('',*,*,#256,.F.);
#372=ORIENTED_EDGE('',*,*,#282,.T.);
#373=ORIENTED_EDGE('',*,*,#283,.F.);
#374=ORIENTED_EDGE('',*,*,#249,.F.);
#375=ORIENTED_EDGE('',*,*,#284,.F.);
#376=ORIENTED_EDGE('',*,*,#267,.F.);
#377=ORIENTED_EDGE('',*,*,#285,.F.);
#378=ORIENTED_EDGE('',*,*,#263,.F.);
#379=ORIENTED_EDGE('',*,*,#286,.F.);
#380=ORIENTED_EDGE('',*,*,#243,.F.);
#381=ORIENTED_EDGE('',*,*,#286,.T.);
#382=ORIENTED_EDGE('',*,*,#272,.F.);
#383=ORIENTED_EDGE('',*,*,#287,.F.);
#384=ORIENTED_EDGE('',*,*,#244,.T.);
#385=ORIENTED_EDGE('',*,*,#284,.T.);
#386=ORIENTED_EDGE('',*,*,#248,.T.);
#387=ORIENTED_EDGE('',*,*,#288,.T.);
#388=ORIENTED_EDGE('',*,*,#268,.F.);
#389=ORIENTED_EDGE('',*,*,#285,.T.);
#390=ORIENTED_EDGE('',*,*,#252,.F.);
#391=ORIENTED_EDGE('',*,*,#289,.T.);
#392=ORIENTED_EDGE('',*,*,#264,.F.);
#393=ORIENTED_EDGE('',*,*,#251,.F.);
#394=ORIENTED_EDGE('',*,*,#290,.T.);
#395=ORIENTED_EDGE('',*,*,#265,.F.);
#396=ORIENTED_EDGE('',*,*,#289,.F.);
#397=ORIENTED_EDGE('',*,*,#283,.T.);
#398=ORIENTED_EDGE('',*,*,#266,.F.);
#399=ORIENTED_EDGE('',*,*,#290,.F.);
#400=ORIENTED_EDGE('',*,*,#250,.F.);
#401=ORIENTED_EDGE('',*,*,#245,.T.);
#402=ORIENTED_EDGE('',*,*,#287,.T.);
#403=ORIENTED_EDGE('',*,*,#271,.F.);
#404=ORIENTED_EDGE('',*,*,#291,.F.);
#405=ORIENTED_EDGE('',*,*,#246,.T.);
#406=ORIENTED_EDGE('',*,*,#291,.T.);
#407=ORIENTED_EDGE('',*,*,#270,.F.);
#408=ORIENTED_EDGE('',*,*,#292,.F.);
#409=ORIENTED_EDGE('',*,*,#247,.T.);
#410=ORIENTED_EDGE('',*,*,#292,.T.);
#411=ORIENTED_EDGE('',*,*,#269,.F.);
#412=ORIENTED_EDGE('',*,*,#288,.F.);
#413=CYLINDRICAL_SURFACE('',#457,0.225);
#414=CYLINDRICAL_SURFACE('',#460,0.225);
#415=CYLINDRICAL_SURFACE('',#463,0.225);
#416=CYLINDRICAL_SURFACE('',#472,0.225);
#417=CYLINDRICAL_SURFACE('',#481,0.225);
#418=CYLINDRICAL_SURFACE('',#482,0.225);
#419=CYLINDRICAL_SURFACE('',#485,4.6);
#420=CYLINDRICAL_SURFACE('',#486,4.6);
#421=ADVANCED_FACE('',(#37),#413,.F.);
#422=ADVANCED_FACE('',(#38),#414,.F.);
#423=ADVANCED_FACE('',(#39),#415,.F.);
#424=ADVANCED_FACE('',(#40,#15,#16,#17,#18),#23,.F.);
#425=ADVANCED_FACE('',(#41),#416,.F.);
#426=ADVANCED_FACE('',(#42,#19,#20,#21,#22),#24,.T.);
#427=ADVANCED_FACE('',(#43),#25,.F.);
#428=ADVANCED_FACE('',(#44),#26,.F.);
#429=ADVANCED_FACE('',(#45),#417,.F.);
#430=ADVANCED_FACE('',(#46),#418,.F.);
#431=ADVANCED_FACE('',(#47),#27,.F.);
#432=ADVANCED_FACE('',(#48),#28,.F.);
#433=ADVANCED_FACE('',(#49),#419,.F.);
#434=ADVANCED_FACE('',(#50),#420,.F.);
#435=ADVANCED_FACE('',(#51),#29,.T.);
#436=ADVANCED_FACE('',(#52),#30,.T.);
#437=ADVANCED_FACE('',(#53),#31,.F.);
#438=ADVANCED_FACE('',(#54),#32,.F.);
#439=ADVANCED_FACE('',(#55),#33,.F.);
#440=ADVANCED_FACE('',(#56),#34,.T.);
#441=ADVANCED_FACE('',(#57),#35,.T.);
#442=ADVANCED_FACE('',(#58),#36,.T.);
#443=CLOSED_SHELL('',(#421,#422,#423,#424,#425,#426,#427,#428,#429,#430,
#431,#432,#433,#434,#435,#436,#437,#438,#439,#440,#441,#442));
#444=DERIVED_UNIT_ELEMENT(#446,1.);
#445=DERIVED_UNIT_ELEMENT(#745,-3.);
#446=(
MASS_UNIT()
NAMED_UNIT(*)
SI_UNIT(.KILO.,.GRAM.)
);
#447=DERIVED_UNIT((#444,#445));
#448=MEASURE_REPRESENTATION_ITEM('density measure',
POSITIVE_RATIO_MEASURE(7850.),#447);
#449=PROPERTY_DEFINITION_REPRESENTATION(#454,#451);
#450=PROPERTY_DEFINITION_REPRESENTATION(#455,#452);
#451=REPRESENTATION('material name',(#453),#742);
#452=REPRESENTATION('density',(#448),#742);
#453=DESCRIPTIVE_REPRESENTATION_ITEM('\X2\94A2\X0\','\X2\94A2\X0\');
#454=PROPERTY_DEFINITION('material property','material name',#752);
#455=PROPERTY_DEFINITION('material property','density of part',#752);
#456=AXIS2_PLACEMENT_3D('',#617,#495,#496);
#457=AXIS2_PLACEMENT_3D('',#618,#497,#498);
#458=AXIS2_PLACEMENT_3D('',#620,#499,#500);
#459=AXIS2_PLACEMENT_3D('',#623,#502,#503);
#460=AXIS2_PLACEMENT_3D('',#624,#504,#505);
#461=AXIS2_PLACEMENT_3D('',#626,#506,#507);
#462=AXIS2_PLACEMENT_3D('',#629,#509,#510);
#463=AXIS2_PLACEMENT_3D('',#630,#511,#512);
#464=AXIS2_PLACEMENT_3D('',#633,#513,#514);
#465=AXIS2_PLACEMENT_3D('',#637,#516,#517);
#466=AXIS2_PLACEMENT_3D('',#639,#519,#520);
#467=AXIS2_PLACEMENT_3D('',#642,#521,#522);
#468=AXIS2_PLACEMENT_3D('',#654,#528,#529);
#469=AXIS2_PLACEMENT_3D('',#662,#533,#534);
#470=AXIS2_PLACEMENT_3D('',#666,#536,#537);
#471=AXIS2_PLACEMENT_3D('',#671,#540,#541);
#472=AXIS2_PLACEMENT_3D('',#673,#543,#544);
#473=AXIS2_PLACEMENT_3D('',#677,#546,#547);
#474=AXIS2_PLACEMENT_3D('',#679,#549,#550);
#475=AXIS2_PLACEMENT_3D('',#682,#551,#552);
#476=AXIS2_PLACEMENT_3D('',#690,#556,#557);
#477=AXIS2_PLACEMENT_3D('',#704,#565,#566);
#478=AXIS2_PLACEMENT_3D('',#708,#568,#569);
#479=AXIS2_PLACEMENT_3D('',#710,#571,#572);
#480=AXIS2_PLACEMENT_3D('',#711,#573,#574);
#481=AXIS2_PLACEMENT_3D('',#712,#575,#576);
#482=AXIS2_PLACEMENT_3D('',#715,#579,#580);
#483=AXIS2_PLACEMENT_3D('',#718,#583,#584);
#484=AXIS2_PLACEMENT_3D('',#719,#585,#586);
#485=AXIS2_PLACEMENT_3D('',#720,#587,#588);
#486=AXIS2_PLACEMENT_3D('',#723,#591,#592);
#487=AXIS2_PLACEMENT_3D('',#726,#595,#596);
#488=AXIS2_PLACEMENT_3D('',#728,#598,#599);
#489=AXIS2_PLACEMENT_3D('',#730,#601,#602);
#490=AXIS2_PLACEMENT_3D('',#732,#604,#605);
#491=AXIS2_PLACEMENT_3D('',#734,#607,#608);
#492=AXIS2_PLACEMENT_3D('',#735,#609,#610);
#493=AXIS2_PLACEMENT_3D('',#737,#612,#613);
#494=AXIS2_PLACEMENT_3D('',#739,#615,#616);
#495=DIRECTION('axis',(0.,0.,1.));
#496=DIRECTION('refdir',(1.,0.,0.));
#497=DIRECTION('center_axis',(0.,0.,1.));
#498=DIRECTION('ref_axis',(1.,0.,0.));
#499=DIRECTION('center_axis',(0.,0.,1.));
#500=DIRECTION('ref_axis',(1.,0.,0.));
#501=DIRECTION('',(0.,0.,1.));
#502=DIRECTION('center_axis',(0.,0.,-1.));
#503=DIRECTION('ref_axis',(1.,0.,0.));
#504=DIRECTION('center_axis',(0.,0.,1.));
#505=DIRECTION('ref_axis',(1.,0.,0.));
#506=DIRECTION('center_axis',(0.,0.,1.));
#507=DIRECTION('ref_axis',(1.,0.,0.));
#508=DIRECTION('',(0.,0.,1.));
#509=DIRECTION('center_axis',(0.,0.,-1.));
#510=DIRECTION('ref_axis',(1.,0.,0.));
#511=DIRECTION('center_axis',(0.,0.,1.));
#512=DIRECTION('ref_axis',(1.,0.,0.));
#513=DIRECTION('center_axis',(0.,0.,-1.));
#514=DIRECTION('ref_axis',(1.,0.,0.));
#515=DIRECTION('',(0.,0.,1.));
#516=DIRECTION('center_axis',(0.,0.,1.));
#517=DIRECTION('ref_axis',(1.,0.,0.));
#518=DIRECTION('',(0.,0.,1.));
#519=DIRECTION('center_axis',(0.,0.,1.));
#520=DIRECTION('ref_axis',(1.,0.,0.));
#521=DIRECTION('center_axis',(0.,0.,1.));
#522=DIRECTION('ref_axis',(1.,0.,0.));
#523=DIRECTION('',(0.,-1.,0.));
#524=DIRECTION('',(-1.,0.,0.));
#525=DIRECTION('',(0.,1.,0.));
#526=DIRECTION('',(1.,0.,0.));
#527=DIRECTION('',(0.,-1.,0.));
#528=DIRECTION('center_axis',(0.,0.,1.));
#529=DIRECTION('ref_axis',(1.,0.,0.));
#530=DIRECTION('',(1.,0.,0.));
#531=DIRECTION('',(0.,1.,0.));
#532=DIRECTION('',(-1.,0.,0.));
#533=DIRECTION('center_axis',(0.,0.,1.));
#534=DIRECTION('ref_axis',(1.,0.,0.));
#535=DIRECTION('',(0.,-1.,0.));
#536=DIRECTION('center_axis',(0.,0.,1.));
#537=DIRECTION('ref_axis',(1.,0.,0.));
#538=DIRECTION('',(0.,1.,0.));
#539=DIRECTION('',(0.,-1.,0.));
#540=DIRECTION('center_axis',(0.,0.,1.));
#541=DIRECTION('ref_axis',(1.,0.,0.));
#542=DIRECTION('',(0.,1.,0.));
#543=DIRECTION('center_axis',(0.,0.,1.));
#544=DIRECTION('ref_axis',(1.,0.,0.));
#545=DIRECTION('',(0.,0.,1.));
#546=DIRECTION('center_axis',(0.,0.,-1.));
#547=DIRECTION('ref_axis',(1.,0.,0.));
#548=DIRECTION('',(0.,0.,1.));
#549=DIRECTION('center_axis',(0.,0.,1.));
#550=DIRECTION('ref_axis',(1.,0.,0.));
#551=DIRECTION('center_axis',(0.,0.,-1.));
#552=DIRECTION('ref_axis',(1.,0.,0.));
#553=DIRECTION('',(1.,0.,0.));
#554=DIRECTION('',(0.,-1.,0.));
#555=DIRECTION('',(-1.,0.,0.));
#556=DIRECTION('center_axis',(0.,0.,-1.));
#557=DIRECTION('ref_axis',(1.,0.,0.));
#558=DIRECTION('',(0.,-1.,0.));
#559=DIRECTION('',(1.,0.,0.));
#560=DIRECTION('',(0.,1.,0.));
#561=DIRECTION('',(-1.,0.,0.));
#562=DIRECTION('',(0.,-1.,0.));
#563=DIRECTION('',(0.,-1.,0.));
#564=DIRECTION('',(0.,1.,0.));
#565=DIRECTION('center_axis',(0.,0.,-1.));
#566=DIRECTION('ref_axis',(1.,0.,0.));
#567=DIRECTION('',(0.,-1.,0.));
#568=DIRECTION('center_axis',(0.,0.,-1.));
#569=DIRECTION('ref_axis',(1.,0.,0.));
#570=DIRECTION('',(0.,1.,0.));
#571=DIRECTION('center_axis',(1.,0.,0.));
#572=DIRECTION('ref_axis',(0.,1.,0.));
#573=DIRECTION('center_axis',(-1.,0.,0.));
#574=DIRECTION('ref_axis',(0.,-1.,0.));
#575=DIRECTION('center_axis',(0.,0.,1.));
#576=DIRECTION('ref_axis',(1.,0.,0.));
#577=DIRECTION('',(0.,0.,1.));
#578=DIRECTION('',(0.,0.,1.));
#579=DIRECTION('center_axis',(0.,0.,1.));
#580=DIRECTION('ref_axis',(1.,0.,0.));
#581=DIRECTION('',(0.,0.,1.));
#582=DIRECTION('',(0.,0.,1.));
#583=DIRECTION('center_axis',(-1.,0.,0.));
#584=DIRECTION('ref_axis',(0.,-1.,0.));
#585=DIRECTION('center_axis',(1.,0.,0.));
#586=DIRECTION('ref_axis',(0.,1.,0.));
#587=DIRECTION('center_axis',(0.,0.,1.));
#588=DIRECTION('ref_axis',(1.,0.,0.));
#589=DIRECTION('',(0.,0.,1.));
#590=DIRECTION('',(0.,0.,-1.));
#591=DIRECTION('center_axis',(0.,0.,1.));
#592=DIRECTION('ref_axis',(1.,0.,0.));
#593=DIRECTION('',(0.,0.,-1.));
#594=DIRECTION('',(0.,0.,1.));
#595=DIRECTION('center_axis',(-1.,0.,0.));
#596=DIRECTION('ref_axis',(0.,-1.,0.));
#597=DIRECTION('',(0.,0.,1.));
#598=DIRECTION('center_axis',(-1.,0.,0.));
#599=DIRECTION('ref_axis',(0.,-1.,0.));
#600=DIRECTION('',(0.,0.,1.));
#601=DIRECTION('center_axis',(0.,1.,0.));
#602=DIRECTION('ref_axis',(-1.,0.,0.));
#603=DIRECTION('',(0.,0.,1.));
#604=DIRECTION('center_axis',(1.,0.,0.));
#605=DIRECTION('ref_axis',(0.,1.,0.));
#606=DIRECTION('',(0.,0.,1.));
#607=DIRECTION('center_axis',(0.,-1.,0.));
#608=DIRECTION('ref_axis',(1.,0.,0.));
#609=DIRECTION('center_axis',(0.,1.,0.));
#610=DIRECTION('ref_axis',(-1.,0.,0.));
#611=DIRECTION('',(0.,0.,1.));
#612=DIRECTION('center_axis',(1.,0.,0.));
#613=DIRECTION('ref_axis',(0.,1.,0.));
#614=DIRECTION('',(0.,0.,1.));
#615=DIRECTION('center_axis',(0.,-1.,0.));
#616=DIRECTION('ref_axis',(1.,0.,0.));
#617=CARTESIAN_POINT('',(0.,0.,0.));
#618=CARTESIAN_POINT('Origin',(12.,1.8,16.3));
#619=CARTESIAN_POINT('',(11.775,1.8,16.4));
#620=CARTESIAN_POINT('Origin',(12.,1.8,16.4));
#621=CARTESIAN_POINT('',(11.775,1.8,17.2));
#622=CARTESIAN_POINT('',(11.775,1.8,16.3));
#623=CARTESIAN_POINT('Origin',(12.,1.8,17.2));
#624=CARTESIAN_POINT('Origin',(12.,-1.8,16.3));
#625=CARTESIAN_POINT('',(11.775,-1.8,16.4));
#626=CARTESIAN_POINT('Origin',(12.,-1.8,16.4));
#627=CARTESIAN_POINT('',(11.775,-1.8,17.2));
#628=CARTESIAN_POINT('',(11.775,-1.8,16.3));
#629=CARTESIAN_POINT('Origin',(12.,-1.8,17.2));
#630=CARTESIAN_POINT('Origin',(4.8,2.,16.3));
#631=CARTESIAN_POINT('',(4.575,2.,17.2));
#632=CARTESIAN_POINT('',(5.025,2.,17.2));
#633=CARTESIAN_POINT('Origin',(4.8,2.,17.2));
#634=CARTESIAN_POINT('',(4.575,2.,16.4));
#635=CARTESIAN_POINT('',(4.575,2.,16.3));
#636=CARTESIAN_POINT('',(5.025,2.,16.4));
#637=CARTESIAN_POINT('Origin',(4.8,2.,16.4));
#638=CARTESIAN_POINT('',(5.025,2.,16.3));
#639=CARTESIAN_POINT('Origin',(8.4,0.,16.4));
#640=CARTESIAN_POINT('',(4.48998886412873,1.,16.4));
#641=CARTESIAN_POINT('',(4.,2.27156333832011,16.4));
#642=CARTESIAN_POINT('Origin',(0.,0.,16.4));
#643=CARTESIAN_POINT('',(4.,2.6,16.4));
#644=CARTESIAN_POINT('',(4.,2.6,16.4));
#645=CARTESIAN_POINT('',(12.8,2.6,16.4));
#646=CARTESIAN_POINT('',(12.8,2.6,16.4));
#647=CARTESIAN_POINT('',(12.8,-2.6,16.4));
#648=CARTESIAN_POINT('',(12.8,-2.6,16.4));
#649=CARTESIAN_POINT('',(4.,-2.6,16.4));
#650=CARTESIAN_POINT('',(4.,-2.6,16.4));
#651=CARTESIAN_POINT('',(4.,-2.27156333832011,16.4));
#652=CARTESIAN_POINT('',(4.,2.6,16.4));
#653=CARTESIAN_POINT('',(4.48998886412873,-1.,16.4));
#654=CARTESIAN_POINT('Origin',(0.,0.,16.4));
#655=CARTESIAN_POINT('',(10.8,-1.,16.4));
#656=CARTESIAN_POINT('',(6.2,-1.,16.4));
#657=CARTESIAN_POINT('',(10.8,1.,16.4));
#658=CARTESIAN_POINT('',(10.8,-0.5,16.4));
#659=CARTESIAN_POINT('',(9.6,1.,16.4));
#660=CARTESIAN_POINT('',(5.025,-1.6,16.4));
#661=CARTESIAN_POINT('',(4.575,-1.6,16.4));
#662=CARTESIAN_POINT('Origin',(4.8,-1.6,16.4));
#663=CARTESIAN_POINT('',(4.575,-2.,16.4));
#664=CARTESIAN_POINT('',(4.575,-0.8,16.4));
#665=CARTESIAN_POINT('',(5.025,-2.,16.4));
#666=CARTESIAN_POINT('Origin',(4.8,-2.,16.4));
#667=CARTESIAN_POINT('',(5.025,-1.,16.4));
#668=CARTESIAN_POINT('',(4.575,1.6,16.4));
#669=CARTESIAN_POINT('',(4.575,1.,16.4));
#670=CARTESIAN_POINT('',(5.025,1.6,16.4));
#671=CARTESIAN_POINT('Origin',(4.8,1.6,16.4));
#672=CARTESIAN_POINT('',(5.025,0.8,16.4));
#673=CARTESIAN_POINT('Origin',(4.8,1.6,16.3));
#674=CARTESIAN_POINT('',(4.575,1.6,17.2));
#675=CARTESIAN_POINT('',(4.575,1.6,16.3));
#676=CARTESIAN_POINT('',(5.025,1.6,17.2));
#677=CARTESIAN_POINT('Origin',(4.8,1.6,17.2));
#678=CARTESIAN_POINT('',(5.025,1.6,16.3));
#679=CARTESIAN_POINT('Origin',(8.4,0.,17.2));
#680=CARTESIAN_POINT('',(4.,2.27156333832011,17.2));
#681=CARTESIAN_POINT('',(4.48998886412873,1.,17.2));
#682=CARTESIAN_POINT('Origin',(0.,0.,17.2));
#683=CARTESIAN_POINT('',(10.8,1.,17.2));
#684=CARTESIAN_POINT('',(9.6,1.,17.2));
#685=CARTESIAN_POINT('',(10.8,-1.,17.2));
#686=CARTESIAN_POINT('',(10.8,-0.5,17.2));
#687=CARTESIAN_POINT('',(4.48998886412873,-1.,17.2));
#688=CARTESIAN_POINT('',(6.2,-1.,17.2));
#689=CARTESIAN_POINT('',(4.,-2.27156333832011,17.2));
#690=CARTESIAN_POINT('Origin',(0.,0.,17.2));
#691=CARTESIAN_POINT('',(4.,-2.6,17.2));
#692=CARTESIAN_POINT('',(4.,2.6,17.2));
#693=CARTESIAN_POINT('',(12.8,-2.6,17.2));
#694=CARTESIAN_POINT('',(4.,-2.6,17.2));
#695=CARTESIAN_POINT('',(12.8,2.6,17.2));
#696=CARTESIAN_POINT('',(12.8,-2.6,17.2));
#697=CARTESIAN_POINT('',(4.,2.6,17.2));
#698=CARTESIAN_POINT('',(12.8,2.6,17.2));
#699=CARTESIAN_POINT('',(4.,2.6,17.2));
#700=CARTESIAN_POINT('',(5.025,0.8,17.2));
#701=CARTESIAN_POINT('',(4.575,1.,17.2));
#702=CARTESIAN_POINT('',(4.575,-1.6,17.2));
#703=CARTESIAN_POINT('',(5.025,-1.6,17.2));
#704=CARTESIAN_POINT('Origin',(4.8,-1.6,17.2));
#705=CARTESIAN_POINT('',(5.025,-2.,17.2));
#706=CARTESIAN_POINT('',(5.025,-1.,17.2));
#707=CARTESIAN_POINT('',(4.575,-2.,17.2));
#708=CARTESIAN_POINT('Origin',(4.8,-2.,17.2));
#709=CARTESIAN_POINT('',(4.575,-0.8,17.2));
#710=CARTESIAN_POINT('Origin',(5.025,1.6,16.3));
#711=CARTESIAN_POINT('Origin',(4.575,2.,16.3));
#712=CARTESIAN_POINT('Origin',(4.8,-1.6,16.3));
#713=CARTESIAN_POINT('',(4.575,-1.6,16.3));
#714=CARTESIAN_POINT('',(5.025,-1.6,16.3));
#715=CARTESIAN_POINT('Origin',(4.8,-2.,16.3));
#716=CARTESIAN_POINT('',(4.575,-2.,16.3));
#717=CARTESIAN_POINT('',(5.025,-2.,16.3));
#718=CARTESIAN_POINT('Origin',(4.575,-1.6,16.3));
#719=CARTESIAN_POINT('Origin',(5.025,-2.,16.3));
#720=CARTESIAN_POINT('Origin',(0.,0.,16.3));
#721=CARTESIAN_POINT('',(4.48998886412873,-1.,16.3));
#722=CARTESIAN_POINT('',(4.,-2.27156333832011,16.3));
#723=CARTESIAN_POINT('Origin',(0.,0.,16.3));
#724=CARTESIAN_POINT('',(4.48998886412873,1.,16.3));
#725=CARTESIAN_POINT('',(4.,2.27156333832011,16.3));
#726=CARTESIAN_POINT('Origin',(4.,2.6,16.4));
#727=CARTESIAN_POINT('',(4.,2.6,16.4));
#728=CARTESIAN_POINT('Origin',(4.,2.6,16.4));
#729=CARTESIAN_POINT('',(4.,-2.6,16.4));
#730=CARTESIAN_POINT('Origin',(10.8,1.,16.3));
#731=CARTESIAN_POINT('',(10.8,1.,16.3));
#732=CARTESIAN_POINT('Origin',(10.8,-1.,16.3));
#733=CARTESIAN_POINT('',(10.8,-1.,16.3));
#734=CARTESIAN_POINT('Origin',(4.,-1.,16.3));
#735=CARTESIAN_POINT('Origin',(12.8,2.6,16.4));
#736=CARTESIAN_POINT('',(12.8,2.6,16.4));
#737=CARTESIAN_POINT('Origin',(12.8,-2.6,16.4));
#738=CARTESIAN_POINT('',(12.8,-2.6,16.4));
#739=CARTESIAN_POINT('Origin',(4.,-2.6,16.4));
#740=UNCERTAINTY_MEASURE_WITH_UNIT(LENGTH_MEASURE(0.001),#744,
'DISTANCE_ACCURACY_VALUE',
'Maximum model space distance between geometric entities at asserted c
onnectivities');
#741=UNCERTAINTY_MEASURE_WITH_UNIT(LENGTH_MEASURE(0.001),#744,
'DISTANCE_ACCURACY_VALUE',
'Maximum model space distance between geometric entities at asserted c
onnectivities');
#742=(
GEOMETRIC_REPRESENTATION_CONTEXT(3)
GLOBAL_UNCERTAINTY_ASSIGNED_CONTEXT((#740))
GLOBAL_UNIT_ASSIGNED_CONTEXT((#744,#746,#747))
REPRESENTATION_CONTEXT('','3D')
);
#743=(
GEOMETRIC_REPRESENTATION_CONTEXT(3)
GLOBAL_UNCERTAINTY_ASSIGNED_CONTEXT((#741))
GLOBAL_UNIT_ASSIGNED_CONTEXT((#744,#746,#747))
REPRESENTATION_CONTEXT('','3D')
);
#744=(
LENGTH_UNIT()
NAMED_UNIT(*)
SI_UNIT(.CENTI.,.METRE.)
);
#745=(
LENGTH_UNIT()
NAMED_UNIT(*)
SI_UNIT($,.METRE.)
);
#746=(
NAMED_UNIT(*)
PLANE_ANGLE_UNIT()
SI_UNIT($,.RADIAN.)
);
#747=(
NAMED_UNIT(*)
SI_UNIT($,.STERADIAN.)
SOLID_ANGLE_UNIT()
);
#748=SHAPE_DEFINITION_REPRESENTATION(#749,#750);
#749=PRODUCT_DEFINITION_SHAPE('',$,#752);
#750=SHAPE_REPRESENTATION('',(#456),#742);
#751=PRODUCT_DEFINITION_CONTEXT('part definition',#756,'design');
#752=PRODUCT_DEFINITION('2026-09-10-22-46-47-504',
'P07_R_\X2\706F57088FDE63A5677F\X0\',#753,#751);
#753=PRODUCT_DEFINITION_FORMATION('',$,#758);
#754=PRODUCT_RELATED_PRODUCT_CATEGORY('P07_R_\X2\706F57088FDE63A5677F\X0\',
'P07_R_\X2\706F57088FDE63A5677F\X0\',(#758));
#755=APPLICATION_PROTOCOL_DEFINITION('international standard',
'automotive_design',2009,#756);
#756=APPLICATION_CONTEXT(
'Core Data for Automotive Mechanical Design Process');
#757=PRODUCT_CONTEXT('part definition',#756,'mechanical');
#758=PRODUCT('2026-09-10-22-46-47-504','P07_R_\X2\706F57088FDE63A5677F\X0\',
$,(#757));
#759=PRESENTATION_STYLE_ASSIGNMENT((#761));
#760=PRESENTATION_STYLE_ASSIGNMENT((#762));
#761=SURFACE_STYLE_USAGE(.BOTH.,#763);
#762=SURFACE_STYLE_USAGE(.BOTH.,#764);
#763=SURFACE_SIDE_STYLE('',(#765));
#764=SURFACE_SIDE_STYLE('',(#766));
#765=SURFACE_STYLE_FILL_AREA(#767);
#766=SURFACE_STYLE_FILL_AREA(#768);
#767=FILL_AREA_STYLE('\X2\94A2\X0\ - \X2\7F0E5149\X0\',(#769));
#768=FILL_AREA_STYLE('R2_light',(#770));
#769=FILL_AREA_STYLE_COLOUR('\X2\94A2\X0\ - \X2\7F0E5149\X0\',#771);
#770=FILL_AREA_STYLE_COLOUR('R2_light',#772);
#771=COLOUR_RGB('\X2\94A2\X0\ - \X2\7F0E5149\X0\',0.627450980392157,0.627450980392157,
0.627450980392157);
#772=COLOUR_RGB('R2_light',0.858823529411765,0.549019607843137,0.164705882352941);
ENDSEC;
END-ISO-10303-21;
