ISO-10303-21;
HEADER;
/* Generated by software containing ST-Developer
 * from STEP Tools, Inc. (www.steptools.com) 
 */

FILE_DESCRIPTION(
/* description */ (''),
/* implementation_level */ '2;1');

FILE_NAME(
/* name */ 'S03B.step',
/* time_stamp */ '2026-09-10T22:46:52+08:00',
/* author */ (''),
/* organization */ (''),
/* preprocessor_version */ 'ST-DEVELOPER v20.1',
/* originating_system */ 'Autodesk Translation Framework v15.8.0.0',
/* authorisation */ '');

FILE_SCHEMA (('AUTOMOTIVE_DESIGN { 1 0 10303 214 3 1 1 }'));
ENDSEC;

DATA;
#10=MECHANICAL_DESIGN_GEOMETRIC_PRESENTATION_REPRESENTATION('',(#13),#327);
#11=SHAPE_REPRESENTATION_RELATIONSHIP('SRR','None',#334,#12);
#12=ADVANCED_BREP_SHAPE_REPRESENTATION('',(#14),#326);
#13=STYLED_ITEM('',(#344),#14);
#14=MANIFOLD_SOLID_BREP('\X2\5B9E4F53\X0\1',#187);
#15=FACE_BOUND('',#45,.T.);
#16=FACE_BOUND('',#47,.T.);
#17=CYLINDRICAL_SURFACE('',#214,4.5);
#18=CYLINDRICAL_SURFACE('',#216,4.55);
#19=CIRCLE('',#203,4.5);
#20=CIRCLE('',#204,4.55);
#21=CIRCLE('',#207,4.5);
#22=CIRCLE('',#208,4.55);
#23=CIRCLE('',#212,4.55);
#24=CIRCLE('',#213,4.5);
#25=CIRCLE('',#215,4.5);
#26=CIRCLE('',#217,4.55);
#27=FACE_OUTER_BOUND('',#37,.T.);
#28=FACE_OUTER_BOUND('',#38,.T.);
#29=FACE_OUTER_BOUND('',#39,.T.);
#30=FACE_OUTER_BOUND('',#40,.T.);
#31=FACE_OUTER_BOUND('',#41,.T.);
#32=FACE_OUTER_BOUND('',#42,.T.);
#33=FACE_OUTER_BOUND('',#43,.T.);
#34=FACE_OUTER_BOUND('',#44,.T.);
#35=FACE_OUTER_BOUND('',#46,.T.);
#36=FACE_OUTER_BOUND('',#48,.T.);
#37=EDGE_LOOP('',(#121,#122,#123,#124));
#38=EDGE_LOOP('',(#125,#126,#127,#128));
#39=EDGE_LOOP('',(#129,#130,#131,#132));
#40=EDGE_LOOP('',(#133,#134,#135,#136));
#41=EDGE_LOOP('',(#137,#138,#139,#140));
#42=EDGE_LOOP('',(#141,#142,#143,#144));
#43=EDGE_LOOP('',(#145,#146,#147,#148));
#44=EDGE_LOOP('',(#149,#150,#151,#152));
#45=EDGE_LOOP('',(#153,#154,#155,#156));
#46=EDGE_LOOP('',(#157,#158,#159,#160));
#47=EDGE_LOOP('',(#161,#162,#163,#164));
#48=EDGE_LOOP('',(#165,#166,#167,#168));
#49=LINE('',#277,#65);
#50=LINE('',#279,#66);
#51=LINE('',#281,#67);
#52=LINE('',#282,#68);
#53=LINE('',#288,#69);
#54=LINE('',#291,#70);
#55=LINE('',#293,#71);
#56=LINE('',#294,#72);
#57=LINE('',#301,#73);
#58=LINE('',#303,#74);
#59=LINE('',#305,#75);
#60=LINE('',#306,#76);
#61=LINE('',#310,#77);
#62=LINE('',#312,#78);
#63=LINE('',#314,#79);
#64=LINE('',#315,#80);
#65=VECTOR('',#223,1.);
#66=VECTOR('',#224,1.);
#67=VECTOR('',#225,1.);
#68=VECTOR('',#226,1.);
#69=VECTOR('',#233,1.);
#70=VECTOR('',#236,1.);
#71=VECTOR('',#237,1.);
#72=VECTOR('',#238,1.);
#73=VECTOR('',#247,1.);
#74=VECTOR('',#248,1.);
#75=VECTOR('',#249,1.);
#76=VECTOR('',#250,1.);
#77=VECTOR('',#253,1.);
#78=VECTOR('',#254,1.);
#79=VECTOR('',#255,1.);
#80=VECTOR('',#256,1.);
#81=VERTEX_POINT('',#275);
#82=VERTEX_POINT('',#276);
#83=VERTEX_POINT('',#278);
#84=VERTEX_POINT('',#280);
#85=VERTEX_POINT('',#284);
#86=VERTEX_POINT('',#286);
#87=VERTEX_POINT('',#290);
#88=VERTEX_POINT('',#292);
#89=VERTEX_POINT('',#299);
#90=VERTEX_POINT('',#300);
#91=VERTEX_POINT('',#302);
#92=VERTEX_POINT('',#304);
#93=VERTEX_POINT('',#308);
#94=VERTEX_POINT('',#309);
#95=VERTEX_POINT('',#311);
#96=VERTEX_POINT('',#313);
#97=EDGE_CURVE('',#81,#82,#49,.T.);
#98=EDGE_CURVE('',#83,#81,#50,.T.);
#99=EDGE_CURVE('',#84,#83,#51,.T.);
#100=EDGE_CURVE('',#84,#82,#52,.T.);
#101=EDGE_CURVE('',#82,#85,#19,.T.);
#102=EDGE_CURVE('',#86,#84,#20,.T.);
#103=EDGE_CURVE('',#85,#86,#53,.T.);
#104=EDGE_CURVE('',#85,#87,#54,.T.);
#105=EDGE_CURVE('',#88,#86,#55,.T.);
#106=EDGE_CURVE('',#87,#88,#56,.T.);
#107=EDGE_CURVE('',#87,#81,#21,.T.);
#108=EDGE_CURVE('',#83,#88,#22,.T.);
#109=EDGE_CURVE('',#89,#90,#57,.T.);
#110=EDGE_CURVE('',#91,#89,#58,.T.);
#111=EDGE_CURVE('',#92,#91,#59,.T.);
#112=EDGE_CURVE('',#90,#92,#60,.T.);
#113=EDGE_CURVE('',#93,#94,#61,.T.);
#114=EDGE_CURVE('',#95,#93,#62,.T.);
#115=EDGE_CURVE('',#96,#95,#63,.T.);
#116=EDGE_CURVE('',#94,#96,#64,.T.);
#117=EDGE_CURVE('',#90,#93,#23,.T.);
#118=EDGE_CURVE('',#92,#95,#24,.T.);
#119=EDGE_CURVE('',#96,#91,#25,.T.);
#120=EDGE_CURVE('',#89,#94,#26,.T.);
#121=ORIENTED_EDGE('',*,*,#97,.F.);
#122=ORIENTED_EDGE('',*,*,#98,.F.);
#123=ORIENTED_EDGE('',*,*,#99,.F.);
#124=ORIENTED_EDGE('',*,*,#100,.T.);
#125=ORIENTED_EDGE('',*,*,#101,.F.);
#126=ORIENTED_EDGE('',*,*,#100,.F.);
#127=ORIENTED_EDGE('',*,*,#102,.F.);
#128=ORIENTED_EDGE('',*,*,#103,.F.);
#129=ORIENTED_EDGE('',*,*,#104,.F.);
#130=ORIENTED_EDGE('',*,*,#103,.T.);
#131=ORIENTED_EDGE('',*,*,#105,.F.);
#132=ORIENTED_EDGE('',*,*,#106,.F.);
#133=ORIENTED_EDGE('',*,*,#107,.F.);
#134=ORIENTED_EDGE('',*,*,#106,.T.);
#135=ORIENTED_EDGE('',*,*,#108,.F.);
#136=ORIENTED_EDGE('',*,*,#98,.T.);
#137=ORIENTED_EDGE('',*,*,#109,.F.);
#138=ORIENTED_EDGE('',*,*,#110,.F.);
#139=ORIENTED_EDGE('',*,*,#111,.F.);
#140=ORIENTED_EDGE('',*,*,#112,.F.);
#141=ORIENTED_EDGE('',*,*,#113,.F.);
#142=ORIENTED_EDGE('',*,*,#114,.F.);
#143=ORIENTED_EDGE('',*,*,#115,.F.);
#144=ORIENTED_EDGE('',*,*,#116,.F.);
#145=ORIENTED_EDGE('',*,*,#114,.T.);
#146=ORIENTED_EDGE('',*,*,#117,.F.);
#147=ORIENTED_EDGE('',*,*,#112,.T.);
#148=ORIENTED_EDGE('',*,*,#118,.T.);
#149=ORIENTED_EDGE('',*,*,#115,.T.);
#150=ORIENTED_EDGE('',*,*,#118,.F.);
#151=ORIENTED_EDGE('',*,*,#111,.T.);
#152=ORIENTED_EDGE('',*,*,#119,.F.);
#153=ORIENTED_EDGE('',*,*,#104,.T.);
#154=ORIENTED_EDGE('',*,*,#107,.T.);
#155=ORIENTED_EDGE('',*,*,#97,.T.);
#156=ORIENTED_EDGE('',*,*,#101,.T.);
#157=ORIENTED_EDGE('',*,*,#113,.T.);
#158=ORIENTED_EDGE('',*,*,#120,.F.);
#159=ORIENTED_EDGE('',*,*,#109,.T.);
#160=ORIENTED_EDGE('',*,*,#117,.T.);
#161=ORIENTED_EDGE('',*,*,#105,.T.);
#162=ORIENTED_EDGE('',*,*,#102,.T.);
#163=ORIENTED_EDGE('',*,*,#99,.T.);
#164=ORIENTED_EDGE('',*,*,#108,.T.);
#165=ORIENTED_EDGE('',*,*,#116,.T.);
#166=ORIENTED_EDGE('',*,*,#119,.T.);
#167=ORIENTED_EDGE('',*,*,#110,.T.);
#168=ORIENTED_EDGE('',*,*,#120,.T.);
#169=PLANE('',#201);
#170=PLANE('',#202);
#171=PLANE('',#205);
#172=PLANE('',#206);
#173=PLANE('',#209);
#174=PLANE('',#210);
#175=PLANE('',#211);
#176=PLANE('',#218);
#177=ADVANCED_FACE('',(#27),#169,.F.);
#178=ADVANCED_FACE('',(#28),#170,.F.);
#179=ADVANCED_FACE('',(#29),#171,.F.);
#180=ADVANCED_FACE('',(#30),#172,.T.);
#181=ADVANCED_FACE('',(#31),#173,.F.);
#182=ADVANCED_FACE('',(#32),#174,.F.);
#183=ADVANCED_FACE('',(#33),#175,.F.);
#184=ADVANCED_FACE('',(#34,#15),#17,.F.);
#185=ADVANCED_FACE('',(#35,#16),#18,.T.);
#186=ADVANCED_FACE('',(#36),#176,.T.);
#187=CLOSED_SHELL('',(#177,#178,#179,#180,#181,#182,#183,#184,#185,#186));
#188=DERIVED_UNIT_ELEMENT(#190,1.);
#189=DERIVED_UNIT_ELEMENT(#329,-3.);
#190=(
MASS_UNIT()
NAMED_UNIT(*)
SI_UNIT(.KILO.,.GRAM.)
);
#191=DERIVED_UNIT((#188,#189));
#192=MEASURE_REPRESENTATION_ITEM('density measure',
POSITIVE_RATIO_MEASURE(7850.),#191);
#193=PROPERTY_DEFINITION_REPRESENTATION(#198,#195);
#194=PROPERTY_DEFINITION_REPRESENTATION(#199,#196);
#195=REPRESENTATION('material name',(#197),#326);
#196=REPRESENTATION('density',(#192),#326);
#197=DESCRIPTIVE_REPRESENTATION_ITEM('\X2\94A2\X0\','\X2\94A2\X0\');
#198=PROPERTY_DEFINITION('material property','material name',#336);
#199=PROPERTY_DEFINITION('material property','density of part',#336);
#200=AXIS2_PLACEMENT_3D('',#273,#219,#220);
#201=AXIS2_PLACEMENT_3D('',#274,#221,#222);
#202=AXIS2_PLACEMENT_3D('',#283,#227,#228);
#203=AXIS2_PLACEMENT_3D('',#285,#229,#230);
#204=AXIS2_PLACEMENT_3D('',#287,#231,#232);
#205=AXIS2_PLACEMENT_3D('',#289,#234,#235);
#206=AXIS2_PLACEMENT_3D('',#295,#239,#240);
#207=AXIS2_PLACEMENT_3D('',#296,#241,#242);
#208=AXIS2_PLACEMENT_3D('',#297,#243,#244);
#209=AXIS2_PLACEMENT_3D('',#298,#245,#246);
#210=AXIS2_PLACEMENT_3D('',#307,#251,#252);
#211=AXIS2_PLACEMENT_3D('',#316,#257,#258);
#212=AXIS2_PLACEMENT_3D('',#317,#259,#260);
#213=AXIS2_PLACEMENT_3D('',#318,#261,#262);
#214=AXIS2_PLACEMENT_3D('',#319,#263,#264);
#215=AXIS2_PLACEMENT_3D('',#320,#265,#266);
#216=AXIS2_PLACEMENT_3D('',#321,#267,#268);
#217=AXIS2_PLACEMENT_3D('',#322,#269,#270);
#218=AXIS2_PLACEMENT_3D('',#323,#271,#272);
#219=DIRECTION('axis',(0.,0.,1.));
#220=DIRECTION('refdir',(1.,0.,0.));
#221=DIRECTION('center_axis',(1.,0.,0.));
#222=DIRECTION('ref_axis',(0.,1.,0.));
#223=DIRECTION('',(0.,0.,1.));
#224=DIRECTION('',(0.,1.,0.));
#225=DIRECTION('',(0.,0.,-1.));
#226=DIRECTION('',(0.,1.,0.));
#227=DIRECTION('center_axis',(0.,0.,1.));
#228=DIRECTION('ref_axis',(1.,0.,0.));
#229=DIRECTION('center_axis',(0.,0.,-1.));
#230=DIRECTION('ref_axis',(1.,0.,0.));
#231=DIRECTION('center_axis',(0.,0.,1.));
#232=DIRECTION('ref_axis',(1.,0.,0.));
#233=DIRECTION('',(0.,-1.,0.));
#234=DIRECTION('center_axis',(-1.,0.,0.));
#235=DIRECTION('ref_axis',(0.,-1.,0.));
#236=DIRECTION('',(0.,0.,-1.));
#237=DIRECTION('',(0.,0.,1.));
#238=DIRECTION('',(0.,-1.,0.));
#239=DIRECTION('center_axis',(0.,0.,1.));
#240=DIRECTION('ref_axis',(1.,0.,0.));
#241=DIRECTION('center_axis',(0.,0.,1.));
#242=DIRECTION('ref_axis',(1.,0.,0.));
#243=DIRECTION('center_axis',(0.,0.,-1.));
#244=DIRECTION('ref_axis',(1.,0.,0.));
#245=DIRECTION('center_axis',(0.,-1.,0.));
#246=DIRECTION('ref_axis',(1.,0.,0.));
#247=DIRECTION('',(0.,0.,-1.));
#248=DIRECTION('',(-1.,0.,0.));
#249=DIRECTION('',(0.,0.,1.));
#250=DIRECTION('',(1.,0.,0.));
#251=DIRECTION('center_axis',(0.,-1.,0.));
#252=DIRECTION('ref_axis',(1.,0.,0.));
#253=DIRECTION('',(0.,0.,1.));
#254=DIRECTION('',(1.,0.,0.));
#255=DIRECTION('',(0.,0.,-1.));
#256=DIRECTION('',(-1.,0.,0.));
#257=DIRECTION('center_axis',(0.,0.,1.));
#258=DIRECTION('ref_axis',(1.,0.,0.));
#259=DIRECTION('center_axis',(0.,0.,1.));
#260=DIRECTION('ref_axis',(1.,0.,0.));
#261=DIRECTION('center_axis',(0.,0.,1.));
#262=DIRECTION('ref_axis',(1.,0.,0.));
#263=DIRECTION('center_axis',(0.,0.,1.));
#264=DIRECTION('ref_axis',(1.,0.,0.));
#265=DIRECTION('center_axis',(0.,0.,-1.));
#266=DIRECTION('ref_axis',(1.,0.,0.));
#267=DIRECTION('center_axis',(0.,0.,1.));
#268=DIRECTION('ref_axis',(1.,0.,0.));
#269=DIRECTION('center_axis',(0.,0.,1.));
#270=DIRECTION('ref_axis',(1.,0.,0.));
#271=DIRECTION('center_axis',(0.,0.,1.));
#272=DIRECTION('ref_axis',(1.,0.,0.));
#273=CARTESIAN_POINT('',(0.,0.,0.));
#274=CARTESIAN_POINT('Origin',(0.8,-6.,15.2));
#275=CARTESIAN_POINT('',(0.8,-4.42831796509691,15.2));
#276=CARTESIAN_POINT('',(0.8,-4.42831796509691,16.));
#277=CARTESIAN_POINT('',(0.8,-4.42831796509691,15.));
#278=CARTESIAN_POINT('',(0.8,-4.47911821679223,15.2));
#279=CARTESIAN_POINT('',(0.8,-6.,15.2));
#280=CARTESIAN_POINT('',(0.8,-4.47911821679223,16.));
#281=CARTESIAN_POINT('',(0.8,-4.47911821679223,15.));
#282=CARTESIAN_POINT('',(0.8,-6.,16.));
#283=CARTESIAN_POINT('Origin',(0.,-5.1,16.));
#284=CARTESIAN_POINT('',(-0.8,-4.42831796509691,16.));
#285=CARTESIAN_POINT('Origin',(0.,0.,16.));
#286=CARTESIAN_POINT('',(-0.8,-4.47911821679223,16.));
#287=CARTESIAN_POINT('Origin',(0.,0.,16.));
#288=CARTESIAN_POINT('',(-0.8,-4.2,16.));
#289=CARTESIAN_POINT('Origin',(-0.8,-4.2,15.2));
#290=CARTESIAN_POINT('',(-0.8,-4.42831796509691,15.2));
#291=CARTESIAN_POINT('',(-0.8,-4.42831796509691,15.));
#292=CARTESIAN_POINT('',(-0.8,-4.47911821679223,15.2));
#293=CARTESIAN_POINT('',(-0.8,-4.47911821679223,15.));
#294=CARTESIAN_POINT('',(-0.8,-4.2,15.2));
#295=CARTESIAN_POINT('Origin',(0.,-5.1,15.2));
#296=CARTESIAN_POINT('Origin',(0.,0.,15.2));
#297=CARTESIAN_POINT('Origin',(0.,0.,15.2));
#298=CARTESIAN_POINT('Origin',(-6.,-0.1,14.9));
#299=CARTESIAN_POINT('',(-4.54890096616754,-0.1,16.2));
#300=CARTESIAN_POINT('',(-4.54890096616754,-0.1,15.));
#301=CARTESIAN_POINT('',(-4.54890096616754,-0.1,15.));
#302=CARTESIAN_POINT('',(-4.4988887516808,-0.1,16.2));
#303=CARTESIAN_POINT('',(-3.,-0.1,16.2));
#304=CARTESIAN_POINT('',(-4.4988887516808,-0.1,15.));
#305=CARTESIAN_POINT('',(-4.4988887516808,-0.1,15.));
#306=CARTESIAN_POINT('',(-3.,-0.1,15.));
#307=CARTESIAN_POINT('Origin',(-6.,-0.1,14.9));
#308=CARTESIAN_POINT('',(4.54890096616754,-0.1,15.));
#309=CARTESIAN_POINT('',(4.54890096616754,-0.1,16.2));
#310=CARTESIAN_POINT('',(4.54890096616754,-0.1,15.));
#311=CARTESIAN_POINT('',(4.4988887516808,-0.1,15.));
#312=CARTESIAN_POINT('',(-3.,-0.1,15.));
#313=CARTESIAN_POINT('',(4.4988887516808,-0.1,16.2));
#314=CARTESIAN_POINT('',(4.4988887516808,-0.1,15.));
#315=CARTESIAN_POINT('',(-3.,-0.1,16.2));
#316=CARTESIAN_POINT('Origin',(0.,0.,15.));
#317=CARTESIAN_POINT('Origin',(0.,0.,15.));
#318=CARTESIAN_POINT('Origin',(0.,0.,15.));
#319=CARTESIAN_POINT('Origin',(0.,0.,15.));
#320=CARTESIAN_POINT('Origin',(0.,0.,16.2));
#321=CARTESIAN_POINT('Origin',(0.,0.,15.));
#322=CARTESIAN_POINT('Origin',(0.,0.,16.2));
#323=CARTESIAN_POINT('Origin',(0.,0.,16.2));
#324=UNCERTAINTY_MEASURE_WITH_UNIT(LENGTH_MEASURE(0.001),#328,
'DISTANCE_ACCURACY_VALUE',
'Maximum model space distance between geometric entities at asserted c
onnectivities');
#325=UNCERTAINTY_MEASURE_WITH_UNIT(LENGTH_MEASURE(0.001),#328,
'DISTANCE_ACCURACY_VALUE',
'Maximum model space distance between geometric entities at asserted c
onnectivities');
#326=(
GEOMETRIC_REPRESENTATION_CONTEXT(3)
GLOBAL_UNCERTAINTY_ASSIGNED_CONTEXT((#324))
GLOBAL_UNIT_ASSIGNED_CONTEXT((#328,#330,#331))
REPRESENTATION_CONTEXT('','3D')
);
#327=(
GEOMETRIC_REPRESENTATION_CONTEXT(3)
GLOBAL_UNCERTAINTY_ASSIGNED_CONTEXT((#325))
GLOBAL_UNIT_ASSIGNED_CONTEXT((#328,#330,#331))
REPRESENTATION_CONTEXT('','3D')
);
#328=(
LENGTH_UNIT()
NAMED_UNIT(*)
SI_UNIT(.CENTI.,.METRE.)
);
#329=(
LENGTH_UNIT()
NAMED_UNIT(*)
SI_UNIT($,.METRE.)
);
#330=(
NAMED_UNIT(*)
PLANE_ANGLE_UNIT()
SI_UNIT($,.RADIAN.)
);
#331=(
NAMED_UNIT(*)
SI_UNIT($,.STERADIAN.)
SOLID_ANGLE_UNIT()
);
#332=SHAPE_DEFINITION_REPRESENTATION(#333,#334);
#333=PRODUCT_DEFINITION_SHAPE('',$,#336);
#334=SHAPE_REPRESENTATION('',(#200),#326);
#335=PRODUCT_DEFINITION_CONTEXT('part definition',#340,'design');
#336=PRODUCT_DEFINITION('2026-09-10-22-46-52-594',
'S03B_\X2\706F57088F6F886C\X0\_0p5\X2\539A\X0\_\X2\5F855B9E914D\X0\',#337,
#335);
#337=PRODUCT_DEFINITION_FORMATION('',$,#342);
#338=PRODUCT_RELATED_PRODUCT_CATEGORY(
'S03B_\X2\706F57088F6F886C\X0\_0p5\X2\539A\X0\_\X2\5F855B9E914D\X0\',
'S03B_\X2\706F57088F6F886C\X0\_0p5\X2\539A\X0\_\X2\5F855B9E914D\X0\',(#342));
#339=APPLICATION_PROTOCOL_DEFINITION('international standard',
'automotive_design',2009,#340);
#340=APPLICATION_CONTEXT(
'Core Data for Automotive Mechanical Design Process');
#341=PRODUCT_CONTEXT('part definition',#340,'mechanical');
#342=PRODUCT('2026-09-10-22-46-52-594',
'S03B_\X2\706F57088F6F886C\X0\_0p5\X2\539A\X0\_\X2\5F855B9E914D\X0\',$,
(#341));
#343=PRESENTATION_STYLE_ASSIGNMENT((#345));
#344=PRESENTATION_STYLE_ASSIGNMENT((#346));
#345=SURFACE_STYLE_USAGE(.BOTH.,#347);
#346=SURFACE_STYLE_USAGE(.BOTH.,#348);
#347=SURFACE_SIDE_STYLE('',(#349));
#348=SURFACE_SIDE_STYLE('',(#350));
#349=SURFACE_STYLE_FILL_AREA(#351);
#350=SURFACE_STYLE_FILL_AREA(#352);
#351=FILL_AREA_STYLE('\X2\94A2\X0\ - \X2\7F0E5149\X0\',(#353));
#352=FILL_AREA_STYLE('R2_black',(#354));
#353=FILL_AREA_STYLE_COLOUR('\X2\94A2\X0\ - \X2\7F0E5149\X0\',#355);
#354=FILL_AREA_STYLE_COLOUR('R2_black',#356);
#355=COLOUR_RGB('\X2\94A2\X0\ - \X2\7F0E5149\X0\',0.627450980392157,0.627450980392157,
0.627450980392157);
#356=COLOUR_RGB('R2_black',0.192156862745098,0.203921568627451,0.219607843137255);
ENDSEC;
END-ISO-10303-21;
