ISO-10303-21;
HEADER;
/* Generated by software containing ST-Developer
 * from STEP Tools, Inc. (www.steptools.com) 
 */

FILE_DESCRIPTION(
/* description */ (''),
/* implementation_level */ '2;1');

FILE_NAME(
/* name */ 'W02.step',
/* time_stamp */ '2026-09-10T22:45:41+08:00',
/* author */ (''),
/* organization */ (''),
/* preprocessor_version */ 'ST-DEVELOPER v20.1',
/* originating_system */ 'Autodesk Translation Framework v15.8.0.0',
/* authorisation */ '');

FILE_SCHEMA (('AUTOMOTIVE_DESIGN { 1 0 10303 214 3 1 1 }'));
ENDSEC;

DATA;
#10=MECHANICAL_DESIGN_GEOMETRIC_PRESENTATION_REPRESENTATION('',(#13),#2485);
#11=SHAPE_REPRESENTATION_RELATIONSHIP('SRR','None',#2492,#12);
#12=ADVANCED_BREP_SHAPE_REPRESENTATION('',(#14),#2484);
#13=STYLED_ITEM('',(#2502),#14);
#14=MANIFOLD_SOLID_BREP('\X2\5B9E4F53\X0\1',#1463);
#15=FACE_BOUND('',#260,.T.);
#16=FACE_BOUND('',#261,.T.);
#17=FACE_BOUND('',#262,.T.);
#18=FACE_BOUND('',#263,.T.);
#19=FACE_BOUND('',#264,.T.);
#20=FACE_BOUND('',#265,.T.);
#21=FACE_BOUND('',#266,.T.);
#22=FACE_BOUND('',#267,.T.);
#23=FACE_BOUND('',#268,.T.);
#24=FACE_BOUND('',#269,.T.);
#25=FACE_BOUND('',#270,.T.);
#26=FACE_BOUND('',#271,.T.);
#27=FACE_BOUND('',#272,.T.);
#28=FACE_BOUND('',#273,.T.);
#29=FACE_BOUND('',#274,.T.);
#30=FACE_BOUND('',#275,.T.);
#31=FACE_BOUND('',#276,.T.);
#32=FACE_BOUND('',#277,.T.);
#33=FACE_BOUND('',#278,.T.);
#34=FACE_BOUND('',#279,.T.);
#35=FACE_BOUND('',#280,.T.);
#36=FACE_BOUND('',#281,.T.);
#37=FACE_BOUND('',#282,.T.);
#38=FACE_BOUND('',#283,.T.);
#39=FACE_BOUND('',#284,.T.);
#40=FACE_BOUND('',#285,.T.);
#41=FACE_BOUND('',#286,.T.);
#42=FACE_BOUND('',#287,.T.);
#43=FACE_BOUND('',#288,.T.);
#44=FACE_BOUND('',#289,.T.);
#45=FACE_BOUND('',#290,.T.);
#46=FACE_BOUND('',#291,.T.);
#47=FACE_BOUND('',#292,.T.);
#48=FACE_BOUND('',#293,.T.);
#49=FACE_BOUND('',#294,.T.);
#50=FACE_BOUND('',#295,.T.);
#51=FACE_BOUND('',#296,.T.);
#52=FACE_BOUND('',#297,.T.);
#53=FACE_BOUND('',#298,.T.);
#54=FACE_BOUND('',#299,.T.);
#55=FACE_BOUND('',#300,.T.);
#56=FACE_BOUND('',#301,.T.);
#57=FACE_BOUND('',#302,.T.);
#58=FACE_BOUND('',#303,.T.);
#59=FACE_BOUND('',#304,.T.);
#60=FACE_BOUND('',#305,.T.);
#61=FACE_BOUND('',#306,.T.);
#62=FACE_BOUND('',#307,.T.);
#63=FACE_BOUND('',#308,.T.);
#64=FACE_BOUND('',#309,.T.);
#65=FACE_BOUND('',#312,.T.);
#66=FACE_BOUND('',#313,.T.);
#67=FACE_BOUND('',#314,.T.);
#68=FACE_BOUND('',#315,.T.);
#69=FACE_BOUND('',#316,.T.);
#70=FACE_BOUND('',#317,.T.);
#71=FACE_BOUND('',#318,.T.);
#72=FACE_BOUND('',#319,.T.);
#73=FACE_BOUND('',#320,.T.);
#74=FACE_BOUND('',#321,.T.);
#75=FACE_BOUND('',#322,.T.);
#76=FACE_BOUND('',#323,.T.);
#77=FACE_BOUND('',#324,.T.);
#78=FACE_BOUND('',#325,.T.);
#79=FACE_BOUND('',#326,.T.);
#80=FACE_BOUND('',#327,.T.);
#81=FACE_BOUND('',#328,.T.);
#82=FACE_BOUND('',#329,.T.);
#83=FACE_BOUND('',#330,.T.);
#84=FACE_BOUND('',#331,.T.);
#85=FACE_BOUND('',#332,.T.);
#86=FACE_BOUND('',#333,.T.);
#87=FACE_BOUND('',#334,.T.);
#88=FACE_BOUND('',#335,.T.);
#89=FACE_BOUND('',#336,.T.);
#90=FACE_BOUND('',#337,.T.);
#91=FACE_BOUND('',#338,.T.);
#92=FACE_BOUND('',#339,.T.);
#93=FACE_BOUND('',#340,.T.);
#94=FACE_BOUND('',#341,.T.);
#95=FACE_BOUND('',#342,.T.);
#96=FACE_BOUND('',#343,.T.);
#97=FACE_BOUND('',#344,.T.);
#98=FACE_BOUND('',#345,.T.);
#99=FACE_BOUND('',#346,.T.);
#100=FACE_BOUND('',#347,.T.);
#101=FACE_BOUND('',#348,.T.);
#102=FACE_BOUND('',#349,.T.);
#103=FACE_BOUND('',#350,.T.);
#104=FACE_BOUND('',#351,.T.);
#105=FACE_BOUND('',#352,.T.);
#106=FACE_BOUND('',#353,.T.);
#107=FACE_BOUND('',#354,.T.);
#108=FACE_BOUND('',#355,.T.);
#109=FACE_BOUND('',#356,.T.);
#110=FACE_BOUND('',#357,.T.);
#111=FACE_BOUND('',#358,.T.);
#112=FACE_BOUND('',#359,.T.);
#113=FACE_BOUND('',#360,.T.);
#114=FACE_BOUND('',#361,.T.);
#115=PLANE('',#1510);
#116=PLANE('',#1515);
#117=PLANE('',#1517);
#118=PLANE('',#1518);
#119=PLANE('',#1522);
#120=PLANE('',#1527);
#121=PLANE('',#1529);
#122=PLANE('',#1530);
#123=PLANE('',#1649);
#124=PLANE('',#1650);
#125=PLANE('',#1651);
#126=PLANE('',#1652);
#127=PLANE('',#1653);
#128=PLANE('',#1654);
#129=FACE_OUTER_BOUND('',#197,.T.);
#130=FACE_OUTER_BOUND('',#198,.T.);
#131=FACE_OUTER_BOUND('',#199,.T.);
#132=FACE_OUTER_BOUND('',#200,.T.);
#133=FACE_OUTER_BOUND('',#201,.T.);
#134=FACE_OUTER_BOUND('',#202,.T.);
#135=FACE_OUTER_BOUND('',#203,.T.);
#136=FACE_OUTER_BOUND('',#204,.T.);
#137=FACE_OUTER_BOUND('',#205,.T.);
#138=FACE_OUTER_BOUND('',#206,.T.);
#139=FACE_OUTER_BOUND('',#207,.T.);
#140=FACE_OUTER_BOUND('',#208,.T.);
#141=FACE_OUTER_BOUND('',#209,.T.);
#142=FACE_OUTER_BOUND('',#210,.T.);
#143=FACE_OUTER_BOUND('',#211,.T.);
#144=FACE_OUTER_BOUND('',#212,.T.);
#145=FACE_OUTER_BOUND('',#213,.T.);
#146=FACE_OUTER_BOUND('',#214,.T.);
#147=FACE_OUTER_BOUND('',#215,.T.);
#148=FACE_OUTER_BOUND('',#216,.T.);
#149=FACE_OUTER_BOUND('',#217,.T.);
#150=FACE_OUTER_BOUND('',#218,.T.);
#151=FACE_OUTER_BOUND('',#219,.T.);
#152=FACE_OUTER_BOUND('',#220,.T.);
#153=FACE_OUTER_BOUND('',#221,.T.);
#154=FACE_OUTER_BOUND('',#222,.T.);
#155=FACE_OUTER_BOUND('',#223,.T.);
#156=FACE_OUTER_BOUND('',#224,.T.);
#157=FACE_OUTER_BOUND('',#225,.T.);
#158=FACE_OUTER_BOUND('',#226,.T.);
#159=FACE_OUTER_BOUND('',#227,.T.);
#160=FACE_OUTER_BOUND('',#228,.T.);
#161=FACE_OUTER_BOUND('',#229,.T.);
#162=FACE_OUTER_BOUND('',#230,.T.);
#163=FACE_OUTER_BOUND('',#231,.T.);
#164=FACE_OUTER_BOUND('',#232,.T.);
#165=FACE_OUTER_BOUND('',#233,.T.);
#166=FACE_OUTER_BOUND('',#234,.T.);
#167=FACE_OUTER_BOUND('',#235,.T.);
#168=FACE_OUTER_BOUND('',#236,.T.);
#169=FACE_OUTER_BOUND('',#237,.T.);
#170=FACE_OUTER_BOUND('',#238,.T.);
#171=FACE_OUTER_BOUND('',#239,.T.);
#172=FACE_OUTER_BOUND('',#240,.T.);
#173=FACE_OUTER_BOUND('',#241,.T.);
#174=FACE_OUTER_BOUND('',#242,.T.);
#175=FACE_OUTER_BOUND('',#243,.T.);
#176=FACE_OUTER_BOUND('',#244,.T.);
#177=FACE_OUTER_BOUND('',#245,.T.);
#178=FACE_OUTER_BOUND('',#246,.T.);
#179=FACE_OUTER_BOUND('',#247,.T.);
#180=FACE_OUTER_BOUND('',#248,.T.);
#181=FACE_OUTER_BOUND('',#249,.T.);
#182=FACE_OUTER_BOUND('',#250,.T.);
#183=FACE_OUTER_BOUND('',#251,.T.);
#184=FACE_OUTER_BOUND('',#252,.T.);
#185=FACE_OUTER_BOUND('',#253,.T.);
#186=FACE_OUTER_BOUND('',#254,.T.);
#187=FACE_OUTER_BOUND('',#255,.T.);
#188=FACE_OUTER_BOUND('',#256,.T.);
#189=FACE_OUTER_BOUND('',#257,.T.);
#190=FACE_OUTER_BOUND('',#258,.T.);
#191=FACE_OUTER_BOUND('',#259,.T.);
#192=FACE_OUTER_BOUND('',#310,.T.);
#193=FACE_OUTER_BOUND('',#311,.T.);
#194=FACE_OUTER_BOUND('',#362,.T.);
#195=FACE_OUTER_BOUND('',#363,.T.);
#196=FACE_OUTER_BOUND('',#364,.T.);
#197=EDGE_LOOP('',(#957,#958,#959,#960));
#198=EDGE_LOOP('',(#961,#962,#963,#964));
#199=EDGE_LOOP('',(#965,#966,#967,#968));
#200=EDGE_LOOP('',(#969,#970,#971,#972));
#201=EDGE_LOOP('',(#973,#974,#975,#976));
#202=EDGE_LOOP('',(#977,#978,#979,#980));
#203=EDGE_LOOP('',(#981,#982,#983,#984));
#204=EDGE_LOOP('',(#985,#986,#987,#988));
#205=EDGE_LOOP('',(#989,#990,#991,#992));
#206=EDGE_LOOP('',(#993,#994,#995,#996));
#207=EDGE_LOOP('',(#997,#998,#999,#1000));
#208=EDGE_LOOP('',(#1001,#1002,#1003,#1004));
#209=EDGE_LOOP('',(#1005,#1006,#1007,#1008));
#210=EDGE_LOOP('',(#1009,#1010,#1011,#1012));
#211=EDGE_LOOP('',(#1013,#1014,#1015,#1016,#1017));
#212=EDGE_LOOP('',(#1018,#1019,#1020,#1021,#1022));
#213=EDGE_LOOP('',(#1023,#1024,#1025,#1026));
#214=EDGE_LOOP('',(#1027,#1028,#1029,#1030));
#215=EDGE_LOOP('',(#1031,#1032,#1033,#1034));
#216=EDGE_LOOP('',(#1035,#1036,#1037,#1038));
#217=EDGE_LOOP('',(#1039,#1040,#1041,#1042,#1043));
#218=EDGE_LOOP('',(#1044,#1045,#1046,#1047,#1048));
#219=EDGE_LOOP('',(#1049,#1050,#1051,#1052));
#220=EDGE_LOOP('',(#1053,#1054,#1055,#1056));
#221=EDGE_LOOP('',(#1057,#1058,#1059,#1060));
#222=EDGE_LOOP('',(#1061,#1062,#1063,#1064));
#223=EDGE_LOOP('',(#1065,#1066,#1067,#1068));
#224=EDGE_LOOP('',(#1069,#1070,#1071,#1072));
#225=EDGE_LOOP('',(#1073,#1074,#1075,#1076));
#226=EDGE_LOOP('',(#1077,#1078,#1079,#1080));
#227=EDGE_LOOP('',(#1081,#1082,#1083,#1084));
#228=EDGE_LOOP('',(#1085,#1086,#1087,#1088));
#229=EDGE_LOOP('',(#1089,#1090,#1091,#1092,#1093));
#230=EDGE_LOOP('',(#1094,#1095,#1096,#1097));
#231=EDGE_LOOP('',(#1098,#1099,#1100,#1101));
#232=EDGE_LOOP('',(#1102,#1103,#1104,#1105));
#233=EDGE_LOOP('',(#1106,#1107,#1108,#1109));
#234=EDGE_LOOP('',(#1110,#1111,#1112,#1113));
#235=EDGE_LOOP('',(#1114,#1115,#1116,#1117));
#236=EDGE_LOOP('',(#1118,#1119,#1120,#1121));
#237=EDGE_LOOP('',(#1122,#1123,#1124,#1125));
#238=EDGE_LOOP('',(#1126,#1127,#1128,#1129,#1130));
#239=EDGE_LOOP('',(#1131,#1132,#1133,#1134));
#240=EDGE_LOOP('',(#1135,#1136,#1137,#1138));
#241=EDGE_LOOP('',(#1139,#1140,#1141,#1142));
#242=EDGE_LOOP('',(#1143,#1144,#1145,#1146));
#243=EDGE_LOOP('',(#1147,#1148,#1149,#1150));
#244=EDGE_LOOP('',(#1151,#1152,#1153,#1154));
#245=EDGE_LOOP('',(#1155,#1156,#1157,#1158));
#246=EDGE_LOOP('',(#1159,#1160,#1161,#1162));
#247=EDGE_LOOP('',(#1163,#1164,#1165,#1166));
#248=EDGE_LOOP('',(#1167,#1168,#1169,#1170));
#249=EDGE_LOOP('',(#1171,#1172,#1173,#1174));
#250=EDGE_LOOP('',(#1175,#1176,#1177,#1178));
#251=EDGE_LOOP('',(#1179,#1180,#1181,#1182));
#252=EDGE_LOOP('',(#1183,#1184,#1185,#1186));
#253=EDGE_LOOP('',(#1187,#1188,#1189,#1190));
#254=EDGE_LOOP('',(#1191,#1192,#1193,#1194));
#255=EDGE_LOOP('',(#1195,#1196,#1197,#1198));
#256=EDGE_LOOP('',(#1199,#1200,#1201,#1202));
#257=EDGE_LOOP('',(#1203,#1204,#1205,#1206));
#258=EDGE_LOOP('',(#1207,#1208,#1209,#1210));
#259=EDGE_LOOP('',(#1211,#1212,#1213,#1214));
#260=EDGE_LOOP('',(#1215));
#261=EDGE_LOOP('',(#1216));
#262=EDGE_LOOP('',(#1217));
#263=EDGE_LOOP('',(#1218));
#264=EDGE_LOOP('',(#1219));
#265=EDGE_LOOP('',(#1220));
#266=EDGE_LOOP('',(#1221));
#267=EDGE_LOOP('',(#1222));
#268=EDGE_LOOP('',(#1223));
#269=EDGE_LOOP('',(#1224));
#270=EDGE_LOOP('',(#1225));
#271=EDGE_LOOP('',(#1226));
#272=EDGE_LOOP('',(#1227));
#273=EDGE_LOOP('',(#1228));
#274=EDGE_LOOP('',(#1229));
#275=EDGE_LOOP('',(#1230));
#276=EDGE_LOOP('',(#1231));
#277=EDGE_LOOP('',(#1232));
#278=EDGE_LOOP('',(#1233));
#279=EDGE_LOOP('',(#1234));
#280=EDGE_LOOP('',(#1235));
#281=EDGE_LOOP('',(#1236));
#282=EDGE_LOOP('',(#1237));
#283=EDGE_LOOP('',(#1238));
#284=EDGE_LOOP('',(#1239));
#285=EDGE_LOOP('',(#1240));
#286=EDGE_LOOP('',(#1241));
#287=EDGE_LOOP('',(#1242));
#288=EDGE_LOOP('',(#1243));
#289=EDGE_LOOP('',(#1244));
#290=EDGE_LOOP('',(#1245));
#291=EDGE_LOOP('',(#1246));
#292=EDGE_LOOP('',(#1247));
#293=EDGE_LOOP('',(#1248));
#294=EDGE_LOOP('',(#1249));
#295=EDGE_LOOP('',(#1250));
#296=EDGE_LOOP('',(#1251));
#297=EDGE_LOOP('',(#1252));
#298=EDGE_LOOP('',(#1253));
#299=EDGE_LOOP('',(#1254));
#300=EDGE_LOOP('',(#1255));
#301=EDGE_LOOP('',(#1256));
#302=EDGE_LOOP('',(#1257));
#303=EDGE_LOOP('',(#1258));
#304=EDGE_LOOP('',(#1259));
#305=EDGE_LOOP('',(#1260));
#306=EDGE_LOOP('',(#1261));
#307=EDGE_LOOP('',(#1262));
#308=EDGE_LOOP('',(#1263));
#309=EDGE_LOOP('',(#1264));
#310=EDGE_LOOP('',(#1265,#1266,#1267,#1268));
#311=EDGE_LOOP('',(#1269,#1270,#1271,#1272));
#312=EDGE_LOOP('',(#1273));
#313=EDGE_LOOP('',(#1274));
#314=EDGE_LOOP('',(#1275));
#315=EDGE_LOOP('',(#1276));
#316=EDGE_LOOP('',(#1277));
#317=EDGE_LOOP('',(#1278,#1279,#1280,#1281));
#318=EDGE_LOOP('',(#1282));
#319=EDGE_LOOP('',(#1283));
#320=EDGE_LOOP('',(#1284));
#321=EDGE_LOOP('',(#1285));
#322=EDGE_LOOP('',(#1286));
#323=EDGE_LOOP('',(#1287));
#324=EDGE_LOOP('',(#1288));
#325=EDGE_LOOP('',(#1289));
#326=EDGE_LOOP('',(#1290));
#327=EDGE_LOOP('',(#1291));
#328=EDGE_LOOP('',(#1292));
#329=EDGE_LOOP('',(#1293));
#330=EDGE_LOOP('',(#1294));
#331=EDGE_LOOP('',(#1295));
#332=EDGE_LOOP('',(#1296));
#333=EDGE_LOOP('',(#1297));
#334=EDGE_LOOP('',(#1298));
#335=EDGE_LOOP('',(#1299));
#336=EDGE_LOOP('',(#1300));
#337=EDGE_LOOP('',(#1301));
#338=EDGE_LOOP('',(#1302));
#339=EDGE_LOOP('',(#1303));
#340=EDGE_LOOP('',(#1304));
#341=EDGE_LOOP('',(#1305));
#342=EDGE_LOOP('',(#1306));
#343=EDGE_LOOP('',(#1307));
#344=EDGE_LOOP('',(#1308));
#345=EDGE_LOOP('',(#1309));
#346=EDGE_LOOP('',(#1310));
#347=EDGE_LOOP('',(#1311));
#348=EDGE_LOOP('',(#1312));
#349=EDGE_LOOP('',(#1313));
#350=EDGE_LOOP('',(#1314));
#351=EDGE_LOOP('',(#1315));
#352=EDGE_LOOP('',(#1316));
#353=EDGE_LOOP('',(#1317));
#354=EDGE_LOOP('',(#1318));
#355=EDGE_LOOP('',(#1319));
#356=EDGE_LOOP('',(#1320,#1321,#1322,#1323));
#357=EDGE_LOOP('',(#1324));
#358=EDGE_LOOP('',(#1325));
#359=EDGE_LOOP('',(#1326));
#360=EDGE_LOOP('',(#1327));
#361=EDGE_LOOP('',(#1328));
#362=EDGE_LOOP('',(#1329,#1330,#1331,#1332));
#363=EDGE_LOOP('',(#1333,#1334,#1335,#1336));
#364=EDGE_LOOP('',(#1337,#1338,#1339,#1340));
#365=LINE('',#2100,#447);
#366=LINE('',#2106,#448);
#367=LINE('',#2112,#449);
#368=LINE('',#2118,#450);
#369=LINE('',#2124,#451);
#370=LINE('',#2130,#452);
#371=LINE('',#2136,#453);
#372=LINE('',#2142,#454);
#373=LINE('',#2148,#455);
#374=LINE('',#2154,#456);
#375=LINE('',#2159,#457);
#376=LINE('',#2163,#458);
#377=LINE('',#2167,#459);
#378=LINE('',#2170,#460);
#379=LINE('',#2174,#461);
#380=LINE('',#2178,#462);
#381=LINE('',#2181,#463);
#382=LINE('',#2183,#464);
#383=LINE('',#2185,#465);
#384=LINE('',#2187,#466);
#385=LINE('',#2191,#467);
#386=LINE('',#2195,#468);
#387=LINE('',#2199,#469);
#388=LINE('',#2202,#470);
#389=LINE('',#2206,#471);
#390=LINE('',#2210,#472);
#391=LINE('',#2213,#473);
#392=LINE('',#2215,#474);
#393=LINE('',#2217,#475);
#394=LINE('',#2219,#476);
#395=LINE('',#2224,#477);
#396=LINE('',#2230,#478);
#397=LINE('',#2236,#479);
#398=LINE('',#2242,#480);
#399=LINE('',#2248,#481);
#400=LINE('',#2254,#482);
#401=LINE('',#2260,#483);
#402=LINE('',#2266,#484);
#403=LINE('',#2272,#485);
#404=LINE('',#2278,#486);
#405=LINE('',#2282,#487);
#406=LINE('',#2288,#488);
#407=LINE('',#2294,#489);
#408=LINE('',#2300,#490);
#409=LINE('',#2306,#491);
#410=LINE('',#2312,#492);
#411=LINE('',#2318,#493);
#412=LINE('',#2324,#494);
#413=LINE('',#2330,#495);
#414=LINE('',#2334,#496);
#415=LINE('',#2340,#497);
#416=LINE('',#2346,#498);
#417=LINE('',#2352,#499);
#418=LINE('',#2358,#500);
#419=LINE('',#2364,#501);
#420=LINE('',#2370,#502);
#421=LINE('',#2376,#503);
#422=LINE('',#2382,#504);
#423=LINE('',#2388,#505);
#424=LINE('',#2394,#506);
#425=LINE('',#2400,#507);
#426=LINE('',#2406,#508);
#427=LINE('',#2412,#509);
#428=LINE('',#2418,#510);
#429=LINE('',#2424,#511);
#430=LINE('',#2430,#512);
#431=LINE('',#2436,#513);
#432=LINE('',#2442,#514);
#433=LINE('',#2448,#515);
#434=LINE('',#2454,#516);
#435=LINE('',#2459,#517);
#436=LINE('',#2461,#518);
#437=LINE('',#2463,#519);
#438=LINE('',#2464,#520);
#439=LINE('',#2467,#521);
#440=LINE('',#2469,#522);
#441=LINE('',#2470,#523);
#442=LINE('',#2473,#524);
#443=LINE('',#2475,#525);
#444=LINE('',#2476,#526);
#445=LINE('',#2478,#527);
#446=LINE('',#2479,#528);
#447=VECTOR('',#1661,0.225);
#448=VECTOR('',#1668,0.225);
#449=VECTOR('',#1675,0.225);
#450=VECTOR('',#1682,0.225);
#451=VECTOR('',#1689,0.225);
#452=VECTOR('',#1696,0.225);
#453=VECTOR('',#1703,0.225);
#454=VECTOR('',#1710,0.225);
#455=VECTOR('',#1717,0.225);
#456=VECTOR('',#1724,0.225);
#457=VECTOR('',#1729,1.);
#458=VECTOR('',#1732,1.);
#459=VECTOR('',#1737,1.);
#460=VECTOR('',#1740,1.);
#461=VECTOR('',#1743,1.);
#462=VECTOR('',#1746,1.);
#463=VECTOR('',#1751,1.);
#464=VECTOR('',#1754,1.);
#465=VECTOR('',#1757,1.);
#466=VECTOR('',#1760,1.);
#467=VECTOR('',#1763,1.);
#468=VECTOR('',#1766,1.);
#469=VECTOR('',#1771,1.);
#470=VECTOR('',#1774,1.);
#471=VECTOR('',#1777,1.);
#472=VECTOR('',#1780,1.);
#473=VECTOR('',#1785,1.);
#474=VECTOR('',#1788,1.);
#475=VECTOR('',#1791,1.);
#476=VECTOR('',#1794,1.);
#477=VECTOR('',#1799,0.225);
#478=VECTOR('',#1806,0.225);
#479=VECTOR('',#1813,0.225);
#480=VECTOR('',#1820,0.225);
#481=VECTOR('',#1827,0.225);
#482=VECTOR('',#1834,0.225);
#483=VECTOR('',#1841,0.225);
#484=VECTOR('',#1848,0.225);
#485=VECTOR('',#1855,0.225);
#486=VECTOR('',#1862,0.225);
#487=VECTOR('',#1867,0.225);
#488=VECTOR('',#1874,0.225);
#489=VECTOR('',#1881,0.225);
#490=VECTOR('',#1888,0.225);
#491=VECTOR('',#1895,0.225);
#492=VECTOR('',#1902,0.225);
#493=VECTOR('',#1909,0.225);
#494=VECTOR('',#1916,0.225);
#495=VECTOR('',#1923,0.225);
#496=VECTOR('',#1928,0.225);
#497=VECTOR('',#1935,0.225);
#498=VECTOR('',#1942,0.225);
#499=VECTOR('',#1949,0.225);
#500=VECTOR('',#1956,0.225);
#501=VECTOR('',#1963,0.225);
#502=VECTOR('',#1970,0.225);
#503=VECTOR('',#1977,0.225);
#504=VECTOR('',#1984,0.225);
#505=VECTOR('',#1991,0.225);
#506=VECTOR('',#1998,0.225);
#507=VECTOR('',#2005,0.225);
#508=VECTOR('',#2012,0.225);
#509=VECTOR('',#2019,0.225);
#510=VECTOR('',#2026,0.225);
#511=VECTOR('',#2033,0.225);
#512=VECTOR('',#2040,0.225);
#513=VECTOR('',#2047,0.225);
#514=VECTOR('',#2054,0.225);
#515=VECTOR('',#2061,0.225);
#516=VECTOR('',#2068,0.225);
#517=VECTOR('',#2073,1.);
#518=VECTOR('',#2074,1.);
#519=VECTOR('',#2075,1.);
#520=VECTOR('',#2076,1.);
#521=VECTOR('',#2079,1.);
#522=VECTOR('',#2080,1.);
#523=VECTOR('',#2081,1.);
#524=VECTOR('',#2084,1.);
#525=VECTOR('',#2085,1.);
#526=VECTOR('',#2086,1.);
#527=VECTOR('',#2089,1.);
#528=VECTOR('',#2090,1.);
#529=CIRCLE('',#1478,0.225);
#530=CIRCLE('',#1479,0.225);
#531=CIRCLE('',#1481,0.225);
#532=CIRCLE('',#1482,0.225);
#533=CIRCLE('',#1484,0.225);
#534=CIRCLE('',#1485,0.225);
#535=CIRCLE('',#1487,0.225);
#536=CIRCLE('',#1488,0.225);
#537=CIRCLE('',#1490,0.225);
#538=CIRCLE('',#1491,0.225);
#539=CIRCLE('',#1493,0.225);
#540=CIRCLE('',#1494,0.225);
#541=CIRCLE('',#1496,0.225);
#542=CIRCLE('',#1497,0.225);
#543=CIRCLE('',#1499,0.225);
#544=CIRCLE('',#1500,0.225);
#545=CIRCLE('',#1502,0.225);
#546=CIRCLE('',#1503,0.225);
#547=CIRCLE('',#1505,0.225);
#548=CIRCLE('',#1506,0.225);
#549=CIRCLE('',#1508,0.225);
#550=CIRCLE('',#1509,0.225);
#551=CIRCLE('',#1511,0.225);
#552=CIRCLE('',#1513,0.225);
#553=CIRCLE('',#1514,0.225);
#554=CIRCLE('',#1516,0.225);
#555=CIRCLE('',#1520,0.225);
#556=CIRCLE('',#1521,0.225);
#557=CIRCLE('',#1523,0.225);
#558=CIRCLE('',#1525,0.225);
#559=CIRCLE('',#1526,0.225);
#560=CIRCLE('',#1528,0.225);
#561=CIRCLE('',#1532,0.225);
#562=CIRCLE('',#1533,0.225);
#563=CIRCLE('',#1535,0.225);
#564=CIRCLE('',#1536,0.225);
#565=CIRCLE('',#1538,0.225);
#566=CIRCLE('',#1539,0.225);
#567=CIRCLE('',#1541,0.225);
#568=CIRCLE('',#1542,0.225);
#569=CIRCLE('',#1544,0.225);
#570=CIRCLE('',#1545,0.225);
#571=CIRCLE('',#1547,0.225);
#572=CIRCLE('',#1548,0.225);
#573=CIRCLE('',#1550,0.225);
#574=CIRCLE('',#1551,0.225);
#575=CIRCLE('',#1553,0.225);
#576=CIRCLE('',#1554,0.225);
#577=CIRCLE('',#1556,0.225);
#578=CIRCLE('',#1557,0.225);
#579=CIRCLE('',#1559,0.225);
#580=CIRCLE('',#1560,0.225);
#581=CIRCLE('',#1562,0.225);
#582=CIRCLE('',#1564,0.225);
#583=CIRCLE('',#1565,0.225);
#584=CIRCLE('',#1567,0.225);
#585=CIRCLE('',#1568,0.225);
#586=CIRCLE('',#1570,0.225);
#587=CIRCLE('',#1571,0.225);
#588=CIRCLE('',#1573,0.225);
#589=CIRCLE('',#1574,0.225);
#590=CIRCLE('',#1576,0.225);
#591=CIRCLE('',#1577,0.225);
#592=CIRCLE('',#1579,0.225);
#593=CIRCLE('',#1580,0.225);
#594=CIRCLE('',#1582,0.225);
#595=CIRCLE('',#1583,0.225);
#596=CIRCLE('',#1585,0.225);
#597=CIRCLE('',#1586,0.225);
#598=CIRCLE('',#1588,0.225);
#599=CIRCLE('',#1590,0.225);
#600=CIRCLE('',#1591,0.225);
#601=CIRCLE('',#1593,0.225);
#602=CIRCLE('',#1594,0.225);
#603=CIRCLE('',#1596,0.225);
#604=CIRCLE('',#1597,0.225);
#605=CIRCLE('',#1599,0.225);
#606=CIRCLE('',#1600,0.225);
#607=CIRCLE('',#1602,0.225);
#608=CIRCLE('',#1603,0.225);
#609=CIRCLE('',#1605,0.225);
#610=CIRCLE('',#1606,0.225);
#611=CIRCLE('',#1608,0.225);
#612=CIRCLE('',#1609,0.225);
#613=CIRCLE('',#1611,0.225);
#614=CIRCLE('',#1612,0.225);
#615=CIRCLE('',#1614,0.225);
#616=CIRCLE('',#1615,0.225);
#617=CIRCLE('',#1617,0.225);
#618=CIRCLE('',#1618,0.225);
#619=CIRCLE('',#1620,0.225);
#620=CIRCLE('',#1621,0.225);
#621=CIRCLE('',#1623,0.225);
#622=CIRCLE('',#1624,0.225);
#623=CIRCLE('',#1626,0.225);
#624=CIRCLE('',#1627,0.225);
#625=CIRCLE('',#1629,0.225);
#626=CIRCLE('',#1630,0.225);
#627=CIRCLE('',#1632,0.225);
#628=CIRCLE('',#1633,0.225);
#629=CIRCLE('',#1635,0.225);
#630=CIRCLE('',#1636,0.225);
#631=CIRCLE('',#1638,0.225);
#632=CIRCLE('',#1639,0.225);
#633=CIRCLE('',#1641,0.225);
#634=CIRCLE('',#1642,0.225);
#635=CIRCLE('',#1644,0.225);
#636=CIRCLE('',#1645,0.225);
#637=CIRCLE('',#1647,0.225);
#638=CIRCLE('',#1648,0.225);
#639=VERTEX_POINT('',#2097);
#640=VERTEX_POINT('',#2099);
#641=VERTEX_POINT('',#2103);
#642=VERTEX_POINT('',#2105);
#643=VERTEX_POINT('',#2109);
#644=VERTEX_POINT('',#2111);
#645=VERTEX_POINT('',#2115);
#646=VERTEX_POINT('',#2117);
#647=VERTEX_POINT('',#2121);
#648=VERTEX_POINT('',#2123);
#649=VERTEX_POINT('',#2127);
#650=VERTEX_POINT('',#2129);
#651=VERTEX_POINT('',#2133);
#652=VERTEX_POINT('',#2135);
#653=VERTEX_POINT('',#2139);
#654=VERTEX_POINT('',#2141);
#655=VERTEX_POINT('',#2145);
#656=VERTEX_POINT('',#2147);
#657=VERTEX_POINT('',#2151);
#658=VERTEX_POINT('',#2153);
#659=VERTEX_POINT('',#2157);
#660=VERTEX_POINT('',#2158);
#661=VERTEX_POINT('',#2160);
#662=VERTEX_POINT('',#2162);
#663=VERTEX_POINT('',#2166);
#664=VERTEX_POINT('',#2168);
#665=VERTEX_POINT('',#2172);
#666=VERTEX_POINT('',#2173);
#667=VERTEX_POINT('',#2175);
#668=VERTEX_POINT('',#2177);
#669=VERTEX_POINT('',#2189);
#670=VERTEX_POINT('',#2190);
#671=VERTEX_POINT('',#2192);
#672=VERTEX_POINT('',#2194);
#673=VERTEX_POINT('',#2198);
#674=VERTEX_POINT('',#2200);
#675=VERTEX_POINT('',#2204);
#676=VERTEX_POINT('',#2205);
#677=VERTEX_POINT('',#2207);
#678=VERTEX_POINT('',#2209);
#679=VERTEX_POINT('',#2221);
#680=VERTEX_POINT('',#2223);
#681=VERTEX_POINT('',#2227);
#682=VERTEX_POINT('',#2229);
#683=VERTEX_POINT('',#2233);
#684=VERTEX_POINT('',#2235);
#685=VERTEX_POINT('',#2239);
#686=VERTEX_POINT('',#2241);
#687=VERTEX_POINT('',#2245);
#688=VERTEX_POINT('',#2247);
#689=VERTEX_POINT('',#2251);
#690=VERTEX_POINT('',#2253);
#691=VERTEX_POINT('',#2257);
#692=VERTEX_POINT('',#2259);
#693=VERTEX_POINT('',#2263);
#694=VERTEX_POINT('',#2265);
#695=VERTEX_POINT('',#2269);
#696=VERTEX_POINT('',#2271);
#697=VERTEX_POINT('',#2275);
#698=VERTEX_POINT('',#2277);
#699=VERTEX_POINT('',#2281);
#700=VERTEX_POINT('',#2285);
#701=VERTEX_POINT('',#2287);
#702=VERTEX_POINT('',#2291);
#703=VERTEX_POINT('',#2293);
#704=VERTEX_POINT('',#2297);
#705=VERTEX_POINT('',#2299);
#706=VERTEX_POINT('',#2303);
#707=VERTEX_POINT('',#2305);
#708=VERTEX_POINT('',#2309);
#709=VERTEX_POINT('',#2311);
#710=VERTEX_POINT('',#2315);
#711=VERTEX_POINT('',#2317);
#712=VERTEX_POINT('',#2321);
#713=VERTEX_POINT('',#2323);
#714=VERTEX_POINT('',#2327);
#715=VERTEX_POINT('',#2329);
#716=VERTEX_POINT('',#2333);
#717=VERTEX_POINT('',#2337);
#718=VERTEX_POINT('',#2339);
#719=VERTEX_POINT('',#2343);
#720=VERTEX_POINT('',#2345);
#721=VERTEX_POINT('',#2349);
#722=VERTEX_POINT('',#2351);
#723=VERTEX_POINT('',#2355);
#724=VERTEX_POINT('',#2357);
#725=VERTEX_POINT('',#2361);
#726=VERTEX_POINT('',#2363);
#727=VERTEX_POINT('',#2367);
#728=VERTEX_POINT('',#2369);
#729=VERTEX_POINT('',#2373);
#730=VERTEX_POINT('',#2375);
#731=VERTEX_POINT('',#2379);
#732=VERTEX_POINT('',#2381);
#733=VERTEX_POINT('',#2385);
#734=VERTEX_POINT('',#2387);
#735=VERTEX_POINT('',#2391);
#736=VERTEX_POINT('',#2393);
#737=VERTEX_POINT('',#2397);
#738=VERTEX_POINT('',#2399);
#739=VERTEX_POINT('',#2403);
#740=VERTEX_POINT('',#2405);
#741=VERTEX_POINT('',#2409);
#742=VERTEX_POINT('',#2411);
#743=VERTEX_POINT('',#2415);
#744=VERTEX_POINT('',#2417);
#745=VERTEX_POINT('',#2421);
#746=VERTEX_POINT('',#2423);
#747=VERTEX_POINT('',#2427);
#748=VERTEX_POINT('',#2429);
#749=VERTEX_POINT('',#2433);
#750=VERTEX_POINT('',#2435);
#751=VERTEX_POINT('',#2439);
#752=VERTEX_POINT('',#2441);
#753=VERTEX_POINT('',#2445);
#754=VERTEX_POINT('',#2447);
#755=VERTEX_POINT('',#2451);
#756=VERTEX_POINT('',#2453);
#757=VERTEX_POINT('',#2457);
#758=VERTEX_POINT('',#2458);
#759=VERTEX_POINT('',#2460);
#760=VERTEX_POINT('',#2462);
#761=VERTEX_POINT('',#2466);
#762=VERTEX_POINT('',#2468);
#763=VERTEX_POINT('',#2472);
#764=VERTEX_POINT('',#2474);
#765=EDGE_CURVE('',#639,#639,#529,.T.);
#766=EDGE_CURVE('',#639,#640,#365,.T.);
#767=EDGE_CURVE('',#640,#640,#530,.T.);
#768=EDGE_CURVE('',#641,#641,#531,.T.);
#769=EDGE_CURVE('',#641,#642,#366,.T.);
#770=EDGE_CURVE('',#642,#642,#532,.T.);
#771=EDGE_CURVE('',#643,#643,#533,.T.);
#772=EDGE_CURVE('',#643,#644,#367,.T.);
#773=EDGE_CURVE('',#644,#644,#534,.T.);
#774=EDGE_CURVE('',#645,#645,#535,.T.);
#775=EDGE_CURVE('',#645,#646,#368,.T.);
#776=EDGE_CURVE('',#646,#646,#536,.T.);
#777=EDGE_CURVE('',#647,#647,#537,.T.);
#778=EDGE_CURVE('',#647,#648,#369,.T.);
#779=EDGE_CURVE('',#648,#648,#538,.T.);
#780=EDGE_CURVE('',#649,#649,#539,.T.);
#781=EDGE_CURVE('',#649,#650,#370,.T.);
#782=EDGE_CURVE('',#650,#650,#540,.T.);
#783=EDGE_CURVE('',#651,#651,#541,.T.);
#784=EDGE_CURVE('',#651,#652,#371,.T.);
#785=EDGE_CURVE('',#652,#652,#542,.T.);
#786=EDGE_CURVE('',#653,#653,#543,.T.);
#787=EDGE_CURVE('',#653,#654,#372,.T.);
#788=EDGE_CURVE('',#654,#654,#544,.T.);
#789=EDGE_CURVE('',#655,#655,#545,.T.);
#790=EDGE_CURVE('',#655,#656,#373,.T.);
#791=EDGE_CURVE('',#656,#656,#546,.T.);
#792=EDGE_CURVE('',#657,#657,#547,.T.);
#793=EDGE_CURVE('',#657,#658,#374,.T.);
#794=EDGE_CURVE('',#658,#658,#548,.T.);
#795=EDGE_CURVE('',#659,#660,#375,.T.);
#796=EDGE_CURVE('',#661,#659,#549,.T.);
#797=EDGE_CURVE('',#661,#662,#376,.T.);
#798=EDGE_CURVE('',#662,#660,#550,.T.);
#799=EDGE_CURVE('',#663,#662,#377,.T.);
#800=EDGE_CURVE('',#664,#663,#551,.T.);
#801=EDGE_CURVE('',#660,#664,#378,.T.);
#802=EDGE_CURVE('',#665,#666,#379,.T.);
#803=EDGE_CURVE('',#667,#665,#552,.T.);
#804=EDGE_CURVE('',#667,#668,#380,.T.);
#805=EDGE_CURVE('',#668,#666,#553,.T.);
#806=EDGE_CURVE('',#664,#668,#381,.T.);
#807=EDGE_CURVE('',#663,#664,#554,.T.);
#808=EDGE_CURVE('',#666,#663,#382,.T.);
#809=EDGE_CURVE('',#659,#667,#383,.T.);
#810=EDGE_CURVE('',#665,#661,#384,.T.);
#811=EDGE_CURVE('',#669,#670,#385,.T.);
#812=EDGE_CURVE('',#671,#669,#555,.T.);
#813=EDGE_CURVE('',#671,#672,#386,.T.);
#814=EDGE_CURVE('',#672,#670,#556,.T.);
#815=EDGE_CURVE('',#673,#672,#387,.T.);
#816=EDGE_CURVE('',#674,#673,#557,.T.);
#817=EDGE_CURVE('',#670,#674,#388,.T.);
#818=EDGE_CURVE('',#675,#676,#389,.T.);
#819=EDGE_CURVE('',#677,#675,#558,.T.);
#820=EDGE_CURVE('',#677,#678,#390,.T.);
#821=EDGE_CURVE('',#678,#676,#559,.T.);
#822=EDGE_CURVE('',#674,#678,#391,.T.);
#823=EDGE_CURVE('',#673,#674,#560,.T.);
#824=EDGE_CURVE('',#676,#673,#392,.T.);
#825=EDGE_CURVE('',#669,#677,#393,.T.);
#826=EDGE_CURVE('',#675,#671,#394,.T.);
#827=EDGE_CURVE('',#679,#679,#561,.T.);
#828=EDGE_CURVE('',#679,#680,#395,.T.);
#829=EDGE_CURVE('',#680,#680,#562,.T.);
#830=EDGE_CURVE('',#681,#681,#563,.T.);
#831=EDGE_CURVE('',#681,#682,#396,.T.);
#832=EDGE_CURVE('',#682,#682,#564,.T.);
#833=EDGE_CURVE('',#683,#683,#565,.T.);
#834=EDGE_CURVE('',#683,#684,#397,.T.);
#835=EDGE_CURVE('',#684,#684,#566,.T.);
#836=EDGE_CURVE('',#685,#685,#567,.T.);
#837=EDGE_CURVE('',#685,#686,#398,.T.);
#838=EDGE_CURVE('',#686,#686,#568,.T.);
#839=EDGE_CURVE('',#687,#687,#569,.T.);
#840=EDGE_CURVE('',#687,#688,#399,.T.);
#841=EDGE_CURVE('',#688,#688,#570,.T.);
#842=EDGE_CURVE('',#689,#689,#571,.T.);
#843=EDGE_CURVE('',#689,#690,#400,.T.);
#844=EDGE_CURVE('',#690,#690,#572,.T.);
#845=EDGE_CURVE('',#691,#691,#573,.T.);
#846=EDGE_CURVE('',#691,#692,#401,.T.);
#847=EDGE_CURVE('',#692,#692,#574,.T.);
#848=EDGE_CURVE('',#693,#693,#575,.T.);
#849=EDGE_CURVE('',#693,#694,#402,.T.);
#850=EDGE_CURVE('',#694,#694,#576,.T.);
#851=EDGE_CURVE('',#695,#695,#577,.T.);
#852=EDGE_CURVE('',#695,#696,#403,.T.);
#853=EDGE_CURVE('',#696,#696,#578,.T.);
#854=EDGE_CURVE('',#697,#697,#579,.T.);
#855=EDGE_CURVE('',#697,#698,#404,.T.);
#856=EDGE_CURVE('',#698,#698,#580,.T.);
#857=EDGE_CURVE('',#663,#699,#405,.T.);
#858=EDGE_CURVE('',#699,#699,#581,.T.);
#859=EDGE_CURVE('',#700,#700,#582,.T.);
#860=EDGE_CURVE('',#700,#701,#406,.T.);
#861=EDGE_CURVE('',#701,#701,#583,.T.);
#862=EDGE_CURVE('',#702,#702,#584,.T.);
#863=EDGE_CURVE('',#702,#703,#407,.T.);
#864=EDGE_CURVE('',#703,#703,#585,.T.);
#865=EDGE_CURVE('',#704,#704,#586,.T.);
#866=EDGE_CURVE('',#704,#705,#408,.T.);
#867=EDGE_CURVE('',#705,#705,#587,.T.);
#868=EDGE_CURVE('',#706,#706,#588,.T.);
#869=EDGE_CURVE('',#706,#707,#409,.T.);
#870=EDGE_CURVE('',#707,#707,#589,.T.);
#871=EDGE_CURVE('',#708,#708,#590,.T.);
#872=EDGE_CURVE('',#708,#709,#410,.T.);
#873=EDGE_CURVE('',#709,#709,#591,.T.);
#874=EDGE_CURVE('',#710,#710,#592,.T.);
#875=EDGE_CURVE('',#710,#711,#411,.T.);
#876=EDGE_CURVE('',#711,#711,#593,.T.);
#877=EDGE_CURVE('',#712,#712,#594,.T.);
#878=EDGE_CURVE('',#712,#713,#412,.T.);
#879=EDGE_CURVE('',#713,#713,#595,.T.);
#880=EDGE_CURVE('',#714,#714,#596,.T.);
#881=EDGE_CURVE('',#714,#715,#413,.T.);
#882=EDGE_CURVE('',#715,#715,#597,.T.);
#883=EDGE_CURVE('',#673,#716,#414,.T.);
#884=EDGE_CURVE('',#716,#716,#598,.T.);
#885=EDGE_CURVE('',#717,#717,#599,.T.);
#886=EDGE_CURVE('',#717,#718,#415,.T.);
#887=EDGE_CURVE('',#718,#718,#600,.T.);
#888=EDGE_CURVE('',#719,#719,#601,.T.);
#889=EDGE_CURVE('',#719,#720,#416,.T.);
#890=EDGE_CURVE('',#720,#720,#602,.T.);
#891=EDGE_CURVE('',#721,#721,#603,.T.);
#892=EDGE_CURVE('',#721,#722,#417,.T.);
#893=EDGE_CURVE('',#722,#722,#604,.T.);
#894=EDGE_CURVE('',#723,#723,#605,.T.);
#895=EDGE_CURVE('',#723,#724,#418,.T.);
#896=EDGE_CURVE('',#724,#724,#606,.T.);
#897=EDGE_CURVE('',#725,#725,#607,.T.);
#898=EDGE_CURVE('',#725,#726,#419,.T.);
#899=EDGE_CURVE('',#726,#726,#608,.T.);
#900=EDGE_CURVE('',#727,#727,#609,.T.);
#901=EDGE_CURVE('',#727,#728,#420,.T.);
#902=EDGE_CURVE('',#728,#728,#610,.T.);
#903=EDGE_CURVE('',#729,#729,#611,.T.);
#904=EDGE_CURVE('',#729,#730,#421,.T.);
#905=EDGE_CURVE('',#730,#730,#612,.T.);
#906=EDGE_CURVE('',#731,#731,#613,.T.);
#907=EDGE_CURVE('',#731,#732,#422,.T.);
#908=EDGE_CURVE('',#732,#732,#614,.T.);
#909=EDGE_CURVE('',#733,#733,#615,.T.);
#910=EDGE_CURVE('',#733,#734,#423,.T.);
#911=EDGE_CURVE('',#734,#734,#616,.T.);
#912=EDGE_CURVE('',#735,#735,#617,.T.);
#913=EDGE_CURVE('',#735,#736,#424,.T.);
#914=EDGE_CURVE('',#736,#736,#618,.T.);
#915=EDGE_CURVE('',#737,#737,#619,.T.);
#916=EDGE_CURVE('',#737,#738,#425,.T.);
#917=EDGE_CURVE('',#738,#738,#620,.T.);
#918=EDGE_CURVE('',#739,#739,#621,.T.);
#919=EDGE_CURVE('',#739,#740,#426,.T.);
#920=EDGE_CURVE('',#740,#740,#622,.T.);
#921=EDGE_CURVE('',#741,#741,#623,.T.);
#922=EDGE_CURVE('',#741,#742,#427,.T.);
#923=EDGE_CURVE('',#742,#742,#624,.T.);
#924=EDGE_CURVE('',#743,#743,#625,.T.);
#925=EDGE_CURVE('',#743,#744,#428,.T.);
#926=EDGE_CURVE('',#744,#744,#626,.T.);
#927=EDGE_CURVE('',#745,#745,#627,.T.);
#928=EDGE_CURVE('',#745,#746,#429,.T.);
#929=EDGE_CURVE('',#746,#746,#628,.T.);
#930=EDGE_CURVE('',#747,#747,#629,.T.);
#931=EDGE_CURVE('',#747,#748,#430,.T.);
#932=EDGE_CURVE('',#748,#748,#630,.T.);
#933=EDGE_CURVE('',#749,#749,#631,.T.);
#934=EDGE_CURVE('',#749,#750,#431,.T.);
#935=EDGE_CURVE('',#750,#750,#632,.T.);
#936=EDGE_CURVE('',#751,#751,#633,.T.);
#937=EDGE_CURVE('',#751,#752,#432,.T.);
#938=EDGE_CURVE('',#752,#752,#634,.T.);
#939=EDGE_CURVE('',#753,#753,#635,.T.);
#940=EDGE_CURVE('',#753,#754,#433,.T.);
#941=EDGE_CURVE('',#754,#754,#636,.T.);
#942=EDGE_CURVE('',#755,#755,#637,.T.);
#943=EDGE_CURVE('',#755,#756,#434,.T.);
#944=EDGE_CURVE('',#756,#756,#638,.T.);
#945=EDGE_CURVE('',#757,#758,#435,.T.);
#946=EDGE_CURVE('',#758,#759,#436,.T.);
#947=EDGE_CURVE('',#760,#759,#437,.T.);
#948=EDGE_CURVE('',#757,#760,#438,.T.);
#949=EDGE_CURVE('',#761,#757,#439,.T.);
#950=EDGE_CURVE('',#762,#760,#440,.T.);
#951=EDGE_CURVE('',#761,#762,#441,.T.);
#952=EDGE_CURVE('',#763,#761,#442,.T.);
#953=EDGE_CURVE('',#764,#762,#443,.T.);
#954=EDGE_CURVE('',#763,#764,#444,.T.);
#955=EDGE_CURVE('',#758,#763,#445,.T.);
#956=EDGE_CURVE('',#759,#764,#446,.T.);
#957=ORIENTED_EDGE('',*,*,#765,.F.);
#958=ORIENTED_EDGE('',*,*,#766,.T.);
#959=ORIENTED_EDGE('',*,*,#767,.F.);
#960=ORIENTED_EDGE('',*,*,#766,.F.);
#961=ORIENTED_EDGE('',*,*,#768,.F.);
#962=ORIENTED_EDGE('',*,*,#769,.T.);
#963=ORIENTED_EDGE('',*,*,#770,.F.);
#964=ORIENTED_EDGE('',*,*,#769,.F.);
#965=ORIENTED_EDGE('',*,*,#771,.F.);
#966=ORIENTED_EDGE('',*,*,#772,.T.);
#967=ORIENTED_EDGE('',*,*,#773,.F.);
#968=ORIENTED_EDGE('',*,*,#772,.F.);
#969=ORIENTED_EDGE('',*,*,#774,.F.);
#970=ORIENTED_EDGE('',*,*,#775,.T.);
#971=ORIENTED_EDGE('',*,*,#776,.F.);
#972=ORIENTED_EDGE('',*,*,#775,.F.);
#973=ORIENTED_EDGE('',*,*,#777,.F.);
#974=ORIENTED_EDGE('',*,*,#778,.T.);
#975=ORIENTED_EDGE('',*,*,#779,.F.);
#976=ORIENTED_EDGE('',*,*,#778,.F.);
#977=ORIENTED_EDGE('',*,*,#780,.F.);
#978=ORIENTED_EDGE('',*,*,#781,.T.);
#979=ORIENTED_EDGE('',*,*,#782,.F.);
#980=ORIENTED_EDGE('',*,*,#781,.F.);
#981=ORIENTED_EDGE('',*,*,#783,.F.);
#982=ORIENTED_EDGE('',*,*,#784,.T.);
#983=ORIENTED_EDGE('',*,*,#785,.F.);
#984=ORIENTED_EDGE('',*,*,#784,.F.);
#985=ORIENTED_EDGE('',*,*,#786,.F.);
#986=ORIENTED_EDGE('',*,*,#787,.T.);
#987=ORIENTED_EDGE('',*,*,#788,.F.);
#988=ORIENTED_EDGE('',*,*,#787,.F.);
#989=ORIENTED_EDGE('',*,*,#789,.F.);
#990=ORIENTED_EDGE('',*,*,#790,.T.);
#991=ORIENTED_EDGE('',*,*,#791,.F.);
#992=ORIENTED_EDGE('',*,*,#790,.F.);
#993=ORIENTED_EDGE('',*,*,#792,.F.);
#994=ORIENTED_EDGE('',*,*,#793,.T.);
#995=ORIENTED_EDGE('',*,*,#794,.F.);
#996=ORIENTED_EDGE('',*,*,#793,.F.);
#997=ORIENTED_EDGE('',*,*,#795,.F.);
#998=ORIENTED_EDGE('',*,*,#796,.F.);
#999=ORIENTED_EDGE('',*,*,#797,.T.);
#1000=ORIENTED_EDGE('',*,*,#798,.T.);
#1001=ORIENTED_EDGE('',*,*,#799,.F.);
#1002=ORIENTED_EDGE('',*,*,#800,.F.);
#1003=ORIENTED_EDGE('',*,*,#801,.F.);
#1004=ORIENTED_EDGE('',*,*,#798,.F.);
#1005=ORIENTED_EDGE('',*,*,#802,.F.);
#1006=ORIENTED_EDGE('',*,*,#803,.F.);
#1007=ORIENTED_EDGE('',*,*,#804,.T.);
#1008=ORIENTED_EDGE('',*,*,#805,.T.);
#1009=ORIENTED_EDGE('',*,*,#806,.F.);
#1010=ORIENTED_EDGE('',*,*,#807,.F.);
#1011=ORIENTED_EDGE('',*,*,#808,.F.);
#1012=ORIENTED_EDGE('',*,*,#805,.F.);
#1013=ORIENTED_EDGE('',*,*,#809,.F.);
#1014=ORIENTED_EDGE('',*,*,#795,.T.);
#1015=ORIENTED_EDGE('',*,*,#801,.T.);
#1016=ORIENTED_EDGE('',*,*,#806,.T.);
#1017=ORIENTED_EDGE('',*,*,#804,.F.);
#1018=ORIENTED_EDGE('',*,*,#810,.F.);
#1019=ORIENTED_EDGE('',*,*,#802,.T.);
#1020=ORIENTED_EDGE('',*,*,#808,.T.);
#1021=ORIENTED_EDGE('',*,*,#799,.T.);
#1022=ORIENTED_EDGE('',*,*,#797,.F.);
#1023=ORIENTED_EDGE('',*,*,#811,.F.);
#1024=ORIENTED_EDGE('',*,*,#812,.F.);
#1025=ORIENTED_EDGE('',*,*,#813,.T.);
#1026=ORIENTED_EDGE('',*,*,#814,.T.);
#1027=ORIENTED_EDGE('',*,*,#815,.F.);
#1028=ORIENTED_EDGE('',*,*,#816,.F.);
#1029=ORIENTED_EDGE('',*,*,#817,.F.);
#1030=ORIENTED_EDGE('',*,*,#814,.F.);
#1031=ORIENTED_EDGE('',*,*,#818,.F.);
#1032=ORIENTED_EDGE('',*,*,#819,.F.);
#1033=ORIENTED_EDGE('',*,*,#820,.T.);
#1034=ORIENTED_EDGE('',*,*,#821,.T.);
#1035=ORIENTED_EDGE('',*,*,#822,.F.);
#1036=ORIENTED_EDGE('',*,*,#823,.F.);
#1037=ORIENTED_EDGE('',*,*,#824,.F.);
#1038=ORIENTED_EDGE('',*,*,#821,.F.);
#1039=ORIENTED_EDGE('',*,*,#825,.F.);
#1040=ORIENTED_EDGE('',*,*,#811,.T.);
#1041=ORIENTED_EDGE('',*,*,#817,.T.);
#1042=ORIENTED_EDGE('',*,*,#822,.T.);
#1043=ORIENTED_EDGE('',*,*,#820,.F.);
#1044=ORIENTED_EDGE('',*,*,#826,.F.);
#1045=ORIENTED_EDGE('',*,*,#818,.T.);
#1046=ORIENTED_EDGE('',*,*,#824,.T.);
#1047=ORIENTED_EDGE('',*,*,#815,.T.);
#1048=ORIENTED_EDGE('',*,*,#813,.F.);
#1049=ORIENTED_EDGE('',*,*,#827,.F.);
#1050=ORIENTED_EDGE('',*,*,#828,.T.);
#1051=ORIENTED_EDGE('',*,*,#829,.F.);
#1052=ORIENTED_EDGE('',*,*,#828,.F.);
#1053=ORIENTED_EDGE('',*,*,#830,.F.);
#1054=ORIENTED_EDGE('',*,*,#831,.T.);
#1055=ORIENTED_EDGE('',*,*,#832,.F.);
#1056=ORIENTED_EDGE('',*,*,#831,.F.);
#1057=ORIENTED_EDGE('',*,*,#833,.F.);
#1058=ORIENTED_EDGE('',*,*,#834,.T.);
#1059=ORIENTED_EDGE('',*,*,#835,.F.);
#1060=ORIENTED_EDGE('',*,*,#834,.F.);
#1061=ORIENTED_EDGE('',*,*,#836,.F.);
#1062=ORIENTED_EDGE('',*,*,#837,.T.);
#1063=ORIENTED_EDGE('',*,*,#838,.F.);
#1064=ORIENTED_EDGE('',*,*,#837,.F.);
#1065=ORIENTED_EDGE('',*,*,#839,.F.);
#1066=ORIENTED_EDGE('',*,*,#840,.T.);
#1067=ORIENTED_EDGE('',*,*,#841,.F.);
#1068=ORIENTED_EDGE('',*,*,#840,.F.);
#1069=ORIENTED_EDGE('',*,*,#842,.F.);
#1070=ORIENTED_EDGE('',*,*,#843,.T.);
#1071=ORIENTED_EDGE('',*,*,#844,.F.);
#1072=ORIENTED_EDGE('',*,*,#843,.F.);
#1073=ORIENTED_EDGE('',*,*,#845,.F.);
#1074=ORIENTED_EDGE('',*,*,#846,.T.);
#1075=ORIENTED_EDGE('',*,*,#847,.F.);
#1076=ORIENTED_EDGE('',*,*,#846,.F.);
#1077=ORIENTED_EDGE('',*,*,#848,.F.);
#1078=ORIENTED_EDGE('',*,*,#849,.T.);
#1079=ORIENTED_EDGE('',*,*,#850,.F.);
#1080=ORIENTED_EDGE('',*,*,#849,.F.);
#1081=ORIENTED_EDGE('',*,*,#851,.F.);
#1082=ORIENTED_EDGE('',*,*,#852,.T.);
#1083=ORIENTED_EDGE('',*,*,#853,.F.);
#1084=ORIENTED_EDGE('',*,*,#852,.F.);
#1085=ORIENTED_EDGE('',*,*,#854,.F.);
#1086=ORIENTED_EDGE('',*,*,#855,.T.);
#1087=ORIENTED_EDGE('',*,*,#856,.F.);
#1088=ORIENTED_EDGE('',*,*,#855,.F.);
#1089=ORIENTED_EDGE('',*,*,#800,.T.);
#1090=ORIENTED_EDGE('',*,*,#857,.T.);
#1091=ORIENTED_EDGE('',*,*,#858,.F.);
#1092=ORIENTED_EDGE('',*,*,#857,.F.);
#1093=ORIENTED_EDGE('',*,*,#807,.T.);
#1094=ORIENTED_EDGE('',*,*,#859,.F.);
#1095=ORIENTED_EDGE('',*,*,#860,.T.);
#1096=ORIENTED_EDGE('',*,*,#861,.F.);
#1097=ORIENTED_EDGE('',*,*,#860,.F.);
#1098=ORIENTED_EDGE('',*,*,#862,.F.);
#1099=ORIENTED_EDGE('',*,*,#863,.T.);
#1100=ORIENTED_EDGE('',*,*,#864,.F.);
#1101=ORIENTED_EDGE('',*,*,#863,.F.);
#1102=ORIENTED_EDGE('',*,*,#865,.F.);
#1103=ORIENTED_EDGE('',*,*,#866,.T.);
#1104=ORIENTED_EDGE('',*,*,#867,.F.);
#1105=ORIENTED_EDGE('',*,*,#866,.F.);
#1106=ORIENTED_EDGE('',*,*,#868,.F.);
#1107=ORIENTED_EDGE('',*,*,#869,.T.);
#1108=ORIENTED_EDGE('',*,*,#870,.F.);
#1109=ORIENTED_EDGE('',*,*,#869,.F.);
#1110=ORIENTED_EDGE('',*,*,#871,.F.);
#1111=ORIENTED_EDGE('',*,*,#872,.T.);
#1112=ORIENTED_EDGE('',*,*,#873,.F.);
#1113=ORIENTED_EDGE('',*,*,#872,.F.);
#1114=ORIENTED_EDGE('',*,*,#874,.F.);
#1115=ORIENTED_EDGE('',*,*,#875,.T.);
#1116=ORIENTED_EDGE('',*,*,#876,.F.);
#1117=ORIENTED_EDGE('',*,*,#875,.F.);
#1118=ORIENTED_EDGE('',*,*,#877,.F.);
#1119=ORIENTED_EDGE('',*,*,#878,.T.);
#1120=ORIENTED_EDGE('',*,*,#879,.F.);
#1121=ORIENTED_EDGE('',*,*,#878,.F.);
#1122=ORIENTED_EDGE('',*,*,#880,.F.);
#1123=ORIENTED_EDGE('',*,*,#881,.T.);
#1124=ORIENTED_EDGE('',*,*,#882,.F.);
#1125=ORIENTED_EDGE('',*,*,#881,.F.);
#1126=ORIENTED_EDGE('',*,*,#816,.T.);
#1127=ORIENTED_EDGE('',*,*,#883,.T.);
#1128=ORIENTED_EDGE('',*,*,#884,.F.);
#1129=ORIENTED_EDGE('',*,*,#883,.F.);
#1130=ORIENTED_EDGE('',*,*,#823,.T.);
#1131=ORIENTED_EDGE('',*,*,#885,.F.);
#1132=ORIENTED_EDGE('',*,*,#886,.T.);
#1133=ORIENTED_EDGE('',*,*,#887,.F.);
#1134=ORIENTED_EDGE('',*,*,#886,.F.);
#1135=ORIENTED_EDGE('',*,*,#888,.F.);
#1136=ORIENTED_EDGE('',*,*,#889,.T.);
#1137=ORIENTED_EDGE('',*,*,#890,.F.);
#1138=ORIENTED_EDGE('',*,*,#889,.F.);
#1139=ORIENTED_EDGE('',*,*,#891,.F.);
#1140=ORIENTED_EDGE('',*,*,#892,.T.);
#1141=ORIENTED_EDGE('',*,*,#893,.F.);
#1142=ORIENTED_EDGE('',*,*,#892,.F.);
#1143=ORIENTED_EDGE('',*,*,#894,.F.);
#1144=ORIENTED_EDGE('',*,*,#895,.T.);
#1145=ORIENTED_EDGE('',*,*,#896,.F.);
#1146=ORIENTED_EDGE('',*,*,#895,.F.);
#1147=ORIENTED_EDGE('',*,*,#897,.F.);
#1148=ORIENTED_EDGE('',*,*,#898,.T.);
#1149=ORIENTED_EDGE('',*,*,#899,.F.);
#1150=ORIENTED_EDGE('',*,*,#898,.F.);
#1151=ORIENTED_EDGE('',*,*,#900,.F.);
#1152=ORIENTED_EDGE('',*,*,#901,.T.);
#1153=ORIENTED_EDGE('',*,*,#902,.F.);
#1154=ORIENTED_EDGE('',*,*,#901,.F.);
#1155=ORIENTED_EDGE('',*,*,#903,.F.);
#1156=ORIENTED_EDGE('',*,*,#904,.T.);
#1157=ORIENTED_EDGE('',*,*,#905,.F.);
#1158=ORIENTED_EDGE('',*,*,#904,.F.);
#1159=ORIENTED_EDGE('',*,*,#906,.F.);
#1160=ORIENTED_EDGE('',*,*,#907,.T.);
#1161=ORIENTED_EDGE('',*,*,#908,.F.);
#1162=ORIENTED_EDGE('',*,*,#907,.F.);
#1163=ORIENTED_EDGE('',*,*,#909,.F.);
#1164=ORIENTED_EDGE('',*,*,#910,.T.);
#1165=ORIENTED_EDGE('',*,*,#911,.F.);
#1166=ORIENTED_EDGE('',*,*,#910,.F.);
#1167=ORIENTED_EDGE('',*,*,#912,.F.);
#1168=ORIENTED_EDGE('',*,*,#913,.T.);
#1169=ORIENTED_EDGE('',*,*,#914,.F.);
#1170=ORIENTED_EDGE('',*,*,#913,.F.);
#1171=ORIENTED_EDGE('',*,*,#915,.F.);
#1172=ORIENTED_EDGE('',*,*,#916,.T.);
#1173=ORIENTED_EDGE('',*,*,#917,.F.);
#1174=ORIENTED_EDGE('',*,*,#916,.F.);
#1175=ORIENTED_EDGE('',*,*,#918,.F.);
#1176=ORIENTED_EDGE('',*,*,#919,.T.);
#1177=ORIENTED_EDGE('',*,*,#920,.F.);
#1178=ORIENTED_EDGE('',*,*,#919,.F.);
#1179=ORIENTED_EDGE('',*,*,#921,.F.);
#1180=ORIENTED_EDGE('',*,*,#922,.T.);
#1181=ORIENTED_EDGE('',*,*,#923,.F.);
#1182=ORIENTED_EDGE('',*,*,#922,.F.);
#1183=ORIENTED_EDGE('',*,*,#924,.F.);
#1184=ORIENTED_EDGE('',*,*,#925,.T.);
#1185=ORIENTED_EDGE('',*,*,#926,.F.);
#1186=ORIENTED_EDGE('',*,*,#925,.F.);
#1187=ORIENTED_EDGE('',*,*,#927,.F.);
#1188=ORIENTED_EDGE('',*,*,#928,.T.);
#1189=ORIENTED_EDGE('',*,*,#929,.F.);
#1190=ORIENTED_EDGE('',*,*,#928,.F.);
#1191=ORIENTED_EDGE('',*,*,#930,.F.);
#1192=ORIENTED_EDGE('',*,*,#931,.T.);
#1193=ORIENTED_EDGE('',*,*,#932,.F.);
#1194=ORIENTED_EDGE('',*,*,#931,.F.);
#1195=ORIENTED_EDGE('',*,*,#933,.F.);
#1196=ORIENTED_EDGE('',*,*,#934,.T.);
#1197=ORIENTED_EDGE('',*,*,#935,.F.);
#1198=ORIENTED_EDGE('',*,*,#934,.F.);
#1199=ORIENTED_EDGE('',*,*,#936,.F.);
#1200=ORIENTED_EDGE('',*,*,#937,.T.);
#1201=ORIENTED_EDGE('',*,*,#938,.F.);
#1202=ORIENTED_EDGE('',*,*,#937,.F.);
#1203=ORIENTED_EDGE('',*,*,#939,.F.);
#1204=ORIENTED_EDGE('',*,*,#940,.T.);
#1205=ORIENTED_EDGE('',*,*,#941,.F.);
#1206=ORIENTED_EDGE('',*,*,#940,.F.);
#1207=ORIENTED_EDGE('',*,*,#942,.F.);
#1208=ORIENTED_EDGE('',*,*,#943,.T.);
#1209=ORIENTED_EDGE('',*,*,#944,.F.);
#1210=ORIENTED_EDGE('',*,*,#943,.F.);
#1211=ORIENTED_EDGE('',*,*,#945,.T.);
#1212=ORIENTED_EDGE('',*,*,#946,.T.);
#1213=ORIENTED_EDGE('',*,*,#947,.F.);
#1214=ORIENTED_EDGE('',*,*,#948,.F.);
#1215=ORIENTED_EDGE('',*,*,#770,.T.);
#1216=ORIENTED_EDGE('',*,*,#776,.T.);
#1217=ORIENTED_EDGE('',*,*,#782,.T.);
#1218=ORIENTED_EDGE('',*,*,#788,.T.);
#1219=ORIENTED_EDGE('',*,*,#794,.T.);
#1220=ORIENTED_EDGE('',*,*,#832,.T.);
#1221=ORIENTED_EDGE('',*,*,#838,.T.);
#1222=ORIENTED_EDGE('',*,*,#844,.T.);
#1223=ORIENTED_EDGE('',*,*,#850,.T.);
#1224=ORIENTED_EDGE('',*,*,#856,.T.);
#1225=ORIENTED_EDGE('',*,*,#861,.T.);
#1226=ORIENTED_EDGE('',*,*,#867,.T.);
#1227=ORIENTED_EDGE('',*,*,#873,.T.);
#1228=ORIENTED_EDGE('',*,*,#879,.T.);
#1229=ORIENTED_EDGE('',*,*,#884,.T.);
#1230=ORIENTED_EDGE('',*,*,#890,.T.);
#1231=ORIENTED_EDGE('',*,*,#896,.T.);
#1232=ORIENTED_EDGE('',*,*,#902,.T.);
#1233=ORIENTED_EDGE('',*,*,#908,.T.);
#1234=ORIENTED_EDGE('',*,*,#914,.T.);
#1235=ORIENTED_EDGE('',*,*,#920,.T.);
#1236=ORIENTED_EDGE('',*,*,#944,.T.);
#1237=ORIENTED_EDGE('',*,*,#941,.T.);
#1238=ORIENTED_EDGE('',*,*,#938,.T.);
#1239=ORIENTED_EDGE('',*,*,#935,.T.);
#1240=ORIENTED_EDGE('',*,*,#932,.T.);
#1241=ORIENTED_EDGE('',*,*,#929,.T.);
#1242=ORIENTED_EDGE('',*,*,#926,.T.);
#1243=ORIENTED_EDGE('',*,*,#923,.T.);
#1244=ORIENTED_EDGE('',*,*,#917,.T.);
#1245=ORIENTED_EDGE('',*,*,#911,.T.);
#1246=ORIENTED_EDGE('',*,*,#905,.T.);
#1247=ORIENTED_EDGE('',*,*,#899,.T.);
#1248=ORIENTED_EDGE('',*,*,#893,.T.);
#1249=ORIENTED_EDGE('',*,*,#887,.T.);
#1250=ORIENTED_EDGE('',*,*,#882,.T.);
#1251=ORIENTED_EDGE('',*,*,#876,.T.);
#1252=ORIENTED_EDGE('',*,*,#870,.T.);
#1253=ORIENTED_EDGE('',*,*,#864,.T.);
#1254=ORIENTED_EDGE('',*,*,#858,.T.);
#1255=ORIENTED_EDGE('',*,*,#853,.T.);
#1256=ORIENTED_EDGE('',*,*,#847,.T.);
#1257=ORIENTED_EDGE('',*,*,#841,.T.);
#1258=ORIENTED_EDGE('',*,*,#835,.T.);
#1259=ORIENTED_EDGE('',*,*,#829,.T.);
#1260=ORIENTED_EDGE('',*,*,#791,.T.);
#1261=ORIENTED_EDGE('',*,*,#785,.T.);
#1262=ORIENTED_EDGE('',*,*,#779,.T.);
#1263=ORIENTED_EDGE('',*,*,#773,.T.);
#1264=ORIENTED_EDGE('',*,*,#767,.T.);
#1265=ORIENTED_EDGE('',*,*,#949,.T.);
#1266=ORIENTED_EDGE('',*,*,#948,.T.);
#1267=ORIENTED_EDGE('',*,*,#950,.F.);
#1268=ORIENTED_EDGE('',*,*,#951,.F.);
#1269=ORIENTED_EDGE('',*,*,#952,.T.);
#1270=ORIENTED_EDGE('',*,*,#951,.T.);
#1271=ORIENTED_EDGE('',*,*,#953,.F.);
#1272=ORIENTED_EDGE('',*,*,#954,.F.);
#1273=ORIENTED_EDGE('',*,*,#768,.T.);
#1274=ORIENTED_EDGE('',*,*,#774,.T.);
#1275=ORIENTED_EDGE('',*,*,#780,.T.);
#1276=ORIENTED_EDGE('',*,*,#786,.T.);
#1277=ORIENTED_EDGE('',*,*,#792,.T.);
#1278=ORIENTED_EDGE('',*,*,#812,.T.);
#1279=ORIENTED_EDGE('',*,*,#825,.T.);
#1280=ORIENTED_EDGE('',*,*,#819,.T.);
#1281=ORIENTED_EDGE('',*,*,#826,.T.);
#1282=ORIENTED_EDGE('',*,*,#830,.T.);
#1283=ORIENTED_EDGE('',*,*,#836,.T.);
#1284=ORIENTED_EDGE('',*,*,#842,.T.);
#1285=ORIENTED_EDGE('',*,*,#848,.T.);
#1286=ORIENTED_EDGE('',*,*,#854,.T.);
#1287=ORIENTED_EDGE('',*,*,#859,.T.);
#1288=ORIENTED_EDGE('',*,*,#865,.T.);
#1289=ORIENTED_EDGE('',*,*,#871,.T.);
#1290=ORIENTED_EDGE('',*,*,#877,.T.);
#1291=ORIENTED_EDGE('',*,*,#888,.T.);
#1292=ORIENTED_EDGE('',*,*,#894,.T.);
#1293=ORIENTED_EDGE('',*,*,#900,.T.);
#1294=ORIENTED_EDGE('',*,*,#906,.T.);
#1295=ORIENTED_EDGE('',*,*,#912,.T.);
#1296=ORIENTED_EDGE('',*,*,#918,.T.);
#1297=ORIENTED_EDGE('',*,*,#942,.T.);
#1298=ORIENTED_EDGE('',*,*,#939,.T.);
#1299=ORIENTED_EDGE('',*,*,#936,.T.);
#1300=ORIENTED_EDGE('',*,*,#933,.T.);
#1301=ORIENTED_EDGE('',*,*,#930,.T.);
#1302=ORIENTED_EDGE('',*,*,#927,.T.);
#1303=ORIENTED_EDGE('',*,*,#924,.T.);
#1304=ORIENTED_EDGE('',*,*,#921,.T.);
#1305=ORIENTED_EDGE('',*,*,#915,.T.);
#1306=ORIENTED_EDGE('',*,*,#909,.T.);
#1307=ORIENTED_EDGE('',*,*,#903,.T.);
#1308=ORIENTED_EDGE('',*,*,#897,.T.);
#1309=ORIENTED_EDGE('',*,*,#891,.T.);
#1310=ORIENTED_EDGE('',*,*,#885,.T.);
#1311=ORIENTED_EDGE('',*,*,#880,.T.);
#1312=ORIENTED_EDGE('',*,*,#874,.T.);
#1313=ORIENTED_EDGE('',*,*,#868,.T.);
#1314=ORIENTED_EDGE('',*,*,#862,.T.);
#1315=ORIENTED_EDGE('',*,*,#851,.T.);
#1316=ORIENTED_EDGE('',*,*,#845,.T.);
#1317=ORIENTED_EDGE('',*,*,#839,.T.);
#1318=ORIENTED_EDGE('',*,*,#833,.T.);
#1319=ORIENTED_EDGE('',*,*,#827,.T.);
#1320=ORIENTED_EDGE('',*,*,#796,.T.);
#1321=ORIENTED_EDGE('',*,*,#809,.T.);
#1322=ORIENTED_EDGE('',*,*,#803,.T.);
#1323=ORIENTED_EDGE('',*,*,#810,.T.);
#1324=ORIENTED_EDGE('',*,*,#789,.T.);
#1325=ORIENTED_EDGE('',*,*,#783,.T.);
#1326=ORIENTED_EDGE('',*,*,#777,.T.);
#1327=ORIENTED_EDGE('',*,*,#771,.T.);
#1328=ORIENTED_EDGE('',*,*,#765,.T.);
#1329=ORIENTED_EDGE('',*,*,#955,.T.);
#1330=ORIENTED_EDGE('',*,*,#954,.T.);
#1331=ORIENTED_EDGE('',*,*,#956,.F.);
#1332=ORIENTED_EDGE('',*,*,#946,.F.);
#1333=ORIENTED_EDGE('',*,*,#956,.T.);
#1334=ORIENTED_EDGE('',*,*,#953,.T.);
#1335=ORIENTED_EDGE('',*,*,#950,.T.);
#1336=ORIENTED_EDGE('',*,*,#947,.T.);
#1337=ORIENTED_EDGE('',*,*,#955,.F.);
#1338=ORIENTED_EDGE('',*,*,#945,.F.);
#1339=ORIENTED_EDGE('',*,*,#949,.F.);
#1340=ORIENTED_EDGE('',*,*,#952,.F.);
#1341=CYLINDRICAL_SURFACE('',#1477,0.225);
#1342=CYLINDRICAL_SURFACE('',#1480,0.225);
#1343=CYLINDRICAL_SURFACE('',#1483,0.225);
#1344=CYLINDRICAL_SURFACE('',#1486,0.225);
#1345=CYLINDRICAL_SURFACE('',#1489,0.225);
#1346=CYLINDRICAL_SURFACE('',#1492,0.225);
#1347=CYLINDRICAL_SURFACE('',#1495,0.225);
#1348=CYLINDRICAL_SURFACE('',#1498,0.225);
#1349=CYLINDRICAL_SURFACE('',#1501,0.225);
#1350=CYLINDRICAL_SURFACE('',#1504,0.225);
#1351=CYLINDRICAL_SURFACE('',#1507,0.225);
#1352=CYLINDRICAL_SURFACE('',#1512,0.225);
#1353=CYLINDRICAL_SURFACE('',#1519,0.225);
#1354=CYLINDRICAL_SURFACE('',#1524,0.225);
#1355=CYLINDRICAL_SURFACE('',#1531,0.225);
#1356=CYLINDRICAL_SURFACE('',#1534,0.225);
#1357=CYLINDRICAL_SURFACE('',#1537,0.225);
#1358=CYLINDRICAL_SURFACE('',#1540,0.225);
#1359=CYLINDRICAL_SURFACE('',#1543,0.225);
#1360=CYLINDRICAL_SURFACE('',#1546,0.225);
#1361=CYLINDRICAL_SURFACE('',#1549,0.225);
#1362=CYLINDRICAL_SURFACE('',#1552,0.225);
#1363=CYLINDRICAL_SURFACE('',#1555,0.225);
#1364=CYLINDRICAL_SURFACE('',#1558,0.225);
#1365=CYLINDRICAL_SURFACE('',#1561,0.225);
#1366=CYLINDRICAL_SURFACE('',#1563,0.225);
#1367=CYLINDRICAL_SURFACE('',#1566,0.225);
#1368=CYLINDRICAL_SURFACE('',#1569,0.225);
#1369=CYLINDRICAL_SURFACE('',#1572,0.225);
#1370=CYLINDRICAL_SURFACE('',#1575,0.225);
#1371=CYLINDRICAL_SURFACE('',#1578,0.225);
#1372=CYLINDRICAL_SURFACE('',#1581,0.225);
#1373=CYLINDRICAL_SURFACE('',#1584,0.225);
#1374=CYLINDRICAL_SURFACE('',#1587,0.225);
#1375=CYLINDRICAL_SURFACE('',#1589,0.225);
#1376=CYLINDRICAL_SURFACE('',#1592,0.225);
#1377=CYLINDRICAL_SURFACE('',#1595,0.225);
#1378=CYLINDRICAL_SURFACE('',#1598,0.225);
#1379=CYLINDRICAL_SURFACE('',#1601,0.225);
#1380=CYLINDRICAL_SURFACE('',#1604,0.225);
#1381=CYLINDRICAL_SURFACE('',#1607,0.225);
#1382=CYLINDRICAL_SURFACE('',#1610,0.225);
#1383=CYLINDRICAL_SURFACE('',#1613,0.225);
#1384=CYLINDRICAL_SURFACE('',#1616,0.225);
#1385=CYLINDRICAL_SURFACE('',#1619,0.225);
#1386=CYLINDRICAL_SURFACE('',#1622,0.225);
#1387=CYLINDRICAL_SURFACE('',#1625,0.225);
#1388=CYLINDRICAL_SURFACE('',#1628,0.225);
#1389=CYLINDRICAL_SURFACE('',#1631,0.225);
#1390=CYLINDRICAL_SURFACE('',#1634,0.225);
#1391=CYLINDRICAL_SURFACE('',#1637,0.225);
#1392=CYLINDRICAL_SURFACE('',#1640,0.225);
#1393=CYLINDRICAL_SURFACE('',#1643,0.225);
#1394=CYLINDRICAL_SURFACE('',#1646,0.225);
#1395=ADVANCED_FACE('',(#129),#1341,.F.);
#1396=ADVANCED_FACE('',(#130),#1342,.F.);
#1397=ADVANCED_FACE('',(#131),#1343,.F.);
#1398=ADVANCED_FACE('',(#132),#1344,.F.);
#1399=ADVANCED_FACE('',(#133),#1345,.F.);
#1400=ADVANCED_FACE('',(#134),#1346,.F.);
#1401=ADVANCED_FACE('',(#135),#1347,.F.);
#1402=ADVANCED_FACE('',(#136),#1348,.F.);
#1403=ADVANCED_FACE('',(#137),#1349,.F.);
#1404=ADVANCED_FACE('',(#138),#1350,.F.);
#1405=ADVANCED_FACE('',(#139),#1351,.F.);
#1406=ADVANCED_FACE('',(#140),#115,.F.);
#1407=ADVANCED_FACE('',(#141),#1352,.F.);
#1408=ADVANCED_FACE('',(#142),#116,.F.);
#1409=ADVANCED_FACE('',(#143),#117,.F.);
#1410=ADVANCED_FACE('',(#144),#118,.F.);
#1411=ADVANCED_FACE('',(#145),#1353,.F.);
#1412=ADVANCED_FACE('',(#146),#119,.F.);
#1413=ADVANCED_FACE('',(#147),#1354,.F.);
#1414=ADVANCED_FACE('',(#148),#120,.F.);
#1415=ADVANCED_FACE('',(#149),#121,.F.);
#1416=ADVANCED_FACE('',(#150),#122,.F.);
#1417=ADVANCED_FACE('',(#151),#1355,.F.);
#1418=ADVANCED_FACE('',(#152),#1356,.F.);
#1419=ADVANCED_FACE('',(#153),#1357,.F.);
#1420=ADVANCED_FACE('',(#154),#1358,.F.);
#1421=ADVANCED_FACE('',(#155),#1359,.F.);
#1422=ADVANCED_FACE('',(#156),#1360,.F.);
#1423=ADVANCED_FACE('',(#157),#1361,.F.);
#1424=ADVANCED_FACE('',(#158),#1362,.F.);
#1425=ADVANCED_FACE('',(#159),#1363,.F.);
#1426=ADVANCED_FACE('',(#160),#1364,.F.);
#1427=ADVANCED_FACE('',(#161),#1365,.F.);
#1428=ADVANCED_FACE('',(#162),#1366,.F.);
#1429=ADVANCED_FACE('',(#163),#1367,.F.);
#1430=ADVANCED_FACE('',(#164),#1368,.F.);
#1431=ADVANCED_FACE('',(#165),#1369,.F.);
#1432=ADVANCED_FACE('',(#166),#1370,.F.);
#1433=ADVANCED_FACE('',(#167),#1371,.F.);
#1434=ADVANCED_FACE('',(#168),#1372,.F.);
#1435=ADVANCED_FACE('',(#169),#1373,.F.);
#1436=ADVANCED_FACE('',(#170),#1374,.F.);
#1437=ADVANCED_FACE('',(#171),#1375,.F.);
#1438=ADVANCED_FACE('',(#172),#1376,.F.);
#1439=ADVANCED_FACE('',(#173),#1377,.F.);
#1440=ADVANCED_FACE('',(#174),#1378,.F.);
#1441=ADVANCED_FACE('',(#175),#1379,.F.);
#1442=ADVANCED_FACE('',(#176),#1380,.F.);
#1443=ADVANCED_FACE('',(#177),#1381,.F.);
#1444=ADVANCED_FACE('',(#178),#1382,.F.);
#1445=ADVANCED_FACE('',(#179),#1383,.F.);
#1446=ADVANCED_FACE('',(#180),#1384,.F.);
#1447=ADVANCED_FACE('',(#181),#1385,.F.);
#1448=ADVANCED_FACE('',(#182),#1386,.F.);
#1449=ADVANCED_FACE('',(#183),#1387,.F.);
#1450=ADVANCED_FACE('',(#184),#1388,.F.);
#1451=ADVANCED_FACE('',(#185),#1389,.F.);
#1452=ADVANCED_FACE('',(#186),#1390,.F.);
#1453=ADVANCED_FACE('',(#187),#1391,.F.);
#1454=ADVANCED_FACE('',(#188),#1392,.F.);
#1455=ADVANCED_FACE('',(#189),#1393,.F.);
#1456=ADVANCED_FACE('',(#190),#1394,.F.);
#1457=ADVANCED_FACE('',(#191,#15,#16,#17,#18,#19,#20,#21,#22,#23,#24,#25,
#26,#27,#28,#29,#30,#31,#32,#33,#34,#35,#36,#37,#38,#39,#40,#41,#42,#43,
#44,#45,#46,#47,#48,#49,#50,#51,#52,#53,#54,#55,#56,#57,#58,#59,#60,#61,
#62,#63,#64),#123,.T.);
#1458=ADVANCED_FACE('',(#192),#124,.T.);
#1459=ADVANCED_FACE('',(#193,#65,#66,#67,#68,#69,#70,#71,#72,#73,#74,#75,
#76,#77,#78,#79,#80,#81,#82,#83,#84,#85,#86,#87,#88,#89,#90,#91,#92,#93,
#94,#95,#96,#97,#98,#99,#100,#101,#102,#103,#104,#105,#106,#107,#108,#109,
#110,#111,#112,#113,#114),#125,.T.);
#1460=ADVANCED_FACE('',(#194),#126,.T.);
#1461=ADVANCED_FACE('',(#195),#127,.T.);
#1462=ADVANCED_FACE('',(#196),#128,.F.);
#1463=CLOSED_SHELL('',(#1395,#1396,#1397,#1398,#1399,#1400,#1401,#1402,
#1403,#1404,#1405,#1406,#1407,#1408,#1409,#1410,#1411,#1412,#1413,#1414,
#1415,#1416,#1417,#1418,#1419,#1420,#1421,#1422,#1423,#1424,#1425,#1426,
#1427,#1428,#1429,#1430,#1431,#1432,#1433,#1434,#1435,#1436,#1437,#1438,
#1439,#1440,#1441,#1442,#1443,#1444,#1445,#1446,#1447,#1448,#1449,#1450,
#1451,#1452,#1453,#1454,#1455,#1456,#1457,#1458,#1459,#1460,#1461,#1462));
#1464=DERIVED_UNIT_ELEMENT(#1466,1.);
#1465=DERIVED_UNIT_ELEMENT(#2487,-3.);
#1466=(
MASS_UNIT()
NAMED_UNIT(*)
SI_UNIT(.KILO.,.GRAM.)
);
#1467=DERIVED_UNIT((#1464,#1465));
#1468=MEASURE_REPRESENTATION_ITEM('density measure',
POSITIVE_RATIO_MEASURE(7850.),#1467);
#1469=PROPERTY_DEFINITION_REPRESENTATION(#1474,#1471);
#1470=PROPERTY_DEFINITION_REPRESENTATION(#1475,#1472);
#1471=REPRESENTATION('material name',(#1473),#2484);
#1472=REPRESENTATION('density',(#1468),#2484);
#1473=DESCRIPTIVE_REPRESENTATION_ITEM('\X2\94A2\X0\','\X2\94A2\X0\');
#1474=PROPERTY_DEFINITION('material property','material name',#2494);
#1475=PROPERTY_DEFINITION('material property','density of part',#2494);
#1476=AXIS2_PLACEMENT_3D('',#2095,#1655,#1656);
#1477=AXIS2_PLACEMENT_3D('',#2096,#1657,#1658);
#1478=AXIS2_PLACEMENT_3D('',#2098,#1659,#1660);
#1479=AXIS2_PLACEMENT_3D('',#2101,#1662,#1663);
#1480=AXIS2_PLACEMENT_3D('',#2102,#1664,#1665);
#1481=AXIS2_PLACEMENT_3D('',#2104,#1666,#1667);
#1482=AXIS2_PLACEMENT_3D('',#2107,#1669,#1670);
#1483=AXIS2_PLACEMENT_3D('',#2108,#1671,#1672);
#1484=AXIS2_PLACEMENT_3D('',#2110,#1673,#1674);
#1485=AXIS2_PLACEMENT_3D('',#2113,#1676,#1677);
#1486=AXIS2_PLACEMENT_3D('',#2114,#1678,#1679);
#1487=AXIS2_PLACEMENT_3D('',#2116,#1680,#1681);
#1488=AXIS2_PLACEMENT_3D('',#2119,#1683,#1684);
#1489=AXIS2_PLACEMENT_3D('',#2120,#1685,#1686);
#1490=AXIS2_PLACEMENT_3D('',#2122,#1687,#1688);
#1491=AXIS2_PLACEMENT_3D('',#2125,#1690,#1691);
#1492=AXIS2_PLACEMENT_3D('',#2126,#1692,#1693);
#1493=AXIS2_PLACEMENT_3D('',#2128,#1694,#1695);
#1494=AXIS2_PLACEMENT_3D('',#2131,#1697,#1698);
#1495=AXIS2_PLACEMENT_3D('',#2132,#1699,#1700);
#1496=AXIS2_PLACEMENT_3D('',#2134,#1701,#1702);
#1497=AXIS2_PLACEMENT_3D('',#2137,#1704,#1705);
#1498=AXIS2_PLACEMENT_3D('',#2138,#1706,#1707);
#1499=AXIS2_PLACEMENT_3D('',#2140,#1708,#1709);
#1500=AXIS2_PLACEMENT_3D('',#2143,#1711,#1712);
#1501=AXIS2_PLACEMENT_3D('',#2144,#1713,#1714);
#1502=AXIS2_PLACEMENT_3D('',#2146,#1715,#1716);
#1503=AXIS2_PLACEMENT_3D('',#2149,#1718,#1719);
#1504=AXIS2_PLACEMENT_3D('',#2150,#1720,#1721);
#1505=AXIS2_PLACEMENT_3D('',#2152,#1722,#1723);
#1506=AXIS2_PLACEMENT_3D('',#2155,#1725,#1726);
#1507=AXIS2_PLACEMENT_3D('',#2156,#1727,#1728);
#1508=AXIS2_PLACEMENT_3D('',#2161,#1730,#1731);
#1509=AXIS2_PLACEMENT_3D('',#2164,#1733,#1734);
#1510=AXIS2_PLACEMENT_3D('',#2165,#1735,#1736);
#1511=AXIS2_PLACEMENT_3D('',#2169,#1738,#1739);
#1512=AXIS2_PLACEMENT_3D('',#2171,#1741,#1742);
#1513=AXIS2_PLACEMENT_3D('',#2176,#1744,#1745);
#1514=AXIS2_PLACEMENT_3D('',#2179,#1747,#1748);
#1515=AXIS2_PLACEMENT_3D('',#2180,#1749,#1750);
#1516=AXIS2_PLACEMENT_3D('',#2182,#1752,#1753);
#1517=AXIS2_PLACEMENT_3D('',#2184,#1755,#1756);
#1518=AXIS2_PLACEMENT_3D('',#2186,#1758,#1759);
#1519=AXIS2_PLACEMENT_3D('',#2188,#1761,#1762);
#1520=AXIS2_PLACEMENT_3D('',#2193,#1764,#1765);
#1521=AXIS2_PLACEMENT_3D('',#2196,#1767,#1768);
#1522=AXIS2_PLACEMENT_3D('',#2197,#1769,#1770);
#1523=AXIS2_PLACEMENT_3D('',#2201,#1772,#1773);
#1524=AXIS2_PLACEMENT_3D('',#2203,#1775,#1776);
#1525=AXIS2_PLACEMENT_3D('',#2208,#1778,#1779);
#1526=AXIS2_PLACEMENT_3D('',#2211,#1781,#1782);
#1527=AXIS2_PLACEMENT_3D('',#2212,#1783,#1784);
#1528=AXIS2_PLACEMENT_3D('',#2214,#1786,#1787);
#1529=AXIS2_PLACEMENT_3D('',#2216,#1789,#1790);
#1530=AXIS2_PLACEMENT_3D('',#2218,#1792,#1793);
#1531=AXIS2_PLACEMENT_3D('',#2220,#1795,#1796);
#1532=AXIS2_PLACEMENT_3D('',#2222,#1797,#1798);
#1533=AXIS2_PLACEMENT_3D('',#2225,#1800,#1801);
#1534=AXIS2_PLACEMENT_3D('',#2226,#1802,#1803);
#1535=AXIS2_PLACEMENT_3D('',#2228,#1804,#1805);
#1536=AXIS2_PLACEMENT_3D('',#2231,#1807,#1808);
#1537=AXIS2_PLACEMENT_3D('',#2232,#1809,#1810);
#1538=AXIS2_PLACEMENT_3D('',#2234,#1811,#1812);
#1539=AXIS2_PLACEMENT_3D('',#2237,#1814,#1815);
#1540=AXIS2_PLACEMENT_3D('',#2238,#1816,#1817);
#1541=AXIS2_PLACEMENT_3D('',#2240,#1818,#1819);
#1542=AXIS2_PLACEMENT_3D('',#2243,#1821,#1822);
#1543=AXIS2_PLACEMENT_3D('',#2244,#1823,#1824);
#1544=AXIS2_PLACEMENT_3D('',#2246,#1825,#1826);
#1545=AXIS2_PLACEMENT_3D('',#2249,#1828,#1829);
#1546=AXIS2_PLACEMENT_3D('',#2250,#1830,#1831);
#1547=AXIS2_PLACEMENT_3D('',#2252,#1832,#1833);
#1548=AXIS2_PLACEMENT_3D('',#2255,#1835,#1836);
#1549=AXIS2_PLACEMENT_3D('',#2256,#1837,#1838);
#1550=AXIS2_PLACEMENT_3D('',#2258,#1839,#1840);
#1551=AXIS2_PLACEMENT_3D('',#2261,#1842,#1843);
#1552=AXIS2_PLACEMENT_3D('',#2262,#1844,#1845);
#1553=AXIS2_PLACEMENT_3D('',#2264,#1846,#1847);
#1554=AXIS2_PLACEMENT_3D('',#2267,#1849,#1850);
#1555=AXIS2_PLACEMENT_3D('',#2268,#1851,#1852);
#1556=AXIS2_PLACEMENT_3D('',#2270,#1853,#1854);
#1557=AXIS2_PLACEMENT_3D('',#2273,#1856,#1857);
#1558=AXIS2_PLACEMENT_3D('',#2274,#1858,#1859);
#1559=AXIS2_PLACEMENT_3D('',#2276,#1860,#1861);
#1560=AXIS2_PLACEMENT_3D('',#2279,#1863,#1864);
#1561=AXIS2_PLACEMENT_3D('',#2280,#1865,#1866);
#1562=AXIS2_PLACEMENT_3D('',#2283,#1868,#1869);
#1563=AXIS2_PLACEMENT_3D('',#2284,#1870,#1871);
#1564=AXIS2_PLACEMENT_3D('',#2286,#1872,#1873);
#1565=AXIS2_PLACEMENT_3D('',#2289,#1875,#1876);
#1566=AXIS2_PLACEMENT_3D('',#2290,#1877,#1878);
#1567=AXIS2_PLACEMENT_3D('',#2292,#1879,#1880);
#1568=AXIS2_PLACEMENT_3D('',#2295,#1882,#1883);
#1569=AXIS2_PLACEMENT_3D('',#2296,#1884,#1885);
#1570=AXIS2_PLACEMENT_3D('',#2298,#1886,#1887);
#1571=AXIS2_PLACEMENT_3D('',#2301,#1889,#1890);
#1572=AXIS2_PLACEMENT_3D('',#2302,#1891,#1892);
#1573=AXIS2_PLACEMENT_3D('',#2304,#1893,#1894);
#1574=AXIS2_PLACEMENT_3D('',#2307,#1896,#1897);
#1575=AXIS2_PLACEMENT_3D('',#2308,#1898,#1899);
#1576=AXIS2_PLACEMENT_3D('',#2310,#1900,#1901);
#1577=AXIS2_PLACEMENT_3D('',#2313,#1903,#1904);
#1578=AXIS2_PLACEMENT_3D('',#2314,#1905,#1906);
#1579=AXIS2_PLACEMENT_3D('',#2316,#1907,#1908);
#1580=AXIS2_PLACEMENT_3D('',#2319,#1910,#1911);
#1581=AXIS2_PLACEMENT_3D('',#2320,#1912,#1913);
#1582=AXIS2_PLACEMENT_3D('',#2322,#1914,#1915);
#1583=AXIS2_PLACEMENT_3D('',#2325,#1917,#1918);
#1584=AXIS2_PLACEMENT_3D('',#2326,#1919,#1920);
#1585=AXIS2_PLACEMENT_3D('',#2328,#1921,#1922);
#1586=AXIS2_PLACEMENT_3D('',#2331,#1924,#1925);
#1587=AXIS2_PLACEMENT_3D('',#2332,#1926,#1927);
#1588=AXIS2_PLACEMENT_3D('',#2335,#1929,#1930);
#1589=AXIS2_PLACEMENT_3D('',#2336,#1931,#1932);
#1590=AXIS2_PLACEMENT_3D('',#2338,#1933,#1934);
#1591=AXIS2_PLACEMENT_3D('',#2341,#1936,#1937);
#1592=AXIS2_PLACEMENT_3D('',#2342,#1938,#1939);
#1593=AXIS2_PLACEMENT_3D('',#2344,#1940,#1941);
#1594=AXIS2_PLACEMENT_3D('',#2347,#1943,#1944);
#1595=AXIS2_PLACEMENT_3D('',#2348,#1945,#1946);
#1596=AXIS2_PLACEMENT_3D('',#2350,#1947,#1948);
#1597=AXIS2_PLACEMENT_3D('',#2353,#1950,#1951);
#1598=AXIS2_PLACEMENT_3D('',#2354,#1952,#1953);
#1599=AXIS2_PLACEMENT_3D('',#2356,#1954,#1955);
#1600=AXIS2_PLACEMENT_3D('',#2359,#1957,#1958);
#1601=AXIS2_PLACEMENT_3D('',#2360,#1959,#1960);
#1602=AXIS2_PLACEMENT_3D('',#2362,#1961,#1962);
#1603=AXIS2_PLACEMENT_3D('',#2365,#1964,#1965);
#1604=AXIS2_PLACEMENT_3D('',#2366,#1966,#1967);
#1605=AXIS2_PLACEMENT_3D('',#2368,#1968,#1969);
#1606=AXIS2_PLACEMENT_3D('',#2371,#1971,#1972);
#1607=AXIS2_PLACEMENT_3D('',#2372,#1973,#1974);
#1608=AXIS2_PLACEMENT_3D('',#2374,#1975,#1976);
#1609=AXIS2_PLACEMENT_3D('',#2377,#1978,#1979);
#1610=AXIS2_PLACEMENT_3D('',#2378,#1980,#1981);
#1611=AXIS2_PLACEMENT_3D('',#2380,#1982,#1983);
#1612=AXIS2_PLACEMENT_3D('',#2383,#1985,#1986);
#1613=AXIS2_PLACEMENT_3D('',#2384,#1987,#1988);
#1614=AXIS2_PLACEMENT_3D('',#2386,#1989,#1990);
#1615=AXIS2_PLACEMENT_3D('',#2389,#1992,#1993);
#1616=AXIS2_PLACEMENT_3D('',#2390,#1994,#1995);
#1617=AXIS2_PLACEMENT_3D('',#2392,#1996,#1997);
#1618=AXIS2_PLACEMENT_3D('',#2395,#1999,#2000);
#1619=AXIS2_PLACEMENT_3D('',#2396,#2001,#2002);
#1620=AXIS2_PLACEMENT_3D('',#2398,#2003,#2004);
#1621=AXIS2_PLACEMENT_3D('',#2401,#2006,#2007);
#1622=AXIS2_PLACEMENT_3D('',#2402,#2008,#2009);
#1623=AXIS2_PLACEMENT_3D('',#2404,#2010,#2011);
#1624=AXIS2_PLACEMENT_3D('',#2407,#2013,#2014);
#1625=AXIS2_PLACEMENT_3D('',#2408,#2015,#2016);
#1626=AXIS2_PLACEMENT_3D('',#2410,#2017,#2018);
#1627=AXIS2_PLACEMENT_3D('',#2413,#2020,#2021);
#1628=AXIS2_PLACEMENT_3D('',#2414,#2022,#2023);
#1629=AXIS2_PLACEMENT_3D('',#2416,#2024,#2025);
#1630=AXIS2_PLACEMENT_3D('',#2419,#2027,#2028);
#1631=AXIS2_PLACEMENT_3D('',#2420,#2029,#2030);
#1632=AXIS2_PLACEMENT_3D('',#2422,#2031,#2032);
#1633=AXIS2_PLACEMENT_3D('',#2425,#2034,#2035);
#1634=AXIS2_PLACEMENT_3D('',#2426,#2036,#2037);
#1635=AXIS2_PLACEMENT_3D('',#2428,#2038,#2039);
#1636=AXIS2_PLACEMENT_3D('',#2431,#2041,#2042);
#1637=AXIS2_PLACEMENT_3D('',#2432,#2043,#2044);
#1638=AXIS2_PLACEMENT_3D('',#2434,#2045,#2046);
#1639=AXIS2_PLACEMENT_3D('',#2437,#2048,#2049);
#1640=AXIS2_PLACEMENT_3D('',#2438,#2050,#2051);
#1641=AXIS2_PLACEMENT_3D('',#2440,#2052,#2053);
#1642=AXIS2_PLACEMENT_3D('',#2443,#2055,#2056);
#1643=AXIS2_PLACEMENT_3D('',#2444,#2057,#2058);
#1644=AXIS2_PLACEMENT_3D('',#2446,#2059,#2060);
#1645=AXIS2_PLACEMENT_3D('',#2449,#2062,#2063);
#1646=AXIS2_PLACEMENT_3D('',#2450,#2064,#2065);
#1647=AXIS2_PLACEMENT_3D('',#2452,#2066,#2067);
#1648=AXIS2_PLACEMENT_3D('',#2455,#2069,#2070);
#1649=AXIS2_PLACEMENT_3D('',#2456,#2071,#2072);
#1650=AXIS2_PLACEMENT_3D('',#2465,#2077,#2078);
#1651=AXIS2_PLACEMENT_3D('',#2471,#2082,#2083);
#1652=AXIS2_PLACEMENT_3D('',#2477,#2087,#2088);
#1653=AXIS2_PLACEMENT_3D('',#2480,#2091,#2092);
#1654=AXIS2_PLACEMENT_3D('',#2481,#2093,#2094);
#1655=DIRECTION('axis',(0.,0.,1.));
#1656=DIRECTION('refdir',(1.,0.,0.));
#1657=DIRECTION('center_axis',(0.,1.,0.));
#1658=DIRECTION('ref_axis',(1.,0.,0.));
#1659=DIRECTION('center_axis',(0.,1.,0.));
#1660=DIRECTION('ref_axis',(1.,0.,0.));
#1661=DIRECTION('',(0.,1.,0.));
#1662=DIRECTION('center_axis',(0.,-1.,0.));
#1663=DIRECTION('ref_axis',(1.,0.,0.));
#1664=DIRECTION('center_axis',(0.,1.,0.));
#1665=DIRECTION('ref_axis',(1.,0.,0.));
#1666=DIRECTION('center_axis',(0.,1.,0.));
#1667=DIRECTION('ref_axis',(1.,0.,0.));
#1668=DIRECTION('',(0.,1.,0.));
#1669=DIRECTION('center_axis',(0.,-1.,0.));
#1670=DIRECTION('ref_axis',(1.,0.,0.));
#1671=DIRECTION('center_axis',(0.,1.,0.));
#1672=DIRECTION('ref_axis',(1.,0.,0.));
#1673=DIRECTION('center_axis',(0.,1.,0.));
#1674=DIRECTION('ref_axis',(1.,0.,0.));
#1675=DIRECTION('',(0.,1.,0.));
#1676=DIRECTION('center_axis',(0.,-1.,0.));
#1677=DIRECTION('ref_axis',(1.,0.,0.));
#1678=DIRECTION('center_axis',(0.,1.,0.));
#1679=DIRECTION('ref_axis',(1.,0.,0.));
#1680=DIRECTION('center_axis',(0.,1.,0.));
#1681=DIRECTION('ref_axis',(1.,0.,0.));
#1682=DIRECTION('',(0.,1.,0.));
#1683=DIRECTION('center_axis',(0.,-1.,0.));
#1684=DIRECTION('ref_axis',(1.,0.,0.));
#1685=DIRECTION('center_axis',(0.,1.,0.));
#1686=DIRECTION('ref_axis',(1.,0.,0.));
#1687=DIRECTION('center_axis',(0.,1.,0.));
#1688=DIRECTION('ref_axis',(1.,0.,0.));
#1689=DIRECTION('',(0.,1.,0.));
#1690=DIRECTION('center_axis',(0.,-1.,0.));
#1691=DIRECTION('ref_axis',(1.,0.,0.));
#1692=DIRECTION('center_axis',(0.,1.,0.));
#1693=DIRECTION('ref_axis',(1.,0.,0.));
#1694=DIRECTION('center_axis',(0.,1.,0.));
#1695=DIRECTION('ref_axis',(1.,0.,0.));
#1696=DIRECTION('',(0.,1.,0.));
#1697=DIRECTION('center_axis',(0.,-1.,0.));
#1698=DIRECTION('ref_axis',(1.,0.,0.));
#1699=DIRECTION('center_axis',(0.,1.,0.));
#1700=DIRECTION('ref_axis',(1.,0.,0.));
#1701=DIRECTION('center_axis',(0.,1.,0.));
#1702=DIRECTION('ref_axis',(1.,0.,0.));
#1703=DIRECTION('',(0.,1.,0.));
#1704=DIRECTION('center_axis',(0.,-1.,0.));
#1705=DIRECTION('ref_axis',(1.,0.,0.));
#1706=DIRECTION('center_axis',(0.,1.,0.));
#1707=DIRECTION('ref_axis',(1.,0.,0.));
#1708=DIRECTION('center_axis',(0.,1.,0.));
#1709=DIRECTION('ref_axis',(1.,0.,0.));
#1710=DIRECTION('',(0.,1.,0.));
#1711=DIRECTION('center_axis',(0.,-1.,0.));
#1712=DIRECTION('ref_axis',(1.,0.,0.));
#1713=DIRECTION('center_axis',(0.,1.,0.));
#1714=DIRECTION('ref_axis',(1.,0.,0.));
#1715=DIRECTION('center_axis',(0.,1.,0.));
#1716=DIRECTION('ref_axis',(1.,0.,0.));
#1717=DIRECTION('',(0.,1.,0.));
#1718=DIRECTION('center_axis',(0.,-1.,0.));
#1719=DIRECTION('ref_axis',(1.,0.,0.));
#1720=DIRECTION('center_axis',(0.,1.,0.));
#1721=DIRECTION('ref_axis',(1.,0.,0.));
#1722=DIRECTION('center_axis',(0.,1.,0.));
#1723=DIRECTION('ref_axis',(1.,0.,0.));
#1724=DIRECTION('',(0.,1.,0.));
#1725=DIRECTION('center_axis',(0.,-1.,0.));
#1726=DIRECTION('ref_axis',(1.,0.,0.));
#1727=DIRECTION('center_axis',(0.,1.,0.));
#1728=DIRECTION('ref_axis',(1.,0.,0.));
#1729=DIRECTION('',(0.,1.,0.));
#1730=DIRECTION('center_axis',(0.,1.,0.));
#1731=DIRECTION('ref_axis',(1.,0.,0.));
#1732=DIRECTION('',(0.,1.,0.));
#1733=DIRECTION('center_axis',(0.,1.,0.));
#1734=DIRECTION('ref_axis',(1.,0.,0.));
#1735=DIRECTION('center_axis',(0.,1.,0.));
#1736=DIRECTION('ref_axis',(0.,0.,1.));
#1737=DIRECTION('',(0.,0.,1.));
#1738=DIRECTION('center_axis',(0.,-1.,0.));
#1739=DIRECTION('ref_axis',(1.,0.,0.));
#1740=DIRECTION('',(0.,0.,-1.));
#1741=DIRECTION('center_axis',(0.,1.,0.));
#1742=DIRECTION('ref_axis',(1.,0.,0.));
#1743=DIRECTION('',(0.,1.,0.));
#1744=DIRECTION('center_axis',(0.,1.,0.));
#1745=DIRECTION('ref_axis',(1.,0.,0.));
#1746=DIRECTION('',(0.,1.,0.));
#1747=DIRECTION('center_axis',(0.,1.,0.));
#1748=DIRECTION('ref_axis',(1.,0.,0.));
#1749=DIRECTION('center_axis',(0.,1.,0.));
#1750=DIRECTION('ref_axis',(0.,0.,1.));
#1751=DIRECTION('',(0.,0.,-1.));
#1752=DIRECTION('center_axis',(0.,-1.,0.));
#1753=DIRECTION('ref_axis',(1.,0.,0.));
#1754=DIRECTION('',(0.,0.,1.));
#1755=DIRECTION('center_axis',(1.,0.,0.));
#1756=DIRECTION('ref_axis',(0.,0.,-1.));
#1757=DIRECTION('',(0.,0.,-1.));
#1758=DIRECTION('center_axis',(-1.,0.,0.));
#1759=DIRECTION('ref_axis',(0.,0.,1.));
#1760=DIRECTION('',(0.,0.,1.));
#1761=DIRECTION('center_axis',(0.,1.,0.));
#1762=DIRECTION('ref_axis',(1.,0.,0.));
#1763=DIRECTION('',(0.,1.,0.));
#1764=DIRECTION('center_axis',(0.,1.,0.));
#1765=DIRECTION('ref_axis',(1.,0.,0.));
#1766=DIRECTION('',(0.,1.,0.));
#1767=DIRECTION('center_axis',(0.,1.,0.));
#1768=DIRECTION('ref_axis',(1.,0.,0.));
#1769=DIRECTION('center_axis',(0.,1.,0.));
#1770=DIRECTION('ref_axis',(0.,0.,1.));
#1771=DIRECTION('',(0.,0.,1.));
#1772=DIRECTION('center_axis',(0.,-1.,0.));
#1773=DIRECTION('ref_axis',(1.,0.,0.));
#1774=DIRECTION('',(0.,0.,-1.));
#1775=DIRECTION('center_axis',(0.,1.,0.));
#1776=DIRECTION('ref_axis',(1.,0.,0.));
#1777=DIRECTION('',(0.,1.,0.));
#1778=DIRECTION('center_axis',(0.,1.,0.));
#1779=DIRECTION('ref_axis',(1.,0.,0.));
#1780=DIRECTION('',(0.,1.,0.));
#1781=DIRECTION('center_axis',(0.,1.,0.));
#1782=DIRECTION('ref_axis',(1.,0.,0.));
#1783=DIRECTION('center_axis',(0.,1.,0.));
#1784=DIRECTION('ref_axis',(0.,0.,1.));
#1785=DIRECTION('',(0.,0.,-1.));
#1786=DIRECTION('center_axis',(0.,-1.,0.));
#1787=DIRECTION('ref_axis',(1.,0.,0.));
#1788=DIRECTION('',(0.,0.,1.));
#1789=DIRECTION('center_axis',(1.,0.,0.));
#1790=DIRECTION('ref_axis',(0.,0.,-1.));
#1791=DIRECTION('',(0.,0.,-1.));
#1792=DIRECTION('center_axis',(-1.,0.,0.));
#1793=DIRECTION('ref_axis',(0.,0.,1.));
#1794=DIRECTION('',(0.,0.,1.));
#1795=DIRECTION('center_axis',(0.,1.,0.));
#1796=DIRECTION('ref_axis',(1.,0.,0.));
#1797=DIRECTION('center_axis',(0.,1.,0.));
#1798=DIRECTION('ref_axis',(1.,0.,0.));
#1799=DIRECTION('',(0.,1.,0.));
#1800=DIRECTION('center_axis',(0.,-1.,0.));
#1801=DIRECTION('ref_axis',(1.,0.,0.));
#1802=DIRECTION('center_axis',(0.,1.,0.));
#1803=DIRECTION('ref_axis',(1.,0.,0.));
#1804=DIRECTION('center_axis',(0.,1.,0.));
#1805=DIRECTION('ref_axis',(1.,0.,0.));
#1806=DIRECTION('',(0.,1.,0.));
#1807=DIRECTION('center_axis',(0.,-1.,0.));
#1808=DIRECTION('ref_axis',(1.,0.,0.));
#1809=DIRECTION('center_axis',(0.,1.,0.));
#1810=DIRECTION('ref_axis',(1.,0.,0.));
#1811=DIRECTION('center_axis',(0.,1.,0.));
#1812=DIRECTION('ref_axis',(1.,0.,0.));
#1813=DIRECTION('',(0.,1.,0.));
#1814=DIRECTION('center_axis',(0.,-1.,0.));
#1815=DIRECTION('ref_axis',(1.,0.,0.));
#1816=DIRECTION('center_axis',(0.,1.,0.));
#1817=DIRECTION('ref_axis',(1.,0.,0.));
#1818=DIRECTION('center_axis',(0.,1.,0.));
#1819=DIRECTION('ref_axis',(1.,0.,0.));
#1820=DIRECTION('',(0.,1.,0.));
#1821=DIRECTION('center_axis',(0.,-1.,0.));
#1822=DIRECTION('ref_axis',(1.,0.,0.));
#1823=DIRECTION('center_axis',(0.,1.,0.));
#1824=DIRECTION('ref_axis',(1.,0.,0.));
#1825=DIRECTION('center_axis',(0.,1.,0.));
#1826=DIRECTION('ref_axis',(1.,0.,0.));
#1827=DIRECTION('',(0.,1.,0.));
#1828=DIRECTION('center_axis',(0.,-1.,0.));
#1829=DIRECTION('ref_axis',(1.,0.,0.));
#1830=DIRECTION('center_axis',(0.,1.,0.));
#1831=DIRECTION('ref_axis',(1.,0.,0.));
#1832=DIRECTION('center_axis',(0.,1.,0.));
#1833=DIRECTION('ref_axis',(1.,0.,0.));
#1834=DIRECTION('',(0.,1.,0.));
#1835=DIRECTION('center_axis',(0.,-1.,0.));
#1836=DIRECTION('ref_axis',(1.,0.,0.));
#1837=DIRECTION('center_axis',(0.,1.,0.));
#1838=DIRECTION('ref_axis',(1.,0.,0.));
#1839=DIRECTION('center_axis',(0.,1.,0.));
#1840=DIRECTION('ref_axis',(1.,0.,0.));
#1841=DIRECTION('',(0.,1.,0.));
#1842=DIRECTION('center_axis',(0.,-1.,0.));
#1843=DIRECTION('ref_axis',(1.,0.,0.));
#1844=DIRECTION('center_axis',(0.,1.,0.));
#1845=DIRECTION('ref_axis',(1.,0.,0.));
#1846=DIRECTION('center_axis',(0.,1.,0.));
#1847=DIRECTION('ref_axis',(1.,0.,0.));
#1848=DIRECTION('',(0.,1.,0.));
#1849=DIRECTION('center_axis',(0.,-1.,0.));
#1850=DIRECTION('ref_axis',(1.,0.,0.));
#1851=DIRECTION('center_axis',(0.,1.,0.));
#1852=DIRECTION('ref_axis',(1.,0.,0.));
#1853=DIRECTION('center_axis',(0.,1.,0.));
#1854=DIRECTION('ref_axis',(1.,0.,0.));
#1855=DIRECTION('',(0.,1.,0.));
#1856=DIRECTION('center_axis',(0.,-1.,0.));
#1857=DIRECTION('ref_axis',(1.,0.,0.));
#1858=DIRECTION('center_axis',(0.,1.,0.));
#1859=DIRECTION('ref_axis',(1.,0.,0.));
#1860=DIRECTION('center_axis',(0.,1.,0.));
#1861=DIRECTION('ref_axis',(1.,0.,0.));
#1862=DIRECTION('',(0.,1.,0.));
#1863=DIRECTION('center_axis',(0.,-1.,0.));
#1864=DIRECTION('ref_axis',(1.,0.,0.));
#1865=DIRECTION('center_axis',(0.,1.,0.));
#1866=DIRECTION('ref_axis',(1.,0.,0.));
#1867=DIRECTION('',(0.,1.,0.));
#1868=DIRECTION('center_axis',(0.,-1.,0.));
#1869=DIRECTION('ref_axis',(1.,0.,0.));
#1870=DIRECTION('center_axis',(0.,1.,0.));
#1871=DIRECTION('ref_axis',(1.,0.,0.));
#1872=DIRECTION('center_axis',(0.,1.,0.));
#1873=DIRECTION('ref_axis',(1.,0.,0.));
#1874=DIRECTION('',(0.,1.,0.));
#1875=DIRECTION('center_axis',(0.,-1.,0.));
#1876=DIRECTION('ref_axis',(1.,0.,0.));
#1877=DIRECTION('center_axis',(0.,1.,0.));
#1878=DIRECTION('ref_axis',(1.,0.,0.));
#1879=DIRECTION('center_axis',(0.,1.,0.));
#1880=DIRECTION('ref_axis',(1.,0.,0.));
#1881=DIRECTION('',(0.,1.,0.));
#1882=DIRECTION('center_axis',(0.,-1.,0.));
#1883=DIRECTION('ref_axis',(1.,0.,0.));
#1884=DIRECTION('center_axis',(0.,1.,0.));
#1885=DIRECTION('ref_axis',(1.,0.,0.));
#1886=DIRECTION('center_axis',(0.,1.,0.));
#1887=DIRECTION('ref_axis',(1.,0.,0.));
#1888=DIRECTION('',(0.,1.,0.));
#1889=DIRECTION('center_axis',(0.,-1.,0.));
#1890=DIRECTION('ref_axis',(1.,0.,0.));
#1891=DIRECTION('center_axis',(0.,1.,0.));
#1892=DIRECTION('ref_axis',(1.,0.,0.));
#1893=DIRECTION('center_axis',(0.,1.,0.));
#1894=DIRECTION('ref_axis',(1.,0.,0.));
#1895=DIRECTION('',(0.,1.,0.));
#1896=DIRECTION('center_axis',(0.,-1.,0.));
#1897=DIRECTION('ref_axis',(1.,0.,0.));
#1898=DIRECTION('center_axis',(0.,1.,0.));
#1899=DIRECTION('ref_axis',(1.,0.,0.));
#1900=DIRECTION('center_axis',(0.,1.,0.));
#1901=DIRECTION('ref_axis',(1.,0.,0.));
#1902=DIRECTION('',(0.,1.,0.));
#1903=DIRECTION('center_axis',(0.,-1.,0.));
#1904=DIRECTION('ref_axis',(1.,0.,0.));
#1905=DIRECTION('center_axis',(0.,1.,0.));
#1906=DIRECTION('ref_axis',(1.,0.,0.));
#1907=DIRECTION('center_axis',(0.,1.,0.));
#1908=DIRECTION('ref_axis',(1.,0.,0.));
#1909=DIRECTION('',(0.,1.,0.));
#1910=DIRECTION('center_axis',(0.,-1.,0.));
#1911=DIRECTION('ref_axis',(1.,0.,0.));
#1912=DIRECTION('center_axis',(0.,1.,0.));
#1913=DIRECTION('ref_axis',(1.,0.,0.));
#1914=DIRECTION('center_axis',(0.,1.,0.));
#1915=DIRECTION('ref_axis',(1.,0.,0.));
#1916=DIRECTION('',(0.,1.,0.));
#1917=DIRECTION('center_axis',(0.,-1.,0.));
#1918=DIRECTION('ref_axis',(1.,0.,0.));
#1919=DIRECTION('center_axis',(0.,1.,0.));
#1920=DIRECTION('ref_axis',(1.,0.,0.));
#1921=DIRECTION('center_axis',(0.,1.,0.));
#1922=DIRECTION('ref_axis',(1.,0.,0.));
#1923=DIRECTION('',(0.,1.,0.));
#1924=DIRECTION('center_axis',(0.,-1.,0.));
#1925=DIRECTION('ref_axis',(1.,0.,0.));
#1926=DIRECTION('center_axis',(0.,1.,0.));
#1927=DIRECTION('ref_axis',(1.,0.,0.));
#1928=DIRECTION('',(0.,1.,0.));
#1929=DIRECTION('center_axis',(0.,-1.,0.));
#1930=DIRECTION('ref_axis',(1.,0.,0.));
#1931=DIRECTION('center_axis',(0.,1.,0.));
#1932=DIRECTION('ref_axis',(1.,0.,0.));
#1933=DIRECTION('center_axis',(0.,1.,0.));
#1934=DIRECTION('ref_axis',(1.,0.,0.));
#1935=DIRECTION('',(0.,1.,0.));
#1936=DIRECTION('center_axis',(0.,-1.,0.));
#1937=DIRECTION('ref_axis',(1.,0.,0.));
#1938=DIRECTION('center_axis',(0.,1.,0.));
#1939=DIRECTION('ref_axis',(1.,0.,0.));
#1940=DIRECTION('center_axis',(0.,1.,0.));
#1941=DIRECTION('ref_axis',(1.,0.,0.));
#1942=DIRECTION('',(0.,1.,0.));
#1943=DIRECTION('center_axis',(0.,-1.,0.));
#1944=DIRECTION('ref_axis',(1.,0.,0.));
#1945=DIRECTION('center_axis',(0.,1.,0.));
#1946=DIRECTION('ref_axis',(1.,0.,0.));
#1947=DIRECTION('center_axis',(0.,1.,0.));
#1948=DIRECTION('ref_axis',(1.,0.,0.));
#1949=DIRECTION('',(0.,1.,0.));
#1950=DIRECTION('center_axis',(0.,-1.,0.));
#1951=DIRECTION('ref_axis',(1.,0.,0.));
#1952=DIRECTION('center_axis',(0.,1.,0.));
#1953=DIRECTION('ref_axis',(1.,0.,0.));
#1954=DIRECTION('center_axis',(0.,1.,0.));
#1955=DIRECTION('ref_axis',(1.,0.,0.));
#1956=DIRECTION('',(0.,1.,0.));
#1957=DIRECTION('center_axis',(0.,-1.,0.));
#1958=DIRECTION('ref_axis',(1.,0.,0.));
#1959=DIRECTION('center_axis',(0.,1.,0.));
#1960=DIRECTION('ref_axis',(1.,0.,0.));
#1961=DIRECTION('center_axis',(0.,1.,0.));
#1962=DIRECTION('ref_axis',(1.,0.,0.));
#1963=DIRECTION('',(0.,1.,0.));
#1964=DIRECTION('center_axis',(0.,-1.,0.));
#1965=DIRECTION('ref_axis',(1.,0.,0.));
#1966=DIRECTION('center_axis',(0.,1.,0.));
#1967=DIRECTION('ref_axis',(1.,0.,0.));
#1968=DIRECTION('center_axis',(0.,1.,0.));
#1969=DIRECTION('ref_axis',(1.,0.,0.));
#1970=DIRECTION('',(0.,1.,0.));
#1971=DIRECTION('center_axis',(0.,-1.,0.));
#1972=DIRECTION('ref_axis',(1.,0.,0.));
#1973=DIRECTION('center_axis',(0.,1.,0.));
#1974=DIRECTION('ref_axis',(1.,0.,0.));
#1975=DIRECTION('center_axis',(0.,1.,0.));
#1976=DIRECTION('ref_axis',(1.,0.,0.));
#1977=DIRECTION('',(0.,1.,0.));
#1978=DIRECTION('center_axis',(0.,-1.,0.));
#1979=DIRECTION('ref_axis',(1.,0.,0.));
#1980=DIRECTION('center_axis',(0.,1.,0.));
#1981=DIRECTION('ref_axis',(1.,0.,0.));
#1982=DIRECTION('center_axis',(0.,1.,0.));
#1983=DIRECTION('ref_axis',(1.,0.,0.));
#1984=DIRECTION('',(0.,1.,0.));
#1985=DIRECTION('center_axis',(0.,-1.,0.));
#1986=DIRECTION('ref_axis',(1.,0.,0.));
#1987=DIRECTION('center_axis',(0.,1.,0.));
#1988=DIRECTION('ref_axis',(1.,0.,0.));
#1989=DIRECTION('center_axis',(0.,1.,0.));
#1990=DIRECTION('ref_axis',(1.,0.,0.));
#1991=DIRECTION('',(0.,1.,0.));
#1992=DIRECTION('center_axis',(0.,-1.,0.));
#1993=DIRECTION('ref_axis',(1.,0.,0.));
#1994=DIRECTION('center_axis',(0.,1.,0.));
#1995=DIRECTION('ref_axis',(1.,0.,0.));
#1996=DIRECTION('center_axis',(0.,1.,0.));
#1997=DIRECTION('ref_axis',(1.,0.,0.));
#1998=DIRECTION('',(0.,1.,0.));
#1999=DIRECTION('center_axis',(0.,-1.,0.));
#2000=DIRECTION('ref_axis',(1.,0.,0.));
#2001=DIRECTION('center_axis',(0.,1.,0.));
#2002=DIRECTION('ref_axis',(1.,0.,0.));
#2003=DIRECTION('center_axis',(0.,1.,0.));
#2004=DIRECTION('ref_axis',(1.,0.,0.));
#2005=DIRECTION('',(0.,1.,0.));
#2006=DIRECTION('center_axis',(0.,-1.,0.));
#2007=DIRECTION('ref_axis',(1.,0.,0.));
#2008=DIRECTION('center_axis',(0.,1.,0.));
#2009=DIRECTION('ref_axis',(1.,0.,0.));
#2010=DIRECTION('center_axis',(0.,1.,0.));
#2011=DIRECTION('ref_axis',(1.,0.,0.));
#2012=DIRECTION('',(0.,1.,0.));
#2013=DIRECTION('center_axis',(0.,-1.,0.));
#2014=DIRECTION('ref_axis',(1.,0.,0.));
#2015=DIRECTION('center_axis',(0.,1.,0.));
#2016=DIRECTION('ref_axis',(1.,0.,0.));
#2017=DIRECTION('center_axis',(0.,1.,0.));
#2018=DIRECTION('ref_axis',(1.,0.,0.));
#2019=DIRECTION('',(0.,1.,0.));
#2020=DIRECTION('center_axis',(0.,-1.,0.));
#2021=DIRECTION('ref_axis',(1.,0.,0.));
#2022=DIRECTION('center_axis',(0.,1.,0.));
#2023=DIRECTION('ref_axis',(1.,0.,0.));
#2024=DIRECTION('center_axis',(0.,1.,0.));
#2025=DIRECTION('ref_axis',(1.,0.,0.));
#2026=DIRECTION('',(0.,1.,0.));
#2027=DIRECTION('center_axis',(0.,-1.,0.));
#2028=DIRECTION('ref_axis',(1.,0.,0.));
#2029=DIRECTION('center_axis',(0.,1.,0.));
#2030=DIRECTION('ref_axis',(1.,0.,0.));
#2031=DIRECTION('center_axis',(0.,1.,0.));
#2032=DIRECTION('ref_axis',(1.,0.,0.));
#2033=DIRECTION('',(0.,1.,0.));
#2034=DIRECTION('center_axis',(0.,-1.,0.));
#2035=DIRECTION('ref_axis',(1.,0.,0.));
#2036=DIRECTION('center_axis',(0.,1.,0.));
#2037=DIRECTION('ref_axis',(1.,0.,0.));
#2038=DIRECTION('center_axis',(0.,1.,0.));
#2039=DIRECTION('ref_axis',(1.,0.,0.));
#2040=DIRECTION('',(0.,1.,0.));
#2041=DIRECTION('center_axis',(0.,-1.,0.));
#2042=DIRECTION('ref_axis',(1.,0.,0.));
#2043=DIRECTION('center_axis',(0.,1.,0.));
#2044=DIRECTION('ref_axis',(1.,0.,0.));
#2045=DIRECTION('center_axis',(0.,1.,0.));
#2046=DIRECTION('ref_axis',(1.,0.,0.));
#2047=DIRECTION('',(0.,1.,0.));
#2048=DIRECTION('center_axis',(0.,-1.,0.));
#2049=DIRECTION('ref_axis',(1.,0.,0.));
#2050=DIRECTION('center_axis',(0.,1.,0.));
#2051=DIRECTION('ref_axis',(1.,0.,0.));
#2052=DIRECTION('center_axis',(0.,1.,0.));
#2053=DIRECTION('ref_axis',(1.,0.,0.));
#2054=DIRECTION('',(0.,1.,0.));
#2055=DIRECTION('center_axis',(0.,-1.,0.));
#2056=DIRECTION('ref_axis',(1.,0.,0.));
#2057=DIRECTION('center_axis',(0.,1.,0.));
#2058=DIRECTION('ref_axis',(1.,0.,0.));
#2059=DIRECTION('center_axis',(0.,1.,0.));
#2060=DIRECTION('ref_axis',(1.,0.,0.));
#2061=DIRECTION('',(0.,1.,0.));
#2062=DIRECTION('center_axis',(0.,-1.,0.));
#2063=DIRECTION('ref_axis',(1.,0.,0.));
#2064=DIRECTION('center_axis',(0.,1.,0.));
#2065=DIRECTION('ref_axis',(1.,0.,0.));
#2066=DIRECTION('center_axis',(0.,1.,0.));
#2067=DIRECTION('ref_axis',(1.,0.,0.));
#2068=DIRECTION('',(0.,1.,0.));
#2069=DIRECTION('center_axis',(0.,-1.,0.));
#2070=DIRECTION('ref_axis',(1.,0.,0.));
#2071=DIRECTION('center_axis',(0.,1.,0.));
#2072=DIRECTION('ref_axis',(-1.,0.,0.));
#2073=DIRECTION('',(-1.,0.,0.));
#2074=DIRECTION('',(0.,0.,1.));
#2075=DIRECTION('',(-1.,0.,0.));
#2076=DIRECTION('',(0.,0.,1.));
#2077=DIRECTION('center_axis',(1.,0.,0.));
#2078=DIRECTION('ref_axis',(0.,1.,0.));
#2079=DIRECTION('',(0.,1.,0.));
#2080=DIRECTION('',(0.,1.,0.));
#2081=DIRECTION('',(0.,0.,1.));
#2082=DIRECTION('center_axis',(0.,-1.,0.));
#2083=DIRECTION('ref_axis',(1.,0.,0.));
#2084=DIRECTION('',(1.,0.,0.));
#2085=DIRECTION('',(1.,0.,0.));
#2086=DIRECTION('',(0.,0.,1.));
#2087=DIRECTION('center_axis',(-1.,0.,0.));
#2088=DIRECTION('ref_axis',(0.,-1.,0.));
#2089=DIRECTION('',(0.,-1.,0.));
#2090=DIRECTION('',(0.,-1.,0.));
#2091=DIRECTION('center_axis',(0.,0.,1.));
#2092=DIRECTION('ref_axis',(1.,0.,0.));
#2093=DIRECTION('center_axis',(0.,0.,1.));
#2094=DIRECTION('ref_axis',(1.,0.,0.));
#2095=CARTESIAN_POINT('',(0.,0.,0.));
#2096=CARTESIAN_POINT('Origin',(12.35,10.9,11.));
#2097=CARTESIAN_POINT('',(12.125,11.,11.));
#2098=CARTESIAN_POINT('Origin',(12.35,11.,11.));
#2099=CARTESIAN_POINT('',(12.125,12.2,11.));
#2100=CARTESIAN_POINT('',(12.125,10.9,11.));
#2101=CARTESIAN_POINT('Origin',(12.35,12.2,11.));
#2102=CARTESIAN_POINT('Origin',(12.35,10.9,6.));
#2103=CARTESIAN_POINT('',(12.125,11.,6.));
#2104=CARTESIAN_POINT('Origin',(12.35,11.,6.));
#2105=CARTESIAN_POINT('',(12.125,12.2,6.));
#2106=CARTESIAN_POINT('',(12.125,10.9,6.));
#2107=CARTESIAN_POINT('Origin',(12.35,12.2,6.));
#2108=CARTESIAN_POINT('Origin',(-12.35,10.9,11.));
#2109=CARTESIAN_POINT('',(-12.575,11.,11.));
#2110=CARTESIAN_POINT('Origin',(-12.35,11.,11.));
#2111=CARTESIAN_POINT('',(-12.575,12.2,11.));
#2112=CARTESIAN_POINT('',(-12.575,10.9,11.));
#2113=CARTESIAN_POINT('Origin',(-12.35,12.2,11.));
#2114=CARTESIAN_POINT('Origin',(-12.35,10.9,6.));
#2115=CARTESIAN_POINT('',(-12.575,11.,6.));
#2116=CARTESIAN_POINT('Origin',(-12.35,11.,6.));
#2117=CARTESIAN_POINT('',(-12.575,12.2,6.));
#2118=CARTESIAN_POINT('',(-12.575,10.9,6.));
#2119=CARTESIAN_POINT('Origin',(-12.35,12.2,6.));
#2120=CARTESIAN_POINT('Origin',(11.,10.9,1.25));
#2121=CARTESIAN_POINT('',(10.775,11.,1.25));
#2122=CARTESIAN_POINT('Origin',(11.,11.,1.25));
#2123=CARTESIAN_POINT('',(10.775,12.2,1.25));
#2124=CARTESIAN_POINT('',(10.775,10.9,1.25));
#2125=CARTESIAN_POINT('Origin',(11.,12.2,1.25));
#2126=CARTESIAN_POINT('Origin',(-11.,10.9,1.25));
#2127=CARTESIAN_POINT('',(-11.225,11.,1.25));
#2128=CARTESIAN_POINT('Origin',(-11.,11.,1.25));
#2129=CARTESIAN_POINT('',(-11.225,12.2,1.25));
#2130=CARTESIAN_POINT('',(-11.225,10.9,1.25));
#2131=CARTESIAN_POINT('Origin',(-11.,12.2,1.25));
#2132=CARTESIAN_POINT('Origin',(8.3,10.9,12.5));
#2133=CARTESIAN_POINT('',(8.075,11.,12.5));
#2134=CARTESIAN_POINT('Origin',(8.3,11.,12.5));
#2135=CARTESIAN_POINT('',(8.075,12.2,12.5));
#2136=CARTESIAN_POINT('',(8.075,10.9,12.5));
#2137=CARTESIAN_POINT('Origin',(8.3,12.2,12.5));
#2138=CARTESIAN_POINT('Origin',(4.7,10.9,12.5));
#2139=CARTESIAN_POINT('',(4.475,11.,12.5));
#2140=CARTESIAN_POINT('Origin',(4.7,11.,12.5));
#2141=CARTESIAN_POINT('',(4.475,12.2,12.5));
#2142=CARTESIAN_POINT('',(4.475,10.9,12.5));
#2143=CARTESIAN_POINT('Origin',(4.7,12.2,12.5));
#2144=CARTESIAN_POINT('Origin',(-4.7,10.9,12.5));
#2145=CARTESIAN_POINT('',(-4.925,11.,12.5));
#2146=CARTESIAN_POINT('Origin',(-4.7,11.,12.5));
#2147=CARTESIAN_POINT('',(-4.925,12.2,12.5));
#2148=CARTESIAN_POINT('',(-4.925,10.9,12.5));
#2149=CARTESIAN_POINT('Origin',(-4.7,12.2,12.5));
#2150=CARTESIAN_POINT('Origin',(-8.3,10.9,12.5));
#2151=CARTESIAN_POINT('',(-8.525,11.,12.5));
#2152=CARTESIAN_POINT('Origin',(-8.3,11.,12.5));
#2153=CARTESIAN_POINT('',(-8.525,12.2,12.5));
#2154=CARTESIAN_POINT('',(-8.525,10.9,12.5));
#2155=CARTESIAN_POINT('Origin',(-8.3,12.2,12.5));
#2156=CARTESIAN_POINT('Origin',(8.3,9.9,19.625));
#2157=CARTESIAN_POINT('',(8.525,11.,19.625));
#2158=CARTESIAN_POINT('',(8.525,11.1,19.625));
#2159=CARTESIAN_POINT('',(8.525,9.9,19.625));
#2160=CARTESIAN_POINT('',(8.075,11.,19.625));
#2161=CARTESIAN_POINT('Origin',(8.3,11.,19.625));
#2162=CARTESIAN_POINT('',(8.075,11.1,19.625));
#2163=CARTESIAN_POINT('',(8.075,9.9,19.625));
#2164=CARTESIAN_POINT('Origin',(8.3,11.1,19.625));
#2165=CARTESIAN_POINT('Origin',(8.3,11.1,18.45));
#2166=CARTESIAN_POINT('',(8.075,11.1,18.5));
#2167=CARTESIAN_POINT('',(8.075,11.1,19.625));
#2168=CARTESIAN_POINT('',(8.525,11.1,18.5));
#2169=CARTESIAN_POINT('Origin',(8.3,11.1,18.5));
#2170=CARTESIAN_POINT('',(8.525,11.1,17.275));
#2171=CARTESIAN_POINT('Origin',(8.3,9.9,17.275));
#2172=CARTESIAN_POINT('',(8.075,11.,17.275));
#2173=CARTESIAN_POINT('',(8.075,11.1,17.275));
#2174=CARTESIAN_POINT('',(8.075,9.9,17.275));
#2175=CARTESIAN_POINT('',(8.525,11.,17.275));
#2176=CARTESIAN_POINT('Origin',(8.3,11.,17.275));
#2177=CARTESIAN_POINT('',(8.525,11.1,17.275));
#2178=CARTESIAN_POINT('',(8.525,9.9,17.275));
#2179=CARTESIAN_POINT('Origin',(8.3,11.1,17.275));
#2180=CARTESIAN_POINT('Origin',(8.3,11.1,18.45));
#2181=CARTESIAN_POINT('',(8.525,11.1,17.275));
#2182=CARTESIAN_POINT('Origin',(8.3,11.1,18.5));
#2183=CARTESIAN_POINT('',(8.075,11.1,19.625));
#2184=CARTESIAN_POINT('Origin',(8.525,9.9,19.625));
#2185=CARTESIAN_POINT('',(8.525,11.,9.8125));
#2186=CARTESIAN_POINT('Origin',(8.075,9.9,17.275));
#2187=CARTESIAN_POINT('',(8.075,11.,8.6375));
#2188=CARTESIAN_POINT('Origin',(4.7,9.9,19.625));
#2189=CARTESIAN_POINT('',(4.925,11.,19.625));
#2190=CARTESIAN_POINT('',(4.925,11.1,19.625));
#2191=CARTESIAN_POINT('',(4.925,9.9,19.625));
#2192=CARTESIAN_POINT('',(4.475,11.,19.625));
#2193=CARTESIAN_POINT('Origin',(4.7,11.,19.625));
#2194=CARTESIAN_POINT('',(4.475,11.1,19.625));
#2195=CARTESIAN_POINT('',(4.475,9.9,19.625));
#2196=CARTESIAN_POINT('Origin',(4.7,11.1,19.625));
#2197=CARTESIAN_POINT('Origin',(4.7,11.1,18.45));
#2198=CARTESIAN_POINT('',(4.475,11.1,18.5));
#2199=CARTESIAN_POINT('',(4.475,11.1,19.625));
#2200=CARTESIAN_POINT('',(4.925,11.1,18.5));
#2201=CARTESIAN_POINT('Origin',(4.7,11.1,18.5));
#2202=CARTESIAN_POINT('',(4.925,11.1,17.275));
#2203=CARTESIAN_POINT('Origin',(4.7,9.9,17.275));
#2204=CARTESIAN_POINT('',(4.475,11.,17.275));
#2205=CARTESIAN_POINT('',(4.475,11.1,17.275));
#2206=CARTESIAN_POINT('',(4.475,9.9,17.275));
#2207=CARTESIAN_POINT('',(4.925,11.,17.275));
#2208=CARTESIAN_POINT('Origin',(4.7,11.,17.275));
#2209=CARTESIAN_POINT('',(4.925,11.1,17.275));
#2210=CARTESIAN_POINT('',(4.925,9.9,17.275));
#2211=CARTESIAN_POINT('Origin',(4.7,11.1,17.275));
#2212=CARTESIAN_POINT('Origin',(4.7,11.1,18.45));
#2213=CARTESIAN_POINT('',(4.925,11.1,17.275));
#2214=CARTESIAN_POINT('Origin',(4.7,11.1,18.5));
#2215=CARTESIAN_POINT('',(4.475,11.1,19.625));
#2216=CARTESIAN_POINT('Origin',(4.925,9.9,19.625));
#2217=CARTESIAN_POINT('',(4.925,11.,9.8125));
#2218=CARTESIAN_POINT('Origin',(4.475,9.9,17.275));
#2219=CARTESIAN_POINT('',(4.475,11.,8.6375));
#2220=CARTESIAN_POINT('Origin',(12.,10.9,24.));
#2221=CARTESIAN_POINT('',(11.775,11.,24.));
#2222=CARTESIAN_POINT('Origin',(12.,11.,24.));
#2223=CARTESIAN_POINT('',(11.775,12.2,24.));
#2224=CARTESIAN_POINT('',(11.775,10.9,24.));
#2225=CARTESIAN_POINT('Origin',(12.,12.2,24.));
#2226=CARTESIAN_POINT('Origin',(12.,10.9,8.));
#2227=CARTESIAN_POINT('',(11.775,11.,8.));
#2228=CARTESIAN_POINT('Origin',(12.,11.,8.));
#2229=CARTESIAN_POINT('',(11.775,12.2,8.));
#2230=CARTESIAN_POINT('',(11.775,10.9,8.));
#2231=CARTESIAN_POINT('Origin',(12.,12.2,8.));
#2232=CARTESIAN_POINT('Origin',(-12.,10.9,24.));
#2233=CARTESIAN_POINT('',(-12.225,11.,24.));
#2234=CARTESIAN_POINT('Origin',(-12.,11.,24.));
#2235=CARTESIAN_POINT('',(-12.225,12.2,24.));
#2236=CARTESIAN_POINT('',(-12.225,10.9,24.));
#2237=CARTESIAN_POINT('Origin',(-12.,12.2,24.));
#2238=CARTESIAN_POINT('Origin',(-12.,10.9,8.));
#2239=CARTESIAN_POINT('',(-12.225,11.,8.));
#2240=CARTESIAN_POINT('Origin',(-12.,11.,8.));
#2241=CARTESIAN_POINT('',(-12.225,12.2,8.));
#2242=CARTESIAN_POINT('',(-12.225,10.9,8.));
#2243=CARTESIAN_POINT('Origin',(-12.,12.2,8.));
#2244=CARTESIAN_POINT('Origin',(8.3,10.9,30.5));
#2245=CARTESIAN_POINT('',(8.075,11.,30.5));
#2246=CARTESIAN_POINT('Origin',(8.3,11.,30.5));
#2247=CARTESIAN_POINT('',(8.075,12.2,30.5));
#2248=CARTESIAN_POINT('',(8.075,10.9,30.5));
#2249=CARTESIAN_POINT('Origin',(8.3,12.2,30.5));
#2250=CARTESIAN_POINT('Origin',(8.3,10.9,28.5));
#2251=CARTESIAN_POINT('',(8.075,11.,28.5));
#2252=CARTESIAN_POINT('Origin',(8.3,11.,28.5));
#2253=CARTESIAN_POINT('',(8.075,12.2,28.5));
#2254=CARTESIAN_POINT('',(8.075,10.9,28.5));
#2255=CARTESIAN_POINT('Origin',(8.3,12.2,28.5));
#2256=CARTESIAN_POINT('Origin',(8.3,10.9,26.5));
#2257=CARTESIAN_POINT('',(8.075,11.,26.5));
#2258=CARTESIAN_POINT('Origin',(8.3,11.,26.5));
#2259=CARTESIAN_POINT('',(8.075,12.2,26.5));
#2260=CARTESIAN_POINT('',(8.075,10.9,26.5));
#2261=CARTESIAN_POINT('Origin',(8.3,12.2,26.5));
#2262=CARTESIAN_POINT('Origin',(8.3,10.9,24.5));
#2263=CARTESIAN_POINT('',(8.075,11.,24.5));
#2264=CARTESIAN_POINT('Origin',(8.3,11.,24.5));
#2265=CARTESIAN_POINT('',(8.075,12.2,24.5));
#2266=CARTESIAN_POINT('',(8.075,10.9,24.5));
#2267=CARTESIAN_POINT('Origin',(8.3,12.2,24.5));
#2268=CARTESIAN_POINT('Origin',(8.3,10.9,22.5));
#2269=CARTESIAN_POINT('',(8.075,11.,22.5));
#2270=CARTESIAN_POINT('Origin',(8.3,11.,22.5));
#2271=CARTESIAN_POINT('',(8.075,12.2,22.5));
#2272=CARTESIAN_POINT('',(8.075,10.9,22.5));
#2273=CARTESIAN_POINT('Origin',(8.3,12.2,22.5));
#2274=CARTESIAN_POINT('Origin',(8.3,10.9,20.5));
#2275=CARTESIAN_POINT('',(8.075,11.,20.5));
#2276=CARTESIAN_POINT('Origin',(8.3,11.,20.5));
#2277=CARTESIAN_POINT('',(8.075,12.2,20.5));
#2278=CARTESIAN_POINT('',(8.075,10.9,20.5));
#2279=CARTESIAN_POINT('Origin',(8.3,12.2,20.5));
#2280=CARTESIAN_POINT('Origin',(8.3,10.9,18.5));
#2281=CARTESIAN_POINT('',(8.075,12.2,18.5));
#2282=CARTESIAN_POINT('',(8.075,10.9,18.5));
#2283=CARTESIAN_POINT('Origin',(8.3,12.2,18.5));
#2284=CARTESIAN_POINT('Origin',(8.3,10.9,16.5));
#2285=CARTESIAN_POINT('',(8.075,11.,16.5));
#2286=CARTESIAN_POINT('Origin',(8.3,11.,16.5));
#2287=CARTESIAN_POINT('',(8.075,12.2,16.5));
#2288=CARTESIAN_POINT('',(8.075,10.9,16.5));
#2289=CARTESIAN_POINT('Origin',(8.3,12.2,16.5));
#2290=CARTESIAN_POINT('Origin',(8.3,10.9,14.5));
#2291=CARTESIAN_POINT('',(8.075,11.,14.5));
#2292=CARTESIAN_POINT('Origin',(8.3,11.,14.5));
#2293=CARTESIAN_POINT('',(8.075,12.2,14.5));
#2294=CARTESIAN_POINT('',(8.075,10.9,14.5));
#2295=CARTESIAN_POINT('Origin',(8.3,12.2,14.5));
#2296=CARTESIAN_POINT('Origin',(4.7,10.9,30.5));
#2297=CARTESIAN_POINT('',(4.475,11.,30.5));
#2298=CARTESIAN_POINT('Origin',(4.7,11.,30.5));
#2299=CARTESIAN_POINT('',(4.475,12.2,30.5));
#2300=CARTESIAN_POINT('',(4.475,10.9,30.5));
#2301=CARTESIAN_POINT('Origin',(4.7,12.2,30.5));
#2302=CARTESIAN_POINT('Origin',(4.7,10.9,28.5));
#2303=CARTESIAN_POINT('',(4.475,11.,28.5));
#2304=CARTESIAN_POINT('Origin',(4.7,11.,28.5));
#2305=CARTESIAN_POINT('',(4.475,12.2,28.5));
#2306=CARTESIAN_POINT('',(4.475,10.9,28.5));
#2307=CARTESIAN_POINT('Origin',(4.7,12.2,28.5));
#2308=CARTESIAN_POINT('Origin',(4.7,10.9,26.5));
#2309=CARTESIAN_POINT('',(4.475,11.,26.5));
#2310=CARTESIAN_POINT('Origin',(4.7,11.,26.5));
#2311=CARTESIAN_POINT('',(4.475,12.2,26.5));
#2312=CARTESIAN_POINT('',(4.475,10.9,26.5));
#2313=CARTESIAN_POINT('Origin',(4.7,12.2,26.5));
#2314=CARTESIAN_POINT('Origin',(4.7,10.9,24.5));
#2315=CARTESIAN_POINT('',(4.475,11.,24.5));
#2316=CARTESIAN_POINT('Origin',(4.7,11.,24.5));
#2317=CARTESIAN_POINT('',(4.475,12.2,24.5));
#2318=CARTESIAN_POINT('',(4.475,10.9,24.5));
#2319=CARTESIAN_POINT('Origin',(4.7,12.2,24.5));
#2320=CARTESIAN_POINT('Origin',(4.7,10.9,22.5));
#2321=CARTESIAN_POINT('',(4.475,11.,22.5));
#2322=CARTESIAN_POINT('Origin',(4.7,11.,22.5));
#2323=CARTESIAN_POINT('',(4.475,12.2,22.5));
#2324=CARTESIAN_POINT('',(4.475,10.9,22.5));
#2325=CARTESIAN_POINT('Origin',(4.7,12.2,22.5));
#2326=CARTESIAN_POINT('Origin',(4.7,10.9,20.5));
#2327=CARTESIAN_POINT('',(4.475,11.,20.5));
#2328=CARTESIAN_POINT('Origin',(4.7,11.,20.5));
#2329=CARTESIAN_POINT('',(4.475,12.2,20.5));
#2330=CARTESIAN_POINT('',(4.475,10.9,20.5));
#2331=CARTESIAN_POINT('Origin',(4.7,12.2,20.5));
#2332=CARTESIAN_POINT('Origin',(4.7,10.9,18.5));
#2333=CARTESIAN_POINT('',(4.475,12.2,18.5));
#2334=CARTESIAN_POINT('',(4.475,10.9,18.5));
#2335=CARTESIAN_POINT('Origin',(4.7,12.2,18.5));
#2336=CARTESIAN_POINT('Origin',(4.7,10.9,16.5));
#2337=CARTESIAN_POINT('',(4.475,11.,16.5));
#2338=CARTESIAN_POINT('Origin',(4.7,11.,16.5));
#2339=CARTESIAN_POINT('',(4.475,12.2,16.5));
#2340=CARTESIAN_POINT('',(4.475,10.9,16.5));
#2341=CARTESIAN_POINT('Origin',(4.7,12.2,16.5));
#2342=CARTESIAN_POINT('Origin',(4.7,10.9,14.5));
#2343=CARTESIAN_POINT('',(4.475,11.,14.5));
#2344=CARTESIAN_POINT('Origin',(4.7,11.,14.5));
#2345=CARTESIAN_POINT('',(4.475,12.2,14.5));
#2346=CARTESIAN_POINT('',(4.475,10.9,14.5));
#2347=CARTESIAN_POINT('Origin',(4.7,12.2,14.5));
#2348=CARTESIAN_POINT('Origin',(-4.7,10.9,30.5));
#2349=CARTESIAN_POINT('',(-4.925,11.,30.5));
#2350=CARTESIAN_POINT('Origin',(-4.7,11.,30.5));
#2351=CARTESIAN_POINT('',(-4.925,12.2,30.5));
#2352=CARTESIAN_POINT('',(-4.925,10.9,30.5));
#2353=CARTESIAN_POINT('Origin',(-4.7,12.2,30.5));
#2354=CARTESIAN_POINT('Origin',(-4.7,10.9,28.5));
#2355=CARTESIAN_POINT('',(-4.925,11.,28.5));
#2356=CARTESIAN_POINT('Origin',(-4.7,11.,28.5));
#2357=CARTESIAN_POINT('',(-4.925,12.2,28.5));
#2358=CARTESIAN_POINT('',(-4.925,10.9,28.5));
#2359=CARTESIAN_POINT('Origin',(-4.7,12.2,28.5));
#2360=CARTESIAN_POINT('Origin',(-4.7,10.9,26.5));
#2361=CARTESIAN_POINT('',(-4.925,11.,26.5));
#2362=CARTESIAN_POINT('Origin',(-4.7,11.,26.5));
#2363=CARTESIAN_POINT('',(-4.925,12.2,26.5));
#2364=CARTESIAN_POINT('',(-4.925,10.9,26.5));
#2365=CARTESIAN_POINT('Origin',(-4.7,12.2,26.5));
#2366=CARTESIAN_POINT('Origin',(-4.7,10.9,24.5));
#2367=CARTESIAN_POINT('',(-4.925,11.,24.5));
#2368=CARTESIAN_POINT('Origin',(-4.7,11.,24.5));
#2369=CARTESIAN_POINT('',(-4.925,12.2,24.5));
#2370=CARTESIAN_POINT('',(-4.925,10.9,24.5));
#2371=CARTESIAN_POINT('Origin',(-4.7,12.2,24.5));
#2372=CARTESIAN_POINT('Origin',(-4.7,10.9,22.5));
#2373=CARTESIAN_POINT('',(-4.925,11.,22.5));
#2374=CARTESIAN_POINT('Origin',(-4.7,11.,22.5));
#2375=CARTESIAN_POINT('',(-4.925,12.2,22.5));
#2376=CARTESIAN_POINT('',(-4.925,10.9,22.5));
#2377=CARTESIAN_POINT('Origin',(-4.7,12.2,22.5));
#2378=CARTESIAN_POINT('Origin',(-4.7,10.9,20.5));
#2379=CARTESIAN_POINT('',(-4.925,11.,20.5));
#2380=CARTESIAN_POINT('Origin',(-4.7,11.,20.5));
#2381=CARTESIAN_POINT('',(-4.925,12.2,20.5));
#2382=CARTESIAN_POINT('',(-4.925,10.9,20.5));
#2383=CARTESIAN_POINT('Origin',(-4.7,12.2,20.5));
#2384=CARTESIAN_POINT('Origin',(-4.7,10.9,18.5));
#2385=CARTESIAN_POINT('',(-4.925,11.,18.5));
#2386=CARTESIAN_POINT('Origin',(-4.7,11.,18.5));
#2387=CARTESIAN_POINT('',(-4.925,12.2,18.5));
#2388=CARTESIAN_POINT('',(-4.925,10.9,18.5));
#2389=CARTESIAN_POINT('Origin',(-4.7,12.2,18.5));
#2390=CARTESIAN_POINT('Origin',(-4.7,10.9,16.5));
#2391=CARTESIAN_POINT('',(-4.925,11.,16.5));
#2392=CARTESIAN_POINT('Origin',(-4.7,11.,16.5));
#2393=CARTESIAN_POINT('',(-4.925,12.2,16.5));
#2394=CARTESIAN_POINT('',(-4.925,10.9,16.5));
#2395=CARTESIAN_POINT('Origin',(-4.7,12.2,16.5));
#2396=CARTESIAN_POINT('Origin',(-4.7,10.9,14.5));
#2397=CARTESIAN_POINT('',(-4.925,11.,14.5));
#2398=CARTESIAN_POINT('Origin',(-4.7,11.,14.5));
#2399=CARTESIAN_POINT('',(-4.925,12.2,14.5));
#2400=CARTESIAN_POINT('',(-4.925,10.9,14.5));
#2401=CARTESIAN_POINT('Origin',(-4.7,12.2,14.5));
#2402=CARTESIAN_POINT('Origin',(-8.3,10.9,30.5));
#2403=CARTESIAN_POINT('',(-8.525,11.,30.5));
#2404=CARTESIAN_POINT('Origin',(-8.3,11.,30.5));
#2405=CARTESIAN_POINT('',(-8.525,12.2,30.5));
#2406=CARTESIAN_POINT('',(-8.525,10.9,30.5));
#2407=CARTESIAN_POINT('Origin',(-8.3,12.2,30.5));
#2408=CARTESIAN_POINT('Origin',(-8.3,10.9,28.5));
#2409=CARTESIAN_POINT('',(-8.525,11.,28.5));
#2410=CARTESIAN_POINT('Origin',(-8.3,11.,28.5));
#2411=CARTESIAN_POINT('',(-8.525,12.2,28.5));
#2412=CARTESIAN_POINT('',(-8.525,10.9,28.5));
#2413=CARTESIAN_POINT('Origin',(-8.3,12.2,28.5));
#2414=CARTESIAN_POINT('Origin',(-8.3,10.9,26.5));
#2415=CARTESIAN_POINT('',(-8.525,11.,26.5));
#2416=CARTESIAN_POINT('Origin',(-8.3,11.,26.5));
#2417=CARTESIAN_POINT('',(-8.525,12.2,26.5));
#2418=CARTESIAN_POINT('',(-8.525,10.9,26.5));
#2419=CARTESIAN_POINT('Origin',(-8.3,12.2,26.5));
#2420=CARTESIAN_POINT('Origin',(-8.3,10.9,24.5));
#2421=CARTESIAN_POINT('',(-8.525,11.,24.5));
#2422=CARTESIAN_POINT('Origin',(-8.3,11.,24.5));
#2423=CARTESIAN_POINT('',(-8.525,12.2,24.5));
#2424=CARTESIAN_POINT('',(-8.525,10.9,24.5));
#2425=CARTESIAN_POINT('Origin',(-8.3,12.2,24.5));
#2426=CARTESIAN_POINT('Origin',(-8.3,10.9,22.5));
#2427=CARTESIAN_POINT('',(-8.525,11.,22.5));
#2428=CARTESIAN_POINT('Origin',(-8.3,11.,22.5));
#2429=CARTESIAN_POINT('',(-8.525,12.2,22.5));
#2430=CARTESIAN_POINT('',(-8.525,10.9,22.5));
#2431=CARTESIAN_POINT('Origin',(-8.3,12.2,22.5));
#2432=CARTESIAN_POINT('Origin',(-8.3,10.9,20.5));
#2433=CARTESIAN_POINT('',(-8.525,11.,20.5));
#2434=CARTESIAN_POINT('Origin',(-8.3,11.,20.5));
#2435=CARTESIAN_POINT('',(-8.525,12.2,20.5));
#2436=CARTESIAN_POINT('',(-8.525,10.9,20.5));
#2437=CARTESIAN_POINT('Origin',(-8.3,12.2,20.5));
#2438=CARTESIAN_POINT('Origin',(-8.3,10.9,18.5));
#2439=CARTESIAN_POINT('',(-8.525,11.,18.5));
#2440=CARTESIAN_POINT('Origin',(-8.3,11.,18.5));
#2441=CARTESIAN_POINT('',(-8.525,12.2,18.5));
#2442=CARTESIAN_POINT('',(-8.525,10.9,18.5));
#2443=CARTESIAN_POINT('Origin',(-8.3,12.2,18.5));
#2444=CARTESIAN_POINT('Origin',(-8.3,10.9,16.5));
#2445=CARTESIAN_POINT('',(-8.525,11.,16.5));
#2446=CARTESIAN_POINT('Origin',(-8.3,11.,16.5));
#2447=CARTESIAN_POINT('',(-8.525,12.2,16.5));
#2448=CARTESIAN_POINT('',(-8.525,10.9,16.5));
#2449=CARTESIAN_POINT('Origin',(-8.3,12.2,16.5));
#2450=CARTESIAN_POINT('Origin',(-8.3,10.9,14.5));
#2451=CARTESIAN_POINT('',(-8.525,11.,14.5));
#2452=CARTESIAN_POINT('Origin',(-8.3,11.,14.5));
#2453=CARTESIAN_POINT('',(-8.525,12.2,14.5));
#2454=CARTESIAN_POINT('',(-8.525,10.9,14.5));
#2455=CARTESIAN_POINT('Origin',(-8.3,12.2,14.5));
#2456=CARTESIAN_POINT('Origin',(15.,12.2,0.));
#2457=CARTESIAN_POINT('',(15.,12.2,0.));
#2458=CARTESIAN_POINT('',(-15.,12.2,0.));
#2459=CARTESIAN_POINT('',(15.,12.2,0.));
#2460=CARTESIAN_POINT('',(-15.,12.2,36.));
#2461=CARTESIAN_POINT('',(-15.,12.2,0.));
#2462=CARTESIAN_POINT('',(15.,12.2,36.));
#2463=CARTESIAN_POINT('',(15.,12.2,36.));
#2464=CARTESIAN_POINT('',(15.,12.2,0.));
#2465=CARTESIAN_POINT('Origin',(15.,11.,0.));
#2466=CARTESIAN_POINT('',(15.,11.,0.));
#2467=CARTESIAN_POINT('',(15.,11.,0.));
#2468=CARTESIAN_POINT('',(15.,11.,36.));
#2469=CARTESIAN_POINT('',(15.,11.,36.));
#2470=CARTESIAN_POINT('',(15.,11.,0.));
#2471=CARTESIAN_POINT('Origin',(-15.,11.,0.));
#2472=CARTESIAN_POINT('',(-15.,11.,0.));
#2473=CARTESIAN_POINT('',(-15.,11.,0.));
#2474=CARTESIAN_POINT('',(-15.,11.,36.));
#2475=CARTESIAN_POINT('',(-15.,11.,36.));
#2476=CARTESIAN_POINT('',(-15.,11.,0.));
#2477=CARTESIAN_POINT('Origin',(-15.,12.2,0.));
#2478=CARTESIAN_POINT('',(-15.,12.2,0.));
#2479=CARTESIAN_POINT('',(-15.,12.2,36.));
#2480=CARTESIAN_POINT('Origin',(0.,11.6,36.));
#2481=CARTESIAN_POINT('Origin',(0.,11.6,0.));
#2482=UNCERTAINTY_MEASURE_WITH_UNIT(LENGTH_MEASURE(0.001),#2486,
'DISTANCE_ACCURACY_VALUE',
'Maximum model space distance between geometric entities at asserted c
onnectivities');
#2483=UNCERTAINTY_MEASURE_WITH_UNIT(LENGTH_MEASURE(0.001),#2486,
'DISTANCE_ACCURACY_VALUE',
'Maximum model space distance between geometric entities at asserted c
onnectivities');
#2484=(
GEOMETRIC_REPRESENTATION_CONTEXT(3)
GLOBAL_UNCERTAINTY_ASSIGNED_CONTEXT((#2482))
GLOBAL_UNIT_ASSIGNED_CONTEXT((#2486,#2488,#2489))
REPRESENTATION_CONTEXT('','3D')
);
#2485=(
GEOMETRIC_REPRESENTATION_CONTEXT(3)
GLOBAL_UNCERTAINTY_ASSIGNED_CONTEXT((#2483))
GLOBAL_UNIT_ASSIGNED_CONTEXT((#2486,#2488,#2489))
REPRESENTATION_CONTEXT('','3D')
);
#2486=(
LENGTH_UNIT()
NAMED_UNIT(*)
SI_UNIT(.CENTI.,.METRE.)
);
#2487=(
LENGTH_UNIT()
NAMED_UNIT(*)
SI_UNIT($,.METRE.)
);
#2488=(
NAMED_UNIT(*)
PLANE_ANGLE_UNIT()
SI_UNIT($,.RADIAN.)
);
#2489=(
NAMED_UNIT(*)
SI_UNIT($,.STERADIAN.)
SOLID_ANGLE_UNIT()
);
#2490=SHAPE_DEFINITION_REPRESENTATION(#2491,#2492);
#2491=PRODUCT_DEFINITION_SHAPE('',$,#2494);
#2492=SHAPE_REPRESENTATION('',(#1476),#2484);
#2493=PRODUCT_DEFINITION_CONTEXT('part definition',#2498,'design');
#2494=PRODUCT_DEFINITION('2026-09-10-22-45-40-312',
'W02_\X2\540E7ACB677F\X0\_300x360x12',#2495,#2493);
#2495=PRODUCT_DEFINITION_FORMATION('',$,#2500);
#2496=PRODUCT_RELATED_PRODUCT_CATEGORY('W02_\X2\540E7ACB677F\X0\_300x3
60x12','W02_\X2\540E7ACB677F\X0\_300x360x12',(#2500));
#2497=APPLICATION_PROTOCOL_DEFINITION('international standard',
'automotive_design',2009,#2498);
#2498=APPLICATION_CONTEXT(
'Core Data for Automotive Mechanical Design Process');
#2499=PRODUCT_CONTEXT('part definition',#2498,'mechanical');
#2500=PRODUCT('2026-09-10-22-45-40-312','W02_\X2\540E7ACB677F\X0\_300x
360x12',$,(#2499));
#2501=PRESENTATION_STYLE_ASSIGNMENT((#2503));
#2502=PRESENTATION_STYLE_ASSIGNMENT((#2504));
#2503=SURFACE_STYLE_USAGE(.BOTH.,#2505);
#2504=SURFACE_STYLE_USAGE(.BOTH.,#2506);
#2505=SURFACE_SIDE_STYLE('',(#2507));
#2506=SURFACE_SIDE_STYLE('',(#2508));
#2507=SURFACE_STYLE_FILL_AREA(#2509);
#2508=SURFACE_STYLE_FILL_AREA(#2510);
#2509=FILL_AREA_STYLE('\X2\94A2\X0\ - \X2\7F0E5149\X0\',(#2511));
#2510=FILL_AREA_STYLE('R2_wood',(#2512));
#2511=FILL_AREA_STYLE_COLOUR('\X2\94A2\X0\ - \X2\7F0E5149\X0\',#2513);
#2512=FILL_AREA_STYLE_COLOUR('R2_wood',#2514);
#2513=COLOUR_RGB('\X2\94A2\X0\ - \X2\7F0E5149\X0\',0.627450980392157,0.627450980392157,
0.627450980392157);
#2514=COLOUR_RGB('R2_wood',0.772549019607843,0.615686274509804,0.403921568627451);
ENDSEC;
END-ISO-10303-21;
