ISO-10303-21;
HEADER;
/* Generated by software containing ST-Developer
 * from STEP Tools, Inc. (www.steptools.com) 
 */

FILE_DESCRIPTION(
/* description */ (''),
/* implementation_level */ '2;1');

FILE_NAME(
/* name */ 'W03.step',
/* time_stamp */ '2026-09-10T22:45:42+08:00',
/* author */ (''),
/* organization */ (''),
/* preprocessor_version */ 'ST-DEVELOPER v20.1',
/* originating_system */ 'Autodesk Translation Framework v15.8.0.0',
/* authorisation */ '');

FILE_SCHEMA (('AUTOMOTIVE_DESIGN { 1 0 10303 214 3 1 1 }'));
ENDSEC;

DATA;
#10=MECHANICAL_DESIGN_GEOMETRIC_PRESENTATION_REPRESENTATION('',(#13),#306);
#11=SHAPE_REPRESENTATION_RELATIONSHIP('SRR','None',#313,#12);
#12=ADVANCED_BREP_SHAPE_REPRESENTATION('',(#14),#305);
#13=STYLED_ITEM('',(#323),#14);
#14=MANIFOLD_SOLID_BREP('\X2\5B9E4F53\X0\1',#178);
#15=FACE_BOUND('',#45,.T.);
#16=FACE_BOUND('',#46,.T.);
#17=FACE_BOUND('',#47,.T.);
#18=FACE_BOUND('',#48,.T.);
#19=FACE_BOUND('',#50,.T.);
#20=FACE_BOUND('',#51,.T.);
#21=FACE_BOUND('',#52,.T.);
#22=FACE_BOUND('',#53,.T.);
#23=PLANE('',#204);
#24=PLANE('',#205);
#25=PLANE('',#206);
#26=PLANE('',#207);
#27=PLANE('',#208);
#28=FACE_OUTER_BOUND('',#37,.T.);
#29=FACE_OUTER_BOUND('',#38,.T.);
#30=FACE_OUTER_BOUND('',#39,.T.);
#31=FACE_OUTER_BOUND('',#40,.T.);
#32=FACE_OUTER_BOUND('',#41,.T.);
#33=FACE_OUTER_BOUND('',#42,.T.);
#34=FACE_OUTER_BOUND('',#43,.T.);
#35=FACE_OUTER_BOUND('',#44,.T.);
#36=FACE_OUTER_BOUND('',#49,.T.);
#37=EDGE_LOOP('',(#123,#124,#125,#126));
#38=EDGE_LOOP('',(#127,#128,#129,#130));
#39=EDGE_LOOP('',(#131,#132,#133,#134));
#40=EDGE_LOOP('',(#135,#136,#137,#138));
#41=EDGE_LOOP('',(#139,#140,#141,#142));
#42=EDGE_LOOP('',(#143,#144,#145,#146));
#43=EDGE_LOOP('',(#147,#148,#149,#150));
#44=EDGE_LOOP('',(#151,#152,#153));
#45=EDGE_LOOP('',(#154));
#46=EDGE_LOOP('',(#155));
#47=EDGE_LOOP('',(#156));
#48=EDGE_LOOP('',(#157));
#49=EDGE_LOOP('',(#158,#159,#160));
#50=EDGE_LOOP('',(#161));
#51=EDGE_LOOP('',(#162));
#52=EDGE_LOOP('',(#163));
#53=EDGE_LOOP('',(#164));
#54=LINE('',#263,#67);
#55=LINE('',#269,#68);
#56=LINE('',#275,#69);
#57=LINE('',#281,#70);
#58=LINE('',#286,#71);
#59=LINE('',#288,#72);
#60=LINE('',#290,#73);
#61=LINE('',#291,#74);
#62=LINE('',#294,#75);
#63=LINE('',#296,#76);
#64=LINE('',#297,#77);
#65=LINE('',#299,#78);
#66=LINE('',#300,#79);
#67=VECTOR('',#215,0.225);
#68=VECTOR('',#222,0.225);
#69=VECTOR('',#229,0.225);
#70=VECTOR('',#236,0.225);
#71=VECTOR('',#241,1.);
#72=VECTOR('',#242,1.);
#73=VECTOR('',#243,1.);
#74=VECTOR('',#244,1.);
#75=VECTOR('',#247,1.);
#76=VECTOR('',#248,1.);
#77=VECTOR('',#249,1.);
#78=VECTOR('',#252,1.);
#79=VECTOR('',#253,1.);
#80=CIRCLE('',#193,0.225);
#81=CIRCLE('',#194,0.225);
#82=CIRCLE('',#196,0.225);
#83=CIRCLE('',#197,0.225);
#84=CIRCLE('',#199,0.225);
#85=CIRCLE('',#200,0.225);
#86=CIRCLE('',#202,0.225);
#87=CIRCLE('',#203,0.225);
#88=VERTEX_POINT('',#260);
#89=VERTEX_POINT('',#262);
#90=VERTEX_POINT('',#266);
#91=VERTEX_POINT('',#268);
#92=VERTEX_POINT('',#272);
#93=VERTEX_POINT('',#274);
#94=VERTEX_POINT('',#278);
#95=VERTEX_POINT('',#280);
#96=VERTEX_POINT('',#284);
#97=VERTEX_POINT('',#285);
#98=VERTEX_POINT('',#287);
#99=VERTEX_POINT('',#289);
#100=VERTEX_POINT('',#293);
#101=VERTEX_POINT('',#295);
#102=EDGE_CURVE('',#88,#88,#80,.T.);
#103=EDGE_CURVE('',#88,#89,#54,.T.);
#104=EDGE_CURVE('',#89,#89,#81,.T.);
#105=EDGE_CURVE('',#90,#90,#82,.T.);
#106=EDGE_CURVE('',#90,#91,#55,.T.);
#107=EDGE_CURVE('',#91,#91,#83,.T.);
#108=EDGE_CURVE('',#92,#92,#84,.T.);
#109=EDGE_CURVE('',#92,#93,#56,.T.);
#110=EDGE_CURVE('',#93,#93,#85,.T.);
#111=EDGE_CURVE('',#94,#94,#86,.T.);
#112=EDGE_CURVE('',#94,#95,#57,.T.);
#113=EDGE_CURVE('',#95,#95,#87,.T.);
#114=EDGE_CURVE('',#96,#97,#58,.T.);
#115=EDGE_CURVE('',#97,#98,#59,.T.);
#116=EDGE_CURVE('',#99,#98,#60,.T.);
#117=EDGE_CURVE('',#96,#99,#61,.T.);
#118=EDGE_CURVE('',#100,#96,#62,.T.);
#119=EDGE_CURVE('',#101,#99,#63,.T.);
#120=EDGE_CURVE('',#100,#101,#64,.T.);
#121=EDGE_CURVE('',#97,#100,#65,.T.);
#122=EDGE_CURVE('',#98,#101,#66,.T.);
#123=ORIENTED_EDGE('',*,*,#102,.F.);
#124=ORIENTED_EDGE('',*,*,#103,.T.);
#125=ORIENTED_EDGE('',*,*,#104,.F.);
#126=ORIENTED_EDGE('',*,*,#103,.F.);
#127=ORIENTED_EDGE('',*,*,#105,.F.);
#128=ORIENTED_EDGE('',*,*,#106,.T.);
#129=ORIENTED_EDGE('',*,*,#107,.F.);
#130=ORIENTED_EDGE('',*,*,#106,.F.);
#131=ORIENTED_EDGE('',*,*,#108,.F.);
#132=ORIENTED_EDGE('',*,*,#109,.T.);
#133=ORIENTED_EDGE('',*,*,#110,.F.);
#134=ORIENTED_EDGE('',*,*,#109,.F.);
#135=ORIENTED_EDGE('',*,*,#111,.F.);
#136=ORIENTED_EDGE('',*,*,#112,.T.);
#137=ORIENTED_EDGE('',*,*,#113,.F.);
#138=ORIENTED_EDGE('',*,*,#112,.F.);
#139=ORIENTED_EDGE('',*,*,#114,.T.);
#140=ORIENTED_EDGE('',*,*,#115,.T.);
#141=ORIENTED_EDGE('',*,*,#116,.F.);
#142=ORIENTED_EDGE('',*,*,#117,.F.);
#143=ORIENTED_EDGE('',*,*,#118,.T.);
#144=ORIENTED_EDGE('',*,*,#117,.T.);
#145=ORIENTED_EDGE('',*,*,#119,.F.);
#146=ORIENTED_EDGE('',*,*,#120,.F.);
#147=ORIENTED_EDGE('',*,*,#121,.T.);
#148=ORIENTED_EDGE('',*,*,#120,.T.);
#149=ORIENTED_EDGE('',*,*,#122,.F.);
#150=ORIENTED_EDGE('',*,*,#115,.F.);
#151=ORIENTED_EDGE('',*,*,#122,.T.);
#152=ORIENTED_EDGE('',*,*,#119,.T.);
#153=ORIENTED_EDGE('',*,*,#116,.T.);
#154=ORIENTED_EDGE('',*,*,#104,.T.);
#155=ORIENTED_EDGE('',*,*,#107,.T.);
#156=ORIENTED_EDGE('',*,*,#110,.T.);
#157=ORIENTED_EDGE('',*,*,#113,.T.);
#158=ORIENTED_EDGE('',*,*,#121,.F.);
#159=ORIENTED_EDGE('',*,*,#114,.F.);
#160=ORIENTED_EDGE('',*,*,#118,.F.);
#161=ORIENTED_EDGE('',*,*,#102,.T.);
#162=ORIENTED_EDGE('',*,*,#105,.T.);
#163=ORIENTED_EDGE('',*,*,#108,.T.);
#164=ORIENTED_EDGE('',*,*,#111,.T.);
#165=CYLINDRICAL_SURFACE('',#192,0.225);
#166=CYLINDRICAL_SURFACE('',#195,0.225);
#167=CYLINDRICAL_SURFACE('',#198,0.225);
#168=CYLINDRICAL_SURFACE('',#201,0.225);
#169=ADVANCED_FACE('',(#28),#165,.F.);
#170=ADVANCED_FACE('',(#29),#166,.F.);
#171=ADVANCED_FACE('',(#30),#167,.F.);
#172=ADVANCED_FACE('',(#31),#168,.F.);
#173=ADVANCED_FACE('',(#32),#23,.T.);
#174=ADVANCED_FACE('',(#33),#24,.T.);
#175=ADVANCED_FACE('',(#34),#25,.T.);
#176=ADVANCED_FACE('',(#35,#15,#16,#17,#18),#26,.T.);
#177=ADVANCED_FACE('',(#36,#19,#20,#21,#22),#27,.F.);
#178=CLOSED_SHELL('',(#169,#170,#171,#172,#173,#174,#175,#176,#177));
#179=DERIVED_UNIT_ELEMENT(#181,1.);
#180=DERIVED_UNIT_ELEMENT(#308,-3.);
#181=(
MASS_UNIT()
NAMED_UNIT(*)
SI_UNIT(.KILO.,.GRAM.)
);
#182=DERIVED_UNIT((#179,#180));
#183=MEASURE_REPRESENTATION_ITEM('density measure',
POSITIVE_RATIO_MEASURE(7850.),#182);
#184=PROPERTY_DEFINITION_REPRESENTATION(#189,#186);
#185=PROPERTY_DEFINITION_REPRESENTATION(#190,#187);
#186=REPRESENTATION('material name',(#188),#305);
#187=REPRESENTATION('density',(#183),#305);
#188=DESCRIPTIVE_REPRESENTATION_ITEM('\X2\94A2\X0\','\X2\94A2\X0\');
#189=PROPERTY_DEFINITION('material property','material name',#315);
#190=PROPERTY_DEFINITION('material property','density of part',#315);
#191=AXIS2_PLACEMENT_3D('',#258,#209,#210);
#192=AXIS2_PLACEMENT_3D('',#259,#211,#212);
#193=AXIS2_PLACEMENT_3D('',#261,#213,#214);
#194=AXIS2_PLACEMENT_3D('',#264,#216,#217);
#195=AXIS2_PLACEMENT_3D('',#265,#218,#219);
#196=AXIS2_PLACEMENT_3D('',#267,#220,#221);
#197=AXIS2_PLACEMENT_3D('',#270,#223,#224);
#198=AXIS2_PLACEMENT_3D('',#271,#225,#226);
#199=AXIS2_PLACEMENT_3D('',#273,#227,#228);
#200=AXIS2_PLACEMENT_3D('',#276,#230,#231);
#201=AXIS2_PLACEMENT_3D('',#277,#232,#233);
#202=AXIS2_PLACEMENT_3D('',#279,#234,#235);
#203=AXIS2_PLACEMENT_3D('',#282,#237,#238);
#204=AXIS2_PLACEMENT_3D('',#283,#239,#240);
#205=AXIS2_PLACEMENT_3D('',#292,#245,#246);
#206=AXIS2_PLACEMENT_3D('',#298,#250,#251);
#207=AXIS2_PLACEMENT_3D('',#301,#254,#255);
#208=AXIS2_PLACEMENT_3D('',#302,#256,#257);
#209=DIRECTION('axis',(0.,0.,1.));
#210=DIRECTION('refdir',(1.,0.,0.));
#211=DIRECTION('center_axis',(1.,0.,0.));
#212=DIRECTION('ref_axis',(0.,0.,-1.));
#213=DIRECTION('center_axis',(1.,0.,0.));
#214=DIRECTION('ref_axis',(0.,0.,-1.));
#215=DIRECTION('',(1.,0.,0.));
#216=DIRECTION('center_axis',(-1.,0.,0.));
#217=DIRECTION('ref_axis',(0.,0.,-1.));
#218=DIRECTION('center_axis',(1.,0.,0.));
#219=DIRECTION('ref_axis',(0.,0.,-1.));
#220=DIRECTION('center_axis',(1.,0.,0.));
#221=DIRECTION('ref_axis',(0.,0.,-1.));
#222=DIRECTION('',(1.,0.,0.));
#223=DIRECTION('center_axis',(-1.,0.,0.));
#224=DIRECTION('ref_axis',(0.,0.,-1.));
#225=DIRECTION('center_axis',(1.,0.,0.));
#226=DIRECTION('ref_axis',(0.,0.,-1.));
#227=DIRECTION('center_axis',(1.,0.,0.));
#228=DIRECTION('ref_axis',(0.,0.,-1.));
#229=DIRECTION('',(1.,0.,0.));
#230=DIRECTION('center_axis',(-1.,0.,0.));
#231=DIRECTION('ref_axis',(0.,0.,-1.));
#232=DIRECTION('center_axis',(1.,0.,0.));
#233=DIRECTION('ref_axis',(0.,0.,-1.));
#234=DIRECTION('center_axis',(1.,0.,0.));
#235=DIRECTION('ref_axis',(0.,0.,-1.));
#236=DIRECTION('',(1.,0.,0.));
#237=DIRECTION('center_axis',(-1.,0.,0.));
#238=DIRECTION('ref_axis',(0.,0.,-1.));
#239=DIRECTION('center_axis',(0.,0.857492925712544,0.514495755427527));
#240=DIRECTION('ref_axis',(0.,-0.514495755427527,0.857492925712544));
#241=DIRECTION('',(0.,-0.514495755427527,0.857492925712544));
#242=DIRECTION('',(1.,0.,0.));
#243=DIRECTION('',(0.,-0.514495755427527,0.857492925712544));
#244=DIRECTION('',(1.,0.,0.));
#245=DIRECTION('center_axis',(0.,0.,-1.));
#246=DIRECTION('ref_axis',(0.,1.,0.));
#247=DIRECTION('',(0.,1.,0.));
#248=DIRECTION('',(0.,1.,0.));
#249=DIRECTION('',(1.,0.,0.));
#250=DIRECTION('center_axis',(0.,-1.,0.));
#251=DIRECTION('ref_axis',(0.,0.,-1.));
#252=DIRECTION('',(0.,0.,-1.));
#253=DIRECTION('',(0.,0.,-1.));
#254=DIRECTION('center_axis',(1.,0.,0.));
#255=DIRECTION('ref_axis',(0.,0.,-1.));
#256=DIRECTION('center_axis',(1.,0.,0.));
#257=DIRECTION('ref_axis',(0.,0.,-1.));
#258=CARTESIAN_POINT('',(0.,0.,0.));
#259=CARTESIAN_POINT('Origin',(-0.1,13.45,11.));
#260=CARTESIAN_POINT('',(0.,13.45,11.225));
#261=CARTESIAN_POINT('Origin',(0.,13.45,11.));
#262=CARTESIAN_POINT('',(1.2,13.45,11.225));
#263=CARTESIAN_POINT('',(-0.1,13.45,11.225));
#264=CARTESIAN_POINT('Origin',(1.2,13.45,11.));
#265=CARTESIAN_POINT('Origin',(-0.1,13.45,6.));
#266=CARTESIAN_POINT('',(0.,13.45,6.225));
#267=CARTESIAN_POINT('Origin',(0.,13.45,6.));
#268=CARTESIAN_POINT('',(1.2,13.45,6.225));
#269=CARTESIAN_POINT('',(-0.1,13.45,6.225));
#270=CARTESIAN_POINT('Origin',(1.2,13.45,6.));
#271=CARTESIAN_POINT('Origin',(-0.1,20.5,1.25));
#272=CARTESIAN_POINT('',(0.,20.5,1.475));
#273=CARTESIAN_POINT('Origin',(0.,20.5,1.25));
#274=CARTESIAN_POINT('',(1.2,20.5,1.475));
#275=CARTESIAN_POINT('',(-0.1,20.5,1.475));
#276=CARTESIAN_POINT('Origin',(1.2,20.5,1.25));
#277=CARTESIAN_POINT('Origin',(-0.1,17.,1.25));
#278=CARTESIAN_POINT('',(0.,17.,1.475));
#279=CARTESIAN_POINT('Origin',(0.,17.,1.25));
#280=CARTESIAN_POINT('',(1.2,17.,1.475));
#281=CARTESIAN_POINT('',(-0.1,17.,1.475));
#282=CARTESIAN_POINT('Origin',(1.2,17.,1.25));
#283=CARTESIAN_POINT('Origin',(0.,24.2,0.));
#284=CARTESIAN_POINT('',(0.,24.2,0.));
#285=CARTESIAN_POINT('',(0.,12.2,20.));
#286=CARTESIAN_POINT('',(0.,24.2,0.));
#287=CARTESIAN_POINT('',(1.2,12.2,20.));
#288=CARTESIAN_POINT('',(0.,12.2,20.));
#289=CARTESIAN_POINT('',(1.2,24.2,0.));
#290=CARTESIAN_POINT('',(1.2,24.2,0.));
#291=CARTESIAN_POINT('',(0.,24.2,0.));
#292=CARTESIAN_POINT('Origin',(0.,12.2,0.));
#293=CARTESIAN_POINT('',(0.,12.2,0.));
#294=CARTESIAN_POINT('',(0.,12.2,0.));
#295=CARTESIAN_POINT('',(1.2,12.2,0.));
#296=CARTESIAN_POINT('',(1.2,12.2,0.));
#297=CARTESIAN_POINT('',(0.,12.2,0.));
#298=CARTESIAN_POINT('Origin',(0.,12.2,20.));
#299=CARTESIAN_POINT('',(0.,12.2,20.));
#300=CARTESIAN_POINT('',(1.2,12.2,20.));
#301=CARTESIAN_POINT('Origin',(1.2,18.2,10.));
#302=CARTESIAN_POINT('Origin',(0.,18.2,10.));
#303=UNCERTAINTY_MEASURE_WITH_UNIT(LENGTH_MEASURE(0.001),#307,
'DISTANCE_ACCURACY_VALUE',
'Maximum model space distance between geometric entities at asserted c
onnectivities');
#304=UNCERTAINTY_MEASURE_WITH_UNIT(LENGTH_MEASURE(0.001),#307,
'DISTANCE_ACCURACY_VALUE',
'Maximum model space distance between geometric entities at asserted c
onnectivities');
#305=(
GEOMETRIC_REPRESENTATION_CONTEXT(3)
GLOBAL_UNCERTAINTY_ASSIGNED_CONTEXT((#303))
GLOBAL_UNIT_ASSIGNED_CONTEXT((#307,#309,#310))
REPRESENTATION_CONTEXT('','3D')
);
#306=(
GEOMETRIC_REPRESENTATION_CONTEXT(3)
GLOBAL_UNCERTAINTY_ASSIGNED_CONTEXT((#304))
GLOBAL_UNIT_ASSIGNED_CONTEXT((#307,#309,#310))
REPRESENTATION_CONTEXT('','3D')
);
#307=(
LENGTH_UNIT()
NAMED_UNIT(*)
SI_UNIT(.CENTI.,.METRE.)
);
#308=(
LENGTH_UNIT()
NAMED_UNIT(*)
SI_UNIT($,.METRE.)
);
#309=(
NAMED_UNIT(*)
PLANE_ANGLE_UNIT()
SI_UNIT($,.RADIAN.)
);
#310=(
NAMED_UNIT(*)
SI_UNIT($,.STERADIAN.)
SOLID_ANGLE_UNIT()
);
#311=SHAPE_DEFINITION_REPRESENTATION(#312,#313);
#312=PRODUCT_DEFINITION_SHAPE('',$,#315);
#313=SHAPE_REPRESENTATION('',(#191),#305);
#314=PRODUCT_DEFINITION_CONTEXT('part definition',#319,'design');
#315=PRODUCT_DEFINITION('2026-09-10-22-45-41-933',
'W03_\X2\540E52A05F3A677F\X0\_120x200x12',#316,#314);
#316=PRODUCT_DEFINITION_FORMATION('',$,#321);
#317=PRODUCT_RELATED_PRODUCT_CATEGORY('W03_\X2\540E52A05F3A677F\X0\_12
0x200x12','W03_\X2\540E52A05F3A677F\X0\_120x200x12',(#321));
#318=APPLICATION_PROTOCOL_DEFINITION('international standard',
'automotive_design',2009,#319);
#319=APPLICATION_CONTEXT(
'Core Data for Automotive Mechanical Design Process');
#320=PRODUCT_CONTEXT('part definition',#319,'mechanical');
#321=PRODUCT('2026-09-10-22-45-41-933','W03_\X2\540E52A05F3A677F\X0\_1
20x200x12',$,(#320));
#322=PRESENTATION_STYLE_ASSIGNMENT((#324));
#323=PRESENTATION_STYLE_ASSIGNMENT((#325));
#324=SURFACE_STYLE_USAGE(.BOTH.,#326);
#325=SURFACE_STYLE_USAGE(.BOTH.,#327);
#326=SURFACE_SIDE_STYLE('',(#328));
#327=SURFACE_SIDE_STYLE('',(#329));
#328=SURFACE_STYLE_FILL_AREA(#330);
#329=SURFACE_STYLE_FILL_AREA(#331);
#330=FILL_AREA_STYLE('\X2\94A2\X0\ - \X2\7F0E5149\X0\',(#332));
#331=FILL_AREA_STYLE('R2_wood',(#333));
#332=FILL_AREA_STYLE_COLOUR('\X2\94A2\X0\ - \X2\7F0E5149\X0\',#334);
#333=FILL_AREA_STYLE_COLOUR('R2_wood',#335);
#334=COLOUR_RGB('\X2\94A2\X0\ - \X2\7F0E5149\X0\',0.627450980392157,0.627450980392157,
0.627450980392157);
#335=COLOUR_RGB('R2_wood',0.772549019607843,0.615686274509804,0.403921568627451);
ENDSEC;
END-ISO-10303-21;
