ISO-10303-21;
HEADER;
/* Generated by software containing ST-Developer
 * from STEP Tools, Inc. (www.steptools.com) 
 */

FILE_DESCRIPTION(
/* description */ (''),
/* implementation_level */ '2;1');

FILE_NAME(
/* name */ 'W04.step',
/* time_stamp */ '2026-09-10T22:45:43+08:00',
/* author */ (''),
/* organization */ (''),
/* preprocessor_version */ 'ST-DEVELOPER v20.1',
/* originating_system */ 'Autodesk Translation Framework v15.8.0.0',
/* authorisation */ '');

FILE_SCHEMA (('AUTOMOTIVE_DESIGN { 1 0 10303 214 3 1 1 }'));
ENDSEC;

DATA;
#10=MECHANICAL_DESIGN_GEOMETRIC_PRESENTATION_REPRESENTATION('',(#13),#311);
#11=SHAPE_REPRESENTATION_RELATIONSHIP('SRR','None',#318,#12);
#12=ADVANCED_BREP_SHAPE_REPRESENTATION('',(#14),#310);
#13=STYLED_ITEM('',(#328),#14);
#14=MANIFOLD_SOLID_BREP('\X2\5B9E4F53\X0\1',#181);
#15=FACE_BOUND('',#46,.T.);
#16=FACE_BOUND('',#47,.T.);
#17=FACE_BOUND('',#49,.T.);
#18=FACE_BOUND('',#50,.T.);
#19=PLANE('',#205);
#20=PLANE('',#206);
#21=PLANE('',#207);
#22=PLANE('',#208);
#23=PLANE('',#209);
#24=PLANE('',#210);
#25=CYLINDRICAL_SURFACE('',#201,0.225000000000001);
#26=CYLINDRICAL_SURFACE('',#203,0.225000000000001);
#27=FACE_OUTER_BOUND('',#37,.T.);
#28=FACE_OUTER_BOUND('',#38,.T.);
#29=FACE_OUTER_BOUND('',#39,.T.);
#30=FACE_OUTER_BOUND('',#40,.T.);
#31=FACE_OUTER_BOUND('',#41,.T.);
#32=FACE_OUTER_BOUND('',#42,.T.);
#33=FACE_OUTER_BOUND('',#43,.T.);
#34=FACE_OUTER_BOUND('',#44,.T.);
#35=FACE_OUTER_BOUND('',#45,.T.);
#36=FACE_OUTER_BOUND('',#48,.T.);
#37=EDGE_LOOP('',(#125,#126,#127,#128));
#38=EDGE_LOOP('',(#129,#130,#131,#132));
#39=EDGE_LOOP('',(#133,#134,#135,#136));
#40=EDGE_LOOP('',(#137,#138,#139,#140));
#41=EDGE_LOOP('',(#141,#142,#143,#144));
#42=EDGE_LOOP('',(#145,#146,#147,#148));
#43=EDGE_LOOP('',(#149,#150,#151,#152));
#44=EDGE_LOOP('',(#153,#154,#155,#156));
#45=EDGE_LOOP('',(#157,#158,#159,#160));
#46=EDGE_LOOP('',(#161));
#47=EDGE_LOOP('',(#162));
#48=EDGE_LOOP('',(#163,#164,#165,#166));
#49=EDGE_LOOP('',(#167));
#50=EDGE_LOOP('',(#168));
#51=LINE('',#266,#67);
#52=LINE('',#272,#68);
#53=LINE('',#277,#69);
#54=LINE('',#281,#70);
#55=LINE('',#285,#71);
#56=LINE('',#287,#72);
#57=LINE('',#289,#73);
#58=LINE('',#290,#74);
#59=LINE('',#293,#75);
#60=LINE('',#295,#76);
#61=LINE('',#296,#77);
#62=LINE('',#299,#78);
#63=LINE('',#301,#79);
#64=LINE('',#302,#80);
#65=LINE('',#304,#81);
#66=LINE('',#305,#82);
#67=VECTOR('',#217,0.420000000000002);
#68=VECTOR('',#224,0.420000000000002);
#69=VECTOR('',#231,0.225000000000001);
#70=VECTOR('',#236,0.225000000000001);
#71=VECTOR('',#239,1.);
#72=VECTOR('',#240,1.);
#73=VECTOR('',#241,1.);
#74=VECTOR('',#242,1.);
#75=VECTOR('',#245,1.);
#76=VECTOR('',#246,1.);
#77=VECTOR('',#247,1.);
#78=VECTOR('',#250,1.);
#79=VECTOR('',#251,1.);
#80=VECTOR('',#252,1.);
#81=VECTOR('',#255,1.);
#82=VECTOR('',#256,1.);
#83=CIRCLE('',#196,0.420000000000002);
#84=CIRCLE('',#197,0.225000000000001);
#85=CIRCLE('',#199,0.420000000000002);
#86=CIRCLE('',#200,0.225000000000001);
#87=CIRCLE('',#202,0.225000000000001);
#88=CIRCLE('',#204,0.225000000000001);
#89=VERTEX_POINT('',#263);
#90=VERTEX_POINT('',#265);
#91=VERTEX_POINT('',#269);
#92=VERTEX_POINT('',#271);
#93=VERTEX_POINT('',#275);
#94=VERTEX_POINT('',#279);
#95=VERTEX_POINT('',#283);
#96=VERTEX_POINT('',#284);
#97=VERTEX_POINT('',#286);
#98=VERTEX_POINT('',#288);
#99=VERTEX_POINT('',#292);
#100=VERTEX_POINT('',#294);
#101=VERTEX_POINT('',#298);
#102=VERTEX_POINT('',#300);
#103=EDGE_CURVE('',#89,#89,#83,.T.);
#104=EDGE_CURVE('',#89,#90,#51,.T.);
#105=EDGE_CURVE('',#90,#90,#84,.T.);
#106=EDGE_CURVE('',#91,#91,#85,.T.);
#107=EDGE_CURVE('',#91,#92,#52,.T.);
#108=EDGE_CURVE('',#92,#92,#86,.T.);
#109=EDGE_CURVE('',#93,#93,#87,.T.);
#110=EDGE_CURVE('',#93,#90,#53,.T.);
#111=EDGE_CURVE('',#94,#94,#88,.T.);
#112=EDGE_CURVE('',#94,#92,#54,.T.);
#113=EDGE_CURVE('',#95,#96,#55,.T.);
#114=EDGE_CURVE('',#96,#97,#56,.T.);
#115=EDGE_CURVE('',#98,#97,#57,.T.);
#116=EDGE_CURVE('',#95,#98,#58,.T.);
#117=EDGE_CURVE('',#99,#95,#59,.T.);
#118=EDGE_CURVE('',#100,#98,#60,.T.);
#119=EDGE_CURVE('',#99,#100,#61,.T.);
#120=EDGE_CURVE('',#101,#99,#62,.T.);
#121=EDGE_CURVE('',#102,#100,#63,.T.);
#122=EDGE_CURVE('',#101,#102,#64,.T.);
#123=EDGE_CURVE('',#96,#101,#65,.T.);
#124=EDGE_CURVE('',#97,#102,#66,.T.);
#125=ORIENTED_EDGE('',*,*,#103,.F.);
#126=ORIENTED_EDGE('',*,*,#104,.T.);
#127=ORIENTED_EDGE('',*,*,#105,.F.);
#128=ORIENTED_EDGE('',*,*,#104,.F.);
#129=ORIENTED_EDGE('',*,*,#106,.F.);
#130=ORIENTED_EDGE('',*,*,#107,.T.);
#131=ORIENTED_EDGE('',*,*,#108,.F.);
#132=ORIENTED_EDGE('',*,*,#107,.F.);
#133=ORIENTED_EDGE('',*,*,#109,.F.);
#134=ORIENTED_EDGE('',*,*,#110,.T.);
#135=ORIENTED_EDGE('',*,*,#105,.T.);
#136=ORIENTED_EDGE('',*,*,#110,.F.);
#137=ORIENTED_EDGE('',*,*,#111,.F.);
#138=ORIENTED_EDGE('',*,*,#112,.T.);
#139=ORIENTED_EDGE('',*,*,#108,.T.);
#140=ORIENTED_EDGE('',*,*,#112,.F.);
#141=ORIENTED_EDGE('',*,*,#113,.T.);
#142=ORIENTED_EDGE('',*,*,#114,.T.);
#143=ORIENTED_EDGE('',*,*,#115,.F.);
#144=ORIENTED_EDGE('',*,*,#116,.F.);
#145=ORIENTED_EDGE('',*,*,#117,.T.);
#146=ORIENTED_EDGE('',*,*,#116,.T.);
#147=ORIENTED_EDGE('',*,*,#118,.F.);
#148=ORIENTED_EDGE('',*,*,#119,.F.);
#149=ORIENTED_EDGE('',*,*,#120,.T.);
#150=ORIENTED_EDGE('',*,*,#119,.T.);
#151=ORIENTED_EDGE('',*,*,#121,.F.);
#152=ORIENTED_EDGE('',*,*,#122,.F.);
#153=ORIENTED_EDGE('',*,*,#123,.T.);
#154=ORIENTED_EDGE('',*,*,#122,.T.);
#155=ORIENTED_EDGE('',*,*,#124,.F.);
#156=ORIENTED_EDGE('',*,*,#114,.F.);
#157=ORIENTED_EDGE('',*,*,#124,.T.);
#158=ORIENTED_EDGE('',*,*,#121,.T.);
#159=ORIENTED_EDGE('',*,*,#118,.T.);
#160=ORIENTED_EDGE('',*,*,#115,.T.);
#161=ORIENTED_EDGE('',*,*,#103,.T.);
#162=ORIENTED_EDGE('',*,*,#106,.T.);
#163=ORIENTED_EDGE('',*,*,#123,.F.);
#164=ORIENTED_EDGE('',*,*,#113,.F.);
#165=ORIENTED_EDGE('',*,*,#117,.F.);
#166=ORIENTED_EDGE('',*,*,#120,.F.);
#167=ORIENTED_EDGE('',*,*,#109,.T.);
#168=ORIENTED_EDGE('',*,*,#111,.T.);
#169=CONICAL_SURFACE('',#195,0.420000000000002,0.785398163397455);
#170=CONICAL_SURFACE('',#198,0.420000000000002,0.785398163397455);
#171=ADVANCED_FACE('',(#27),#169,.F.);
#172=ADVANCED_FACE('',(#28),#170,.F.);
#173=ADVANCED_FACE('',(#29),#25,.F.);
#174=ADVANCED_FACE('',(#30),#26,.F.);
#175=ADVANCED_FACE('',(#31),#19,.T.);
#176=ADVANCED_FACE('',(#32),#20,.T.);
#177=ADVANCED_FACE('',(#33),#21,.T.);
#178=ADVANCED_FACE('',(#34),#22,.T.);
#179=ADVANCED_FACE('',(#35,#15,#16),#23,.T.);
#180=ADVANCED_FACE('',(#36,#17,#18),#24,.F.);
#181=CLOSED_SHELL('',(#171,#172,#173,#174,#175,#176,#177,#178,#179,#180));
#182=DERIVED_UNIT_ELEMENT(#184,1.);
#183=DERIVED_UNIT_ELEMENT(#313,-3.);
#184=(
MASS_UNIT()
NAMED_UNIT(*)
SI_UNIT(.KILO.,.GRAM.)
);
#185=DERIVED_UNIT((#182,#183));
#186=MEASURE_REPRESENTATION_ITEM('density measure',
POSITIVE_RATIO_MEASURE(7850.),#185);
#187=PROPERTY_DEFINITION_REPRESENTATION(#192,#189);
#188=PROPERTY_DEFINITION_REPRESENTATION(#193,#190);
#189=REPRESENTATION('material name',(#191),#310);
#190=REPRESENTATION('density',(#186),#310);
#191=DESCRIPTIVE_REPRESENTATION_ITEM('\X2\94A2\X0\','\X2\94A2\X0\');
#192=PROPERTY_DEFINITION('material property','material name',#320);
#193=PROPERTY_DEFINITION('material property','density of part',#320);
#194=AXIS2_PLACEMENT_3D('',#261,#211,#212);
#195=AXIS2_PLACEMENT_3D('',#262,#213,#214);
#196=AXIS2_PLACEMENT_3D('',#264,#215,#216);
#197=AXIS2_PLACEMENT_3D('',#267,#218,#219);
#198=AXIS2_PLACEMENT_3D('',#268,#220,#221);
#199=AXIS2_PLACEMENT_3D('',#270,#222,#223);
#200=AXIS2_PLACEMENT_3D('',#273,#225,#226);
#201=AXIS2_PLACEMENT_3D('',#274,#227,#228);
#202=AXIS2_PLACEMENT_3D('',#276,#229,#230);
#203=AXIS2_PLACEMENT_3D('',#278,#232,#233);
#204=AXIS2_PLACEMENT_3D('',#280,#234,#235);
#205=AXIS2_PLACEMENT_3D('',#282,#237,#238);
#206=AXIS2_PLACEMENT_3D('',#291,#243,#244);
#207=AXIS2_PLACEMENT_3D('',#297,#248,#249);
#208=AXIS2_PLACEMENT_3D('',#303,#253,#254);
#209=AXIS2_PLACEMENT_3D('',#306,#257,#258);
#210=AXIS2_PLACEMENT_3D('',#307,#259,#260);
#211=DIRECTION('axis',(0.,0.,1.));
#212=DIRECTION('refdir',(1.,0.,0.));
#213=DIRECTION('center_axis',(0.,0.,1.));
#214=DIRECTION('ref_axis',(1.,0.,0.));
#215=DIRECTION('center_axis',(0.,0.,-1.));
#216=DIRECTION('ref_axis',(1.,0.,0.));
#217=DIRECTION('',(0.707106781186552,-8.65956056235499E-17,-0.707106781186543));
#218=DIRECTION('center_axis',(0.,0.,1.));
#219=DIRECTION('ref_axis',(1.,0.,0.));
#220=DIRECTION('center_axis',(0.,0.,1.));
#221=DIRECTION('ref_axis',(1.,0.,0.));
#222=DIRECTION('center_axis',(0.,0.,-1.));
#223=DIRECTION('ref_axis',(1.,0.,0.));
#224=DIRECTION('',(0.707106781186552,-8.65956056235499E-17,-0.707106781186543));
#225=DIRECTION('center_axis',(0.,0.,1.));
#226=DIRECTION('ref_axis',(1.,0.,0.));
#227=DIRECTION('center_axis',(0.,0.,1.));
#228=DIRECTION('ref_axis',(1.,0.,0.));
#229=DIRECTION('center_axis',(0.,0.,1.));
#230=DIRECTION('ref_axis',(1.,0.,0.));
#231=DIRECTION('',(0.,0.,1.));
#232=DIRECTION('center_axis',(0.,0.,1.));
#233=DIRECTION('ref_axis',(1.,0.,0.));
#234=DIRECTION('center_axis',(0.,0.,1.));
#235=DIRECTION('ref_axis',(1.,0.,0.));
#236=DIRECTION('',(0.,0.,1.));
#237=DIRECTION('center_axis',(0.,1.,0.));
#238=DIRECTION('ref_axis',(-1.,0.,0.));
#239=DIRECTION('',(-1.,0.,0.));
#240=DIRECTION('',(0.,0.,1.));
#241=DIRECTION('',(-1.,0.,0.));
#242=DIRECTION('',(0.,0.,1.));
#243=DIRECTION('center_axis',(1.,0.,0.));
#244=DIRECTION('ref_axis',(0.,1.,0.));
#245=DIRECTION('',(0.,1.,0.));
#246=DIRECTION('',(0.,1.,0.));
#247=DIRECTION('',(0.,0.,1.));
#248=DIRECTION('center_axis',(0.,-1.,0.));
#249=DIRECTION('ref_axis',(1.,0.,0.));
#250=DIRECTION('',(1.,0.,0.));
#251=DIRECTION('',(1.,0.,0.));
#252=DIRECTION('',(0.,0.,1.));
#253=DIRECTION('center_axis',(-1.,0.,0.));
#254=DIRECTION('ref_axis',(0.,-1.,0.));
#255=DIRECTION('',(0.,-1.,0.));
#256=DIRECTION('',(0.,-1.,0.));
#257=DIRECTION('center_axis',(0.,0.,1.));
#258=DIRECTION('ref_axis',(1.,0.,0.));
#259=DIRECTION('center_axis',(0.,0.,1.));
#260=DIRECTION('ref_axis',(1.,0.,0.));
#261=CARTESIAN_POINT('',(0.,0.,0.));
#262=CARTESIAN_POINT('Origin',(26.35,2.5,8.));
#263=CARTESIAN_POINT('',(25.93,2.5,8.));
#264=CARTESIAN_POINT('Origin',(26.35,2.5,8.));
#265=CARTESIAN_POINT('',(26.125,2.5,7.805));
#266=CARTESIAN_POINT('',(25.93,2.5,8.));
#267=CARTESIAN_POINT('Origin',(26.35,2.5,7.805));
#268=CARTESIAN_POINT('Origin',(26.05,-2.5,8.));
#269=CARTESIAN_POINT('',(25.63,-2.5,8.));
#270=CARTESIAN_POINT('Origin',(26.05,-2.5,8.));
#271=CARTESIAN_POINT('',(25.825,-2.5,7.805));
#272=CARTESIAN_POINT('',(25.63,-2.5,8.));
#273=CARTESIAN_POINT('Origin',(26.05,-2.5,7.805));
#274=CARTESIAN_POINT('Origin',(26.35,2.5,6.7));
#275=CARTESIAN_POINT('',(26.125,2.5,6.8));
#276=CARTESIAN_POINT('Origin',(26.35,2.5,6.8));
#277=CARTESIAN_POINT('',(26.125,2.5,6.7));
#278=CARTESIAN_POINT('Origin',(26.05,-2.5,6.7));
#279=CARTESIAN_POINT('',(25.825,-2.5,6.8));
#280=CARTESIAN_POINT('Origin',(26.05,-2.5,6.8));
#281=CARTESIAN_POINT('',(25.825,-2.5,6.7));
#282=CARTESIAN_POINT('Origin',(31.2,5.,6.8));
#283=CARTESIAN_POINT('',(31.2,5.,6.8));
#284=CARTESIAN_POINT('',(21.2,5.,6.8));
#285=CARTESIAN_POINT('',(31.2,5.,6.8));
#286=CARTESIAN_POINT('',(21.2,5.,8.));
#287=CARTESIAN_POINT('',(21.2,5.,6.8));
#288=CARTESIAN_POINT('',(31.2,5.,8.));
#289=CARTESIAN_POINT('',(31.2,5.,8.));
#290=CARTESIAN_POINT('',(31.2,5.,6.8));
#291=CARTESIAN_POINT('Origin',(31.2,-5.,6.8));
#292=CARTESIAN_POINT('',(31.2,-5.,6.8));
#293=CARTESIAN_POINT('',(31.2,-5.,6.8));
#294=CARTESIAN_POINT('',(31.2,-5.,8.));
#295=CARTESIAN_POINT('',(31.2,-5.,8.));
#296=CARTESIAN_POINT('',(31.2,-5.,6.8));
#297=CARTESIAN_POINT('Origin',(21.2,-5.,6.8));
#298=CARTESIAN_POINT('',(21.2,-5.,6.8));
#299=CARTESIAN_POINT('',(21.2,-5.,6.8));
#300=CARTESIAN_POINT('',(21.2,-5.,8.));
#301=CARTESIAN_POINT('',(21.2,-5.,8.));
#302=CARTESIAN_POINT('',(21.2,-5.,6.8));
#303=CARTESIAN_POINT('Origin',(21.2,5.,6.8));
#304=CARTESIAN_POINT('',(21.2,5.,6.8));
#305=CARTESIAN_POINT('',(21.2,5.,8.));
#306=CARTESIAN_POINT('Origin',(26.2,0.,8.));
#307=CARTESIAN_POINT('Origin',(26.2,0.,6.8));
#308=UNCERTAINTY_MEASURE_WITH_UNIT(LENGTH_MEASURE(0.001),#312,
'DISTANCE_ACCURACY_VALUE',
'Maximum model space distance between geometric entities at asserted c
onnectivities');
#309=UNCERTAINTY_MEASURE_WITH_UNIT(LENGTH_MEASURE(0.001),#312,
'DISTANCE_ACCURACY_VALUE',
'Maximum model space distance between geometric entities at asserted c
onnectivities');
#310=(
GEOMETRIC_REPRESENTATION_CONTEXT(3)
GLOBAL_UNCERTAINTY_ASSIGNED_CONTEXT((#308))
GLOBAL_UNIT_ASSIGNED_CONTEXT((#312,#314,#315))
REPRESENTATION_CONTEXT('','3D')
);
#311=(
GEOMETRIC_REPRESENTATION_CONTEXT(3)
GLOBAL_UNCERTAINTY_ASSIGNED_CONTEXT((#309))
GLOBAL_UNIT_ASSIGNED_CONTEXT((#312,#314,#315))
REPRESENTATION_CONTEXT('','3D')
);
#312=(
LENGTH_UNIT()
NAMED_UNIT(*)
SI_UNIT(.CENTI.,.METRE.)
);
#313=(
LENGTH_UNIT()
NAMED_UNIT(*)
SI_UNIT($,.METRE.)
);
#314=(
NAMED_UNIT(*)
PLANE_ANGLE_UNIT()
SI_UNIT($,.RADIAN.)
);
#315=(
NAMED_UNIT(*)
SI_UNIT($,.STERADIAN.)
SOLID_ANGLE_UNIT()
);
#316=SHAPE_DEFINITION_REPRESENTATION(#317,#318);
#317=PRODUCT_DEFINITION_SHAPE('',$,#320);
#318=SHAPE_REPRESENTATION('',(#194),#310);
#319=PRODUCT_DEFINITION_CONTEXT('part definition',#324,'design');
#320=PRODUCT_DEFINITION('2026-09-10-22-45-42-939',
'W04_\X2\7AEF90E862586599677F\X0\_100x100x12',#321,#319);
#321=PRODUCT_DEFINITION_FORMATION('',$,#326);
#322=PRODUCT_RELATED_PRODUCT_CATEGORY('W04_\X2\7AEF90E862586599677F\X0\_
100x100x12','W04_\X2\7AEF90E862586599677F\X0\_100x100x12',(#326));
#323=APPLICATION_PROTOCOL_DEFINITION('international standard',
'automotive_design',2009,#324);
#324=APPLICATION_CONTEXT(
'Core Data for Automotive Mechanical Design Process');
#325=PRODUCT_CONTEXT('part definition',#324,'mechanical');
#326=PRODUCT('2026-09-10-22-45-42-939','W04_\X2\7AEF90E862586599677F\X0\_
100x100x12',$,(#325));
#327=PRESENTATION_STYLE_ASSIGNMENT((#329));
#328=PRESENTATION_STYLE_ASSIGNMENT((#330));
#329=SURFACE_STYLE_USAGE(.BOTH.,#331);
#330=SURFACE_STYLE_USAGE(.BOTH.,#332);
#331=SURFACE_SIDE_STYLE('',(#333));
#332=SURFACE_SIDE_STYLE('',(#334));
#333=SURFACE_STYLE_FILL_AREA(#335);
#334=SURFACE_STYLE_FILL_AREA(#336);
#335=FILL_AREA_STYLE('\X2\94A2\X0\ - \X2\7F0E5149\X0\',(#337));
#336=FILL_AREA_STYLE('R2_wood',(#338));
#337=FILL_AREA_STYLE_COLOUR('\X2\94A2\X0\ - \X2\7F0E5149\X0\',#339);
#338=FILL_AREA_STYLE_COLOUR('R2_wood',#340);
#339=COLOUR_RGB('\X2\94A2\X0\ - \X2\7F0E5149\X0\',0.627450980392157,0.627450980392157,
0.627450980392157);
#340=COLOUR_RGB('R2_wood',0.772549019607843,0.615686274509804,0.403921568627451);
ENDSEC;
END-ISO-10303-21;
