ISO-10303-21;
HEADER;
/* Generated by software containing ST-Developer
 * from STEP Tools, Inc. (www.steptools.com) 
 */

FILE_DESCRIPTION(
/* description */ (''),
/* implementation_level */ '2;1');

FILE_NAME(
/* name */ 'baseline_P05.step',
/* time_stamp */ '2026-09-23T00:07:03+08:00',
/* author */ (''),
/* organization */ (''),
/* preprocessor_version */ 'ST-DEVELOPER v20.1',
/* originating_system */ 'Autodesk Translation Framework v15.8.0.0',
/* authorisation */ '');

FILE_SCHEMA (('AUTOMOTIVE_DESIGN { 1 0 10303 214 3 1 1 }'));
ENDSEC;

DATA;
#10=MECHANICAL_DESIGN_GEOMETRIC_PRESENTATION_REPRESENTATION('',(#13),#599);
#11=SHAPE_REPRESENTATION_RELATIONSHIP('SRR','None',#606,#12);
#12=ADVANCED_BREP_SHAPE_REPRESENTATION('',(#14),#598);
#13=STYLED_ITEM('',(#616),#14);
#14=MANIFOLD_SOLID_BREP('\X2\5B9E4F53\X0\1',#363);
#15=FACE_BOUND('',#57,.T.);
#16=FACE_BOUND('',#60,.T.);
#17=FACE_BOUND('',#66,.T.);
#18=FACE_BOUND('',#67,.T.);
#19=FACE_BOUND('',#73,.T.);
#20=FACE_BOUND('',#74,.T.);
#21=PLANE('',#386);
#22=PLANE('',#390);
#23=PLANE('',#391);
#24=PLANE('',#392);
#25=PLANE('',#393);
#26=PLANE('',#394);
#27=PLANE('',#395);
#28=PLANE('',#396);
#29=PLANE('',#397);
#30=PLANE('',#398);
#31=PLANE('',#399);
#32=PLANE('',#400);
#33=PLANE('',#401);
#34=PLANE('',#402);
#35=FACE_OUTER_BOUND('',#53,.T.);
#36=FACE_OUTER_BOUND('',#54,.T.);
#37=FACE_OUTER_BOUND('',#55,.T.);
#38=FACE_OUTER_BOUND('',#56,.T.);
#39=FACE_OUTER_BOUND('',#58,.T.);
#40=FACE_OUTER_BOUND('',#59,.T.);
#41=FACE_OUTER_BOUND('',#61,.T.);
#42=FACE_OUTER_BOUND('',#62,.T.);
#43=FACE_OUTER_BOUND('',#63,.T.);
#44=FACE_OUTER_BOUND('',#64,.T.);
#45=FACE_OUTER_BOUND('',#65,.T.);
#46=FACE_OUTER_BOUND('',#68,.T.);
#47=FACE_OUTER_BOUND('',#69,.T.);
#48=FACE_OUTER_BOUND('',#70,.T.);
#49=FACE_OUTER_BOUND('',#71,.T.);
#50=FACE_OUTER_BOUND('',#72,.T.);
#51=FACE_OUTER_BOUND('',#75,.T.);
#52=FACE_OUTER_BOUND('',#76,.T.);
#53=EDGE_LOOP('',(#245,#246,#247,#248));
#54=EDGE_LOOP('',(#249,#250,#251,#252));
#55=EDGE_LOOP('',(#253,#254,#255,#256));
#56=EDGE_LOOP('',(#257,#258,#259,#260));
#57=EDGE_LOOP('',(#261,#262,#263,#264));
#58=EDGE_LOOP('',(#265,#266,#267,#268));
#59=EDGE_LOOP('',(#269,#270,#271,#272,#273,#274,#275,#276));
#60=EDGE_LOOP('',(#277,#278,#279,#280));
#61=EDGE_LOOP('',(#281,#282,#283,#284));
#62=EDGE_LOOP('',(#285,#286,#287,#288));
#63=EDGE_LOOP('',(#289,#290,#291,#292));
#64=EDGE_LOOP('',(#293,#294,#295));
#65=EDGE_LOOP('',(#296,#297,#298,#299,#300,#301,#302,#303));
#66=EDGE_LOOP('',(#304));
#67=EDGE_LOOP('',(#305));
#68=EDGE_LOOP('',(#306,#307,#308,#309));
#69=EDGE_LOOP('',(#310,#311,#312));
#70=EDGE_LOOP('',(#313,#314,#315,#316));
#71=EDGE_LOOP('',(#317,#318,#319,#320,#321,#322,#323));
#72=EDGE_LOOP('',(#324,#325,#326,#327));
#73=EDGE_LOOP('',(#328));
#74=EDGE_LOOP('',(#329));
#75=EDGE_LOOP('',(#330,#331,#332,#333));
#76=EDGE_LOOP('',(#334,#335,#336,#337,#338,#339,#340));
#77=LINE('',#502,#117);
#78=LINE('',#508,#118);
#79=LINE('',#515,#119);
#80=LINE('',#518,#120);
#81=LINE('',#522,#121);
#82=LINE('',#524,#122);
#83=LINE('',#526,#123);
#84=LINE('',#527,#124);
#85=LINE('',#529,#125);
#86=LINE('',#532,#126);
#87=LINE('',#535,#127);
#88=LINE('',#538,#128);
#89=LINE('',#542,#129);
#90=LINE('',#544,#130);
#91=LINE('',#546,#131);
#92=LINE('',#548,#132);
#93=LINE('',#550,#133);
#94=LINE('',#552,#134);
#95=LINE('',#554,#135);
#96=LINE('',#555,#136);
#97=LINE('',#556,#137);
#98=LINE('',#557,#138);
#99=LINE('',#562,#139);
#100=LINE('',#564,#140);
#101=LINE('',#565,#141);
#102=LINE('',#567,#142);
#103=LINE('',#570,#143);
#104=LINE('',#572,#144);
#105=LINE('',#574,#145);
#106=LINE('',#576,#146);
#107=LINE('',#577,#147);
#108=LINE('',#579,#148);
#109=LINE('',#580,#149);
#110=LINE('',#584,#150);
#111=LINE('',#586,#151);
#112=LINE('',#587,#152);
#113=LINE('',#589,#153);
#114=LINE('',#590,#154);
#115=LINE('',#592,#155);
#116=LINE('',#594,#156);
#117=VECTOR('',#409,0.225);
#118=VECTOR('',#416,0.225);
#119=VECTOR('',#423,1.);
#120=VECTOR('',#426,1.);
#121=VECTOR('',#429,1.);
#122=VECTOR('',#430,1.);
#123=VECTOR('',#431,1.);
#124=VECTOR('',#432,1.);
#125=VECTOR('',#433,1.);
#126=VECTOR('',#436,1.);
#127=VECTOR('',#439,1.);
#128=VECTOR('',#442,1.);
#129=VECTOR('',#445,1.);
#130=VECTOR('',#446,1.);
#131=VECTOR('',#447,1.);
#132=VECTOR('',#448,1.);
#133=VECTOR('',#449,1.);
#134=VECTOR('',#450,1.);
#135=VECTOR('',#451,1.);
#136=VECTOR('',#452,1.);
#137=VECTOR('',#453,1.);
#138=VECTOR('',#454,1.);
#139=VECTOR('',#461,1.);
#140=VECTOR('',#462,1.);
#141=VECTOR('',#463,1.);
#142=VECTOR('',#466,1.);
#143=VECTOR('',#469,1.);
#144=VECTOR('',#470,1.);
#145=VECTOR('',#471,1.);
#146=VECTOR('',#472,1.);
#147=VECTOR('',#473,1.);
#148=VECTOR('',#476,1.);
#149=VECTOR('',#477,1.);
#150=VECTOR('',#482,1.);
#151=VECTOR('',#483,1.);
#152=VECTOR('',#484,1.);
#153=VECTOR('',#487,1.);
#154=VECTOR('',#488,1.);
#155=VECTOR('',#491,1.);
#156=VECTOR('',#494,1.);
#157=CIRCLE('',#378,0.225);
#158=CIRCLE('',#379,0.225);
#159=CIRCLE('',#381,0.225);
#160=CIRCLE('',#382,0.225);
#161=CIRCLE('',#384,0.225);
#162=CIRCLE('',#385,0.225);
#163=CIRCLE('',#387,0.225);
#164=CIRCLE('',#389,0.225);
#165=VERTEX_POINT('',#499);
#166=VERTEX_POINT('',#501);
#167=VERTEX_POINT('',#505);
#168=VERTEX_POINT('',#507);
#169=VERTEX_POINT('',#511);
#170=VERTEX_POINT('',#512);
#171=VERTEX_POINT('',#514);
#172=VERTEX_POINT('',#516);
#173=VERTEX_POINT('',#520);
#174=VERTEX_POINT('',#521);
#175=VERTEX_POINT('',#523);
#176=VERTEX_POINT('',#525);
#177=VERTEX_POINT('',#528);
#178=VERTEX_POINT('',#530);
#179=VERTEX_POINT('',#534);
#180=VERTEX_POINT('',#536);
#181=VERTEX_POINT('',#540);
#182=VERTEX_POINT('',#541);
#183=VERTEX_POINT('',#543);
#184=VERTEX_POINT('',#545);
#185=VERTEX_POINT('',#547);
#186=VERTEX_POINT('',#549);
#187=VERTEX_POINT('',#551);
#188=VERTEX_POINT('',#553);
#189=VERTEX_POINT('',#561);
#190=VERTEX_POINT('',#563);
#191=VERTEX_POINT('',#569);
#192=VERTEX_POINT('',#571);
#193=VERTEX_POINT('',#573);
#194=VERTEX_POINT('',#575);
#195=VERTEX_POINT('',#583);
#196=VERTEX_POINT('',#585);
#197=EDGE_CURVE('',#165,#165,#157,.T.);
#198=EDGE_CURVE('',#165,#166,#77,.T.);
#199=EDGE_CURVE('',#166,#166,#158,.T.);
#200=EDGE_CURVE('',#167,#167,#159,.T.);
#201=EDGE_CURVE('',#167,#168,#78,.T.);
#202=EDGE_CURVE('',#168,#168,#160,.T.);
#203=EDGE_CURVE('',#169,#170,#161,.T.);
#204=EDGE_CURVE('',#171,#169,#79,.T.);
#205=EDGE_CURVE('',#172,#171,#162,.T.);
#206=EDGE_CURVE('',#172,#170,#80,.T.);
#207=EDGE_CURVE('',#173,#174,#81,.T.);
#208=EDGE_CURVE('',#175,#173,#82,.T.);
#209=EDGE_CURVE('',#176,#175,#83,.T.);
#210=EDGE_CURVE('',#174,#176,#84,.T.);
#211=EDGE_CURVE('',#171,#177,#85,.T.);
#212=EDGE_CURVE('',#177,#178,#163,.T.);
#213=EDGE_CURVE('',#178,#172,#86,.T.);
#214=EDGE_CURVE('',#177,#179,#87,.T.);
#215=EDGE_CURVE('',#180,#179,#164,.T.);
#216=EDGE_CURVE('',#178,#180,#88,.T.);
#217=EDGE_CURVE('',#181,#182,#89,.T.);
#218=EDGE_CURVE('',#182,#183,#90,.T.);
#219=EDGE_CURVE('',#183,#184,#91,.T.);
#220=EDGE_CURVE('',#184,#185,#92,.T.);
#221=EDGE_CURVE('',#185,#186,#93,.T.);
#222=EDGE_CURVE('',#186,#187,#94,.T.);
#223=EDGE_CURVE('',#187,#188,#95,.T.);
#224=EDGE_CURVE('',#188,#181,#96,.T.);
#225=EDGE_CURVE('',#170,#180,#97,.T.);
#226=EDGE_CURVE('',#179,#169,#98,.T.);
#227=EDGE_CURVE('',#182,#189,#99,.T.);
#228=EDGE_CURVE('',#190,#181,#100,.T.);
#229=EDGE_CURVE('',#189,#190,#101,.T.);
#230=EDGE_CURVE('',#183,#189,#102,.T.);
#231=EDGE_CURVE('',#190,#191,#103,.T.);
#232=EDGE_CURVE('',#192,#191,#104,.T.);
#233=EDGE_CURVE('',#193,#192,#105,.T.);
#234=EDGE_CURVE('',#193,#194,#106,.T.);
#235=EDGE_CURVE('',#194,#184,#107,.T.);
#236=EDGE_CURVE('',#186,#193,#108,.T.);
#237=EDGE_CURVE('',#194,#185,#109,.T.);
#238=EDGE_CURVE('',#195,#192,#110,.T.);
#239=EDGE_CURVE('',#191,#196,#111,.T.);
#240=EDGE_CURVE('',#196,#195,#112,.T.);
#241=EDGE_CURVE('',#173,#188,#113,.T.);
#242=EDGE_CURVE('',#174,#196,#114,.T.);
#243=EDGE_CURVE('',#176,#195,#115,.T.);
#244=EDGE_CURVE('',#175,#187,#116,.T.);
#245=ORIENTED_EDGE('',*,*,#197,.F.);
#246=ORIENTED_EDGE('',*,*,#198,.T.);
#247=ORIENTED_EDGE('',*,*,#199,.F.);
#248=ORIENTED_EDGE('',*,*,#198,.F.);
#249=ORIENTED_EDGE('',*,*,#200,.F.);
#250=ORIENTED_EDGE('',*,*,#201,.T.);
#251=ORIENTED_EDGE('',*,*,#202,.F.);
#252=ORIENTED_EDGE('',*,*,#201,.F.);
#253=ORIENTED_EDGE('',*,*,#203,.F.);
#254=ORIENTED_EDGE('',*,*,#204,.F.);
#255=ORIENTED_EDGE('',*,*,#205,.F.);
#256=ORIENTED_EDGE('',*,*,#206,.T.);
#257=ORIENTED_EDGE('',*,*,#207,.F.);
#258=ORIENTED_EDGE('',*,*,#208,.F.);
#259=ORIENTED_EDGE('',*,*,#209,.F.);
#260=ORIENTED_EDGE('',*,*,#210,.F.);
#261=ORIENTED_EDGE('',*,*,#205,.T.);
#262=ORIENTED_EDGE('',*,*,#211,.T.);
#263=ORIENTED_EDGE('',*,*,#212,.T.);
#264=ORIENTED_EDGE('',*,*,#213,.T.);
#265=ORIENTED_EDGE('',*,*,#214,.T.);
#266=ORIENTED_EDGE('',*,*,#215,.F.);
#267=ORIENTED_EDGE('',*,*,#216,.F.);
#268=ORIENTED_EDGE('',*,*,#212,.F.);
#269=ORIENTED_EDGE('',*,*,#217,.T.);
#270=ORIENTED_EDGE('',*,*,#218,.T.);
#271=ORIENTED_EDGE('',*,*,#219,.T.);
#272=ORIENTED_EDGE('',*,*,#220,.T.);
#273=ORIENTED_EDGE('',*,*,#221,.T.);
#274=ORIENTED_EDGE('',*,*,#222,.T.);
#275=ORIENTED_EDGE('',*,*,#223,.T.);
#276=ORIENTED_EDGE('',*,*,#224,.T.);
#277=ORIENTED_EDGE('',*,*,#203,.T.);
#278=ORIENTED_EDGE('',*,*,#225,.T.);
#279=ORIENTED_EDGE('',*,*,#215,.T.);
#280=ORIENTED_EDGE('',*,*,#226,.T.);
#281=ORIENTED_EDGE('',*,*,#226,.F.);
#282=ORIENTED_EDGE('',*,*,#214,.F.);
#283=ORIENTED_EDGE('',*,*,#211,.F.);
#284=ORIENTED_EDGE('',*,*,#204,.T.);
#285=ORIENTED_EDGE('',*,*,#225,.F.);
#286=ORIENTED_EDGE('',*,*,#206,.F.);
#287=ORIENTED_EDGE('',*,*,#213,.F.);
#288=ORIENTED_EDGE('',*,*,#216,.T.);
#289=ORIENTED_EDGE('',*,*,#227,.F.);
#290=ORIENTED_EDGE('',*,*,#217,.F.);
#291=ORIENTED_EDGE('',*,*,#228,.F.);
#292=ORIENTED_EDGE('',*,*,#229,.F.);
#293=ORIENTED_EDGE('',*,*,#227,.T.);
#294=ORIENTED_EDGE('',*,*,#230,.F.);
#295=ORIENTED_EDGE('',*,*,#218,.F.);
#296=ORIENTED_EDGE('',*,*,#230,.T.);
#297=ORIENTED_EDGE('',*,*,#229,.T.);
#298=ORIENTED_EDGE('',*,*,#231,.T.);
#299=ORIENTED_EDGE('',*,*,#232,.F.);
#300=ORIENTED_EDGE('',*,*,#233,.F.);
#301=ORIENTED_EDGE('',*,*,#234,.T.);
#302=ORIENTED_EDGE('',*,*,#235,.T.);
#303=ORIENTED_EDGE('',*,*,#219,.F.);
#304=ORIENTED_EDGE('',*,*,#197,.T.);
#305=ORIENTED_EDGE('',*,*,#200,.T.);
#306=ORIENTED_EDGE('',*,*,#236,.F.);
#307=ORIENTED_EDGE('',*,*,#221,.F.);
#308=ORIENTED_EDGE('',*,*,#237,.F.);
#309=ORIENTED_EDGE('',*,*,#234,.F.);
#310=ORIENTED_EDGE('',*,*,#237,.T.);
#311=ORIENTED_EDGE('',*,*,#220,.F.);
#312=ORIENTED_EDGE('',*,*,#235,.F.);
#313=ORIENTED_EDGE('',*,*,#238,.T.);
#314=ORIENTED_EDGE('',*,*,#232,.T.);
#315=ORIENTED_EDGE('',*,*,#239,.T.);
#316=ORIENTED_EDGE('',*,*,#240,.T.);
#317=ORIENTED_EDGE('',*,*,#224,.F.);
#318=ORIENTED_EDGE('',*,*,#241,.F.);
#319=ORIENTED_EDGE('',*,*,#207,.T.);
#320=ORIENTED_EDGE('',*,*,#242,.T.);
#321=ORIENTED_EDGE('',*,*,#239,.F.);
#322=ORIENTED_EDGE('',*,*,#231,.F.);
#323=ORIENTED_EDGE('',*,*,#228,.T.);
#324=ORIENTED_EDGE('',*,*,#210,.T.);
#325=ORIENTED_EDGE('',*,*,#243,.T.);
#326=ORIENTED_EDGE('',*,*,#240,.F.);
#327=ORIENTED_EDGE('',*,*,#242,.F.);
#328=ORIENTED_EDGE('',*,*,#199,.T.);
#329=ORIENTED_EDGE('',*,*,#202,.T.);
#330=ORIENTED_EDGE('',*,*,#208,.T.);
#331=ORIENTED_EDGE('',*,*,#241,.T.);
#332=ORIENTED_EDGE('',*,*,#223,.F.);
#333=ORIENTED_EDGE('',*,*,#244,.F.);
#334=ORIENTED_EDGE('',*,*,#209,.T.);
#335=ORIENTED_EDGE('',*,*,#244,.T.);
#336=ORIENTED_EDGE('',*,*,#222,.F.);
#337=ORIENTED_EDGE('',*,*,#236,.T.);
#338=ORIENTED_EDGE('',*,*,#233,.T.);
#339=ORIENTED_EDGE('',*,*,#238,.F.);
#340=ORIENTED_EDGE('',*,*,#243,.F.);
#341=CYLINDRICAL_SURFACE('',#377,0.225);
#342=CYLINDRICAL_SURFACE('',#380,0.225);
#343=CYLINDRICAL_SURFACE('',#383,0.225);
#344=CYLINDRICAL_SURFACE('',#388,0.225);
#345=ADVANCED_FACE('',(#35),#341,.F.);
#346=ADVANCED_FACE('',(#36),#342,.F.);
#347=ADVANCED_FACE('',(#37),#343,.F.);
#348=ADVANCED_FACE('',(#38,#15),#21,.F.);
#349=ADVANCED_FACE('',(#39),#344,.F.);
#350=ADVANCED_FACE('',(#40,#16),#22,.T.);
#351=ADVANCED_FACE('',(#41),#23,.F.);
#352=ADVANCED_FACE('',(#42),#24,.F.);
#353=ADVANCED_FACE('',(#43),#25,.T.);
#354=ADVANCED_FACE('',(#44),#26,.F.);
#355=ADVANCED_FACE('',(#45,#17,#18),#27,.T.);
#356=ADVANCED_FACE('',(#46),#28,.T.);
#357=ADVANCED_FACE('',(#47),#29,.T.);
#358=ADVANCED_FACE('',(#48),#30,.T.);
#359=ADVANCED_FACE('',(#49),#31,.T.);
#360=ADVANCED_FACE('',(#50,#19,#20),#32,.T.);
#361=ADVANCED_FACE('',(#51),#33,.T.);
#362=ADVANCED_FACE('',(#52),#34,.T.);
#363=CLOSED_SHELL('',(#345,#346,#347,#348,#349,#350,#351,#352,#353,#354,
#355,#356,#357,#358,#359,#360,#361,#362));
#364=DERIVED_UNIT_ELEMENT(#366,1.);
#365=DERIVED_UNIT_ELEMENT(#601,-3.);
#366=(
MASS_UNIT()
NAMED_UNIT(*)
SI_UNIT(.KILO.,.GRAM.)
);
#367=DERIVED_UNIT((#364,#365));
#368=MEASURE_REPRESENTATION_ITEM('density measure',
POSITIVE_RATIO_MEASURE(7850.),#367);
#369=PROPERTY_DEFINITION_REPRESENTATION(#374,#371);
#370=PROPERTY_DEFINITION_REPRESENTATION(#375,#372);
#371=REPRESENTATION('material name',(#373),#598);
#372=REPRESENTATION('density',(#368),#598);
#373=DESCRIPTIVE_REPRESENTATION_ITEM('\X2\94A2\X0\','\X2\94A2\X0\');
#374=PROPERTY_DEFINITION('material property','material name',#608);
#375=PROPERTY_DEFINITION('material property','density of part',#608);
#376=AXIS2_PLACEMENT_3D('',#497,#403,#404);
#377=AXIS2_PLACEMENT_3D('',#498,#405,#406);
#378=AXIS2_PLACEMENT_3D('',#500,#407,#408);
#379=AXIS2_PLACEMENT_3D('',#503,#410,#411);
#380=AXIS2_PLACEMENT_3D('',#504,#412,#413);
#381=AXIS2_PLACEMENT_3D('',#506,#414,#415);
#382=AXIS2_PLACEMENT_3D('',#509,#417,#418);
#383=AXIS2_PLACEMENT_3D('',#510,#419,#420);
#384=AXIS2_PLACEMENT_3D('',#513,#421,#422);
#385=AXIS2_PLACEMENT_3D('',#517,#424,#425);
#386=AXIS2_PLACEMENT_3D('',#519,#427,#428);
#387=AXIS2_PLACEMENT_3D('',#531,#434,#435);
#388=AXIS2_PLACEMENT_3D('',#533,#437,#438);
#389=AXIS2_PLACEMENT_3D('',#537,#440,#441);
#390=AXIS2_PLACEMENT_3D('',#539,#443,#444);
#391=AXIS2_PLACEMENT_3D('',#558,#455,#456);
#392=AXIS2_PLACEMENT_3D('',#559,#457,#458);
#393=AXIS2_PLACEMENT_3D('',#560,#459,#460);
#394=AXIS2_PLACEMENT_3D('',#566,#464,#465);
#395=AXIS2_PLACEMENT_3D('',#568,#467,#468);
#396=AXIS2_PLACEMENT_3D('',#578,#474,#475);
#397=AXIS2_PLACEMENT_3D('',#581,#478,#479);
#398=AXIS2_PLACEMENT_3D('',#582,#480,#481);
#399=AXIS2_PLACEMENT_3D('',#588,#485,#486);
#400=AXIS2_PLACEMENT_3D('',#591,#489,#490);
#401=AXIS2_PLACEMENT_3D('',#593,#492,#493);
#402=AXIS2_PLACEMENT_3D('',#595,#495,#496);
#403=DIRECTION('axis',(0.,0.,1.));
#404=DIRECTION('refdir',(1.,0.,0.));
#405=DIRECTION('center_axis',(0.,1.,0.));
#406=DIRECTION('ref_axis',(1.,0.,0.));
#407=DIRECTION('center_axis',(0.,1.,0.));
#408=DIRECTION('ref_axis',(1.,0.,0.));
#409=DIRECTION('',(0.,1.,0.));
#410=DIRECTION('center_axis',(0.,-1.,0.));
#411=DIRECTION('ref_axis',(1.,0.,0.));
#412=DIRECTION('center_axis',(0.,1.,0.));
#413=DIRECTION('ref_axis',(1.,0.,0.));
#414=DIRECTION('center_axis',(0.,1.,0.));
#415=DIRECTION('ref_axis',(1.,0.,0.));
#416=DIRECTION('',(0.,1.,0.));
#417=DIRECTION('center_axis',(0.,-1.,0.));
#418=DIRECTION('ref_axis',(1.,0.,0.));
#419=DIRECTION('center_axis',(0.,0.,1.));
#420=DIRECTION('ref_axis',(1.,0.,0.));
#421=DIRECTION('center_axis',(0.,0.,-1.));
#422=DIRECTION('ref_axis',(1.,0.,0.));
#423=DIRECTION('',(0.,0.,1.));
#424=DIRECTION('center_axis',(0.,0.,1.));
#425=DIRECTION('ref_axis',(1.,0.,0.));
#426=DIRECTION('',(0.,0.,1.));
#427=DIRECTION('center_axis',(0.,0.,1.));
#428=DIRECTION('ref_axis',(1.,0.,0.));
#429=DIRECTION('',(0.,1.,0.));
#430=DIRECTION('',(1.,0.,0.));
#431=DIRECTION('',(0.,-1.,0.));
#432=DIRECTION('',(-1.,0.,0.));
#433=DIRECTION('',(0.,-1.,0.));
#434=DIRECTION('center_axis',(0.,0.,1.));
#435=DIRECTION('ref_axis',(1.,0.,0.));
#436=DIRECTION('',(0.,1.,0.));
#437=DIRECTION('center_axis',(0.,0.,1.));
#438=DIRECTION('ref_axis',(1.,0.,0.));
#439=DIRECTION('',(0.,0.,1.));
#440=DIRECTION('center_axis',(0.,0.,-1.));
#441=DIRECTION('ref_axis',(1.,0.,0.));
#442=DIRECTION('',(0.,0.,1.));
#443=DIRECTION('center_axis',(0.,0.,1.));
#444=DIRECTION('ref_axis',(1.,0.,0.));
#445=DIRECTION('',(-1.,0.,0.));
#446=DIRECTION('',(0.,1.,0.));
#447=DIRECTION('',(-1.,0.,0.));
#448=DIRECTION('',(0.,-1.,0.));
#449=DIRECTION('',(-1.,0.,0.));
#450=DIRECTION('',(0.,-1.,0.));
#451=DIRECTION('',(1.,0.,0.));
#452=DIRECTION('',(0.,1.,0.));
#453=DIRECTION('',(0.,-1.,0.));
#454=DIRECTION('',(0.,1.,0.));
#455=DIRECTION('center_axis',(-1.,0.,0.));
#456=DIRECTION('ref_axis',(0.,-1.,0.));
#457=DIRECTION('center_axis',(1.,0.,0.));
#458=DIRECTION('ref_axis',(0.,1.,0.));
#459=DIRECTION('center_axis',(0.,-0.694594513699567,0.719401460617409));
#460=DIRECTION('ref_axis',(0.,-0.719401460617409,-0.694594513699567));
#461=DIRECTION('',(0.,0.719401460617409,0.694594513699567));
#462=DIRECTION('',(0.,-0.719401460617409,-0.694594513699567));
#463=DIRECTION('',(1.,0.,0.));
#464=DIRECTION('center_axis',(1.,0.,0.));
#465=DIRECTION('ref_axis',(0.,0.,-1.));
#466=DIRECTION('',(0.,0.,1.));
#467=DIRECTION('center_axis',(0.,-1.,0.));
#468=DIRECTION('ref_axis',(1.,0.,0.));
#469=DIRECTION('',(0.,0.,1.));
#470=DIRECTION('',(1.,0.,0.));
#471=DIRECTION('',(0.,0.,1.));
#472=DIRECTION('',(1.,0.,0.));
#473=DIRECTION('',(0.,0.,-1.));
#474=DIRECTION('center_axis',(0.,-0.694594513699567,0.719401460617409));
#475=DIRECTION('ref_axis',(0.,-0.719401460617409,-0.694594513699567));
#476=DIRECTION('',(0.,0.719401460617409,0.694594513699567));
#477=DIRECTION('',(0.,-0.719401460617409,-0.694594513699567));
#478=DIRECTION('center_axis',(1.,0.,0.));
#479=DIRECTION('ref_axis',(0.,0.,-1.));
#480=DIRECTION('center_axis',(0.,0.,1.));
#481=DIRECTION('ref_axis',(1.,0.,0.));
#482=DIRECTION('',(0.,-1.,0.));
#483=DIRECTION('',(0.,1.,0.));
#484=DIRECTION('',(-1.,0.,0.));
#485=DIRECTION('center_axis',(1.,0.,0.));
#486=DIRECTION('ref_axis',(0.,1.,0.));
#487=DIRECTION('',(0.,0.,1.));
#488=DIRECTION('',(0.,0.,1.));
#489=DIRECTION('center_axis',(0.,1.,0.));
#490=DIRECTION('ref_axis',(-1.,0.,0.));
#491=DIRECTION('',(0.,0.,1.));
#492=DIRECTION('center_axis',(0.,-1.,0.));
#493=DIRECTION('ref_axis',(1.,0.,0.));
#494=DIRECTION('',(0.,0.,1.));
#495=DIRECTION('center_axis',(-1.,0.,0.));
#496=DIRECTION('ref_axis',(0.,-1.,0.));
#497=CARTESIAN_POINT('',(0.,0.,0.));
#498=CARTESIAN_POINT('Origin',(0.,7.3,19.2));
#499=CARTESIAN_POINT('',(-0.225,7.4,19.2));
#500=CARTESIAN_POINT('Origin',(0.,7.4,19.2));
#501=CARTESIAN_POINT('',(-0.225,8.6,19.2));
#502=CARTESIAN_POINT('',(-0.225,7.3,19.2));
#503=CARTESIAN_POINT('Origin',(0.,8.6,19.2));
#504=CARTESIAN_POINT('Origin',(0.,7.3,17.6));
#505=CARTESIAN_POINT('',(-0.225,7.4,17.6));
#506=CARTESIAN_POINT('Origin',(0.,7.4,17.6));
#507=CARTESIAN_POINT('',(-0.225,8.6,17.6));
#508=CARTESIAN_POINT('',(-0.225,7.3,17.6));
#509=CARTESIAN_POINT('Origin',(0.,8.6,17.6));
#510=CARTESIAN_POINT('Origin',(0.,3.375,15.7));
#511=CARTESIAN_POINT('',(-0.225,3.375,17.));
#512=CARTESIAN_POINT('',(0.225,3.375,17.));
#513=CARTESIAN_POINT('Origin',(0.,3.375,17.));
#514=CARTESIAN_POINT('',(-0.225,3.375,15.8));
#515=CARTESIAN_POINT('',(-0.225,3.375,15.7));
#516=CARTESIAN_POINT('',(0.225,3.375,15.8));
#517=CARTESIAN_POINT('Origin',(0.,3.375,15.8));
#518=CARTESIAN_POINT('',(0.225,3.375,15.7));
#519=CARTESIAN_POINT('Origin',(0.,1.1,15.8));
#520=CARTESIAN_POINT('',(1.,-6.4,15.8));
#521=CARTESIAN_POINT('',(1.,8.6,15.8));
#522=CARTESIAN_POINT('',(1.,-6.4,15.8));
#523=CARTESIAN_POINT('',(-1.,-6.4,15.8));
#524=CARTESIAN_POINT('',(-1.,-6.4,15.8));
#525=CARTESIAN_POINT('',(-1.,8.6,15.8));
#526=CARTESIAN_POINT('',(-1.,8.6,15.8));
#527=CARTESIAN_POINT('',(1.,8.6,15.8));
#528=CARTESIAN_POINT('',(-0.225,-3.375,15.8));
#529=CARTESIAN_POINT('',(-0.225,2.2375,15.8));
#530=CARTESIAN_POINT('',(0.225,-3.375,15.8));
#531=CARTESIAN_POINT('Origin',(0.,-3.375,15.8));
#532=CARTESIAN_POINT('',(0.225,-1.1375,15.8));
#533=CARTESIAN_POINT('Origin',(0.,-3.375,15.7));
#534=CARTESIAN_POINT('',(-0.225,-3.375,17.));
#535=CARTESIAN_POINT('',(-0.225,-3.375,15.7));
#536=CARTESIAN_POINT('',(0.225,-3.375,17.));
#537=CARTESIAN_POINT('Origin',(0.,-3.375,17.));
#538=CARTESIAN_POINT('',(0.225,-3.375,15.7));
#539=CARTESIAN_POINT('Origin',(0.,1.1,17.));
#540=CARTESIAN_POINT('',(1.,4.5,17.));
#541=CARTESIAN_POINT('',(0.6,4.5,17.));
#542=CARTESIAN_POINT('',(0.3,4.5,17.));
#543=CARTESIAN_POINT('',(0.6,7.4,17.));
#544=CARTESIAN_POINT('',(0.6,3.525,17.));
#545=CARTESIAN_POINT('',(-0.6,7.4,17.));
#546=CARTESIAN_POINT('',(-0.5,7.4,17.));
#547=CARTESIAN_POINT('',(-0.6,4.5,17.));
#548=CARTESIAN_POINT('',(-0.6,3.525,17.));
#549=CARTESIAN_POINT('',(-1.,4.5,17.));
#550=CARTESIAN_POINT('',(-0.5,4.5,17.));
#551=CARTESIAN_POINT('',(-1.,-6.4,17.));
#552=CARTESIAN_POINT('',(-1.,8.6,17.));
#553=CARTESIAN_POINT('',(1.,-6.4,17.));
#554=CARTESIAN_POINT('',(-1.,-6.4,17.));
#555=CARTESIAN_POINT('',(1.,-6.4,17.));
#556=CARTESIAN_POINT('',(0.225,-1.1375,17.));
#557=CARTESIAN_POINT('',(-0.225,2.2375,17.));
#558=CARTESIAN_POINT('Origin',(-0.225,3.375,15.7));
#559=CARTESIAN_POINT('Origin',(0.225,-3.375,15.7));
#560=CARTESIAN_POINT('Origin',(0.6,7.4,19.8));
#561=CARTESIAN_POINT('',(0.6,7.4,19.8));
#562=CARTESIAN_POINT('',(0.6,4.5,17.));
#563=CARTESIAN_POINT('',(1.,7.4,19.8));
#564=CARTESIAN_POINT('',(1.,4.5,17.));
#565=CARTESIAN_POINT('',(-0.2,7.4,19.8));
#566=CARTESIAN_POINT('Origin',(0.6,5.95,18.4));
#567=CARTESIAN_POINT('',(0.6,7.4,17.1));
#568=CARTESIAN_POINT('Origin',(-1.,7.4,15.8));
#569=CARTESIAN_POINT('',(1.,7.4,20.2));
#570=CARTESIAN_POINT('',(1.,7.4,15.8));
#571=CARTESIAN_POINT('',(-1.,7.4,20.2));
#572=CARTESIAN_POINT('',(-1.,7.4,20.2));
#573=CARTESIAN_POINT('',(-1.,7.4,19.8));
#574=CARTESIAN_POINT('',(-1.,7.4,15.8));
#575=CARTESIAN_POINT('',(-0.6,7.4,19.8));
#576=CARTESIAN_POINT('',(-1.,7.4,19.8));
#577=CARTESIAN_POINT('',(-0.6,7.4,17.1));
#578=CARTESIAN_POINT('Origin',(-1.,7.4,19.8));
#579=CARTESIAN_POINT('',(-1.,4.5,17.));
#580=CARTESIAN_POINT('',(-0.6,4.5,17.));
#581=CARTESIAN_POINT('Origin',(-0.6,5.95,18.4));
#582=CARTESIAN_POINT('Origin',(0.,8.,20.2));
#583=CARTESIAN_POINT('',(-1.,8.6,20.2));
#584=CARTESIAN_POINT('',(-1.,8.6,20.2));
#585=CARTESIAN_POINT('',(1.,8.6,20.2));
#586=CARTESIAN_POINT('',(1.,7.4,20.2));
#587=CARTESIAN_POINT('',(1.,8.6,20.2));
#588=CARTESIAN_POINT('Origin',(1.,-6.4,15.8));
#589=CARTESIAN_POINT('',(1.,-6.4,15.8));
#590=CARTESIAN_POINT('',(1.,8.6,15.8));
#591=CARTESIAN_POINT('Origin',(1.,8.6,15.8));
#592=CARTESIAN_POINT('',(-1.,8.6,15.8));
#593=CARTESIAN_POINT('Origin',(-1.,-6.4,15.8));
#594=CARTESIAN_POINT('',(-1.,-6.4,15.8));
#595=CARTESIAN_POINT('Origin',(-1.,8.6,15.8));
#596=UNCERTAINTY_MEASURE_WITH_UNIT(LENGTH_MEASURE(0.001),#600,
'DISTANCE_ACCURACY_VALUE',
'Maximum model space distance between geometric entities at asserted c
onnectivities');
#597=UNCERTAINTY_MEASURE_WITH_UNIT(LENGTH_MEASURE(0.001),#600,
'DISTANCE_ACCURACY_VALUE',
'Maximum model space distance between geometric entities at asserted c
onnectivities');
#598=(
GEOMETRIC_REPRESENTATION_CONTEXT(3)
GLOBAL_UNCERTAINTY_ASSIGNED_CONTEXT((#596))
GLOBAL_UNIT_ASSIGNED_CONTEXT((#600,#602,#603))
REPRESENTATION_CONTEXT('','3D')
);
#599=(
GEOMETRIC_REPRESENTATION_CONTEXT(3)
GLOBAL_UNCERTAINTY_ASSIGNED_CONTEXT((#597))
GLOBAL_UNIT_ASSIGNED_CONTEXT((#600,#602,#603))
REPRESENTATION_CONTEXT('','3D')
);
#600=(
LENGTH_UNIT()
NAMED_UNIT(*)
SI_UNIT(.CENTI.,.METRE.)
);
#601=(
LENGTH_UNIT()
NAMED_UNIT(*)
SI_UNIT($,.METRE.)
);
#602=(
NAMED_UNIT(*)
PLANE_ANGLE_UNIT()
SI_UNIT($,.RADIAN.)
);
#603=(
NAMED_UNIT(*)
SI_UNIT($,.STERADIAN.)
SOLID_ANGLE_UNIT()
);
#604=SHAPE_DEFINITION_REPRESENTATION(#605,#606);
#605=PRODUCT_DEFINITION_SHAPE('',$,#608);
#606=SHAPE_REPRESENTATION('',(#376),#598);
#607=PRODUCT_DEFINITION_CONTEXT('part definition',#612,'design');
#608=PRODUCT_DEFINITION('2026-09-23-00-07-03-861',
'P05_\X2\53CC87BA6813706F625881C2\X0\',#609,#607);
#609=PRODUCT_DEFINITION_FORMATION('',$,#614);
#610=PRODUCT_RELATED_PRODUCT_CATEGORY('P05_\X2\53CC87BA6813706F625881C2\X0\',
'P05_\X2\53CC87BA6813706F625881C2\X0\',(#614));
#611=APPLICATION_PROTOCOL_DEFINITION('international standard',
'automotive_design',2009,#612);
#612=APPLICATION_CONTEXT(
'Core Data for Automotive Mechanical Design Process');
#613=PRODUCT_CONTEXT('part definition',#612,'mechanical');
#614=PRODUCT('2026-09-23-00-07-03-861','P05_\X2\53CC87BA6813706F625881C2\X0\',
$,(#613));
#615=PRESENTATION_STYLE_ASSIGNMENT((#617));
#616=PRESENTATION_STYLE_ASSIGNMENT((#618));
#617=SURFACE_STYLE_USAGE(.BOTH.,#619);
#618=SURFACE_STYLE_USAGE(.BOTH.,#620);
#619=SURFACE_SIDE_STYLE('',(#621));
#620=SURFACE_SIDE_STYLE('',(#622));
#621=SURFACE_STYLE_FILL_AREA(#623);
#622=SURFACE_STYLE_FILL_AREA(#624);
#623=FILL_AREA_STYLE('\X2\94A2\X0\ - \X2\7F0E5149\X0\',(#625));
#624=FILL_AREA_STYLE('R2_light',(#626));
#625=FILL_AREA_STYLE_COLOUR('\X2\94A2\X0\ - \X2\7F0E5149\X0\',#627);
#626=FILL_AREA_STYLE_COLOUR('R2_light',#628);
#627=COLOUR_RGB('\X2\94A2\X0\ - \X2\7F0E5149\X0\',0.627450980392157,0.627450980392157,
0.627450980392157);
#628=COLOUR_RGB('R2_light',0.858823529411765,0.549019607843137,0.164705882352941);
ENDSEC;
END-ISO-10303-21;
