<svg xmlns="http://www.w3.org/2000/svg" width="1100" height="820" viewBox="0 0 1100 820"><rect width="1100" height="820" fill="white"/><style>text{font-family:'Microsoft YaHei',sans-serif;fill:#20313c} .part{fill:#e6eef0;stroke:#263e4c;stroke-width:1.6}.dim{stroke:#527582;stroke-width:1;fill:none}.slot{fill:white;stroke:#263e4c}</style><text x="40" y="45" font-size="25">P03 灯架竖向导板 · 尺寸草案</text><text x="40" y="77" font-size="16">单位mm · 第三角布局 · 数量2 · 同页三视同比例 · 不按纸面比例量取</text><text x="40" y="104" font-size="15">用户授权假设尺寸；未完成实体CAD、孔位配合与强度验证，不可直接打印。</text><text x="90" y="145" font-size="16">俯视（X×Y）</text><text x="90" y="365" font-size="16">正视（X×Z）</text><text x="590" y="365" font-size="16">右视（Y×Z）</text><rect class="part" x="90" y="280.8" width="38.400000000000006" height="19.200000000000003"/><rect class="part" x="90" y="380" width="38.400000000000006" height="240"/><rect class="part" x="590" y="380" width="19.200000000000003" height="240"/><rect class="slot" x="105.6" y="420" width="7.2" height="160"/><path class="dim" d="M90,308v20 M128.4,308v20 M90,320h38.400000000000006 M136.4,280.8h20 M136.4,300h20 M148.4,280.8v19.200000000000003"/><text x="101.2" y="342" font-size="16">24</text><text x="153.4" y="295.40000000000003" font-size="16">12</text><path class="dim" d="M90,628v20 M128.4,628v20 M90,640h38.400000000000006 M136.4,380h20 M136.4,620h20 M148.4,380v240"/><text x="101.2" y="662" font-size="16">24</text><text x="153.4" y="505" font-size="16">150</text><path class="dim" d="M590,628v20 M609.2,628v20 M590,640h19.200000000000003 M617.2,380h20 M617.2,620h20 M629.2,380v240"/><text x="591.6" y="662" font-size="16">12</text><text x="634.2" y="505" font-size="16">150</text><text x="40" y="720" font-size="15">竖槽4.5×100；上下固定区各25；固定孔待布置</text><text x="40" y="752" font-size="14">浅色轮廓表示主体外形；未画出的孔、夹耳、台阶、连接结构不得凭图自行补加工。</text><text x="40" y="783" font-size="14">配套：08_默认尺寸与采购草案.md；先小件试配，再完成正式实体模型与加工图。</text></svg>