<svg xmlns="http://www.w3.org/2000/svg" width="1100" height="820" viewBox="0 0 1100 820"><rect width="1100" height="820" fill="white"/><style>text{font-family:'Microsoft YaHei',sans-serif;fill:#20313c} .part{fill:#e6eef0;stroke:#263e4c;stroke-width:1.6}.dim{stroke:#527582;stroke-width:1;fill:none}.slot{fill:white;stroke:#263e4c}</style><text x="40" y="45" font-size="25">P05 分体外夹圈主体 · 尺寸草案</text><text x="40" y="77" font-size="16">单位mm · 第三角布局 · 数量1 · 同页三视同比例 · 不按纸面比例量取</text><text x="40" y="104" font-size="15">用户授权假设尺寸；未完成实体CAD、孔位配合与强度验证，不可直接打印。</text><text x="90" y="145" font-size="16">俯视（X×Y）</text><text x="90" y="365" font-size="16">正视（X×Z）</text><text x="590" y="365" font-size="16">右视（Y×Z）</text><circle class="part" cx="210" cy="180" r="119.99999999999999"/><circle class="slot" cx="210" cy="180" r="99.27272727272727"/><text x="90" y="48.00000000000003" font-size="16">主体 Ø110 / 内孔 Ø91</text><rect class="part" x="90" y="585.0909090909091" width="239.99999999999997" height="34.90909090909091"/><rect class="part" x="590" y="585.0909090909091" width="239.99999999999997" height="34.90909090909091"/><path class="dim" d="M90,308v20 M330,308v20 M90,320h239.99999999999997 M338,60.00000000000003h20 M338,300h20 M350,60.00000000000003v239.99999999999997"/><text x="202" y="342" font-size="16">110</text><text x="355" y="185" font-size="16">110</text><path class="dim" d="M90,628v20 M330,628v20 M90,640h239.99999999999997 M338,585.0909090909091h20 M338,620h20 M350,585.0909090909091v34.90909090909091"/><text x="202" y="662" font-size="16">110</text><text x="355" y="607.5454545454546" font-size="16">16</text><path class="dim" d="M590,628v20 M830,628v20 M590,640h239.99999999999997 M838,585.0909090909091h20 M838,620h20 M850,585.0909090909091v34.90909090909091"/><text x="702" y="662" font-size="16">110</text><text x="855" y="607.5454545454546" font-size="16">16</text><text x="40" y="720" font-size="15">内径91；两半成组；夹耳、分缝、线口避让未包含</text><text x="40" y="752" font-size="14">浅色轮廓表示主体外形；未画出的孔、夹耳、台阶、连接结构不得凭图自行补加工。</text><text x="40" y="783" font-size="14">配套：08_默认尺寸与采购草案.md；先小件试配，再完成正式实体模型与加工图。</text></svg>