ISO-10303-21;
HEADER;
/* Generated by software containing ST-Developer
 * from STEP Tools, Inc. (www.steptools.com) 
 */

FILE_DESCRIPTION(
/* description */ (''),
/* implementation_level */ '2;1');

FILE_NAME(
/* name */ 'CT01.step',
/* time_stamp */ '2026-09-10T23:27:55+08:00',
/* author */ (''),
/* organization */ (''),
/* preprocessor_version */ 'ST-DEVELOPER v20.1',
/* originating_system */ 'Autodesk Translation Framework v15.8.0.0',
/* authorisation */ '');

FILE_SCHEMA (('AUTOMOTIVE_DESIGN { 1 0 10303 214 3 1 1 }'));
ENDSEC;

DATA;
#10=MECHANICAL_DESIGN_GEOMETRIC_PRESENTATION_REPRESENTATION('',(#13),#459);
#11=SHAPE_REPRESENTATION_RELATIONSHIP('SRR','None',#466,#12);
#12=ADVANCED_BREP_SHAPE_REPRESENTATION('',(#14),#458);
#13=STYLED_ITEM('',(#475),#14);
#14=MANIFOLD_SOLID_BREP('\X2\5B9E4F53\X0\1',#279);
#15=FACE_BOUND('',#54,.T.);
#16=FACE_BOUND('',#55,.T.);
#17=FACE_BOUND('',#61,.T.);
#18=FACE_BOUND('',#62,.T.);
#19=PLANE('',#299);
#20=PLANE('',#300);
#21=PLANE('',#301);
#22=PLANE('',#302);
#23=PLANE('',#303);
#24=PLANE('',#304);
#25=PLANE('',#305);
#26=PLANE('',#306);
#27=PLANE('',#307);
#28=PLANE('',#308);
#29=PLANE('',#309);
#30=PLANE('',#310);
#31=FACE_OUTER_BOUND('',#45,.T.);
#32=FACE_OUTER_BOUND('',#46,.T.);
#33=FACE_OUTER_BOUND('',#47,.T.);
#34=FACE_OUTER_BOUND('',#48,.T.);
#35=FACE_OUTER_BOUND('',#49,.T.);
#36=FACE_OUTER_BOUND('',#50,.T.);
#37=FACE_OUTER_BOUND('',#51,.T.);
#38=FACE_OUTER_BOUND('',#52,.T.);
#39=FACE_OUTER_BOUND('',#53,.T.);
#40=FACE_OUTER_BOUND('',#56,.T.);
#41=FACE_OUTER_BOUND('',#57,.T.);
#42=FACE_OUTER_BOUND('',#58,.T.);
#43=FACE_OUTER_BOUND('',#59,.T.);
#44=FACE_OUTER_BOUND('',#60,.T.);
#45=EDGE_LOOP('',(#191,#192,#193,#194));
#46=EDGE_LOOP('',(#195,#196,#197,#198));
#47=EDGE_LOOP('',(#199,#200,#201,#202));
#48=EDGE_LOOP('',(#203,#204,#205,#206));
#49=EDGE_LOOP('',(#207,#208,#209,#210));
#50=EDGE_LOOP('',(#211,#212,#213,#214));
#51=EDGE_LOOP('',(#215,#216,#217,#218));
#52=EDGE_LOOP('',(#219,#220,#221,#222));
#53=EDGE_LOOP('',(#223,#224,#225,#226));
#54=EDGE_LOOP('',(#227));
#55=EDGE_LOOP('',(#228));
#56=EDGE_LOOP('',(#229,#230,#231,#232));
#57=EDGE_LOOP('',(#233,#234,#235,#236,#237,#238,#239,#240,#241,#242));
#58=EDGE_LOOP('',(#243,#244,#245,#246));
#59=EDGE_LOOP('',(#247,#248,#249,#250,#251,#252,#253,#254,#255,#256));
#60=EDGE_LOOP('',(#257,#258,#259,#260));
#61=EDGE_LOOP('',(#261));
#62=EDGE_LOOP('',(#262));
#63=LINE('',#386,#95);
#64=LINE('',#392,#96);
#65=LINE('',#397,#97);
#66=LINE('',#399,#98);
#67=LINE('',#401,#99);
#68=LINE('',#402,#100);
#69=LINE('',#405,#101);
#70=LINE('',#407,#102);
#71=LINE('',#408,#103);
#72=LINE('',#412,#104);
#73=LINE('',#414,#105);
#74=LINE('',#416,#106);
#75=LINE('',#417,#107);
#76=LINE('',#420,#108);
#77=LINE('',#422,#109);
#78=LINE('',#423,#110);
#79=LINE('',#426,#111);
#80=LINE('',#428,#112);
#81=LINE('',#429,#113);
#82=LINE('',#431,#114);
#83=LINE('',#432,#115);
#84=LINE('',#435,#116);
#85=LINE('',#437,#117);
#86=LINE('',#438,#118);
#87=LINE('',#442,#119);
#88=LINE('',#443,#120);
#89=LINE('',#444,#121);
#90=LINE('',#447,#122);
#91=LINE('',#448,#123);
#92=LINE('',#451,#124);
#93=LINE('',#452,#125);
#94=LINE('',#454,#126);
#95=VECTOR('',#317,0.225);
#96=VECTOR('',#324,0.225);
#97=VECTOR('',#329,1.);
#98=VECTOR('',#330,1.);
#99=VECTOR('',#331,1.);
#100=VECTOR('',#332,1.);
#101=VECTOR('',#335,1.);
#102=VECTOR('',#336,1.);
#103=VECTOR('',#337,1.);
#104=VECTOR('',#340,1.);
#105=VECTOR('',#341,1.);
#106=VECTOR('',#342,1.);
#107=VECTOR('',#343,1.);
#108=VECTOR('',#346,1.);
#109=VECTOR('',#347,1.);
#110=VECTOR('',#348,1.);
#111=VECTOR('',#351,1.);
#112=VECTOR('',#352,1.);
#113=VECTOR('',#353,1.);
#114=VECTOR('',#356,1.);
#115=VECTOR('',#357,1.);
#116=VECTOR('',#360,1.);
#117=VECTOR('',#361,1.);
#118=VECTOR('',#362,1.);
#119=VECTOR('',#365,1.);
#120=VECTOR('',#366,1.);
#121=VECTOR('',#367,1.);
#122=VECTOR('',#370,1.);
#123=VECTOR('',#371,1.);
#124=VECTOR('',#374,1.);
#125=VECTOR('',#375,1.);
#126=VECTOR('',#378,1.);
#127=CIRCLE('',#294,0.225);
#128=CIRCLE('',#295,0.225);
#129=CIRCLE('',#297,0.225);
#130=CIRCLE('',#298,0.225);
#131=VERTEX_POINT('',#383);
#132=VERTEX_POINT('',#385);
#133=VERTEX_POINT('',#389);
#134=VERTEX_POINT('',#391);
#135=VERTEX_POINT('',#395);
#136=VERTEX_POINT('',#396);
#137=VERTEX_POINT('',#398);
#138=VERTEX_POINT('',#400);
#139=VERTEX_POINT('',#404);
#140=VERTEX_POINT('',#406);
#141=VERTEX_POINT('',#410);
#142=VERTEX_POINT('',#411);
#143=VERTEX_POINT('',#413);
#144=VERTEX_POINT('',#415);
#145=VERTEX_POINT('',#419);
#146=VERTEX_POINT('',#421);
#147=VERTEX_POINT('',#425);
#148=VERTEX_POINT('',#427);
#149=VERTEX_POINT('',#434);
#150=VERTEX_POINT('',#436);
#151=VERTEX_POINT('',#440);
#152=VERTEX_POINT('',#441);
#153=VERTEX_POINT('',#446);
#154=VERTEX_POINT('',#450);
#155=EDGE_CURVE('',#131,#131,#127,.T.);
#156=EDGE_CURVE('',#131,#132,#63,.T.);
#157=EDGE_CURVE('',#132,#132,#128,.T.);
#158=EDGE_CURVE('',#133,#133,#129,.T.);
#159=EDGE_CURVE('',#133,#134,#64,.T.);
#160=EDGE_CURVE('',#134,#134,#130,.T.);
#161=EDGE_CURVE('',#135,#136,#65,.T.);
#162=EDGE_CURVE('',#136,#137,#66,.T.);
#163=EDGE_CURVE('',#138,#137,#67,.T.);
#164=EDGE_CURVE('',#135,#138,#68,.T.);
#165=EDGE_CURVE('',#139,#135,#69,.T.);
#166=EDGE_CURVE('',#140,#139,#70,.T.);
#167=EDGE_CURVE('',#136,#140,#71,.T.);
#168=EDGE_CURVE('',#141,#142,#72,.T.);
#169=EDGE_CURVE('',#141,#143,#73,.T.);
#170=EDGE_CURVE('',#144,#143,#74,.T.);
#171=EDGE_CURVE('',#142,#144,#75,.T.);
#172=EDGE_CURVE('',#145,#144,#76,.T.);
#173=EDGE_CURVE('',#143,#146,#77,.T.);
#174=EDGE_CURVE('',#145,#146,#78,.T.);
#175=EDGE_CURVE('',#142,#147,#79,.T.);
#176=EDGE_CURVE('',#147,#148,#80,.T.);
#177=EDGE_CURVE('',#148,#141,#81,.T.);
#178=EDGE_CURVE('',#145,#139,#82,.T.);
#179=EDGE_CURVE('',#146,#140,#83,.T.);
#180=EDGE_CURVE('',#149,#138,#84,.T.);
#181=EDGE_CURVE('',#137,#150,#85,.T.);
#182=EDGE_CURVE('',#150,#149,#86,.T.);
#183=EDGE_CURVE('',#151,#152,#87,.T.);
#184=EDGE_CURVE('',#152,#149,#88,.T.);
#185=EDGE_CURVE('',#151,#150,#89,.T.);
#186=EDGE_CURVE('',#153,#151,#90,.T.);
#187=EDGE_CURVE('',#153,#148,#91,.T.);
#188=EDGE_CURVE('',#154,#153,#92,.T.);
#189=EDGE_CURVE('',#154,#147,#93,.T.);
#190=EDGE_CURVE('',#152,#154,#94,.T.);
#191=ORIENTED_EDGE('',*,*,#155,.F.);
#192=ORIENTED_EDGE('',*,*,#156,.T.);
#193=ORIENTED_EDGE('',*,*,#157,.F.);
#194=ORIENTED_EDGE('',*,*,#156,.F.);
#195=ORIENTED_EDGE('',*,*,#158,.F.);
#196=ORIENTED_EDGE('',*,*,#159,.T.);
#197=ORIENTED_EDGE('',*,*,#160,.F.);
#198=ORIENTED_EDGE('',*,*,#159,.F.);
#199=ORIENTED_EDGE('',*,*,#161,.T.);
#200=ORIENTED_EDGE('',*,*,#162,.T.);
#201=ORIENTED_EDGE('',*,*,#163,.F.);
#202=ORIENTED_EDGE('',*,*,#164,.F.);
#203=ORIENTED_EDGE('',*,*,#165,.F.);
#204=ORIENTED_EDGE('',*,*,#166,.F.);
#205=ORIENTED_EDGE('',*,*,#167,.F.);
#206=ORIENTED_EDGE('',*,*,#161,.F.);
#207=ORIENTED_EDGE('',*,*,#168,.F.);
#208=ORIENTED_EDGE('',*,*,#169,.T.);
#209=ORIENTED_EDGE('',*,*,#170,.F.);
#210=ORIENTED_EDGE('',*,*,#171,.F.);
#211=ORIENTED_EDGE('',*,*,#172,.T.);
#212=ORIENTED_EDGE('',*,*,#170,.T.);
#213=ORIENTED_EDGE('',*,*,#173,.T.);
#214=ORIENTED_EDGE('',*,*,#174,.F.);
#215=ORIENTED_EDGE('',*,*,#168,.T.);
#216=ORIENTED_EDGE('',*,*,#175,.T.);
#217=ORIENTED_EDGE('',*,*,#176,.T.);
#218=ORIENTED_EDGE('',*,*,#177,.T.);
#219=ORIENTED_EDGE('',*,*,#166,.T.);
#220=ORIENTED_EDGE('',*,*,#178,.F.);
#221=ORIENTED_EDGE('',*,*,#174,.T.);
#222=ORIENTED_EDGE('',*,*,#179,.T.);
#223=ORIENTED_EDGE('',*,*,#180,.T.);
#224=ORIENTED_EDGE('',*,*,#163,.T.);
#225=ORIENTED_EDGE('',*,*,#181,.T.);
#226=ORIENTED_EDGE('',*,*,#182,.T.);
#227=ORIENTED_EDGE('',*,*,#157,.T.);
#228=ORIENTED_EDGE('',*,*,#160,.T.);
#229=ORIENTED_EDGE('',*,*,#183,.T.);
#230=ORIENTED_EDGE('',*,*,#184,.T.);
#231=ORIENTED_EDGE('',*,*,#182,.F.);
#232=ORIENTED_EDGE('',*,*,#185,.F.);
#233=ORIENTED_EDGE('',*,*,#186,.T.);
#234=ORIENTED_EDGE('',*,*,#185,.T.);
#235=ORIENTED_EDGE('',*,*,#181,.F.);
#236=ORIENTED_EDGE('',*,*,#162,.F.);
#237=ORIENTED_EDGE('',*,*,#167,.T.);
#238=ORIENTED_EDGE('',*,*,#179,.F.);
#239=ORIENTED_EDGE('',*,*,#173,.F.);
#240=ORIENTED_EDGE('',*,*,#169,.F.);
#241=ORIENTED_EDGE('',*,*,#177,.F.);
#242=ORIENTED_EDGE('',*,*,#187,.F.);
#243=ORIENTED_EDGE('',*,*,#188,.T.);
#244=ORIENTED_EDGE('',*,*,#187,.T.);
#245=ORIENTED_EDGE('',*,*,#176,.F.);
#246=ORIENTED_EDGE('',*,*,#189,.F.);
#247=ORIENTED_EDGE('',*,*,#190,.T.);
#248=ORIENTED_EDGE('',*,*,#189,.T.);
#249=ORIENTED_EDGE('',*,*,#175,.F.);
#250=ORIENTED_EDGE('',*,*,#171,.T.);
#251=ORIENTED_EDGE('',*,*,#172,.F.);
#252=ORIENTED_EDGE('',*,*,#178,.T.);
#253=ORIENTED_EDGE('',*,*,#165,.T.);
#254=ORIENTED_EDGE('',*,*,#164,.T.);
#255=ORIENTED_EDGE('',*,*,#180,.F.);
#256=ORIENTED_EDGE('',*,*,#184,.F.);
#257=ORIENTED_EDGE('',*,*,#190,.F.);
#258=ORIENTED_EDGE('',*,*,#183,.F.);
#259=ORIENTED_EDGE('',*,*,#186,.F.);
#260=ORIENTED_EDGE('',*,*,#188,.F.);
#261=ORIENTED_EDGE('',*,*,#155,.T.);
#262=ORIENTED_EDGE('',*,*,#158,.T.);
#263=CYLINDRICAL_SURFACE('',#293,0.225);
#264=CYLINDRICAL_SURFACE('',#296,0.225);
#265=ADVANCED_FACE('',(#31),#263,.F.);
#266=ADVANCED_FACE('',(#32),#264,.F.);
#267=ADVANCED_FACE('',(#33),#19,.T.);
#268=ADVANCED_FACE('',(#34),#20,.F.);
#269=ADVANCED_FACE('',(#35),#21,.T.);
#270=ADVANCED_FACE('',(#36),#22,.T.);
#271=ADVANCED_FACE('',(#37),#23,.T.);
#272=ADVANCED_FACE('',(#38),#24,.T.);
#273=ADVANCED_FACE('',(#39,#15,#16),#25,.T.);
#274=ADVANCED_FACE('',(#40),#26,.T.);
#275=ADVANCED_FACE('',(#41),#27,.T.);
#276=ADVANCED_FACE('',(#42),#28,.T.);
#277=ADVANCED_FACE('',(#43),#29,.T.);
#278=ADVANCED_FACE('',(#44,#17,#18),#30,.F.);
#279=CLOSED_SHELL('',(#265,#266,#267,#268,#269,#270,#271,#272,#273,#274,
#275,#276,#277,#278));
#280=DERIVED_UNIT_ELEMENT(#282,1.);
#281=DERIVED_UNIT_ELEMENT(#461,-3.);
#282=(
MASS_UNIT()
NAMED_UNIT(*)
SI_UNIT(.KILO.,.GRAM.)
);
#283=DERIVED_UNIT((#280,#281));
#284=MEASURE_REPRESENTATION_ITEM('density measure',
POSITIVE_RATIO_MEASURE(7850.),#283);
#285=PROPERTY_DEFINITION_REPRESENTATION(#290,#287);
#286=PROPERTY_DEFINITION_REPRESENTATION(#291,#288);
#287=REPRESENTATION('material name',(#289),#458);
#288=REPRESENTATION('density',(#284),#458);
#289=DESCRIPTIVE_REPRESENTATION_ITEM('\X2\94A2\X0\','\X2\94A2\X0\');
#290=PROPERTY_DEFINITION('material property','material name',#468);
#291=PROPERTY_DEFINITION('material property','density of part',#468);
#292=AXIS2_PLACEMENT_3D('',#381,#311,#312);
#293=AXIS2_PLACEMENT_3D('',#382,#313,#314);
#294=AXIS2_PLACEMENT_3D('',#384,#315,#316);
#295=AXIS2_PLACEMENT_3D('',#387,#318,#319);
#296=AXIS2_PLACEMENT_3D('',#388,#320,#321);
#297=AXIS2_PLACEMENT_3D('',#390,#322,#323);
#298=AXIS2_PLACEMENT_3D('',#393,#325,#326);
#299=AXIS2_PLACEMENT_3D('',#394,#327,#328);
#300=AXIS2_PLACEMENT_3D('',#403,#333,#334);
#301=AXIS2_PLACEMENT_3D('',#409,#338,#339);
#302=AXIS2_PLACEMENT_3D('',#418,#344,#345);
#303=AXIS2_PLACEMENT_3D('',#424,#349,#350);
#304=AXIS2_PLACEMENT_3D('',#430,#354,#355);
#305=AXIS2_PLACEMENT_3D('',#433,#358,#359);
#306=AXIS2_PLACEMENT_3D('',#439,#363,#364);
#307=AXIS2_PLACEMENT_3D('',#445,#368,#369);
#308=AXIS2_PLACEMENT_3D('',#449,#372,#373);
#309=AXIS2_PLACEMENT_3D('',#453,#376,#377);
#310=AXIS2_PLACEMENT_3D('',#455,#379,#380);
#311=DIRECTION('axis',(0.,0.,1.));
#312=DIRECTION('refdir',(1.,0.,0.));
#313=DIRECTION('center_axis',(0.,0.,1.));
#314=DIRECTION('ref_axis',(1.,0.,0.));
#315=DIRECTION('center_axis',(0.,0.,1.));
#316=DIRECTION('ref_axis',(1.,0.,0.));
#317=DIRECTION('',(0.,0.,1.));
#318=DIRECTION('center_axis',(0.,0.,-1.));
#319=DIRECTION('ref_axis',(1.,0.,0.));
#320=DIRECTION('center_axis',(0.,0.,1.));
#321=DIRECTION('ref_axis',(1.,0.,0.));
#322=DIRECTION('center_axis',(0.,0.,1.));
#323=DIRECTION('ref_axis',(1.,0.,0.));
#324=DIRECTION('',(0.,0.,1.));
#325=DIRECTION('center_axis',(0.,0.,-1.));
#326=DIRECTION('ref_axis',(1.,0.,0.));
#327=DIRECTION('center_axis',(0.,-1.,0.));
#328=DIRECTION('ref_axis',(1.,0.,0.));
#329=DIRECTION('',(1.,0.,0.));
#330=DIRECTION('',(0.,0.,1.));
#331=DIRECTION('',(1.,0.,0.));
#332=DIRECTION('',(0.,0.,1.));
#333=DIRECTION('center_axis',(0.,0.,1.));
#334=DIRECTION('ref_axis',(1.,0.,0.));
#335=DIRECTION('',(0.,-1.,0.));
#336=DIRECTION('',(-1.,0.,0.));
#337=DIRECTION('',(0.,1.,0.));
#338=DIRECTION('center_axis',(0.,-1.,0.));
#339=DIRECTION('ref_axis',(1.,0.,0.));
#340=DIRECTION('',(-1.,0.,0.));
#341=DIRECTION('',(0.,0.,1.));
#342=DIRECTION('',(1.,0.,0.));
#343=DIRECTION('',(0.,0.,1.));
#344=DIRECTION('center_axis',(0.,0.,1.));
#345=DIRECTION('ref_axis',(1.,0.,0.));
#346=DIRECTION('',(0.,-1.,0.));
#347=DIRECTION('',(0.,1.,0.));
#348=DIRECTION('',(1.,0.,0.));
#349=DIRECTION('center_axis',(0.,0.,1.));
#350=DIRECTION('ref_axis',(1.,0.,0.));
#351=DIRECTION('',(0.,-1.,0.));
#352=DIRECTION('',(1.,0.,0.));
#353=DIRECTION('',(0.,1.,0.));
#354=DIRECTION('center_axis',(0.,-1.,0.));
#355=DIRECTION('ref_axis',(1.,0.,0.));
#356=DIRECTION('',(0.,0.,1.));
#357=DIRECTION('',(0.,0.,1.));
#358=DIRECTION('center_axis',(0.,0.,1.));
#359=DIRECTION('ref_axis',(1.,0.,0.));
#360=DIRECTION('',(0.,-1.,0.));
#361=DIRECTION('',(0.,1.,0.));
#362=DIRECTION('',(-1.,0.,0.));
#363=DIRECTION('center_axis',(0.,1.,0.));
#364=DIRECTION('ref_axis',(-1.,0.,0.));
#365=DIRECTION('',(-1.,0.,0.));
#366=DIRECTION('',(0.,0.,1.));
#367=DIRECTION('',(0.,0.,1.));
#368=DIRECTION('center_axis',(1.,0.,0.));
#369=DIRECTION('ref_axis',(0.,1.,0.));
#370=DIRECTION('',(0.,1.,0.));
#371=DIRECTION('',(0.,0.,1.));
#372=DIRECTION('center_axis',(0.,-1.,0.));
#373=DIRECTION('ref_axis',(1.,0.,0.));
#374=DIRECTION('',(1.,0.,0.));
#375=DIRECTION('',(0.,0.,1.));
#376=DIRECTION('center_axis',(-1.,0.,0.));
#377=DIRECTION('ref_axis',(0.,-1.,0.));
#378=DIRECTION('',(0.,-1.,0.));
#379=DIRECTION('center_axis',(0.,0.,1.));
#380=DIRECTION('ref_axis',(1.,0.,0.));
#381=CARTESIAN_POINT('',(0.,0.,0.));
#382=CARTESIAN_POINT('Origin',(0.,6.6,-0.1));
#383=CARTESIAN_POINT('',(-0.225,6.6,0.));
#384=CARTESIAN_POINT('Origin',(0.,6.6,0.));
#385=CARTESIAN_POINT('',(-0.225,6.6,4.1));
#386=CARTESIAN_POINT('',(-0.225,6.6,-0.1));
#387=CARTESIAN_POINT('Origin',(0.,6.6,4.1));
#388=CARTESIAN_POINT('Origin',(0.,5.4,-0.1));
#389=CARTESIAN_POINT('',(-0.225,5.4,0.));
#390=CARTESIAN_POINT('Origin',(0.,5.4,0.));
#391=CARTESIAN_POINT('',(-0.225,5.4,4.1));
#392=CARTESIAN_POINT('',(-0.225,5.4,-0.1));
#393=CARTESIAN_POINT('Origin',(0.,5.4,4.1));
#394=CARTESIAN_POINT('Origin',(-3.7,4.55,3.95));
#395=CARTESIAN_POINT('',(-3.7,4.55,3.95));
#396=CARTESIAN_POINT('',(0.6,4.55,3.95));
#397=CARTESIAN_POINT('',(-3.7,4.55,3.95));
#398=CARTESIAN_POINT('',(0.6,4.55,4.1));
#399=CARTESIAN_POINT('',(0.6,4.55,3.95));
#400=CARTESIAN_POINT('',(-3.7,4.55,4.1));
#401=CARTESIAN_POINT('',(-3.7,4.55,4.1));
#402=CARTESIAN_POINT('',(-3.7,4.55,3.95));
#403=CARTESIAN_POINT('Origin',(-1.55,4.65,3.95));
#404=CARTESIAN_POINT('',(-3.7,4.75,3.95));
#405=CARTESIAN_POINT('',(-3.7,4.75,3.95));
#406=CARTESIAN_POINT('',(0.6,4.75,3.95));
#407=CARTESIAN_POINT('',(-2.625,4.75,3.95));
#408=CARTESIAN_POINT('',(0.6,4.55,3.95));
#409=CARTESIAN_POINT('Origin',(-3.7,4.55,1.));
#410=CARTESIAN_POINT('',(0.6,4.55,1.));
#411=CARTESIAN_POINT('',(-3.7,4.55,1.));
#412=CARTESIAN_POINT('',(-2.625,4.55,1.));
#413=CARTESIAN_POINT('',(0.6,4.55,1.15));
#414=CARTESIAN_POINT('',(0.6,4.55,1.));
#415=CARTESIAN_POINT('',(-3.7,4.55,1.15));
#416=CARTESIAN_POINT('',(-3.7,4.55,1.15));
#417=CARTESIAN_POINT('',(-3.7,4.55,1.));
#418=CARTESIAN_POINT('Origin',(-1.55,4.65,1.15));
#419=CARTESIAN_POINT('',(-3.7,4.75,1.15));
#420=CARTESIAN_POINT('',(-3.7,4.75,1.15));
#421=CARTESIAN_POINT('',(0.6,4.75,1.15));
#422=CARTESIAN_POINT('',(0.6,4.55,1.15));
#423=CARTESIAN_POINT('',(-2.625,4.75,1.15));
#424=CARTESIAN_POINT('Origin',(-1.55,4.8,1.));
#425=CARTESIAN_POINT('',(-3.7,2.6,1.));
#426=CARTESIAN_POINT('',(-3.7,7.,1.));
#427=CARTESIAN_POINT('',(0.6,2.6,1.));
#428=CARTESIAN_POINT('',(-3.7,2.6,1.));
#429=CARTESIAN_POINT('',(0.6,2.6,1.));
#430=CARTESIAN_POINT('Origin',(-3.7,4.75,1.));
#431=CARTESIAN_POINT('',(-3.7,4.75,1.));
#432=CARTESIAN_POINT('',(0.6,4.75,1.));
#433=CARTESIAN_POINT('Origin',(-1.55,5.875,4.1));
#434=CARTESIAN_POINT('',(-3.7,7.,4.1));
#435=CARTESIAN_POINT('',(-3.7,7.,4.1));
#436=CARTESIAN_POINT('',(0.6,7.,4.1));
#437=CARTESIAN_POINT('',(0.6,4.55,4.1));
#438=CARTESIAN_POINT('',(0.6,7.,4.1));
#439=CARTESIAN_POINT('Origin',(0.6,7.,0.));
#440=CARTESIAN_POINT('',(0.6,7.,0.));
#441=CARTESIAN_POINT('',(-3.7,7.,0.));
#442=CARTESIAN_POINT('',(0.6,7.,0.));
#443=CARTESIAN_POINT('',(-3.7,7.,0.));
#444=CARTESIAN_POINT('',(0.6,7.,0.));
#445=CARTESIAN_POINT('Origin',(0.6,2.6,0.));
#446=CARTESIAN_POINT('',(0.6,2.6,0.));
#447=CARTESIAN_POINT('',(0.6,2.6,0.));
#448=CARTESIAN_POINT('',(0.6,2.6,0.));
#449=CARTESIAN_POINT('Origin',(-3.7,2.6,0.));
#450=CARTESIAN_POINT('',(-3.7,2.6,0.));
#451=CARTESIAN_POINT('',(-3.7,2.6,0.));
#452=CARTESIAN_POINT('',(-3.7,2.6,0.));
#453=CARTESIAN_POINT('Origin',(-3.7,7.,0.));
#454=CARTESIAN_POINT('',(-3.7,7.,0.));
#455=CARTESIAN_POINT('Origin',(-1.55,4.8,0.));
#456=UNCERTAINTY_MEASURE_WITH_UNIT(LENGTH_MEASURE(0.001),#460,
'DISTANCE_ACCURACY_VALUE',
'Maximum model space distance between geometric entities at asserted c
onnectivities');
#457=UNCERTAINTY_MEASURE_WITH_UNIT(LENGTH_MEASURE(0.001),#460,
'DISTANCE_ACCURACY_VALUE',
'Maximum model space distance between geometric entities at asserted c
onnectivities');
#458=(
GEOMETRIC_REPRESENTATION_CONTEXT(3)
GLOBAL_UNCERTAINTY_ASSIGNED_CONTEXT((#456))
GLOBAL_UNIT_ASSIGNED_CONTEXT((#460,#462,#463))
REPRESENTATION_CONTEXT('','3D')
);
#459=(
GEOMETRIC_REPRESENTATION_CONTEXT(3)
GLOBAL_UNCERTAINTY_ASSIGNED_CONTEXT((#457))
GLOBAL_UNIT_ASSIGNED_CONTEXT((#460,#462,#463))
REPRESENTATION_CONTEXT('','3D')
);
#460=(
LENGTH_UNIT()
NAMED_UNIT(*)
SI_UNIT(.CENTI.,.METRE.)
);
#461=(
LENGTH_UNIT()
NAMED_UNIT(*)
SI_UNIT($,.METRE.)
);
#462=(
NAMED_UNIT(*)
PLANE_ANGLE_UNIT()
SI_UNIT($,.RADIAN.)
);
#463=(
NAMED_UNIT(*)
SI_UNIT($,.STERADIAN.)
SOLID_ANGLE_UNIT()
);
#464=SHAPE_DEFINITION_REPRESENTATION(#465,#466);
#465=PRODUCT_DEFINITION_SHAPE('',$,#468);
#466=SHAPE_REPRESENTATION('',(#292),#458);
#467=PRODUCT_DEFINITION_CONTEXT('part definition',#472,'design');
#468=PRODUCT_DEFINITION('2026-09-10-23-27-55-410',
'CT01_\X2\53F3540E627F62585C4090E85C0F6837\X0\',#469,#467);
#469=PRODUCT_DEFINITION_FORMATION('',$,#474);
#470=PRODUCT_RELATED_PRODUCT_CATEGORY('CT01_\X2\53F3540E627F62585C4090E85C0F6837\X0\',
'CT01_\X2\53F3540E627F62585C4090E85C0F6837\X0\',(#474));
#471=APPLICATION_PROTOCOL_DEFINITION('international standard',
'automotive_design',2009,#472);
#472=APPLICATION_CONTEXT(
'Core Data for Automotive Mechanical Design Process');
#473=PRODUCT_CONTEXT('part definition',#472,'mechanical');
#474=PRODUCT('2026-09-10-23-27-55-410','CT01_\X2\53F3540E627F62585C4090E85C0F6837\X0\',
$,(#473));
#475=PRESENTATION_STYLE_ASSIGNMENT((#476));
#476=SURFACE_STYLE_USAGE(.BOTH.,#477);
#477=SURFACE_SIDE_STYLE('',(#478));
#478=SURFACE_STYLE_FILL_AREA(#479);
#479=FILL_AREA_STYLE('\X2\94A2\X0\ - \X2\7F0E5149\X0\',(#480));
#480=FILL_AREA_STYLE_COLOUR('\X2\94A2\X0\ - \X2\7F0E5149\X0\',#481);
#481=COLOUR_RGB('\X2\94A2\X0\ - \X2\7F0E5149\X0\',0.627450980392157,0.627450980392157,
0.627450980392157);
ENDSEC;
END-ISO-10303-21;
