ISO-10303-21;
HEADER;
/* Generated by software containing ST-Developer
 * from STEP Tools, Inc. (www.steptools.com) 
 */

FILE_DESCRIPTION(
/* description */ (''),
/* implementation_level */ '2;1');

FILE_NAME(
/* name */ 'CT03.step',
/* time_stamp */ '2026-09-10T23:27:56+08:00',
/* author */ (''),
/* organization */ (''),
/* preprocessor_version */ 'ST-DEVELOPER v20.1',
/* originating_system */ 'Autodesk Translation Framework v15.8.0.0',
/* authorisation */ '');

FILE_SCHEMA (('AUTOMOTIVE_DESIGN { 1 0 10303 214 3 1 1 }'));
ENDSEC;

DATA;
#10=MECHANICAL_DESIGN_GEOMETRIC_PRESENTATION_REPRESENTATION('',(#13),#323);
#11=SHAPE_REPRESENTATION_RELATIONSHIP('SRR','None',#330,#12);
#12=ADVANCED_BREP_SHAPE_REPRESENTATION('',(#14),#322);
#13=STYLED_ITEM('',(#339),#14);
#14=MANIFOLD_SOLID_BREP('\X2\5B9E4F53\X0\1',#191);
#15=FACE_BOUND('',#37,.T.);
#16=FACE_BOUND('',#40,.T.);
#17=PLANE('',#208);
#18=PLANE('',#212);
#19=PLANE('',#213);
#20=PLANE('',#214);
#21=PLANE('',#215);
#22=PLANE('',#216);
#23=PLANE('',#217);
#24=PLANE('',#218);
#25=FACE_OUTER_BOUND('',#35,.T.);
#26=FACE_OUTER_BOUND('',#36,.T.);
#27=FACE_OUTER_BOUND('',#38,.T.);
#28=FACE_OUTER_BOUND('',#39,.T.);
#29=FACE_OUTER_BOUND('',#41,.T.);
#30=FACE_OUTER_BOUND('',#42,.T.);
#31=FACE_OUTER_BOUND('',#43,.T.);
#32=FACE_OUTER_BOUND('',#44,.T.);
#33=FACE_OUTER_BOUND('',#45,.T.);
#34=FACE_OUTER_BOUND('',#46,.T.);
#35=EDGE_LOOP('',(#131,#132,#133,#134));
#36=EDGE_LOOP('',(#135,#136,#137,#138));
#37=EDGE_LOOP('',(#139,#140,#141,#142));
#38=EDGE_LOOP('',(#143,#144,#145,#146));
#39=EDGE_LOOP('',(#147,#148,#149,#150));
#40=EDGE_LOOP('',(#151,#152,#153,#154));
#41=EDGE_LOOP('',(#155,#156,#157,#158));
#42=EDGE_LOOP('',(#159,#160,#161,#162));
#43=EDGE_LOOP('',(#163,#164,#165,#166));
#44=EDGE_LOOP('',(#167,#168,#169,#170));
#45=EDGE_LOOP('',(#171,#172,#173,#174));
#46=EDGE_LOOP('',(#175,#176,#177,#178));
#47=LINE('',#275,#67);
#48=LINE('',#278,#68);
#49=LINE('',#282,#69);
#50=LINE('',#284,#70);
#51=LINE('',#286,#71);
#52=LINE('',#287,#72);
#53=LINE('',#289,#73);
#54=LINE('',#292,#74);
#55=LINE('',#295,#75);
#56=LINE('',#298,#76);
#57=LINE('',#302,#77);
#58=LINE('',#304,#78);
#59=LINE('',#306,#79);
#60=LINE('',#307,#80);
#61=LINE('',#308,#81);
#62=LINE('',#309,#82);
#63=LINE('',#313,#83);
#64=LINE('',#314,#84);
#65=LINE('',#316,#85);
#66=LINE('',#318,#86);
#67=VECTOR('',#225,1.);
#68=VECTOR('',#228,1.);
#69=VECTOR('',#231,1.);
#70=VECTOR('',#232,1.);
#71=VECTOR('',#233,1.);
#72=VECTOR('',#234,1.);
#73=VECTOR('',#235,1.);
#74=VECTOR('',#238,1.);
#75=VECTOR('',#241,1.);
#76=VECTOR('',#244,1.);
#77=VECTOR('',#247,1.);
#78=VECTOR('',#248,1.);
#79=VECTOR('',#249,1.);
#80=VECTOR('',#250,1.);
#81=VECTOR('',#251,1.);
#82=VECTOR('',#252,1.);
#83=VECTOR('',#259,1.);
#84=VECTOR('',#260,1.);
#85=VECTOR('',#263,1.);
#86=VECTOR('',#266,1.);
#87=CIRCLE('',#206,0.225);
#88=CIRCLE('',#207,0.225);
#89=CIRCLE('',#209,0.225);
#90=CIRCLE('',#211,0.225);
#91=VERTEX_POINT('',#271);
#92=VERTEX_POINT('',#272);
#93=VERTEX_POINT('',#274);
#94=VERTEX_POINT('',#276);
#95=VERTEX_POINT('',#280);
#96=VERTEX_POINT('',#281);
#97=VERTEX_POINT('',#283);
#98=VERTEX_POINT('',#285);
#99=VERTEX_POINT('',#288);
#100=VERTEX_POINT('',#290);
#101=VERTEX_POINT('',#294);
#102=VERTEX_POINT('',#296);
#103=VERTEX_POINT('',#300);
#104=VERTEX_POINT('',#301);
#105=VERTEX_POINT('',#303);
#106=VERTEX_POINT('',#305);
#107=EDGE_CURVE('',#91,#92,#87,.T.);
#108=EDGE_CURVE('',#93,#91,#47,.T.);
#109=EDGE_CURVE('',#94,#93,#88,.T.);
#110=EDGE_CURVE('',#94,#92,#48,.T.);
#111=EDGE_CURVE('',#95,#96,#49,.T.);
#112=EDGE_CURVE('',#97,#95,#50,.T.);
#113=EDGE_CURVE('',#98,#97,#51,.T.);
#114=EDGE_CURVE('',#96,#98,#52,.T.);
#115=EDGE_CURVE('',#93,#99,#53,.T.);
#116=EDGE_CURVE('',#99,#100,#89,.T.);
#117=EDGE_CURVE('',#100,#94,#54,.T.);
#118=EDGE_CURVE('',#99,#101,#55,.T.);
#119=EDGE_CURVE('',#102,#101,#90,.T.);
#120=EDGE_CURVE('',#100,#102,#56,.T.);
#121=EDGE_CURVE('',#103,#104,#57,.T.);
#122=EDGE_CURVE('',#104,#105,#58,.T.);
#123=EDGE_CURVE('',#105,#106,#59,.T.);
#124=EDGE_CURVE('',#106,#103,#60,.T.);
#125=EDGE_CURVE('',#92,#102,#61,.T.);
#126=EDGE_CURVE('',#101,#91,#62,.T.);
#127=EDGE_CURVE('',#95,#103,#63,.T.);
#128=EDGE_CURVE('',#97,#106,#64,.T.);
#129=EDGE_CURVE('',#98,#105,#65,.T.);
#130=EDGE_CURVE('',#96,#104,#66,.T.);
#131=ORIENTED_EDGE('',*,*,#107,.F.);
#132=ORIENTED_EDGE('',*,*,#108,.F.);
#133=ORIENTED_EDGE('',*,*,#109,.F.);
#134=ORIENTED_EDGE('',*,*,#110,.T.);
#135=ORIENTED_EDGE('',*,*,#111,.F.);
#136=ORIENTED_EDGE('',*,*,#112,.F.);
#137=ORIENTED_EDGE('',*,*,#113,.F.);
#138=ORIENTED_EDGE('',*,*,#114,.F.);
#139=ORIENTED_EDGE('',*,*,#109,.T.);
#140=ORIENTED_EDGE('',*,*,#115,.T.);
#141=ORIENTED_EDGE('',*,*,#116,.T.);
#142=ORIENTED_EDGE('',*,*,#117,.T.);
#143=ORIENTED_EDGE('',*,*,#118,.T.);
#144=ORIENTED_EDGE('',*,*,#119,.F.);
#145=ORIENTED_EDGE('',*,*,#120,.F.);
#146=ORIENTED_EDGE('',*,*,#116,.F.);
#147=ORIENTED_EDGE('',*,*,#121,.T.);
#148=ORIENTED_EDGE('',*,*,#122,.T.);
#149=ORIENTED_EDGE('',*,*,#123,.T.);
#150=ORIENTED_EDGE('',*,*,#124,.T.);
#151=ORIENTED_EDGE('',*,*,#107,.T.);
#152=ORIENTED_EDGE('',*,*,#125,.T.);
#153=ORIENTED_EDGE('',*,*,#119,.T.);
#154=ORIENTED_EDGE('',*,*,#126,.T.);
#155=ORIENTED_EDGE('',*,*,#126,.F.);
#156=ORIENTED_EDGE('',*,*,#118,.F.);
#157=ORIENTED_EDGE('',*,*,#115,.F.);
#158=ORIENTED_EDGE('',*,*,#108,.T.);
#159=ORIENTED_EDGE('',*,*,#125,.F.);
#160=ORIENTED_EDGE('',*,*,#110,.F.);
#161=ORIENTED_EDGE('',*,*,#117,.F.);
#162=ORIENTED_EDGE('',*,*,#120,.T.);
#163=ORIENTED_EDGE('',*,*,#112,.T.);
#164=ORIENTED_EDGE('',*,*,#127,.T.);
#165=ORIENTED_EDGE('',*,*,#124,.F.);
#166=ORIENTED_EDGE('',*,*,#128,.F.);
#167=ORIENTED_EDGE('',*,*,#113,.T.);
#168=ORIENTED_EDGE('',*,*,#128,.T.);
#169=ORIENTED_EDGE('',*,*,#123,.F.);
#170=ORIENTED_EDGE('',*,*,#129,.F.);
#171=ORIENTED_EDGE('',*,*,#114,.T.);
#172=ORIENTED_EDGE('',*,*,#129,.T.);
#173=ORIENTED_EDGE('',*,*,#122,.F.);
#174=ORIENTED_EDGE('',*,*,#130,.F.);
#175=ORIENTED_EDGE('',*,*,#111,.T.);
#176=ORIENTED_EDGE('',*,*,#130,.T.);
#177=ORIENTED_EDGE('',*,*,#121,.F.);
#178=ORIENTED_EDGE('',*,*,#127,.F.);
#179=CYLINDRICAL_SURFACE('',#205,0.225);
#180=CYLINDRICAL_SURFACE('',#210,0.225);
#181=ADVANCED_FACE('',(#25),#179,.F.);
#182=ADVANCED_FACE('',(#26,#15),#17,.F.);
#183=ADVANCED_FACE('',(#27),#180,.F.);
#184=ADVANCED_FACE('',(#28,#16),#18,.T.);
#185=ADVANCED_FACE('',(#29),#19,.F.);
#186=ADVANCED_FACE('',(#30),#20,.F.);
#187=ADVANCED_FACE('',(#31),#21,.T.);
#188=ADVANCED_FACE('',(#32),#22,.T.);
#189=ADVANCED_FACE('',(#33),#23,.T.);
#190=ADVANCED_FACE('',(#34),#24,.T.);
#191=CLOSED_SHELL('',(#181,#182,#183,#184,#185,#186,#187,#188,#189,#190));
#192=DERIVED_UNIT_ELEMENT(#194,1.);
#193=DERIVED_UNIT_ELEMENT(#325,-3.);
#194=(
MASS_UNIT()
NAMED_UNIT(*)
SI_UNIT(.KILO.,.GRAM.)
);
#195=DERIVED_UNIT((#192,#193));
#196=MEASURE_REPRESENTATION_ITEM('density measure',
POSITIVE_RATIO_MEASURE(7850.),#195);
#197=PROPERTY_DEFINITION_REPRESENTATION(#202,#199);
#198=PROPERTY_DEFINITION_REPRESENTATION(#203,#200);
#199=REPRESENTATION('material name',(#201),#322);
#200=REPRESENTATION('density',(#196),#322);
#201=DESCRIPTIVE_REPRESENTATION_ITEM('\X2\94A2\X0\','\X2\94A2\X0\');
#202=PROPERTY_DEFINITION('material property','material name',#332);
#203=PROPERTY_DEFINITION('material property','density of part',#332);
#204=AXIS2_PLACEMENT_3D('',#269,#219,#220);
#205=AXIS2_PLACEMENT_3D('',#270,#221,#222);
#206=AXIS2_PLACEMENT_3D('',#273,#223,#224);
#207=AXIS2_PLACEMENT_3D('',#277,#226,#227);
#208=AXIS2_PLACEMENT_3D('',#279,#229,#230);
#209=AXIS2_PLACEMENT_3D('',#291,#236,#237);
#210=AXIS2_PLACEMENT_3D('',#293,#239,#240);
#211=AXIS2_PLACEMENT_3D('',#297,#242,#243);
#212=AXIS2_PLACEMENT_3D('',#299,#245,#246);
#213=AXIS2_PLACEMENT_3D('',#310,#253,#254);
#214=AXIS2_PLACEMENT_3D('',#311,#255,#256);
#215=AXIS2_PLACEMENT_3D('',#312,#257,#258);
#216=AXIS2_PLACEMENT_3D('',#315,#261,#262);
#217=AXIS2_PLACEMENT_3D('',#317,#264,#265);
#218=AXIS2_PLACEMENT_3D('',#319,#267,#268);
#219=DIRECTION('axis',(0.,0.,1.));
#220=DIRECTION('refdir',(1.,0.,0.));
#221=DIRECTION('center_axis',(0.,0.,1.));
#222=DIRECTION('ref_axis',(1.,0.,0.));
#223=DIRECTION('center_axis',(0.,0.,-1.));
#224=DIRECTION('ref_axis',(1.,0.,0.));
#225=DIRECTION('',(0.,0.,1.));
#226=DIRECTION('center_axis',(0.,0.,1.));
#227=DIRECTION('ref_axis',(1.,0.,0.));
#228=DIRECTION('',(0.,0.,1.));
#229=DIRECTION('center_axis',(0.,0.,1.));
#230=DIRECTION('ref_axis',(1.,0.,0.));
#231=DIRECTION('',(0.,-1.,0.));
#232=DIRECTION('',(-1.,0.,0.));
#233=DIRECTION('',(0.,1.,0.));
#234=DIRECTION('',(1.,0.,0.));
#235=DIRECTION('',(0.,-1.,0.));
#236=DIRECTION('center_axis',(0.,0.,1.));
#237=DIRECTION('ref_axis',(1.,0.,0.));
#238=DIRECTION('',(0.,1.,0.));
#239=DIRECTION('center_axis',(0.,0.,1.));
#240=DIRECTION('ref_axis',(1.,0.,0.));
#241=DIRECTION('',(0.,0.,1.));
#242=DIRECTION('center_axis',(0.,0.,-1.));
#243=DIRECTION('ref_axis',(1.,0.,0.));
#244=DIRECTION('',(0.,0.,1.));
#245=DIRECTION('center_axis',(0.,0.,1.));
#246=DIRECTION('ref_axis',(1.,0.,0.));
#247=DIRECTION('',(0.,-1.,0.));
#248=DIRECTION('',(1.,0.,0.));
#249=DIRECTION('',(0.,1.,0.));
#250=DIRECTION('',(-1.,0.,0.));
#251=DIRECTION('',(0.,-1.,0.));
#252=DIRECTION('',(0.,1.,0.));
#253=DIRECTION('center_axis',(-1.,0.,0.));
#254=DIRECTION('ref_axis',(0.,-1.,0.));
#255=DIRECTION('center_axis',(1.,0.,0.));
#256=DIRECTION('ref_axis',(0.,1.,0.));
#257=DIRECTION('center_axis',(0.,1.,0.));
#258=DIRECTION('ref_axis',(-1.,0.,0.));
#259=DIRECTION('',(0.,0.,1.));
#260=DIRECTION('',(0.,0.,1.));
#261=DIRECTION('center_axis',(1.,0.,0.));
#262=DIRECTION('ref_axis',(0.,1.,0.));
#263=DIRECTION('',(0.,0.,1.));
#264=DIRECTION('center_axis',(0.,-1.,0.));
#265=DIRECTION('ref_axis',(1.,0.,0.));
#266=DIRECTION('',(0.,0.,1.));
#267=DIRECTION('center_axis',(-1.,0.,0.));
#268=DIRECTION('ref_axis',(0.,-1.,0.));
#269=CARTESIAN_POINT('',(0.,0.,0.));
#270=CARTESIAN_POINT('Origin',(0.,7.675,-1.1));
#271=CARTESIAN_POINT('',(-0.225,7.675,0.));
#272=CARTESIAN_POINT('',(0.225,7.675,0.));
#273=CARTESIAN_POINT('Origin',(0.,7.675,0.));
#274=CARTESIAN_POINT('',(-0.225,7.675,-1.));
#275=CARTESIAN_POINT('',(-0.225,7.675,-1.1));
#276=CARTESIAN_POINT('',(0.225,7.675,-1.));
#277=CARTESIAN_POINT('Origin',(0.,7.675,-1.));
#278=CARTESIAN_POINT('',(0.225,7.675,-1.1));
#279=CARTESIAN_POINT('Origin',(0.,5.2,-1.));
#280=CARTESIAN_POINT('',(-1.2,9.4,-1.));
#281=CARTESIAN_POINT('',(-1.2,1.,-1.));
#282=CARTESIAN_POINT('',(-1.2,9.4,-1.));
#283=CARTESIAN_POINT('',(1.2,9.4,-1.));
#284=CARTESIAN_POINT('',(1.2,9.4,-1.));
#285=CARTESIAN_POINT('',(1.2,1.,-1.));
#286=CARTESIAN_POINT('',(1.2,1.,-1.));
#287=CARTESIAN_POINT('',(-1.2,1.,-1.));
#288=CARTESIAN_POINT('',(-0.225,2.125,-1.));
#289=CARTESIAN_POINT('',(-0.225,6.4375,-1.));
#290=CARTESIAN_POINT('',(0.225,2.125,-1.));
#291=CARTESIAN_POINT('Origin',(0.,2.125,-1.));
#292=CARTESIAN_POINT('',(0.225,3.6625,-1.));
#293=CARTESIAN_POINT('Origin',(0.,2.125,-1.1));
#294=CARTESIAN_POINT('',(-0.225,2.125,0.));
#295=CARTESIAN_POINT('',(-0.225,2.125,-1.1));
#296=CARTESIAN_POINT('',(0.225,2.125,0.));
#297=CARTESIAN_POINT('Origin',(0.,2.125,0.));
#298=CARTESIAN_POINT('',(0.225,2.125,-1.1));
#299=CARTESIAN_POINT('Origin',(0.,5.2,0.));
#300=CARTESIAN_POINT('',(-1.2,9.4,0.));
#301=CARTESIAN_POINT('',(-1.2,1.,0.));
#302=CARTESIAN_POINT('',(-1.2,9.4,0.));
#303=CARTESIAN_POINT('',(1.2,1.,0.));
#304=CARTESIAN_POINT('',(-1.2,1.,0.));
#305=CARTESIAN_POINT('',(1.2,9.4,0.));
#306=CARTESIAN_POINT('',(1.2,1.,0.));
#307=CARTESIAN_POINT('',(1.2,9.4,0.));
#308=CARTESIAN_POINT('',(0.225,3.6625,0.));
#309=CARTESIAN_POINT('',(-0.225,6.4375,0.));
#310=CARTESIAN_POINT('Origin',(-0.225,7.675,-1.1));
#311=CARTESIAN_POINT('Origin',(0.225,2.125,-1.1));
#312=CARTESIAN_POINT('Origin',(1.2,9.4,-1.));
#313=CARTESIAN_POINT('',(-1.2,9.4,-1.));
#314=CARTESIAN_POINT('',(1.2,9.4,-1.));
#315=CARTESIAN_POINT('Origin',(1.2,1.,-1.));
#316=CARTESIAN_POINT('',(1.2,1.,-1.));
#317=CARTESIAN_POINT('Origin',(-1.2,1.,-1.));
#318=CARTESIAN_POINT('',(-1.2,1.,-1.));
#319=CARTESIAN_POINT('Origin',(-1.2,9.4,-1.));
#320=UNCERTAINTY_MEASURE_WITH_UNIT(LENGTH_MEASURE(0.001),#324,
'DISTANCE_ACCURACY_VALUE',
'Maximum model space distance between geometric entities at asserted c
onnectivities');
#321=UNCERTAINTY_MEASURE_WITH_UNIT(LENGTH_MEASURE(0.001),#324,
'DISTANCE_ACCURACY_VALUE',
'Maximum model space distance between geometric entities at asserted c
onnectivities');
#322=(
GEOMETRIC_REPRESENTATION_CONTEXT(3)
GLOBAL_UNCERTAINTY_ASSIGNED_CONTEXT((#320))
GLOBAL_UNIT_ASSIGNED_CONTEXT((#324,#326,#327))
REPRESENTATION_CONTEXT('','3D')
);
#323=(
GEOMETRIC_REPRESENTATION_CONTEXT(3)
GLOBAL_UNCERTAINTY_ASSIGNED_CONTEXT((#321))
GLOBAL_UNIT_ASSIGNED_CONTEXT((#324,#326,#327))
REPRESENTATION_CONTEXT('','3D')
);
#324=(
LENGTH_UNIT()
NAMED_UNIT(*)
SI_UNIT(.CENTI.,.METRE.)
);
#325=(
LENGTH_UNIT()
NAMED_UNIT(*)
SI_UNIT($,.METRE.)
);
#326=(
NAMED_UNIT(*)
PLANE_ANGLE_UNIT()
SI_UNIT($,.RADIAN.)
);
#327=(
NAMED_UNIT(*)
SI_UNIT($,.STERADIAN.)
SOLID_ANGLE_UNIT()
);
#328=SHAPE_DEFINITION_REPRESENTATION(#329,#330);
#329=PRODUCT_DEFINITION_SHAPE('',$,#332);
#330=SHAPE_REPRESENTATION('',(#204),#322);
#331=PRODUCT_DEFINITION_CONTEXT('part definition',#336,'design');
#332=PRODUCT_DEFINITION('2026-09-10-23-27-56-141',
'CT03_\X2\625881C269FD6BB58BD588C557AB5EA7\X0\',#333,#331);
#333=PRODUCT_DEFINITION_FORMATION('',$,#338);
#334=PRODUCT_RELATED_PRODUCT_CATEGORY('CT03_\X2\625881C269FD6BB58BD588C557AB5EA7\X0\',
'CT03_\X2\625881C269FD6BB58BD588C557AB5EA7\X0\',(#338));
#335=APPLICATION_PROTOCOL_DEFINITION('international standard',
'automotive_design',2009,#336);
#336=APPLICATION_CONTEXT(
'Core Data for Automotive Mechanical Design Process');
#337=PRODUCT_CONTEXT('part definition',#336,'mechanical');
#338=PRODUCT('2026-09-10-23-27-56-141','CT03_\X2\625881C269FD6BB58BD588C557AB5EA7\X0\',
$,(#337));
#339=PRESENTATION_STYLE_ASSIGNMENT((#340));
#340=SURFACE_STYLE_USAGE(.BOTH.,#341);
#341=SURFACE_SIDE_STYLE('',(#342));
#342=SURFACE_STYLE_FILL_AREA(#343);
#343=FILL_AREA_STYLE('\X2\94A2\X0\ - \X2\7F0E5149\X0\',(#344));
#344=FILL_AREA_STYLE_COLOUR('\X2\94A2\X0\ - \X2\7F0E5149\X0\',#345);
#345=COLOUR_RGB('\X2\94A2\X0\ - \X2\7F0E5149\X0\',0.627450980392157,0.627450980392157,
0.627450980392157);
ENDSEC;
END-ISO-10303-21;
