ISO-10303-21;
HEADER;
/* Generated by software containing ST-Developer
 * from STEP Tools, Inc. (www.steptools.com) 
 */

FILE_DESCRIPTION(
/* description */ (''),
/* implementation_level */ '2;1');

FILE_NAME(
/* name */ 'HT01.step',
/* time_stamp */ '2026-09-10T23:27:56+08:00',
/* author */ (''),
/* organization */ (''),
/* preprocessor_version */ 'ST-DEVELOPER v20.1',
/* originating_system */ 'Autodesk Translation Framework v15.8.0.0',
/* authorisation */ '');

FILE_SCHEMA (('AUTOMOTIVE_DESIGN { 1 0 10303 214 3 1 1 }'));
ENDSEC;

DATA;
#10=MECHANICAL_DESIGN_GEOMETRIC_PRESENTATION_REPRESENTATION('',(#13),#1084);
#11=SHAPE_REPRESENTATION_RELATIONSHIP('SRR','None',#1091,#12);
#12=ADVANCED_BREP_SHAPE_REPRESENTATION('',(#14),#1083);
#13=STYLED_ITEM('',(#1100),#14);
#14=MANIFOLD_SOLID_BREP('\X2\5B9E4F53\X0\1',#652);
#15=CYLINDRICAL_SURFACE('',#682,0.225);
#16=CYLINDRICAL_SURFACE('',#690,0.24);
#17=CYLINDRICAL_SURFACE('',#692,0.24);
#18=CYLINDRICAL_SURFACE('',#696,0.225);
#19=CYLINDRICAL_SURFACE('',#698,0.225);
#20=CYLINDRICAL_SURFACE('',#702,0.21);
#21=CYLINDRICAL_SURFACE('',#704,0.21);
#22=CYLINDRICAL_SURFACE('',#715,0.24);
#23=CYLINDRICAL_SURFACE('',#716,0.23);
#24=CYLINDRICAL_SURFACE('',#717,0.225);
#25=CYLINDRICAL_SURFACE('',#718,0.22);
#26=CYLINDRICAL_SURFACE('',#719,0.21);
#27=CYLINDRICAL_SURFACE('',#720,0.2);
#28=FACE_BOUND('',#110,.T.);
#29=FACE_BOUND('',#111,.T.);
#30=FACE_BOUND('',#112,.T.);
#31=FACE_BOUND('',#113,.T.);
#32=FACE_BOUND('',#114,.T.);
#33=FACE_BOUND('',#115,.T.);
#34=FACE_BOUND('',#116,.T.);
#35=FACE_BOUND('',#117,.T.);
#36=FACE_BOUND('',#118,.T.);
#37=FACE_BOUND('',#122,.T.);
#38=FACE_BOUND('',#125,.T.);
#39=FACE_BOUND('',#139,.T.);
#40=FACE_BOUND('',#140,.T.);
#41=FACE_BOUND('',#141,.T.);
#42=FACE_BOUND('',#142,.T.);
#43=FACE_BOUND('',#143,.T.);
#44=FACE_BOUND('',#144,.T.);
#45=FACE_BOUND('',#145,.T.);
#46=FACE_BOUND('',#146,.T.);
#47=FACE_BOUND('',#147,.T.);
#48=FACE_BOUND('',#148,.T.);
#49=CIRCLE('',#669,0.225);
#50=CIRCLE('',#670,0.225);
#51=CIRCLE('',#671,0.21);
#52=CIRCLE('',#672,0.21);
#53=CIRCLE('',#673,0.24);
#54=CIRCLE('',#674,0.23);
#55=CIRCLE('',#675,0.225);
#56=CIRCLE('',#676,0.22);
#57=CIRCLE('',#677,0.21);
#58=CIRCLE('',#678,0.2);
#59=CIRCLE('',#679,0.24);
#60=CIRCLE('',#680,0.24);
#61=CIRCLE('',#683,0.225);
#62=CIRCLE('',#684,0.225);
#63=CIRCLE('',#691,0.24);
#64=CIRCLE('',#693,0.24);
#65=CIRCLE('',#697,0.225);
#66=CIRCLE('',#699,0.225);
#67=CIRCLE('',#703,0.21);
#68=CIRCLE('',#705,0.21);
#69=CIRCLE('',#707,0.2);
#70=CIRCLE('',#708,0.21);
#71=CIRCLE('',#709,0.22);
#72=CIRCLE('',#710,0.225);
#73=CIRCLE('',#711,0.23);
#74=CIRCLE('',#712,0.24);
#75=FACE_OUTER_BOUND('',#107,.T.);
#76=FACE_OUTER_BOUND('',#108,.T.);
#77=FACE_OUTER_BOUND('',#109,.T.);
#78=FACE_OUTER_BOUND('',#119,.T.);
#79=FACE_OUTER_BOUND('',#120,.T.);
#80=FACE_OUTER_BOUND('',#121,.T.);
#81=FACE_OUTER_BOUND('',#123,.T.);
#82=FACE_OUTER_BOUND('',#124,.T.);
#83=FACE_OUTER_BOUND('',#126,.T.);
#84=FACE_OUTER_BOUND('',#127,.T.);
#85=FACE_OUTER_BOUND('',#128,.T.);
#86=FACE_OUTER_BOUND('',#129,.T.);
#87=FACE_OUTER_BOUND('',#130,.T.);
#88=FACE_OUTER_BOUND('',#131,.T.);
#89=FACE_OUTER_BOUND('',#132,.T.);
#90=FACE_OUTER_BOUND('',#133,.T.);
#91=FACE_OUTER_BOUND('',#134,.T.);
#92=FACE_OUTER_BOUND('',#135,.T.);
#93=FACE_OUTER_BOUND('',#136,.T.);
#94=FACE_OUTER_BOUND('',#137,.T.);
#95=FACE_OUTER_BOUND('',#138,.T.);
#96=FACE_OUTER_BOUND('',#149,.T.);
#97=FACE_OUTER_BOUND('',#150,.T.);
#98=FACE_OUTER_BOUND('',#151,.T.);
#99=FACE_OUTER_BOUND('',#152,.T.);
#100=FACE_OUTER_BOUND('',#153,.T.);
#101=FACE_OUTER_BOUND('',#154,.T.);
#102=FACE_OUTER_BOUND('',#155,.T.);
#103=FACE_OUTER_BOUND('',#156,.T.);
#104=FACE_OUTER_BOUND('',#157,.T.);
#105=FACE_OUTER_BOUND('',#158,.T.);
#106=FACE_OUTER_BOUND('',#159,.T.);
#107=EDGE_LOOP('',(#427,#428,#429,#430));
#108=EDGE_LOOP('',(#431,#432,#433,#434));
#109=EDGE_LOOP('',(#435,#436,#437,#438,#439,#440));
#110=EDGE_LOOP('',(#441,#442,#443,#444));
#111=EDGE_LOOP('',(#445,#446,#447,#448));
#112=EDGE_LOOP('',(#449));
#113=EDGE_LOOP('',(#450));
#114=EDGE_LOOP('',(#451));
#115=EDGE_LOOP('',(#452));
#116=EDGE_LOOP('',(#453));
#117=EDGE_LOOP('',(#454));
#118=EDGE_LOOP('',(#455,#456,#457,#458));
#119=EDGE_LOOP('',(#459,#460,#461,#462));
#120=EDGE_LOOP('',(#463,#464,#465,#466));
#121=EDGE_LOOP('',(#467,#468,#469,#470));
#122=EDGE_LOOP('',(#471));
#123=EDGE_LOOP('',(#472,#473,#474,#475));
#124=EDGE_LOOP('',(#476,#477,#478,#479));
#125=EDGE_LOOP('',(#480));
#126=EDGE_LOOP('',(#481,#482,#483,#484));
#127=EDGE_LOOP('',(#485,#486,#487,#488));
#128=EDGE_LOOP('',(#489,#490,#491,#492));
#129=EDGE_LOOP('',(#493,#494,#495,#496));
#130=EDGE_LOOP('',(#497,#498,#499,#500));
#131=EDGE_LOOP('',(#501,#502,#503,#504));
#132=EDGE_LOOP('',(#505,#506,#507,#508));
#133=EDGE_LOOP('',(#509,#510,#511,#512));
#134=EDGE_LOOP('',(#513,#514,#515,#516));
#135=EDGE_LOOP('',(#517,#518,#519,#520));
#136=EDGE_LOOP('',(#521,#522,#523,#524));
#137=EDGE_LOOP('',(#525,#526,#527,#528));
#138=EDGE_LOOP('',(#529,#530,#531,#532,#533,#534));
#139=EDGE_LOOP('',(#535,#536,#537,#538));
#140=EDGE_LOOP('',(#539,#540,#541,#542));
#141=EDGE_LOOP('',(#543,#544,#545,#546));
#142=EDGE_LOOP('',(#547));
#143=EDGE_LOOP('',(#548));
#144=EDGE_LOOP('',(#549));
#145=EDGE_LOOP('',(#550));
#146=EDGE_LOOP('',(#551));
#147=EDGE_LOOP('',(#552));
#148=EDGE_LOOP('',(#553,#554,#555,#556));
#149=EDGE_LOOP('',(#557,#558,#559,#560));
#150=EDGE_LOOP('',(#561,#562,#563,#564));
#151=EDGE_LOOP('',(#565,#566,#567,#568));
#152=EDGE_LOOP('',(#569,#570,#571,#572));
#153=EDGE_LOOP('',(#573,#574,#575,#576));
#154=EDGE_LOOP('',(#577,#578,#579,#580));
#155=EDGE_LOOP('',(#581,#582,#583,#584));
#156=EDGE_LOOP('',(#585,#586,#587,#588));
#157=EDGE_LOOP('',(#589,#590,#591,#592));
#158=EDGE_LOOP('',(#593,#594,#595,#596));
#159=EDGE_LOOP('',(#597,#598,#599,#600));
#160=LINE('',#907,#221);
#161=LINE('',#909,#222);
#162=LINE('',#911,#223);
#163=LINE('',#912,#224);
#164=LINE('',#915,#225);
#165=LINE('',#917,#226);
#166=LINE('',#918,#227);
#167=LINE('',#921,#228);
#168=LINE('',#923,#229);
#169=LINE('',#925,#230);
#170=LINE('',#926,#231);
#171=LINE('',#931,#232);
#172=LINE('',#934,#233);
#173=LINE('',#939,#234);
#174=LINE('',#942,#235);
#175=LINE('',#959,#236);
#176=LINE('',#962,#237);
#177=LINE('',#965,#238);
#178=LINE('',#966,#239);
#179=LINE('',#971,#240);
#180=LINE('',#976,#241);
#181=LINE('',#978,#242);
#182=LINE('',#980,#243);
#183=LINE('',#981,#244);
#184=LINE('',#984,#245);
#185=LINE('',#986,#246);
#186=LINE('',#987,#247);
#187=LINE('',#990,#248);
#188=LINE('',#992,#249);
#189=LINE('',#993,#250);
#190=LINE('',#995,#251);
#191=LINE('',#996,#252);
#192=LINE('',#1000,#253);
#193=LINE('',#1002,#254);
#194=LINE('',#1006,#255);
#195=LINE('',#1009,#256);
#196=LINE('',#1011,#257);
#197=LINE('',#1013,#258);
#198=LINE('',#1016,#259);
#199=LINE('',#1018,#260);
#200=LINE('',#1022,#261);
#201=LINE('',#1025,#262);
#202=LINE('',#1027,#263);
#203=LINE('',#1029,#264);
#204=LINE('',#1034,#265);
#205=LINE('',#1035,#266);
#206=LINE('',#1038,#267);
#207=LINE('',#1041,#268);
#208=LINE('',#1044,#269);
#209=LINE('',#1046,#270);
#210=LINE('',#1047,#271);
#211=LINE('',#1048,#272);
#212=LINE('',#1049,#273);
#213=LINE('',#1065,#274);
#214=LINE('',#1067,#275);
#215=LINE('',#1069,#276);
#216=LINE('',#1071,#277);
#217=LINE('',#1073,#278);
#218=LINE('',#1075,#279);
#219=LINE('',#1077,#280);
#220=LINE('',#1079,#281);
#221=VECTOR('',#728,1.);
#222=VECTOR('',#729,1.);
#223=VECTOR('',#730,1.);
#224=VECTOR('',#731,1.);
#225=VECTOR('',#734,1.);
#226=VECTOR('',#735,1.);
#227=VECTOR('',#736,1.);
#228=VECTOR('',#739,1.);
#229=VECTOR('',#740,1.);
#230=VECTOR('',#741,1.);
#231=VECTOR('',#742,1.);
#232=VECTOR('',#745,1.);
#233=VECTOR('',#748,1.);
#234=VECTOR('',#751,1.);
#235=VECTOR('',#754,1.);
#236=VECTOR('',#769,1.);
#237=VECTOR('',#772,1.);
#238=VECTOR('',#775,1.);
#239=VECTOR('',#776,1.);
#240=VECTOR('',#781,0.225);
#241=VECTOR('',#786,1.);
#242=VECTOR('',#787,1.);
#243=VECTOR('',#788,1.);
#244=VECTOR('',#789,1.);
#245=VECTOR('',#792,1.);
#246=VECTOR('',#793,1.);
#247=VECTOR('',#794,1.);
#248=VECTOR('',#797,1.);
#249=VECTOR('',#798,1.);
#250=VECTOR('',#799,1.);
#251=VECTOR('',#802,1.);
#252=VECTOR('',#803,1.);
#253=VECTOR('',#808,1.);
#254=VECTOR('',#809,1.);
#255=VECTOR('',#814,1.);
#256=VECTOR('',#817,1.);
#257=VECTOR('',#820,1.);
#258=VECTOR('',#823,1.);
#259=VECTOR('',#826,1.);
#260=VECTOR('',#827,1.);
#261=VECTOR('',#832,1.);
#262=VECTOR('',#835,1.);
#263=VECTOR('',#838,1.);
#264=VECTOR('',#841,1.);
#265=VECTOR('',#846,1.);
#266=VECTOR('',#847,1.);
#267=VECTOR('',#850,1.);
#268=VECTOR('',#853,1.);
#269=VECTOR('',#856,1.);
#270=VECTOR('',#857,1.);
#271=VECTOR('',#858,1.);
#272=VECTOR('',#859,1.);
#273=VECTOR('',#860,1.);
#274=VECTOR('',#879,0.24);
#275=VECTOR('',#882,0.23);
#276=VECTOR('',#885,0.225);
#277=VECTOR('',#888,0.22);
#278=VECTOR('',#891,0.21);
#279=VECTOR('',#894,0.2);
#280=VECTOR('',#897,1.);
#281=VECTOR('',#900,1.);
#282=VERTEX_POINT('',#905);
#283=VERTEX_POINT('',#906);
#284=VERTEX_POINT('',#908);
#285=VERTEX_POINT('',#910);
#286=VERTEX_POINT('',#914);
#287=VERTEX_POINT('',#916);
#288=VERTEX_POINT('',#920);
#289=VERTEX_POINT('',#922);
#290=VERTEX_POINT('',#924);
#291=VERTEX_POINT('',#927);
#292=VERTEX_POINT('',#928);
#293=VERTEX_POINT('',#930);
#294=VERTEX_POINT('',#932);
#295=VERTEX_POINT('',#935);
#296=VERTEX_POINT('',#936);
#297=VERTEX_POINT('',#938);
#298=VERTEX_POINT('',#940);
#299=VERTEX_POINT('',#943);
#300=VERTEX_POINT('',#945);
#301=VERTEX_POINT('',#947);
#302=VERTEX_POINT('',#949);
#303=VERTEX_POINT('',#951);
#304=VERTEX_POINT('',#953);
#305=VERTEX_POINT('',#955);
#306=VERTEX_POINT('',#956);
#307=VERTEX_POINT('',#958);
#308=VERTEX_POINT('',#960);
#309=VERTEX_POINT('',#964);
#310=VERTEX_POINT('',#968);
#311=VERTEX_POINT('',#970);
#312=VERTEX_POINT('',#974);
#313=VERTEX_POINT('',#975);
#314=VERTEX_POINT('',#977);
#315=VERTEX_POINT('',#979);
#316=VERTEX_POINT('',#983);
#317=VERTEX_POINT('',#985);
#318=VERTEX_POINT('',#989);
#319=VERTEX_POINT('',#991);
#320=VERTEX_POINT('',#999);
#321=VERTEX_POINT('',#1001);
#322=VERTEX_POINT('',#1005);
#323=VERTEX_POINT('',#1007);
#324=VERTEX_POINT('',#1015);
#325=VERTEX_POINT('',#1017);
#326=VERTEX_POINT('',#1021);
#327=VERTEX_POINT('',#1023);
#328=VERTEX_POINT('',#1031);
#329=VERTEX_POINT('',#1032);
#330=VERTEX_POINT('',#1037);
#331=VERTEX_POINT('',#1039);
#332=VERTEX_POINT('',#1043);
#333=VERTEX_POINT('',#1045);
#334=VERTEX_POINT('',#1050);
#335=VERTEX_POINT('',#1052);
#336=VERTEX_POINT('',#1054);
#337=VERTEX_POINT('',#1056);
#338=VERTEX_POINT('',#1058);
#339=VERTEX_POINT('',#1060);
#340=EDGE_CURVE('',#282,#283,#160,.T.);
#341=EDGE_CURVE('',#284,#282,#161,.T.);
#342=EDGE_CURVE('',#285,#284,#162,.T.);
#343=EDGE_CURVE('',#283,#285,#163,.T.);
#344=EDGE_CURVE('',#283,#286,#164,.T.);
#345=EDGE_CURVE('',#287,#285,#165,.T.);
#346=EDGE_CURVE('',#286,#287,#166,.T.);
#347=EDGE_CURVE('',#288,#286,#167,.T.);
#348=EDGE_CURVE('',#289,#288,#168,.T.);
#349=EDGE_CURVE('',#290,#289,#169,.T.);
#350=EDGE_CURVE('',#282,#290,#170,.T.);
#351=EDGE_CURVE('',#291,#292,#49,.T.);
#352=EDGE_CURVE('',#292,#293,#171,.T.);
#353=EDGE_CURVE('',#293,#294,#50,.T.);
#354=EDGE_CURVE('',#294,#291,#172,.T.);
#355=EDGE_CURVE('',#295,#296,#51,.T.);
#356=EDGE_CURVE('',#296,#297,#173,.T.);
#357=EDGE_CURVE('',#297,#298,#52,.T.);
#358=EDGE_CURVE('',#298,#295,#174,.T.);
#359=EDGE_CURVE('',#299,#299,#53,.T.);
#360=EDGE_CURVE('',#300,#300,#54,.T.);
#361=EDGE_CURVE('',#301,#301,#55,.T.);
#362=EDGE_CURVE('',#302,#302,#56,.T.);
#363=EDGE_CURVE('',#303,#303,#57,.T.);
#364=EDGE_CURVE('',#304,#304,#58,.T.);
#365=EDGE_CURVE('',#305,#306,#59,.T.);
#366=EDGE_CURVE('',#306,#307,#175,.T.);
#367=EDGE_CURVE('',#307,#308,#60,.T.);
#368=EDGE_CURVE('',#308,#305,#176,.T.);
#369=EDGE_CURVE('',#309,#287,#177,.T.);
#370=EDGE_CURVE('',#288,#309,#178,.T.);
#371=EDGE_CURVE('',#310,#310,#61,.T.);
#372=EDGE_CURVE('',#310,#311,#179,.T.);
#373=EDGE_CURVE('',#311,#311,#62,.T.);
#374=EDGE_CURVE('',#312,#313,#180,.T.);
#375=EDGE_CURVE('',#312,#314,#181,.T.);
#376=EDGE_CURVE('',#315,#314,#182,.T.);
#377=EDGE_CURVE('',#313,#315,#183,.T.);
#378=EDGE_CURVE('',#313,#316,#184,.T.);
#379=EDGE_CURVE('',#317,#315,#185,.T.);
#380=EDGE_CURVE('',#316,#317,#186,.T.);
#381=EDGE_CURVE('',#316,#318,#187,.T.);
#382=EDGE_CURVE('',#319,#317,#188,.T.);
#383=EDGE_CURVE('',#318,#319,#189,.T.);
#384=EDGE_CURVE('',#318,#312,#190,.T.);
#385=EDGE_CURVE('',#314,#319,#191,.T.);
#386=EDGE_CURVE('',#306,#320,#192,.T.);
#387=EDGE_CURVE('',#305,#321,#193,.T.);
#388=EDGE_CURVE('',#320,#321,#63,.T.);
#389=EDGE_CURVE('',#307,#322,#194,.T.);
#390=EDGE_CURVE('',#323,#322,#64,.T.);
#391=EDGE_CURVE('',#308,#323,#195,.T.);
#392=EDGE_CURVE('',#321,#323,#196,.T.);
#393=EDGE_CURVE('',#322,#320,#197,.T.);
#394=EDGE_CURVE('',#292,#324,#198,.T.);
#395=EDGE_CURVE('',#291,#325,#199,.T.);
#396=EDGE_CURVE('',#324,#325,#65,.T.);
#397=EDGE_CURVE('',#293,#326,#200,.T.);
#398=EDGE_CURVE('',#327,#326,#66,.T.);
#399=EDGE_CURVE('',#294,#327,#201,.T.);
#400=EDGE_CURVE('',#325,#327,#202,.T.);
#401=EDGE_CURVE('',#326,#324,#203,.T.);
#402=EDGE_CURVE('',#328,#329,#67,.T.);
#403=EDGE_CURVE('',#296,#328,#204,.T.);
#404=EDGE_CURVE('',#295,#329,#205,.T.);
#405=EDGE_CURVE('',#297,#330,#206,.T.);
#406=EDGE_CURVE('',#331,#330,#68,.T.);
#407=EDGE_CURVE('',#298,#331,#207,.T.);
#408=EDGE_CURVE('',#284,#332,#208,.T.);
#409=EDGE_CURVE('',#332,#333,#209,.T.);
#410=EDGE_CURVE('',#333,#309,#210,.T.);
#411=EDGE_CURVE('',#329,#331,#211,.T.);
#412=EDGE_CURVE('',#330,#328,#212,.T.);
#413=EDGE_CURVE('',#334,#334,#69,.T.);
#414=EDGE_CURVE('',#335,#335,#70,.T.);
#415=EDGE_CURVE('',#336,#336,#71,.T.);
#416=EDGE_CURVE('',#337,#337,#72,.T.);
#417=EDGE_CURVE('',#338,#338,#73,.T.);
#418=EDGE_CURVE('',#339,#339,#74,.T.);
#419=EDGE_CURVE('',#299,#339,#213,.T.);
#420=EDGE_CURVE('',#300,#338,#214,.T.);
#421=EDGE_CURVE('',#301,#337,#215,.T.);
#422=EDGE_CURVE('',#302,#336,#216,.T.);
#423=EDGE_CURVE('',#303,#335,#217,.T.);
#424=EDGE_CURVE('',#304,#334,#218,.T.);
#425=EDGE_CURVE('',#289,#333,#219,.T.);
#426=EDGE_CURVE('',#290,#332,#220,.T.);
#427=ORIENTED_EDGE('',*,*,#340,.F.);
#428=ORIENTED_EDGE('',*,*,#341,.F.);
#429=ORIENTED_EDGE('',*,*,#342,.F.);
#430=ORIENTED_EDGE('',*,*,#343,.F.);
#431=ORIENTED_EDGE('',*,*,#344,.F.);
#432=ORIENTED_EDGE('',*,*,#343,.T.);
#433=ORIENTED_EDGE('',*,*,#345,.F.);
#434=ORIENTED_EDGE('',*,*,#346,.F.);
#435=ORIENTED_EDGE('',*,*,#340,.T.);
#436=ORIENTED_EDGE('',*,*,#344,.T.);
#437=ORIENTED_EDGE('',*,*,#347,.F.);
#438=ORIENTED_EDGE('',*,*,#348,.F.);
#439=ORIENTED_EDGE('',*,*,#349,.F.);
#440=ORIENTED_EDGE('',*,*,#350,.F.);
#441=ORIENTED_EDGE('',*,*,#351,.T.);
#442=ORIENTED_EDGE('',*,*,#352,.T.);
#443=ORIENTED_EDGE('',*,*,#353,.T.);
#444=ORIENTED_EDGE('',*,*,#354,.T.);
#445=ORIENTED_EDGE('',*,*,#355,.T.);
#446=ORIENTED_EDGE('',*,*,#356,.T.);
#447=ORIENTED_EDGE('',*,*,#357,.T.);
#448=ORIENTED_EDGE('',*,*,#358,.T.);
#449=ORIENTED_EDGE('',*,*,#359,.T.);
#450=ORIENTED_EDGE('',*,*,#360,.T.);
#451=ORIENTED_EDGE('',*,*,#361,.T.);
#452=ORIENTED_EDGE('',*,*,#362,.T.);
#453=ORIENTED_EDGE('',*,*,#363,.T.);
#454=ORIENTED_EDGE('',*,*,#364,.T.);
#455=ORIENTED_EDGE('',*,*,#365,.T.);
#456=ORIENTED_EDGE('',*,*,#366,.T.);
#457=ORIENTED_EDGE('',*,*,#367,.T.);
#458=ORIENTED_EDGE('',*,*,#368,.T.);
#459=ORIENTED_EDGE('',*,*,#346,.T.);
#460=ORIENTED_EDGE('',*,*,#369,.F.);
#461=ORIENTED_EDGE('',*,*,#370,.F.);
#462=ORIENTED_EDGE('',*,*,#347,.T.);
#463=ORIENTED_EDGE('',*,*,#371,.F.);
#464=ORIENTED_EDGE('',*,*,#372,.T.);
#465=ORIENTED_EDGE('',*,*,#373,.F.);
#466=ORIENTED_EDGE('',*,*,#372,.F.);
#467=ORIENTED_EDGE('',*,*,#374,.F.);
#468=ORIENTED_EDGE('',*,*,#375,.T.);
#469=ORIENTED_EDGE('',*,*,#376,.F.);
#470=ORIENTED_EDGE('',*,*,#377,.F.);
#471=ORIENTED_EDGE('',*,*,#373,.T.);
#472=ORIENTED_EDGE('',*,*,#378,.F.);
#473=ORIENTED_EDGE('',*,*,#377,.T.);
#474=ORIENTED_EDGE('',*,*,#379,.F.);
#475=ORIENTED_EDGE('',*,*,#380,.F.);
#476=ORIENTED_EDGE('',*,*,#381,.F.);
#477=ORIENTED_EDGE('',*,*,#380,.T.);
#478=ORIENTED_EDGE('',*,*,#382,.F.);
#479=ORIENTED_EDGE('',*,*,#383,.F.);
#480=ORIENTED_EDGE('',*,*,#371,.T.);
#481=ORIENTED_EDGE('',*,*,#384,.F.);
#482=ORIENTED_EDGE('',*,*,#383,.T.);
#483=ORIENTED_EDGE('',*,*,#385,.F.);
#484=ORIENTED_EDGE('',*,*,#375,.F.);
#485=ORIENTED_EDGE('',*,*,#385,.T.);
#486=ORIENTED_EDGE('',*,*,#382,.T.);
#487=ORIENTED_EDGE('',*,*,#379,.T.);
#488=ORIENTED_EDGE('',*,*,#376,.T.);
#489=ORIENTED_EDGE('',*,*,#386,.F.);
#490=ORIENTED_EDGE('',*,*,#365,.F.);
#491=ORIENTED_EDGE('',*,*,#387,.T.);
#492=ORIENTED_EDGE('',*,*,#388,.F.);
#493=ORIENTED_EDGE('',*,*,#389,.T.);
#494=ORIENTED_EDGE('',*,*,#390,.F.);
#495=ORIENTED_EDGE('',*,*,#391,.F.);
#496=ORIENTED_EDGE('',*,*,#367,.F.);
#497=ORIENTED_EDGE('',*,*,#368,.F.);
#498=ORIENTED_EDGE('',*,*,#391,.T.);
#499=ORIENTED_EDGE('',*,*,#392,.F.);
#500=ORIENTED_EDGE('',*,*,#387,.F.);
#501=ORIENTED_EDGE('',*,*,#366,.F.);
#502=ORIENTED_EDGE('',*,*,#386,.T.);
#503=ORIENTED_EDGE('',*,*,#393,.F.);
#504=ORIENTED_EDGE('',*,*,#389,.F.);
#505=ORIENTED_EDGE('',*,*,#394,.F.);
#506=ORIENTED_EDGE('',*,*,#351,.F.);
#507=ORIENTED_EDGE('',*,*,#395,.T.);
#508=ORIENTED_EDGE('',*,*,#396,.F.);
#509=ORIENTED_EDGE('',*,*,#397,.T.);
#510=ORIENTED_EDGE('',*,*,#398,.F.);
#511=ORIENTED_EDGE('',*,*,#399,.F.);
#512=ORIENTED_EDGE('',*,*,#353,.F.);
#513=ORIENTED_EDGE('',*,*,#354,.F.);
#514=ORIENTED_EDGE('',*,*,#399,.T.);
#515=ORIENTED_EDGE('',*,*,#400,.F.);
#516=ORIENTED_EDGE('',*,*,#395,.F.);
#517=ORIENTED_EDGE('',*,*,#352,.F.);
#518=ORIENTED_EDGE('',*,*,#394,.T.);
#519=ORIENTED_EDGE('',*,*,#401,.F.);
#520=ORIENTED_EDGE('',*,*,#397,.F.);
#521=ORIENTED_EDGE('',*,*,#402,.F.);
#522=ORIENTED_EDGE('',*,*,#403,.F.);
#523=ORIENTED_EDGE('',*,*,#355,.F.);
#524=ORIENTED_EDGE('',*,*,#404,.T.);
#525=ORIENTED_EDGE('',*,*,#405,.T.);
#526=ORIENTED_EDGE('',*,*,#406,.F.);
#527=ORIENTED_EDGE('',*,*,#407,.F.);
#528=ORIENTED_EDGE('',*,*,#357,.F.);
#529=ORIENTED_EDGE('',*,*,#342,.T.);
#530=ORIENTED_EDGE('',*,*,#408,.T.);
#531=ORIENTED_EDGE('',*,*,#409,.T.);
#532=ORIENTED_EDGE('',*,*,#410,.T.);
#533=ORIENTED_EDGE('',*,*,#369,.T.);
#534=ORIENTED_EDGE('',*,*,#345,.T.);
#535=ORIENTED_EDGE('',*,*,#374,.T.);
#536=ORIENTED_EDGE('',*,*,#378,.T.);
#537=ORIENTED_EDGE('',*,*,#381,.T.);
#538=ORIENTED_EDGE('',*,*,#384,.T.);
#539=ORIENTED_EDGE('',*,*,#396,.T.);
#540=ORIENTED_EDGE('',*,*,#400,.T.);
#541=ORIENTED_EDGE('',*,*,#398,.T.);
#542=ORIENTED_EDGE('',*,*,#401,.T.);
#543=ORIENTED_EDGE('',*,*,#402,.T.);
#544=ORIENTED_EDGE('',*,*,#411,.T.);
#545=ORIENTED_EDGE('',*,*,#406,.T.);
#546=ORIENTED_EDGE('',*,*,#412,.T.);
#547=ORIENTED_EDGE('',*,*,#413,.T.);
#548=ORIENTED_EDGE('',*,*,#414,.T.);
#549=ORIENTED_EDGE('',*,*,#415,.T.);
#550=ORIENTED_EDGE('',*,*,#416,.T.);
#551=ORIENTED_EDGE('',*,*,#417,.T.);
#552=ORIENTED_EDGE('',*,*,#418,.T.);
#553=ORIENTED_EDGE('',*,*,#388,.T.);
#554=ORIENTED_EDGE('',*,*,#392,.T.);
#555=ORIENTED_EDGE('',*,*,#390,.T.);
#556=ORIENTED_EDGE('',*,*,#393,.T.);
#557=ORIENTED_EDGE('',*,*,#411,.F.);
#558=ORIENTED_EDGE('',*,*,#404,.F.);
#559=ORIENTED_EDGE('',*,*,#358,.F.);
#560=ORIENTED_EDGE('',*,*,#407,.T.);
#561=ORIENTED_EDGE('',*,*,#412,.F.);
#562=ORIENTED_EDGE('',*,*,#405,.F.);
#563=ORIENTED_EDGE('',*,*,#356,.F.);
#564=ORIENTED_EDGE('',*,*,#403,.T.);
#565=ORIENTED_EDGE('',*,*,#359,.F.);
#566=ORIENTED_EDGE('',*,*,#419,.T.);
#567=ORIENTED_EDGE('',*,*,#418,.F.);
#568=ORIENTED_EDGE('',*,*,#419,.F.);
#569=ORIENTED_EDGE('',*,*,#360,.F.);
#570=ORIENTED_EDGE('',*,*,#420,.T.);
#571=ORIENTED_EDGE('',*,*,#417,.F.);
#572=ORIENTED_EDGE('',*,*,#420,.F.);
#573=ORIENTED_EDGE('',*,*,#361,.F.);
#574=ORIENTED_EDGE('',*,*,#421,.T.);
#575=ORIENTED_EDGE('',*,*,#416,.F.);
#576=ORIENTED_EDGE('',*,*,#421,.F.);
#577=ORIENTED_EDGE('',*,*,#362,.F.);
#578=ORIENTED_EDGE('',*,*,#422,.T.);
#579=ORIENTED_EDGE('',*,*,#415,.F.);
#580=ORIENTED_EDGE('',*,*,#422,.F.);
#581=ORIENTED_EDGE('',*,*,#363,.F.);
#582=ORIENTED_EDGE('',*,*,#423,.T.);
#583=ORIENTED_EDGE('',*,*,#414,.F.);
#584=ORIENTED_EDGE('',*,*,#423,.F.);
#585=ORIENTED_EDGE('',*,*,#364,.F.);
#586=ORIENTED_EDGE('',*,*,#424,.T.);
#587=ORIENTED_EDGE('',*,*,#413,.F.);
#588=ORIENTED_EDGE('',*,*,#424,.F.);
#589=ORIENTED_EDGE('',*,*,#348,.T.);
#590=ORIENTED_EDGE('',*,*,#370,.T.);
#591=ORIENTED_EDGE('',*,*,#410,.F.);
#592=ORIENTED_EDGE('',*,*,#425,.F.);
#593=ORIENTED_EDGE('',*,*,#349,.T.);
#594=ORIENTED_EDGE('',*,*,#425,.T.);
#595=ORIENTED_EDGE('',*,*,#409,.F.);
#596=ORIENTED_EDGE('',*,*,#426,.F.);
#597=ORIENTED_EDGE('',*,*,#341,.T.);
#598=ORIENTED_EDGE('',*,*,#350,.T.);
#599=ORIENTED_EDGE('',*,*,#426,.T.);
#600=ORIENTED_EDGE('',*,*,#408,.F.);
#601=PLANE('',#666);
#602=PLANE('',#667);
#603=PLANE('',#668);
#604=PLANE('',#681);
#605=PLANE('',#685);
#606=PLANE('',#686);
#607=PLANE('',#687);
#608=PLANE('',#688);
#609=PLANE('',#689);
#610=PLANE('',#694);
#611=PLANE('',#695);
#612=PLANE('',#700);
#613=PLANE('',#701);
#614=PLANE('',#706);
#615=PLANE('',#713);
#616=PLANE('',#714);
#617=PLANE('',#721);
#618=PLANE('',#722);
#619=PLANE('',#723);
#620=ADVANCED_FACE('',(#75),#601,.F.);
#621=ADVANCED_FACE('',(#76),#602,.F.);
#622=ADVANCED_FACE('',(#77,#28,#29,#30,#31,#32,#33,#34,#35,#36),#603,.F.);
#623=ADVANCED_FACE('',(#78),#604,.T.);
#624=ADVANCED_FACE('',(#79),#15,.F.);
#625=ADVANCED_FACE('',(#80,#37),#605,.T.);
#626=ADVANCED_FACE('',(#81),#606,.T.);
#627=ADVANCED_FACE('',(#82,#38),#607,.T.);
#628=ADVANCED_FACE('',(#83),#608,.T.);
#629=ADVANCED_FACE('',(#84),#609,.T.);
#630=ADVANCED_FACE('',(#85),#16,.F.);
#631=ADVANCED_FACE('',(#86),#17,.F.);
#632=ADVANCED_FACE('',(#87),#610,.F.);
#633=ADVANCED_FACE('',(#88),#611,.F.);
#634=ADVANCED_FACE('',(#89),#18,.F.);
#635=ADVANCED_FACE('',(#90),#19,.F.);
#636=ADVANCED_FACE('',(#91),#612,.F.);
#637=ADVANCED_FACE('',(#92),#613,.F.);
#638=ADVANCED_FACE('',(#93),#20,.F.);
#639=ADVANCED_FACE('',(#94),#21,.F.);
#640=ADVANCED_FACE('',(#95,#39,#40,#41,#42,#43,#44,#45,#46,#47,#48),#614,
 .T.);
#641=ADVANCED_FACE('',(#96),#615,.F.);
#642=ADVANCED_FACE('',(#97),#616,.F.);
#643=ADVANCED_FACE('',(#98),#22,.F.);
#644=ADVANCED_FACE('',(#99),#23,.F.);
#645=ADVANCED_FACE('',(#100),#24,.F.);
#646=ADVANCED_FACE('',(#101),#25,.F.);
#647=ADVANCED_FACE('',(#102),#26,.F.);
#648=ADVANCED_FACE('',(#103),#27,.F.);
#649=ADVANCED_FACE('',(#104),#617,.T.);
#650=ADVANCED_FACE('',(#105),#618,.T.);
#651=ADVANCED_FACE('',(#106),#619,.T.);
#652=CLOSED_SHELL('',(#620,#621,#622,#623,#624,#625,#626,#627,#628,#629,
#630,#631,#632,#633,#634,#635,#636,#637,#638,#639,#640,#641,#642,#643,#644,
#645,#646,#647,#648,#649,#650,#651));
#653=DERIVED_UNIT_ELEMENT(#655,1.);
#654=DERIVED_UNIT_ELEMENT(#1086,-3.);
#655=(
MASS_UNIT()
NAMED_UNIT(*)
SI_UNIT(.KILO.,.GRAM.)
);
#656=DERIVED_UNIT((#653,#654));
#657=MEASURE_REPRESENTATION_ITEM('density measure',
POSITIVE_RATIO_MEASURE(7850.),#656);
#658=PROPERTY_DEFINITION_REPRESENTATION(#663,#660);
#659=PROPERTY_DEFINITION_REPRESENTATION(#664,#661);
#660=REPRESENTATION('material name',(#662),#1083);
#661=REPRESENTATION('density',(#657),#1083);
#662=DESCRIPTIVE_REPRESENTATION_ITEM('\X2\94A2\X0\','\X2\94A2\X0\');
#663=PROPERTY_DEFINITION('material property','material name',#1093);
#664=PROPERTY_DEFINITION('material property','density of part',#1093);
#665=AXIS2_PLACEMENT_3D('',#903,#724,#725);
#666=AXIS2_PLACEMENT_3D('',#904,#726,#727);
#667=AXIS2_PLACEMENT_3D('',#913,#732,#733);
#668=AXIS2_PLACEMENT_3D('',#919,#737,#738);
#669=AXIS2_PLACEMENT_3D('',#929,#743,#744);
#670=AXIS2_PLACEMENT_3D('',#933,#746,#747);
#671=AXIS2_PLACEMENT_3D('',#937,#749,#750);
#672=AXIS2_PLACEMENT_3D('',#941,#752,#753);
#673=AXIS2_PLACEMENT_3D('',#944,#755,#756);
#674=AXIS2_PLACEMENT_3D('',#946,#757,#758);
#675=AXIS2_PLACEMENT_3D('',#948,#759,#760);
#676=AXIS2_PLACEMENT_3D('',#950,#761,#762);
#677=AXIS2_PLACEMENT_3D('',#952,#763,#764);
#678=AXIS2_PLACEMENT_3D('',#954,#765,#766);
#679=AXIS2_PLACEMENT_3D('',#957,#767,#768);
#680=AXIS2_PLACEMENT_3D('',#961,#770,#771);
#681=AXIS2_PLACEMENT_3D('',#963,#773,#774);
#682=AXIS2_PLACEMENT_3D('',#967,#777,#778);
#683=AXIS2_PLACEMENT_3D('',#969,#779,#780);
#684=AXIS2_PLACEMENT_3D('',#972,#782,#783);
#685=AXIS2_PLACEMENT_3D('',#973,#784,#785);
#686=AXIS2_PLACEMENT_3D('',#982,#790,#791);
#687=AXIS2_PLACEMENT_3D('',#988,#795,#796);
#688=AXIS2_PLACEMENT_3D('',#994,#800,#801);
#689=AXIS2_PLACEMENT_3D('',#997,#804,#805);
#690=AXIS2_PLACEMENT_3D('',#998,#806,#807);
#691=AXIS2_PLACEMENT_3D('',#1003,#810,#811);
#692=AXIS2_PLACEMENT_3D('',#1004,#812,#813);
#693=AXIS2_PLACEMENT_3D('',#1008,#815,#816);
#694=AXIS2_PLACEMENT_3D('',#1010,#818,#819);
#695=AXIS2_PLACEMENT_3D('',#1012,#821,#822);
#696=AXIS2_PLACEMENT_3D('',#1014,#824,#825);
#697=AXIS2_PLACEMENT_3D('',#1019,#828,#829);
#698=AXIS2_PLACEMENT_3D('',#1020,#830,#831);
#699=AXIS2_PLACEMENT_3D('',#1024,#833,#834);
#700=AXIS2_PLACEMENT_3D('',#1026,#836,#837);
#701=AXIS2_PLACEMENT_3D('',#1028,#839,#840);
#702=AXIS2_PLACEMENT_3D('',#1030,#842,#843);
#703=AXIS2_PLACEMENT_3D('',#1033,#844,#845);
#704=AXIS2_PLACEMENT_3D('',#1036,#848,#849);
#705=AXIS2_PLACEMENT_3D('',#1040,#851,#852);
#706=AXIS2_PLACEMENT_3D('',#1042,#854,#855);
#707=AXIS2_PLACEMENT_3D('',#1051,#861,#862);
#708=AXIS2_PLACEMENT_3D('',#1053,#863,#864);
#709=AXIS2_PLACEMENT_3D('',#1055,#865,#866);
#710=AXIS2_PLACEMENT_3D('',#1057,#867,#868);
#711=AXIS2_PLACEMENT_3D('',#1059,#869,#870);
#712=AXIS2_PLACEMENT_3D('',#1061,#871,#872);
#713=AXIS2_PLACEMENT_3D('',#1062,#873,#874);
#714=AXIS2_PLACEMENT_3D('',#1063,#875,#876);
#715=AXIS2_PLACEMENT_3D('',#1064,#877,#878);
#716=AXIS2_PLACEMENT_3D('',#1066,#880,#881);
#717=AXIS2_PLACEMENT_3D('',#1068,#883,#884);
#718=AXIS2_PLACEMENT_3D('',#1070,#886,#887);
#719=AXIS2_PLACEMENT_3D('',#1072,#889,#890);
#720=AXIS2_PLACEMENT_3D('',#1074,#892,#893);
#721=AXIS2_PLACEMENT_3D('',#1076,#895,#896);
#722=AXIS2_PLACEMENT_3D('',#1078,#898,#899);
#723=AXIS2_PLACEMENT_3D('',#1080,#901,#902);
#724=DIRECTION('axis',(0.,0.,1.));
#725=DIRECTION('refdir',(1.,0.,0.));
#726=DIRECTION('center_axis',(1.,0.,0.));
#727=DIRECTION('ref_axis',(0.,1.,0.));
#728=DIRECTION('',(0.,1.,0.));
#729=DIRECTION('',(0.,0.,-1.));
#730=DIRECTION('',(0.,-1.,0.));
#731=DIRECTION('',(0.,0.,1.));
#732=DIRECTION('center_axis',(0.,1.,0.));
#733=DIRECTION('ref_axis',(-1.,0.,0.));
#734=DIRECTION('',(-1.,0.,0.));
#735=DIRECTION('',(1.,0.,0.));
#736=DIRECTION('',(0.,0.,1.));
#737=DIRECTION('center_axis',(0.,0.,1.));
#738=DIRECTION('ref_axis',(1.,0.,0.));
#739=DIRECTION('',(0.,-1.,0.));
#740=DIRECTION('',(-1.,0.,0.));
#741=DIRECTION('',(0.,1.,0.));
#742=DIRECTION('',(1.,0.,0.));
#743=DIRECTION('center_axis',(0.,0.,1.));
#744=DIRECTION('ref_axis',(1.,0.,0.));
#745=DIRECTION('',(-1.,0.,0.));
#746=DIRECTION('center_axis',(0.,0.,1.));
#747=DIRECTION('ref_axis',(1.,0.,0.));
#748=DIRECTION('',(1.,0.,0.));
#749=DIRECTION('center_axis',(0.,0.,1.));
#750=DIRECTION('ref_axis',(1.,0.,0.));
#751=DIRECTION('',(-1.,0.,0.));
#752=DIRECTION('center_axis',(0.,0.,1.));
#753=DIRECTION('ref_axis',(1.,0.,0.));
#754=DIRECTION('',(1.,0.,0.));
#755=DIRECTION('center_axis',(0.,0.,1.));
#756=DIRECTION('ref_axis',(1.,0.,0.));
#757=DIRECTION('center_axis',(0.,0.,1.));
#758=DIRECTION('ref_axis',(1.,0.,0.));
#759=DIRECTION('center_axis',(0.,0.,1.));
#760=DIRECTION('ref_axis',(1.,0.,0.));
#761=DIRECTION('center_axis',(0.,0.,1.));
#762=DIRECTION('ref_axis',(1.,0.,0.));
#763=DIRECTION('center_axis',(0.,0.,1.));
#764=DIRECTION('ref_axis',(1.,0.,0.));
#765=DIRECTION('center_axis',(0.,0.,1.));
#766=DIRECTION('ref_axis',(1.,0.,0.));
#767=DIRECTION('center_axis',(0.,0.,1.));
#768=DIRECTION('ref_axis',(1.,0.,0.));
#769=DIRECTION('',(-1.,0.,0.));
#770=DIRECTION('center_axis',(0.,0.,1.));
#771=DIRECTION('ref_axis',(1.,0.,0.));
#772=DIRECTION('',(1.,0.,0.));
#773=DIRECTION('center_axis',(-1.,0.,0.));
#774=DIRECTION('ref_axis',(0.,-1.,0.));
#775=DIRECTION('',(0.,-1.,0.));
#776=DIRECTION('',(0.,0.,1.));
#777=DIRECTION('center_axis',(0.,1.,0.));
#778=DIRECTION('ref_axis',(1.,0.,0.));
#779=DIRECTION('center_axis',(0.,1.,0.));
#780=DIRECTION('ref_axis',(1.,0.,0.));
#781=DIRECTION('',(0.,1.,0.));
#782=DIRECTION('center_axis',(0.,-1.,0.));
#783=DIRECTION('ref_axis',(1.,0.,0.));
#784=DIRECTION('center_axis',(0.,1.,0.));
#785=DIRECTION('ref_axis',(-1.,0.,0.));
#786=DIRECTION('',(1.,0.,0.));
#787=DIRECTION('',(0.,0.,1.));
#788=DIRECTION('',(-1.,0.,0.));
#789=DIRECTION('',(0.,0.,1.));
#790=DIRECTION('center_axis',(1.,0.,0.));
#791=DIRECTION('ref_axis',(0.,1.,0.));
#792=DIRECTION('',(0.,-1.,0.));
#793=DIRECTION('',(0.,1.,0.));
#794=DIRECTION('',(0.,0.,1.));
#795=DIRECTION('center_axis',(0.,-1.,0.));
#796=DIRECTION('ref_axis',(1.,0.,0.));
#797=DIRECTION('',(-1.,0.,0.));
#798=DIRECTION('',(1.,0.,0.));
#799=DIRECTION('',(0.,0.,1.));
#800=DIRECTION('center_axis',(-1.,0.,0.));
#801=DIRECTION('ref_axis',(0.,-1.,0.));
#802=DIRECTION('',(0.,1.,0.));
#803=DIRECTION('',(0.,-1.,0.));
#804=DIRECTION('center_axis',(0.,0.,1.));
#805=DIRECTION('ref_axis',(1.,0.,0.));
#806=DIRECTION('center_axis',(0.,0.,1.));
#807=DIRECTION('ref_axis',(1.,0.,0.));
#808=DIRECTION('',(0.,0.,1.));
#809=DIRECTION('',(0.,0.,1.));
#810=DIRECTION('center_axis',(0.,0.,-1.));
#811=DIRECTION('ref_axis',(1.,0.,0.));
#812=DIRECTION('center_axis',(0.,0.,1.));
#813=DIRECTION('ref_axis',(-1.,1.22464679914735E-16,0.));
#814=DIRECTION('',(0.,0.,1.));
#815=DIRECTION('center_axis',(0.,0.,-1.));
#816=DIRECTION('ref_axis',(1.,0.,0.));
#817=DIRECTION('',(0.,0.,1.));
#818=DIRECTION('center_axis',(0.,-1.,0.));
#819=DIRECTION('ref_axis',(1.,0.,0.));
#820=DIRECTION('',(-1.,0.,0.));
#821=DIRECTION('center_axis',(0.,1.,0.));
#822=DIRECTION('ref_axis',(-1.,0.,0.));
#823=DIRECTION('',(1.,0.,0.));
#824=DIRECTION('center_axis',(0.,0.,1.));
#825=DIRECTION('ref_axis',(1.,0.,0.));
#826=DIRECTION('',(0.,0.,1.));
#827=DIRECTION('',(0.,0.,1.));
#828=DIRECTION('center_axis',(0.,0.,-1.));
#829=DIRECTION('ref_axis',(1.,0.,0.));
#830=DIRECTION('center_axis',(0.,0.,1.));
#831=DIRECTION('ref_axis',(-1.,1.22464679914735E-16,0.));
#832=DIRECTION('',(0.,0.,1.));
#833=DIRECTION('center_axis',(0.,0.,-1.));
#834=DIRECTION('ref_axis',(1.,0.,0.));
#835=DIRECTION('',(0.,0.,1.));
#836=DIRECTION('center_axis',(0.,-1.,0.));
#837=DIRECTION('ref_axis',(1.,0.,0.));
#838=DIRECTION('',(-1.,0.,0.));
#839=DIRECTION('center_axis',(0.,1.,0.));
#840=DIRECTION('ref_axis',(-1.,0.,0.));
#841=DIRECTION('',(1.,0.,0.));
#842=DIRECTION('center_axis',(0.,0.,1.));
#843=DIRECTION('ref_axis',(1.,0.,0.));
#844=DIRECTION('center_axis',(0.,0.,-1.));
#845=DIRECTION('ref_axis',(1.,0.,0.));
#846=DIRECTION('',(0.,0.,1.));
#847=DIRECTION('',(0.,0.,1.));
#848=DIRECTION('center_axis',(0.,0.,1.));
#849=DIRECTION('ref_axis',(-1.,1.22464679914735E-16,0.));
#850=DIRECTION('',(0.,0.,1.));
#851=DIRECTION('center_axis',(0.,0.,-1.));
#852=DIRECTION('ref_axis',(1.,0.,0.));
#853=DIRECTION('',(0.,0.,1.));
#854=DIRECTION('center_axis',(0.,0.,1.));
#855=DIRECTION('ref_axis',(1.,0.,0.));
#856=DIRECTION('',(1.,0.,0.));
#857=DIRECTION('',(0.,1.,0.));
#858=DIRECTION('',(-1.,0.,0.));
#859=DIRECTION('',(-1.,0.,0.));
#860=DIRECTION('',(1.,0.,0.));
#861=DIRECTION('center_axis',(0.,0.,-1.));
#862=DIRECTION('ref_axis',(1.,0.,0.));
#863=DIRECTION('center_axis',(0.,0.,-1.));
#864=DIRECTION('ref_axis',(1.,0.,0.));
#865=DIRECTION('center_axis',(0.,0.,-1.));
#866=DIRECTION('ref_axis',(1.,0.,0.));
#867=DIRECTION('center_axis',(0.,0.,-1.));
#868=DIRECTION('ref_axis',(1.,0.,0.));
#869=DIRECTION('center_axis',(0.,0.,-1.));
#870=DIRECTION('ref_axis',(1.,0.,0.));
#871=DIRECTION('center_axis',(0.,0.,-1.));
#872=DIRECTION('ref_axis',(1.,0.,0.));
#873=DIRECTION('center_axis',(0.,-1.,0.));
#874=DIRECTION('ref_axis',(1.,0.,0.));
#875=DIRECTION('center_axis',(0.,1.,0.));
#876=DIRECTION('ref_axis',(-1.,0.,0.));
#877=DIRECTION('center_axis',(0.,0.,1.));
#878=DIRECTION('ref_axis',(1.,0.,0.));
#879=DIRECTION('',(0.,0.,1.));
#880=DIRECTION('center_axis',(0.,0.,1.));
#881=DIRECTION('ref_axis',(1.,0.,0.));
#882=DIRECTION('',(0.,0.,1.));
#883=DIRECTION('center_axis',(0.,0.,1.));
#884=DIRECTION('ref_axis',(1.,0.,0.));
#885=DIRECTION('',(0.,0.,1.));
#886=DIRECTION('center_axis',(0.,0.,1.));
#887=DIRECTION('ref_axis',(1.,0.,0.));
#888=DIRECTION('',(0.,0.,1.));
#889=DIRECTION('center_axis',(0.,0.,1.));
#890=DIRECTION('ref_axis',(1.,0.,0.));
#891=DIRECTION('',(0.,0.,1.));
#892=DIRECTION('center_axis',(0.,0.,1.));
#893=DIRECTION('ref_axis',(1.,0.,0.));
#894=DIRECTION('',(0.,0.,1.));
#895=DIRECTION('center_axis',(0.,1.,0.));
#896=DIRECTION('ref_axis',(-1.,0.,0.));
#897=DIRECTION('',(0.,0.,1.));
#898=DIRECTION('center_axis',(1.,0.,0.));
#899=DIRECTION('ref_axis',(0.,1.,0.));
#900=DIRECTION('',(0.,0.,1.));
#901=DIRECTION('center_axis',(0.,-1.,0.));
#902=DIRECTION('ref_axis',(1.,0.,0.));
#903=CARTESIAN_POINT('',(0.,0.,0.));
#904=CARTESIAN_POINT('Origin',(0.3,0.,-0.1));
#905=CARTESIAN_POINT('',(0.3,0.,0.));
#906=CARTESIAN_POINT('',(0.3,0.3,0.));
#907=CARTESIAN_POINT('',(0.3,1.5,0.));
#908=CARTESIAN_POINT('',(0.3,0.,0.6));
#909=CARTESIAN_POINT('',(0.3,0.,-0.05));
#910=CARTESIAN_POINT('',(0.3,0.3,0.6));
#911=CARTESIAN_POINT('',(0.3,1.5,0.6));
#912=CARTESIAN_POINT('',(0.3,0.3,-0.1));
#913=CARTESIAN_POINT('Origin',(0.3,0.3,-0.1));
#914=CARTESIAN_POINT('',(0.,0.3,0.));
#915=CARTESIAN_POINT('',(2.15,0.3,0.));
#916=CARTESIAN_POINT('',(0.,0.3,0.6));
#917=CARTESIAN_POINT('',(2.15,0.3,0.6));
#918=CARTESIAN_POINT('',(0.,0.3,-0.05));
#919=CARTESIAN_POINT('Origin',(4.,3.,0.));
#920=CARTESIAN_POINT('',(0.,6.,0.));
#921=CARTESIAN_POINT('',(0.,6.,0.));
#922=CARTESIAN_POINT('',(8.,6.,0.));
#923=CARTESIAN_POINT('',(8.,6.,0.));
#924=CARTESIAN_POINT('',(8.,0.,0.));
#925=CARTESIAN_POINT('',(8.,0.,0.));
#926=CARTESIAN_POINT('',(0.,0.,0.));
#927=CARTESIAN_POINT('',(7.175,2.375,0.));
#928=CARTESIAN_POINT('',(7.175,2.825,0.));
#929=CARTESIAN_POINT('Origin',(7.175,2.6,0.));
#930=CARTESIAN_POINT('',(4.825,2.825,0.));
#931=CARTESIAN_POINT('',(5.5875,2.825,0.));
#932=CARTESIAN_POINT('',(4.825,2.375,0.));
#933=CARTESIAN_POINT('Origin',(4.825,2.6,0.));
#934=CARTESIAN_POINT('',(4.4125,2.375,0.));
#935=CARTESIAN_POINT('',(3.19,2.39,0.));
#936=CARTESIAN_POINT('',(3.19,2.81,0.));
#937=CARTESIAN_POINT('Origin',(3.19,2.6,0.));
#938=CARTESIAN_POINT('',(0.81,2.81,0.));
#939=CARTESIAN_POINT('',(3.595,2.81,0.));
#940=CARTESIAN_POINT('',(0.81,2.39,0.));
#941=CARTESIAN_POINT('Origin',(0.81,2.6,0.));
#942=CARTESIAN_POINT('',(2.405,2.39,0.));
#943=CARTESIAN_POINT('',(6.76,1.,0.));
#944=CARTESIAN_POINT('Origin',(7.,1.,0.));
#945=CARTESIAN_POINT('',(5.57,1.,0.));
#946=CARTESIAN_POINT('Origin',(5.8,1.,0.));
#947=CARTESIAN_POINT('',(4.375,1.,0.));
#948=CARTESIAN_POINT('Origin',(4.6,1.,0.));
#949=CARTESIAN_POINT('',(3.18,1.,0.));
#950=CARTESIAN_POINT('Origin',(3.4,1.,0.));
#951=CARTESIAN_POINT('',(1.99,1.,0.));
#952=CARTESIAN_POINT('Origin',(2.2,1.,0.));
#953=CARTESIAN_POINT('',(0.8,1.,0.));
#954=CARTESIAN_POINT('Origin',(1.,1.,0.));
#955=CARTESIAN_POINT('',(3.16,4.16,0.));
#956=CARTESIAN_POINT('',(3.16,4.64,0.));
#957=CARTESIAN_POINT('Origin',(3.16,4.4,0.));
#958=CARTESIAN_POINT('',(0.84,4.64,0.));
#959=CARTESIAN_POINT('',(3.58,4.64,0.));
#960=CARTESIAN_POINT('',(0.84,4.16,0.));
#961=CARTESIAN_POINT('Origin',(0.84,4.4,0.));
#962=CARTESIAN_POINT('',(2.42,4.16,0.));
#963=CARTESIAN_POINT('Origin',(0.,6.,0.));
#964=CARTESIAN_POINT('',(0.,6.,0.6));
#965=CARTESIAN_POINT('',(0.,6.,0.6));
#966=CARTESIAN_POINT('',(0.,6.,0.));
#967=CARTESIAN_POINT('Origin',(6.,3.9,1.1));
#968=CARTESIAN_POINT('',(5.775,4.,1.1));
#969=CARTESIAN_POINT('Origin',(6.,4.,1.1));
#970=CARTESIAN_POINT('',(5.775,5.6,1.1));
#971=CARTESIAN_POINT('',(5.775,3.9,1.1));
#972=CARTESIAN_POINT('Origin',(6.,5.6,1.1));
#973=CARTESIAN_POINT('Origin',(7.,5.6,0.6));
#974=CARTESIAN_POINT('',(5.,5.6,0.6));
#975=CARTESIAN_POINT('',(7.,5.6,0.6));
#976=CARTESIAN_POINT('',(5.5,5.6,0.6));
#977=CARTESIAN_POINT('',(5.,5.6,1.6));
#978=CARTESIAN_POINT('',(5.,5.6,0.6));
#979=CARTESIAN_POINT('',(7.,5.6,1.6));
#980=CARTESIAN_POINT('',(7.,5.6,1.6));
#981=CARTESIAN_POINT('',(7.,5.6,0.6));
#982=CARTESIAN_POINT('Origin',(7.,4.,0.6));
#983=CARTESIAN_POINT('',(7.,4.,0.6));
#984=CARTESIAN_POINT('',(7.,3.5,0.6));
#985=CARTESIAN_POINT('',(7.,4.,1.6));
#986=CARTESIAN_POINT('',(7.,4.,1.6));
#987=CARTESIAN_POINT('',(7.,4.,0.6));
#988=CARTESIAN_POINT('Origin',(5.,4.,0.6));
#989=CARTESIAN_POINT('',(5.,4.,0.6));
#990=CARTESIAN_POINT('',(4.5,4.,0.6));
#991=CARTESIAN_POINT('',(5.,4.,1.6));
#992=CARTESIAN_POINT('',(5.,4.,1.6));
#993=CARTESIAN_POINT('',(5.,4.,0.6));
#994=CARTESIAN_POINT('Origin',(5.,5.6,0.6));
#995=CARTESIAN_POINT('',(5.,4.3,0.6));
#996=CARTESIAN_POINT('',(5.,5.6,1.6));
#997=CARTESIAN_POINT('Origin',(6.,4.8,1.6));
#998=CARTESIAN_POINT('Origin',(3.16,4.4,-0.1));
#999=CARTESIAN_POINT('',(3.16,4.64,0.6));
#1000=CARTESIAN_POINT('',(3.16,4.64,-0.1));
#1001=CARTESIAN_POINT('',(3.16,4.16,0.6));
#1002=CARTESIAN_POINT('',(3.16,4.16,-0.1));
#1003=CARTESIAN_POINT('Origin',(3.16,4.4,0.6));
#1004=CARTESIAN_POINT('Origin',(0.84,4.4,-0.1));
#1005=CARTESIAN_POINT('',(0.84,4.64,0.6));
#1006=CARTESIAN_POINT('',(0.84,4.64,-0.1));
#1007=CARTESIAN_POINT('',(0.84,4.16,0.6));
#1008=CARTESIAN_POINT('Origin',(0.84,4.4,0.6));
#1009=CARTESIAN_POINT('',(0.84,4.16,-0.1));
#1010=CARTESIAN_POINT('Origin',(0.84,4.16,-0.1));
#1011=CARTESIAN_POINT('',(2.42,4.16,0.6));
#1012=CARTESIAN_POINT('Origin',(3.16,4.64,-0.1));
#1013=CARTESIAN_POINT('',(3.58,4.64,0.6));
#1014=CARTESIAN_POINT('Origin',(7.175,2.6,-0.1));
#1015=CARTESIAN_POINT('',(7.175,2.825,0.6));
#1016=CARTESIAN_POINT('',(7.175,2.825,-0.1));
#1017=CARTESIAN_POINT('',(7.175,2.375,0.6));
#1018=CARTESIAN_POINT('',(7.175,2.375,-0.1));
#1019=CARTESIAN_POINT('Origin',(7.175,2.6,0.6));
#1020=CARTESIAN_POINT('Origin',(4.825,2.6,-0.1));
#1021=CARTESIAN_POINT('',(4.825,2.825,0.6));
#1022=CARTESIAN_POINT('',(4.825,2.825,-0.1));
#1023=CARTESIAN_POINT('',(4.825,2.375,0.6));
#1024=CARTESIAN_POINT('Origin',(4.825,2.6,0.6));
#1025=CARTESIAN_POINT('',(4.825,2.375,-0.1));
#1026=CARTESIAN_POINT('Origin',(4.825,2.375,-0.1));
#1027=CARTESIAN_POINT('',(4.4125,2.375,0.6));
#1028=CARTESIAN_POINT('Origin',(7.175,2.825,-0.1));
#1029=CARTESIAN_POINT('',(5.5875,2.825,0.6));
#1030=CARTESIAN_POINT('Origin',(3.19,2.6,-0.1));
#1031=CARTESIAN_POINT('',(3.19,2.81,0.6));
#1032=CARTESIAN_POINT('',(3.19,2.39,0.6));
#1033=CARTESIAN_POINT('Origin',(3.19,2.6,0.6));
#1034=CARTESIAN_POINT('',(3.19,2.81,-0.1));
#1035=CARTESIAN_POINT('',(3.19,2.39,-0.1));
#1036=CARTESIAN_POINT('Origin',(0.81,2.6,-0.1));
#1037=CARTESIAN_POINT('',(0.81,2.81,0.6));
#1038=CARTESIAN_POINT('',(0.81,2.81,-0.1));
#1039=CARTESIAN_POINT('',(0.81,2.39,0.6));
#1040=CARTESIAN_POINT('Origin',(0.81,2.6,0.6));
#1041=CARTESIAN_POINT('',(0.81,2.39,-0.1));
#1042=CARTESIAN_POINT('Origin',(4.,3.,0.6));
#1043=CARTESIAN_POINT('',(8.,0.,0.6));
#1044=CARTESIAN_POINT('',(0.,0.,0.6));
#1045=CARTESIAN_POINT('',(8.,6.,0.6));
#1046=CARTESIAN_POINT('',(8.,0.,0.6));
#1047=CARTESIAN_POINT('',(8.,6.,0.6));
#1048=CARTESIAN_POINT('',(2.405,2.39,0.6));
#1049=CARTESIAN_POINT('',(3.595,2.81,0.6));
#1050=CARTESIAN_POINT('',(0.8,1.,0.6));
#1051=CARTESIAN_POINT('Origin',(1.,1.,0.6));
#1052=CARTESIAN_POINT('',(1.99,1.,0.6));
#1053=CARTESIAN_POINT('Origin',(2.2,1.,0.6));
#1054=CARTESIAN_POINT('',(3.18,1.,0.6));
#1055=CARTESIAN_POINT('Origin',(3.4,1.,0.6));
#1056=CARTESIAN_POINT('',(4.375,1.,0.6));
#1057=CARTESIAN_POINT('Origin',(4.6,1.,0.6));
#1058=CARTESIAN_POINT('',(5.57,1.,0.6));
#1059=CARTESIAN_POINT('Origin',(5.8,1.,0.6));
#1060=CARTESIAN_POINT('',(6.76,1.,0.6));
#1061=CARTESIAN_POINT('Origin',(7.,1.,0.6));
#1062=CARTESIAN_POINT('Origin',(0.81,2.39,-0.1));
#1063=CARTESIAN_POINT('Origin',(3.19,2.81,-0.1));
#1064=CARTESIAN_POINT('Origin',(7.,1.,-0.1));
#1065=CARTESIAN_POINT('',(6.76,1.,-0.1));
#1066=CARTESIAN_POINT('Origin',(5.8,1.,-0.1));
#1067=CARTESIAN_POINT('',(5.57,1.,-0.1));
#1068=CARTESIAN_POINT('Origin',(4.6,1.,-0.1));
#1069=CARTESIAN_POINT('',(4.375,1.,-0.1));
#1070=CARTESIAN_POINT('Origin',(3.4,1.,-0.1));
#1071=CARTESIAN_POINT('',(3.18,1.,-0.1));
#1072=CARTESIAN_POINT('Origin',(2.2,1.,-0.1));
#1073=CARTESIAN_POINT('',(1.99,1.,-0.1));
#1074=CARTESIAN_POINT('Origin',(1.,1.,-0.1));
#1075=CARTESIAN_POINT('',(0.8,1.,-0.1));
#1076=CARTESIAN_POINT('Origin',(8.,6.,0.));
#1077=CARTESIAN_POINT('',(8.,6.,0.));
#1078=CARTESIAN_POINT('Origin',(8.,0.,0.));
#1079=CARTESIAN_POINT('',(8.,0.,0.));
#1080=CARTESIAN_POINT('Origin',(0.,0.,0.));
#1081=UNCERTAINTY_MEASURE_WITH_UNIT(LENGTH_MEASURE(0.001),#1085,
'DISTANCE_ACCURACY_VALUE',
'Maximum model space distance between geometric entities at asserted c
onnectivities');
#1082=UNCERTAINTY_MEASURE_WITH_UNIT(LENGTH_MEASURE(0.001),#1085,
'DISTANCE_ACCURACY_VALUE',
'Maximum model space distance between geometric entities at asserted c
onnectivities');
#1083=(
GEOMETRIC_REPRESENTATION_CONTEXT(3)
GLOBAL_UNCERTAINTY_ASSIGNED_CONTEXT((#1081))
GLOBAL_UNIT_ASSIGNED_CONTEXT((#1085,#1087,#1088))
REPRESENTATION_CONTEXT('','3D')
);
#1084=(
GEOMETRIC_REPRESENTATION_CONTEXT(3)
GLOBAL_UNCERTAINTY_ASSIGNED_CONTEXT((#1082))
GLOBAL_UNIT_ASSIGNED_CONTEXT((#1085,#1087,#1088))
REPRESENTATION_CONTEXT('','3D')
);
#1085=(
LENGTH_UNIT()
NAMED_UNIT(*)
SI_UNIT(.CENTI.,.METRE.)
);
#1086=(
LENGTH_UNIT()
NAMED_UNIT(*)
SI_UNIT($,.METRE.)
);
#1087=(
NAMED_UNIT(*)
PLANE_ANGLE_UNIT()
SI_UNIT($,.RADIAN.)
);
#1088=(
NAMED_UNIT(*)
SI_UNIT($,.STERADIAN.)
SOLID_ANGLE_UNIT()
);
#1089=SHAPE_DEFINITION_REPRESENTATION(#1090,#1091);
#1090=PRODUCT_DEFINITION_SHAPE('',$,#1093);
#1091=SHAPE_REPRESENTATION('',(#665),#1083);
#1092=PRODUCT_DEFINITION_CONTEXT('part definition',#1097,'design');
#1093=PRODUCT_DEFINITION('2026-09-10-23-27-56-369',
'HT01_\X2\5B5469FD53CA6A2A5B548BD57247\X0\',#1094,#1092);
#1094=PRODUCT_DEFINITION_FORMATION('',$,#1099);
#1095=PRODUCT_RELATED_PRODUCT_CATEGORY('HT01_\X2\5B5469FD53CA6A2A5B548BD57247\X0\',
'HT01_\X2\5B5469FD53CA6A2A5B548BD57247\X0\',(#1099));
#1096=APPLICATION_PROTOCOL_DEFINITION('international standard',
'automotive_design',2009,#1097);
#1097=APPLICATION_CONTEXT(
'Core Data for Automotive Mechanical Design Process');
#1098=PRODUCT_CONTEXT('part definition',#1097,'mechanical');
#1099=PRODUCT('2026-09-10-23-27-56-369','HT01_\X2\5B5469FD53CA6A2A5B548BD57247\X0\',
$,(#1098));
#1100=PRESENTATION_STYLE_ASSIGNMENT((#1101));
#1101=SURFACE_STYLE_USAGE(.BOTH.,#1102);
#1102=SURFACE_SIDE_STYLE('',(#1103));
#1103=SURFACE_STYLE_FILL_AREA(#1104);
#1104=FILL_AREA_STYLE('\X2\94A2\X0\ - \X2\7F0E5149\X0\',(#1105));
#1105=FILL_AREA_STYLE_COLOUR('\X2\94A2\X0\ - \X2\7F0E5149\X0\',#1106);
#1106=COLOUR_RGB('\X2\94A2\X0\ - \X2\7F0E5149\X0\',0.627450980392157,0.627450980392157,
0.627450980392157);
ENDSEC;
END-ISO-10303-21;
